<svg viewBox="24.78 54.28 127.43999999999997 127.43999999999997" fill="none" xmlns="http://www.w3.org/2000/svg" xmlns:xlink="http://www.w3.org/1999/xlink" overflow="visible" width="117.99999999999997px" height="117.99999999999997px"><rect id="Blush Background Color" fill="#f9f9f9" x="24.78" y="54.28" width="127.43999999999997" height="127.43999999999997"/><g id="Master/Character/Avatar"><g id="Group"><circle id="Mask" cx="89" cy="118" r="57" fill="#FBD6FF"/><mask id="mask0483f46ce-b89e-484c-ad84-c686755400d4" style="mask-type:alpha" maskUnits="userSpaceOnUse" x="32" y="61" width="114" height="114" fill="#ffffff"><circle id="Mask_2" cx="89" cy="118" r="57" fill="#ffffff"/></mask><g mask="url(#mask0483f46ce-b89e-484c-ad84-c686755400d4)"><g id="Head" transform="translate(2.44141 20) scale(2.119819859095982 2.1323556782286843)"><g id="Head/Short Hair"><g id="Hair"><path id="Fill 34" fill-rule="evenodd" clip-rule="evenodd" d="M25.6246 45.9757C25.7936 45.7277 25.9716 45.4797 26.1516 45.2207C26.7386 44.3727 27.0006 43.5167 27.3236 42.5167C28.0806 40.1667 28.8376 37.8177 29.5946 35.4687C29.8156 34.7837 30.0476 34.0787 30.5226 33.5377C31.9076 31.9627 34.4826 32.5267 36.4276 31.7437C37.7956 31.1927 39.1366 30.3777 40.6436 30.2997C42.1826 30.2197 43.7076 30.7897 45.1436 31.2667C47.3146 31.9867 49.2556 33.1707 50.3276 35.2667C51.4346 37.4297 51.7676 39.8907 52.3956 42.2377C53.0226 44.5857 54.0706 46.9927 56.1066 48.3177C56.3836 48.4977 56.6826 48.6627 56.8786 48.9287C57.0746 49.1937 57.1296 49.5997 56.9016 49.8377C56.6216 50.1297 56.1266 49.9997 55.7876 49.7797C55.4476 49.5597 55.1196 49.2587 54.7146 49.2547C54.6456 50.0587 54.9416 50.8867 55.5066 51.4627C54.4826 52.5687 52.3646 52.2547 51.7056 50.8997C51.1306 51.4067 51.2116 52.4647 51.8556 52.8797C46.8356 54.9017 41.2816 55.9727 35.9796 54.8897C34.9646 54.6827 33.9446 54.3887 33.0896 53.8027C32.2356 53.2157 31.5616 52.2947 31.4856 51.2617C31.0046 51.9107 30.6916 52.6837 30.5846 53.4857C29.3396 53.8147 27.9616 52.5877 28.1446 51.3127C28.2146 51.9757 27.5706 52.5687 26.9036 52.6007C26.2366 52.6337 25.6116 52.2257 25.2016 51.6997C24.3506 50.6067 24.2956 49.0567 24.7156 47.7377C24.9316 47.0587 25.2566 46.5157 25.6246 45.9757" fill="#8b95b2"/><rect id="Rectangle" x="37.1895" y="44.4042" width="8" height="17" rx="4" transform="rotate(10 37.1895 44.4042)" fill="#89a3f9"/><path id="Fill 44" fill-rule="evenodd" clip-rule="evenodd" d="M43.0849 57.1585C38.0049 56.7165 35.7188 49.4616 35.7188 49.4616L43.9835 51.9485L43.0849 57.1585Z" fill="#7294e8"/><path id="Fill 36" fill-rule="evenodd" clip-rule="evenodd" d="M58.9156 49.3195C59.1536 49.3195 59.3506 49.1305 59.3566 48.8905C59.3946 47.6505 58.3516 46.7305 57.4466 46.3205C56.9356 46.0885 56.3986 45.9475 55.8816 45.8115C55.4606 45.7005 55.0626 45.5955 54.6826 45.4465C52.8416 44.7275 51.4766 42.8475 51.3626 40.8755C51.3486 40.6325 51.1566 40.4515 50.8956 40.4595C50.6526 40.4735 50.4666 40.6825 50.4796 40.9255C50.6156 43.2685 52.1746 45.4165 54.3596 46.2695C54.7886 46.4375 55.2296 46.5535 55.6566 46.6655C56.1606 46.7985 56.6376 46.9235 57.0816 47.1255C57.7906 47.4465 58.4966 48.1095 58.4746 48.8645C58.4666 49.1085 58.6586 49.3125 58.9026 49.3195C58.9066 49.3195 58.9116 49.3195 58.9156 49.3195" fill="#62729f"/><path id="Fill 38" fill-rule="evenodd" clip-rule="evenodd" d="M36.8359 51.1764V51.1784C36.8369 51.1784 36.8369 51.1804 36.8399 51.1804L36.8359 51.1764Z" fill="#523E8C"/><path id="Fill 46" fill-rule="evenodd" clip-rule="evenodd" d="M29.2245 44.1501C28.8115 45.9341 29.9205 47.7121 31.7025 48.1261C33.4845 48.5381 35.2625 47.4271 35.6755 45.6471C36.0885 43.8651 34.9775 42.0871 33.1965 41.6741C31.4155 41.2611 29.6365 42.3691 29.2245 44.1501" fill="#89a3f9"/><path id="Fill 48" fill-rule="evenodd" clip-rule="evenodd" d="M33.3547 46.1188C33.3547 46.1188 33.8957 43.7808 31.5757 43.6308Z" fill="#7294e8"/><path id="Fill 50" fill-rule="evenodd" clip-rule="evenodd" d="M40.9225 53.2731V53.2731C45.1215 53.9561 49.1185 51.2001 49.7925 47.7901L51.3335 39.7331C52.1745 35.4601 50.0145 31.3721 45.7705 30.3871C41.4255 29.3811 35.7845 31.8251 34.7775 36.1691L33.6105 42.6631C32.7065 47.6851 35.9515 52.1211 40.9225 53.2731" fill="#89a3f9"/><path id="Fill 54" fill-rule="evenodd" clip-rule="evenodd" d="M33.2905 46.8478L33.6355 52.5538L30.5625 50.9238L33.2905 46.8478Z" fill="#FFD000"/><path id="Fill 56" fill-rule="evenodd" clip-rule="evenodd" d="M33.2906 46.8478L34.0746 52.7418L33.6356 52.5538L33.2906 46.8478Z" fill="#A88000"/><path id="Fill 90" fill-rule="evenodd" clip-rule="evenodd" d="M31.7939 39.9396C32.1059 36.4736 33.9389 33.1026 36.8739 31.2326C39.8079 29.3626 43.8239 29.1746 46.7609 31.0406C47.4339 31.4676 48.0429 31.9916 48.5779 32.5816C48.7809 32.8066 49.1109 33.0046 48.9299 33.3086C48.7779 33.5646 48.4809 33.7006 48.2159 33.8086C46.0299 34.7046 43.7599 35.3866 41.6059 36.3616C40.0829 37.0516 38.4399 37.9046 37.2849 39.1456C37.0679 39.3776 36.9139 39.6486 36.7289 39.9046C36.4579 40.2776 36.1049 40.5786 35.8529 40.9656C35.6159 41.3306 35.4439 41.7396 35.3579 42.1666C35.2019 42.9376 35.3119 43.7356 35.2749 44.5226C35.2719 44.5896 35.2639 44.6666 35.2109 44.7096C35.1699 44.7416 35.1139 44.7466 35.0629 44.7456C34.4149 44.7436 33.8579 44.3096 33.3709 43.8836C32.9429 43.5106 32.5189 43.1206 32.2139 42.6406C31.9419 42.2106 31.8359 41.7706 31.8139 41.2696C31.8059 41.0986 31.7519 40.9376 31.7479 40.7666C31.7399 40.4926 31.7699 40.2116 31.7939 39.9396" fill="#8b95b2"/><path id="Fill 92" fill-rule="evenodd" clip-rule="evenodd" d="M35.5452 37.3903C35.5452 37.3903 38.9932 32.5303 34.4612 30.6233C30.1442 28.8083 27.1732 32.7643 27.6352 35.3193C28.0972 37.8733 31.4092 39.0923 31.4092 39.0923L35.5452 37.3903Z" fill="#8b95b2"/><path id="Fill 94" fill-rule="evenodd" clip-rule="evenodd" d="M23.6976 52.9746C23.9376 52.9306 24.0966 52.7006 24.0536 52.4606C23.6446 50.2216 24.5796 47.7806 26.3786 46.3856C27.0796 45.8426 27.8806 45.4546 28.7276 45.0446C29.6536 44.5956 30.6126 44.1306 31.4316 43.4436C32.9276 42.1886 33.8086 40.2746 33.7896 38.3226C33.7876 38.1056 33.6276 37.9216 33.4126 37.8906C32.5456 37.7626 31.7996 37.3046 31.2456 36.9196C30.3936 36.3276 29.8256 35.2906 29.7636 34.2126C29.7346 33.7396 29.8036 33.2536 29.9546 32.7896C30.0586 33.2256 30.2316 33.6166 30.3936 33.9386C30.9216 34.9826 31.9196 35.7486 33.0636 35.9846C33.3056 36.0366 33.5366 35.8796 33.5866 35.6416C33.6366 35.4026 33.4816 35.1686 33.2436 35.1196C32.3736 34.9396 31.5836 34.3346 31.1826 33.5406C30.6906 32.5626 30.6116 31.8216 30.9286 31.1406C31.0196 30.9426 30.9546 30.7086 30.7736 30.5866C30.5926 30.4656 30.3496 30.4956 30.2036 30.6546C29.2866 31.6486 28.8046 32.9636 28.8806 34.2646C28.9606 35.6266 29.6566 36.8906 30.7416 37.6456C31.2946 38.0296 32.0216 38.4796 32.8976 38.6896C32.8116 40.2536 32.0676 41.7566 30.8636 42.7666C30.1286 43.3836 29.2616 43.8036 28.3426 44.2496C27.4916 44.6616 26.6116 45.0876 25.8376 45.6876C23.7846 47.2786 22.7186 50.0646 23.1836 52.6186C23.2226 52.8326 23.4086 52.9816 23.6176 52.9816C23.6436 52.9816 23.6716 52.9796 23.6976 52.9746Z" fill="#62729f"/><path id="Fill 96" fill-rule="evenodd" clip-rule="evenodd" d="M33.4081 36.0216C33.3921 35.3386 33.5701 34.6526 33.9151 34.0636C34.0411 33.8496 34.2001 33.6386 34.4291 33.5416C34.6571 33.4426 34.9671 33.4996 35.0811 33.7206C35.1471 33.8466 35.1381 33.9976 35.1191 34.1386C35.0101 34.9606 34.6001 35.7396 33.9841 36.2966C33.9131 36.3606 33.8291 36.4256 33.7341 36.4186C33.6371 36.4116 33.5631 36.3336 33.4941 36.2656C33.0481 35.8236 32.3851 35.6126 31.7651 35.7156C31.6661 35.7316 31.5621 35.7596 31.4951 35.8346C31.3651 35.9786 31.4501 36.2266 31.6131 36.3316C31.7751 36.4376 31.9811 36.4406 32.1751 36.4396C32.7301 36.4396 33.2851 36.4386 33.8401 36.4386" fill="#62729f"/><path id="Fill 98" fill-rule="evenodd" clip-rule="evenodd" d="M47.2496 41.8361C46.7536 41.7971 46.2546 41.7381 45.7876 41.5681C44.6396 41.1501 43.7796 40.0331 43.6706 38.8161C43.3666 39.4161 43.1946 40.0821 43.1706 40.7541C42.0216 40.9231 40.8066 40.1721 40.4436 39.0691C39.7986 39.5731 39.3846 40.3621 39.3376 41.1791C38.6486 41.3011 37.9306 41.2561 37.2626 41.0501C37.0426 40.9821 36.8176 40.8901 36.6786 40.7071C36.5526 40.5411 36.5156 40.3261 36.4916 40.1191C36.4006 39.3321 36.4436 38.5311 36.6106 37.7571C36.6676 37.4921 36.7396 37.2301 36.8256 36.9721C36.8936 36.7691 36.9036 36.5651 36.9456 36.3541C37.0276 35.9421 37.1466 35.5391 37.2996 35.1491C37.6046 34.3661 38.0436 33.6381 38.5826 32.9951C39.6546 31.7161 41.1356 30.7661 42.7746 30.4171C45.7726 29.7781 49.0996 31.1861 50.7286 33.7831C50.9736 34.1721 51.1816 34.5851 51.3346 35.0181C51.4116 35.2331 51.4736 35.4541 51.5196 35.6781C51.5376 35.7661 51.5326 35.8781 51.5596 35.9611C51.6276 36.1771 51.8876 36.3641 52.0656 36.4901C52.1926 36.5791 52.3106 36.6741 52.4336 36.7671C52.5966 36.8891 54.3326 37.7231 54.3586 37.6861C53.9986 38.1871 53.4656 38.5611 52.8726 38.7311C53.1996 38.8661 53.5646 39.0401 53.6686 39.3781C53.8296 39.9001 53.2756 40.3431 52.7986 40.6101C50.8606 41.6951 49.4606 42.0081 47.2496 41.8361" fill="#8b95b2"/></g></g></g><g id="Upper Body" transform="translate(-53 26.5178) scale(2.1294117647058823 2.124879991686022)"><g id="Upper Body/Passport"><g id="Upper"><path id="Fill 1" fill-rule="evenodd" clip-rule="evenodd" d="M98.4141 84.609C98.4101 84.608 97.1084 82.9501 97.1084 82.9501C98.1334 83.0381 99.2444 82.9681 100.414 82.7531C101.586 82.5391 102.813 82.1811 104.057 81.7241C105.304 81.2701 106.571 80.7181 107.847 80.1121C109.125 79.5031 110.411 78.8411 111.717 78.1481C113.635 77.1311 116.011 77.8611 117.028 79.7781C117.996 81.6051 117.366 83.8591 115.645 84.9451C114.348 85.7611 113.025 86.5701 111.645 87.3541C110.265 88.1401 108.832 88.9011 107.308 89.5901C105.782 90.2791 104.163 90.9011 102.412 91.3631C100.664 91.8241 98.7744 92.1231 96.7994 92.1131C95.5354 92.1081 94.4014 91.5561 93.6204 90.6801L93.4384 90.4741C93.4384 90.4741 76.1874 70.9801 76.1714 70.9621C74.6164 69.2051 74.4504 66.6641 75.6264 64.6651C77.1044 62.1521 79.2734 62.5171 81.6954 63.0821C85.6904 64.0171 88.4954 69.4581 90.9044 72.5021C93.5484 75.8431 96.1924 79.1861 98.8364 82.5261C99.2284 83.0221 97.8311 83.3621 98.4141 83.6451V84.609Z" fill="#89a3f9"/><path id="Fill 3" fill-rule="evenodd" clip-rule="evenodd" d="M125.105 76.6218C124.374 78.1908 120.384 81.1428 119.427 82.2418C118.468 83.3338 114.296 85.6448 114.296 85.6448L110.94 82.5678C110.94 82.5678 110.421 81.6638 111.72 78.5588C113.012 75.4498 115.254 70.2268 116.199 70.3048C117.111 70.3818 116.568 74.3368 116.425 75.1718L116.411 75.2508C116.4 75.3008 116.425 75.2988 116.489 75.2618C117.186 74.8018 122.272 68.8518 123.107 69.3518C123.359 69.5068 123.688 70.0298 124.013 70.7318C124.033 70.7798 124.055 70.8278 124.077 70.8838C124.306 71.4018 124.535 72.0118 124.725 72.6358C124.746 72.6918 124.76 72.7448 124.775 72.8038C124.959 73.4308 125.111 74.0728 125.197 74.6578C125.203 74.7228 125.211 74.7808 125.217 74.8398C125.313 75.5778 125.295 76.2198 125.105 76.6218" fill="#89a3f9"/><path id="Fill 5" fill-rule="evenodd" clip-rule="evenodd" d="M115.945 79.8513L115.941 79.8503C115.901 79.8373 115.878 79.7933 115.89 79.7543C116.465 77.9493 116.435 75.2183 116.433 75.1903C116.432 75.1473 116.467 75.1153 116.509 75.1133C116.55 75.1113 116.587 75.1473 116.588 75.1883C116.587 75.2163 116.619 77.9733 116.038 79.8003C116.026 79.8393 115.986 79.8603 115.945 79.8513" fill="#BB96FD"/><path id="Fill 7" fill-rule="evenodd" clip-rule="evenodd" d="M76.3946 83.6721C76.2556 83.4431 76.1236 83.2101 75.9986 82.9721C75.9416 82.8631 75.8856 82.7531 75.8326 82.6421C75.3776 81.7111 75.0446 80.7201 74.8426 79.7041C74.7486 79.2351 74.6366 78.8021 74.7216 78.3321C74.8226 77.7721 74.9096 77.2101 74.9746 76.6461C75.0166 76.2831 75.0506 75.9201 75.0726 75.5551C75.2616 72.5331 74.7156 69.4991 74.9376 66.4801C75.1126 64.1061 75.8716 61.5801 77.6076 59.8721C77.9806 59.5051 78.4966 59.0051 78.9986 58.8271C79.4986 58.6501 80.2216 58.9021 80.7156 59.0471C81.9366 59.4041 83.0606 60.0501 84.0356 60.8621C84.8626 61.5511 85.5856 62.3631 86.1946 63.2521C84.9276 63.8151 83.6606 64.3771 82.3936 64.9411C81.7816 65.2121 81.6886 66.0591 81.9646 66.5801C82.2886 67.1951 83.0316 67.2631 83.6026 67.0101C83.6026 67.0101 87.3576 65.3401 87.3586 65.3401C87.4846 65.2841 88.4156 68.4411 88.4896 68.7221C88.5496 68.9561 88.6606 69.1691 88.7796 69.3851C89.0296 69.8381 89.3226 70.2671 89.6336 70.6811C90.1116 71.3171 90.6356 71.9161 91.1406 72.5311C91.3096 72.7361 91.4926 72.9311 91.5996 73.1761C91.7176 73.4481 91.8386 73.6541 92.0246 73.8911C92.5066 74.5041 92.9886 75.1161 93.4706 75.7291L96.3626 79.4041C96.6226 79.7351 96.8826 80.0661 97.1436 80.3961C97.3286 80.6321 97.5236 80.8951 97.5156 81.1941C97.5086 81.4551 97.3496 81.6841 97.2016 81.8991C96.1126 83.4811 95.3316 85.2741 94.9126 87.1491C94.5656 88.7011 94.5416 90.5261 95.6626 91.6551C95.7826 91.7771 95.9206 91.8981 95.9616 92.0641C96.0876 92.5721 95.3246 92.7681 94.8046 92.7111C92.8806 92.5011 90.9566 92.2901 89.0326 92.0791C87.0246 91.8591 84.9196 91.6711 82.9906 91.0101C81.7576 90.5891 80.5806 89.9211 79.7476 88.9181C79.2566 88.3261 78.8996 87.6361 78.5456 86.9531C78.3696 86.6101 78.1916 86.2681 78.0146 85.9251C77.8616 85.6281 77.7306 85.2831 77.4986 85.0371C77.3526 84.8811 77.1686 84.7711 77.0276 84.6071C76.7846 84.3251 76.5876 83.9891 76.3946 83.6721" fill="#F77DCE"/><path id="Fill 9" fill-rule="evenodd" clip-rule="evenodd" d="M80.5826 77.135C80.9556 75.509 81.3286 73.88 81.7006 72.251C81.8406 71.64 82.5776 71.222 83.1756 71.414C83.8146 71.622 84.1616 72.233 84.0106 72.888C83.6386 74.517 83.2656 76.143 82.8926 77.772C82.7526 78.384 82.0166 78.803 81.4196 78.609C80.7786 78.401 80.4326 77.79 80.5826 77.135" fill="#FED600"/><g id="Group 13"><path id="Fill 11" fill-rule="evenodd" clip-rule="evenodd" d="M42.4368 64.6858C42.5478 64.2988 42.5848 63.8938 42.6928 63.5148C42.8048 63.1248 43.1428 62.7428 43.3678 62.4108C43.8898 61.6378 44.4608 60.8918 45.1408 60.2488C46.1748 59.2748 47.5058 58.5448 48.9258 58.5068C49.9948 58.4778 51.0318 58.8358 52.0418 59.1898C52.7238 59.4298 53.4478 59.6978 53.8818 60.2768C54.2838 60.8128 54.3618 61.5188 54.4038 62.1878C54.4508 62.9388 54.4698 63.6908 54.4598 64.4428C54.4508 65.1138 54.4998 65.8848 54.3408 66.5378C54.2378 66.9578 54.0698 67.3738 53.9358 67.7858C53.5248 69.0438 53.1098 70.3008 52.6898 71.5568C52.1488 73.1768 51.5998 74.7938 51.0408 76.4078C50.4398 78.1428 49.8278 79.8728 49.1968 81.5968C48.6098 83.1998 48.0078 84.7968 47.3688 86.3798C46.8738 87.6068 46.3638 88.8338 45.7688 90.0158C45.6038 90.3438 45.4318 90.6698 45.2388 90.9828C45.1438 91.1378 44.9718 91.5128 44.7978 91.5938C39.5858 94.0038 19.5768 100.086 17.6468 100.859C16.7888 101.202 15.3408 101.874 14.5388 102.638C12.7558 104.334 12.1128 105.211 10.4288 106.891C8.51281 108.804 2.00851 103.929 4.01291 100.859C4.80959 99.6384 6.97981 98.2708 9.77581 97.1168C11.0408 96.5948 35.7868 84.7028 37.1058 83.2698L42.4368 64.6858Z" fill="#89a3f9"/></g><path id="Fill 14" fill-rule="evenodd" clip-rule="evenodd" d="M15.4967 106.897C15.6221 106.695 15.4199 106.453 15.2289 106.311C14.1892 105.542 12.9388 105.062 11.6512 104.939C11.0877 104.885 10.4882 104.907 10.002 105.196C9.58879 105.442 9.32483 105.887 9.24592 106.355C9.1867 106.705 8.13358 106.891 8.51679 107.072C8.72728 107.172 9.45649 107.429 13.0915 107.429C13.8606 107.429 14.4761 107.221 15.1603 107.072C15.2873 107.045 15.4279 107.007 15.4967 106.897Z" fill="#89a3f9"/><path id="Fill 16" fill-rule="evenodd" clip-rule="evenodd" d="M38.294 73.0525C38.156 74.7345 38.248 76.4445 37.89 78.0935C37.533 79.7425 36.617 81.3925 35.073 82.0725C34.445 82.3485 33.747 82.4505 33.141 82.7715C31.888 83.4335 31.252 85.0715 31.731 86.4055C36.117 86.9275 39.052 91.0495 41.321 94.8395C41.507 95.1495 41.719 95.4825 42.061 95.6005C42.44 95.7315 42.852 95.5545 43.199 95.3555C46.02 93.7325 47.486 90.5275 48.578 87.4605C51.275 79.8815 52.756 71.8715 52.961 63.8285C52.987 62.8125 52.992 61.7955 52.978 60.7795C52.966 59.9835 53.064 59.0505 52.731 58.3025C52.127 56.9455 50.677 57.0685 49.516 57.5665C46.643 58.7995 44.111 60.8535 42.193 63.3115C40.014 66.1065 38.585 69.5085 38.294 73.0525" fill="#F77DCE"/><path id="Fill 18" fill-rule="evenodd" clip-rule="evenodd" d="M45.2181 66.5422C46.2511 65.4202 47.2831 64.3002 48.3171 63.1792C48.7411 62.7192 49.5581 62.6602 50.0101 63.1202C50.4681 63.5852 50.5241 64.3202 50.0701 64.8142C49.0361 65.9352 48.0041 67.0562 46.9711 68.1752C46.5471 68.6362 45.7301 68.6942 45.2781 68.2352C44.8201 67.7702 44.7631 67.0342 45.2181 66.5422" fill="#FED600"/><path id="Fill 20" fill-rule="evenodd" clip-rule="evenodd" d="M42.3276 85.7083L47.5096 82.4503C48.0416 82.1143 48.8606 82.3723 49.1346 82.9293C49.4356 83.5413 49.2236 84.1973 48.6556 84.5543L43.4736 87.8123C42.9416 88.1473 42.1216 87.8903 41.8486 87.3343C41.5476 86.7203 41.7596 86.0663 42.3276 85.7083" fill="#FED600"/><path id="Fill 22" fill-rule="evenodd" clip-rule="evenodd" d="M81.9642 66.5803C81.6882 66.0593 81.7812 65.2123 82.3932 64.9413C83.6602 64.3773 84.9272 63.8143 86.1942 63.2513C86.4122 63.5703 86.6172 63.8983 86.8042 64.2353C87.0052 64.5963 87.1892 64.9653 87.3582 65.3403L83.6032 67.0103C83.0312 67.2633 82.2882 67.1953 81.9642 66.5803" fill="#FED600"/><path id="Fill 24" fill-rule="evenodd" clip-rule="evenodd" d="M80.5826 77.135C80.9556 75.509 81.3286 73.88 81.7006 72.251C81.8406 71.64 82.5776 71.222 83.1756 71.414C83.8146 71.622 84.1616 72.233 84.0106 72.888C83.6386 74.517 83.2656 76.143 82.8926 77.772C82.7526 78.384 82.0166 78.803 81.4196 78.609C80.7786 78.401 80.4326 77.79 80.5826 77.135" fill="#FED600"/><path id="Fill 26" fill-rule="evenodd" clip-rule="evenodd" d="M82.2307 86.7732L87.1117 84.5442C87.4137 84.4062 87.7047 84.3322 88.0357 84.4232C88.3127 84.5002 88.6147 84.7142 88.7517 84.9742C89.0287 85.5012 88.9297 86.3352 88.3227 86.6132C86.6947 87.3562 85.0677 88.1002 83.4407 88.8422C83.1397 88.9812 82.8477 89.0542 82.5177 88.9632C82.2387 88.8872 81.9387 88.6722 81.8017 88.4132C81.5227 87.8862 81.6217 87.0512 82.2307 86.7732" fill="#FED600"/><path id="Fill 28" fill-rule="evenodd" clip-rule="evenodd" d="M90.6621 78.8699C90.7381 78.5919 90.9541 78.2909 91.2121 78.1539C91.8371 77.8239 92.4541 78.0429 92.8511 78.5839C94.0101 80.1569 95.1671 81.7309 96.3241 83.3069C96.4971 83.5409 96.5191 83.9589 96.4451 84.2279C96.3681 84.5069 96.1531 84.8069 95.8941 84.9449C95.2691 85.2759 94.6521 85.0559 94.2551 84.5159C93.0981 82.9409 91.9401 81.3669 90.7831 79.7919C90.6101 79.5569 90.5881 79.1389 90.6621 78.8699" fill="#FED600"/><path id="Fill 30" fill-rule="evenodd" clip-rule="evenodd" d="M92.4353 85.3689C92.6573 84.5949 93.1443 83.9109 93.7143 83.2799C94.1423 82.8059 94.5703 82.3319 94.9983 81.8579C95.5003 81.3029 96.0823 80.7059 96.8313 80.6649C97.4873 80.6279 98.0783 81.0339 98.6093 81.4219C98.8713 81.6129 99.1333 81.8039 99.3953 81.9949C99.4543 82.0369 99.5153 82.0839 99.5393 82.1529C99.5603 82.2189 99.5433 82.2899 99.5243 82.3569C99.4713 82.5559 99.3553 82.8029 99.3833 83.0119C99.3923 83.0769 99.4373 83.1309 99.4503 83.1949C99.4893 83.3899 99.4353 83.5939 99.4183 83.7889C99.2163 86.0389 99.5663 88.3399 100.426 90.4279C100.609 90.8739 100.807 91.4149 100.522 91.8039C100.275 92.1399 99.4563 92.3879 99.0793 92.5469C98.5803 92.7579 98.0653 92.9309 97.5403 93.0669C96.6363 93.2989 95.6183 93.4939 94.6823 93.3579C93.0483 93.1189 92.7103 91.3909 92.6173 90.0109C92.5723 89.3549 92.6243 88.7009 92.5933 88.0469C92.5723 87.6089 92.4103 87.2139 92.3453 86.7859C92.2673 86.2799 92.3083 85.8089 92.4353 85.3689" fill="#E24BC6"/><path id="Fill 32" fill-rule="evenodd" clip-rule="evenodd" d="M47.8025 80.1588C47.8905 80.4894 47.9785 80.8201 48.0665 81.1508C48.0945 81.2572 48.1525 81.3712 48.1685 81.4786C48.1995 81.6724 48.1605 81.8909 48.1585 82.0867C48.1535 82.4905 48.1615 82.8943 48.2015 83.2972C48.2355 83.6478 48.2945 83.9975 48.2885 84.349C48.2775 84.8745 48.1205 85.3894 48.0015 85.9054C47.7815 86.8594 47.6915 87.8352 47.7305 88.8072C47.7405 89.0514 47.7585 89.2956 47.7855 89.5388C47.8095 89.7574 47.8545 89.9768 47.8475 90.1973C47.8385 90.4994 47.6695 90.7702 47.5815 91.0591C47.4495 91.4914 47.1855 91.9646 47.3775 92.4112C47.5675 92.8511 48.0015 93.2112 48.4955 93.4003C49.2535 93.6901 50.1175 93.6654 50.9465 93.635C52.5015 93.578 54.0575 93.521 55.6125 93.463C56.3905 93.4345 57.1675 93.406 57.9455 93.3775C58.3345 93.3632 58.7235 93.349 59.1125 93.3347C59.5925 93.3167 60.0235 93.4497 60.5065 93.5029C63.0945 93.788 65.7025 93.3338 68.2955 93.0962C71.5515 92.7988 74.8395 92.8444 78.1045 93.0516C78.9785 93.1076 79.8805 93.1703 80.7415 92.9936C81.0965 92.9214 81.4055 92.8064 81.7745 92.8055C82.4935 92.8045 83.1425 92.5024 83.5745 91.994C84.3125 91.1256 84.4115 89.9122 84.2595 88.8062C84.1085 87.7002 83.7435 86.6237 83.6715 85.5111C83.5735 83.9823 84.0365 82.4667 84.0195 80.936C83.9965 78.7858 83.0395 76.7591 82.3165 74.721C81.4285 72.2164 80.8795 69.6053 80.6805 66.9705C80.5895 65.7638 80.7625 64.4725 80.5255 63.2857C80.4535 62.9237 80.3045 62.5855 80.1995 62.233C80.1345 62.0097 80.0855 61.7854 80.0515 61.5555C80.0265 61.3892 80.0125 61.2201 79.9995 61.0529C79.9655 60.6158 80.1695 59.8984 80.0005 59.4955C79.9055 59.2684 79.7435 59.0537 79.5775 58.8675C79.2265 58.4741 78.7705 58.1672 78.2755 57.9553C77.6305 57.6798 76.9255 57.5543 76.2235 57.4973C75.8765 57.4688 75.5805 57.4536 75.2465 57.3567C74.9015 57.2569 74.5535 57.1629 74.2055 57.0755C72.8585 56.7344 71.4905 56.475 70.1155 56.2564C69.8145 56.2089 69.5365 56.1491 69.2345 56.1994C68.7575 56.2811 68.2785 56.2118 67.7985 56.1795C66.6295 56.1006 65.4605 56.0274 64.2915 55.9571C63.1925 55.8916 62.0935 55.8307 60.9945 55.7728C58.5715 55.6474 56.1295 55.5409 53.7305 55.8821C53.0015 55.9866 52.2665 56.1358 51.6255 56.4807C51.3425 56.6336 51.0815 56.8275 50.8635 57.0584C50.6455 57.2883 50.5155 57.5705 50.3085 57.8071C50.1625 57.9724 49.9935 58.1102 49.8725 58.2964C49.6705 58.6071 49.5845 58.9568 49.4845 59.3036C49.2835 60.0039 49.0815 60.7032 48.8805 61.4025C48.3895 63.11 47.8985 64.8165 47.4075 66.523C46.9855 67.99 46.5625 69.4571 46.1405 70.9251C46.0025 71.404 45.8655 71.8819 45.7275 72.3608C46.4185 74.9604 47.1105 77.5591 47.8025 80.1588Z" fill="#FF87D0"/><path id="Fill 42" fill-rule="evenodd" clip-rule="evenodd" d="M67.5534 54.3279C67.5534 54.3279 61.0647 53.991 60.9997 54.009C60.1267 54.248 59.1018 54.486 58.2278 54.725C57.0048 55.059 55.7828 55.393 54.5608 55.727C54.0888 55.856 53.6178 55.985 53.1468 56.114C52.9988 56.154 52.8288 56.178 52.6878 56.239C52.3178 56.397 53.0348 57.02 53.1808 57.181C54.3678 58.497 55.8218 59.565 57.4168 60.336C59.0128 61.108 60.7528 61.585 62.5208 61.722C63.4028 61.79 64.2928 61.773 65.1708 61.665C65.3858 61.639 65.5958 61.603 65.8108 61.593C66.0218 61.582 66.2098 61.507 66.4118 61.443L70.5241 61.665C72.7901 61.038 74.8598 60.8126 77.1258 60.1856H78.918C79.427 60.0656 77.6308 57.631 77.1258 57.501L69.7098 55.594C69.4678 55.532 68.9373 55.1962 69.0847 54.4003L67.5534 54.3279Z" fill="#89a3f9"/><path id="Fill 100" fill-rule="evenodd" clip-rule="evenodd" d="M74.179 65.8777C74.639 64.0317 75.1 62.1857 75.56 60.3387C75.711 59.7297 76.429 59.3057 77.033 59.5017C77.663 59.7057 78.033 60.3227 77.871 60.9767C77.41 62.8227 76.95 64.6687 76.491 66.5147C76.338 67.1227 75.621 67.5477 75.016 67.3517C74.386 67.1477 74.016 66.5307 74.179 65.8777" fill="#FED600"/><path id="Fill 102" fill-rule="evenodd" clip-rule="evenodd" d="M70.5705 71.8543C70.7835 71.1953 71.3825 70.8923 72.0445 71.0173C74.0415 71.3943 76.0385 71.7723 78.0355 72.1503C78.6525 72.2673 79.0595 73.0433 78.8725 73.6243C78.6585 74.2823 78.0595 74.5853 77.3985 74.4613C75.4015 74.0833 73.4035 73.7063 71.4075 73.3293C70.7905 73.2103 70.3825 72.4353 70.5705 71.8543" fill="#FED600"/><path id="Fill 104" fill-rule="evenodd" clip-rule="evenodd" d="M70.2028 80.6658C70.7998 80.9428 71.1008 81.6038 70.8568 82.2298C70.2348 83.8138 69.6138 85.3998 68.9938 86.9848C68.7648 87.5688 68.0108 87.9078 67.4298 87.6368C66.8328 87.3598 66.5308 86.6988 66.7758 86.0738C67.3978 84.4898 68.0188 82.9038 68.6388 81.3188C68.8688 80.7358 69.6218 80.3978 70.2028 80.6658" fill="#FED600"/><path id="Fill 106" fill-rule="evenodd" clip-rule="evenodd" d="M76.5685 82.0442C77.7505 80.6222 78.9335 79.1992 80.1165 77.7752C80.5175 77.2942 81.3125 77.1622 81.8015 77.5952C82.2825 78.0192 82.4105 78.7642 81.9825 79.2812C80.7985 80.7052 79.6165 82.1272 78.4335 83.5492C78.0335 84.0312 77.2385 84.1622 76.7485 83.7302C76.2675 83.3062 76.1395 82.5612 76.5685 82.0442" fill="#FED600"/><path id="Fill 108" fill-rule="evenodd" clip-rule="evenodd" d="M79.3041 92.0261L80.2231 87.3691C80.3451 86.7521 81.1131 86.3431 81.6971 86.5321C82.3521 86.7441 82.6641 87.3461 82.5341 88.0061L81.6151 92.6631C81.4941 93.2791 80.7241 93.6891 80.1411 93.5001C79.4861 93.2881 79.1751 92.6861 79.3041 92.0261" fill="#FED600"/><path id="Fill 110" fill-rule="evenodd" clip-rule="evenodd" d="M60.8019 85.8377C60.1469 85.7317 59.6949 85.1757 59.7519 84.5067C59.9279 82.4937 60.1039 80.4827 60.2789 78.4697C60.3339 77.8437 60.9849 77.3177 61.6099 77.4187C62.2659 77.5257 62.7179 78.0807 62.6599 78.7497C62.4839 80.7627 62.3089 82.7737 62.1339 84.7867C62.0779 85.4127 61.4279 85.9387 60.8019 85.8377" fill="#FED600"/><path id="Fill 112" fill-rule="evenodd" clip-rule="evenodd" d="M69.1619 91.8626C70.4339 90.7686 71.7069 89.6746 72.9799 88.5806C73.2239 88.3706 73.4949 88.2306 73.8269 88.2306C74.1199 88.2306 74.4729 88.3616 74.6739 88.5806C75.0859 89.0296 75.1819 89.8396 74.6739 90.2766C73.4019 91.3686 72.1289 92.4636 70.8559 93.5566C70.6119 93.7666 70.3409 93.9076 70.0089 93.9076C69.7149 93.9076 69.3649 93.7776 69.1619 93.5566C68.7499 93.1086 68.6549 92.2996 69.1619 91.8626" fill="#FED600"/><path id="Fill 114" fill-rule="evenodd" clip-rule="evenodd" d="M57.0296 88.1477C57.3881 89.5432 57.7466 90.9372 58.1051 92.332C58.2229 92.7926 58.8091 93.1108 59.2951 92.9638C59.807 92.81 60.0976 92.3455 59.9701 91.854C59.6124 90.457 59.2539 89.063 58.8947 87.6674C58.7768 87.2076 58.1906 86.8902 57.7054 87.0357C57.1927 87.191 56.9029 87.6554 57.0296 88.1477" fill="#FED600"/><path id="Fill 116" fill-rule="evenodd" clip-rule="evenodd" d="M51.3784 89.5442C51.8964 87.9892 52.4144 86.4362 52.9334 84.8802C53.1304 84.2872 53.7674 83.8372 54.4074 84.0432C54.9984 84.2352 55.4554 84.8802 55.2424 85.5172C54.7254 87.0722 54.2074 88.6262 53.6894 90.1792C53.4904 90.7732 52.8534 91.2242 52.2154 91.0192C51.6254 90.8272 51.1674 90.1792 51.3784 89.5442" fill="#FED600"/><path id="Fill 118" fill-rule="evenodd" clip-rule="evenodd" d="M66.3226 77.596C65.6506 77.817 65.0846 77.498 64.7776 76.9C63.8096 75.013 62.8426 73.129 61.8746 71.244C61.5876 70.684 62.0026 69.885 62.5696 69.698C63.2426 69.476 63.8086 69.795 64.1146 70.394C65.0836 72.279 66.0506 74.165 67.0196 76.05C67.3066 76.61 66.8896 77.408 66.3226 77.596" fill="#FED600"/><path id="Fill 120" fill-rule="evenodd" clip-rule="evenodd" d="M51.7941 75.4251C51.8071 74.7981 52.3371 74.1981 52.9931 74.2271C53.6311 74.2561 54.2031 74.7521 54.1901 75.4251C54.1631 76.9051 54.1361 78.3871 54.1081 79.8691C54.0971 80.4951 53.5661 81.0961 52.9111 81.0671C52.2721 81.0391 51.7001 80.5401 51.7121 79.8691C51.7391 78.3871 51.7671 76.9051 51.7941 75.4251" fill="#FED600"/><path id="Fill 122" fill-rule="evenodd" clip-rule="evenodd" d="M50.7886 67.8123C51.1646 67.2293 51.8216 67.0933 52.4276 67.3833L57.9856 70.0323C58.5536 70.3033 58.7466 71.1603 58.4156 71.6733C58.0396 72.2553 57.3826 72.3913 56.7766 72.1033L51.2176 69.4523C50.6516 69.1823 50.4576 68.3243 50.7886 67.8123" fill="#FED600"/><path id="Fill 124" fill-rule="evenodd" clip-rule="evenodd" d="M47.5011 59.4168C47.7101 58.7688 48.3161 58.4388 48.9751 58.5798C50.3801 58.8808 51.7861 59.1808 53.1911 59.4808C53.8051 59.6118 54.2181 60.3638 54.0281 60.9558C53.8181 61.6018 53.2111 61.9318 52.5531 61.7918L48.3381 60.8908C47.7241 60.7588 47.3101 60.0058 47.5011 59.4168" fill="#FED600"/><path id="Fill 126" fill-rule="evenodd" clip-rule="evenodd" d="M40.8086 71.9631C40.9546 71.7141 41.2386 71.4771 41.5246 71.4131C42.1096 71.2781 42.8806 71.5891 42.9976 72.2501C43.2886 73.8791 43.5796 75.5071 43.8706 77.1371C43.9286 77.4621 43.9206 77.7671 43.7496 78.0611C43.6036 78.3101 43.3196 78.5471 43.0336 78.6111C42.4496 78.7441 41.6766 78.4341 41.5606 77.7741C41.2696 76.1451 40.9776 74.5161 40.6866 72.8871C40.6306 72.5631 40.6376 72.2561 40.8086 71.9631" fill="#FED600"/><path id="Fill 128" fill-rule="evenodd" clip-rule="evenodd" d="M83.5899 93.3612C83.9519 93.3483 84.2209 93.005 84.1779 92.6163C84.1409 92.2892 84.1079 91.9621 84.1019 91.6382C84.0849 90.8232 84.0509 90.3341 84.0549 89.6821C84.0569 89.2945 83.7649 88.9814 83.4069 89.0009C80.9989 89.1326 72.8519 89.3917 72.0479 89.3819C70.1589 89.3582 68.2699 89.3506 66.3819 89.3798C63.5819 89.4251 47.7699 89.3031 47.6129 89.4996C47.5379 89.5957 47.5129 89.7263 47.4919 89.8516C47.2989 90.9959 46.8539 91.4709 47.0479 93.127C47.0859 93.4454 47.3149 93.7002 47.6099 93.7283C48.1839 93.7833 49.0889 93.8568 49.2729 93.8427C49.7599 93.8039 50.2669 93.8524 50.7559 93.86C52.8829 93.8913 55.0119 93.9237 57.1399 93.9496C59.6329 93.9798 62.1259 94.0047 64.6189 93.9993C65.7699 93.9971 80.2869 93.48 83.5899 93.3612" fill="#F451CF"/><path id="Fill 130" fill-rule="evenodd" clip-rule="evenodd" d="M67.847 65.9623C60.8309 65.9623 54.4626 65.9623 48.3682 58.1668C49.2832 57.2748 50.3562 56.5478 51.5232 56.0278C51.7862 55.9108 52.0702 55.8028 52.3532 55.8528C52.6832 55.9108 52.9352 56.1688 53.1692 56.4088C54.5172 57.7908 55.8013 59.0323 57.7112 59.9768C62.6648 62.4267 72.679 61.0249 75.0201 59.4533C77.3612 57.8818 76.2422 57.5358 77.3612 57.5988C77.6992 57.6178 78.0412 57.6578 78.3692 57.7418C78.4902 57.7728 78.5832 57.8398 78.6982 57.8818C78.8492 57.9378 79.0262 57.9418 79.1842 57.9778C79.8642 58.1298 80.5012 58.4308 81.0982 58.7838C81.8672 59.2388 82.5792 59.7838 83.3382 60.2548C82.6759 60.9013 74.8632 65.9623 67.847 65.9623Z" fill="#F451CF"/><path id="Fill 132" fill-rule="evenodd" clip-rule="evenodd" d="M34.4793 84.8352C34.6013 84.5732 34.8643 84.3132 35.1423 84.2212C35.8133 84.0012 36.3853 84.3202 36.6863 84.9202C37.5633 86.6662 38.4393 88.4122 39.3153 90.1592C39.4473 90.4192 39.3983 90.8362 39.2803 91.0882C39.1583 91.3502 38.8963 91.6102 38.6173 91.7022C37.9453 91.9232 37.3743 91.6032 37.0733 91.0032C36.1973 89.2572 35.3193 87.5112 34.4433 85.7642C34.3123 85.5042 34.3613 85.0882 34.4793 84.8352" fill="#FED600"/><path id="Fill 134" fill-rule="evenodd" clip-rule="evenodd" d="M33.9013 86.7009C35.5393 87.1879 36.7563 88.5309 37.8843 89.8139C38.2613 90.2429 38.6383 90.6709 39.0143 91.0989C39.2803 91.4019 39.5473 91.7049 39.7743 92.0369C40.1943 92.6539 40.4703 93.3549 40.8253 94.0119C41.1803 94.6689 41.6413 95.3049 42.3023 95.6509C41.6293 96.2329 40.8253 96.6829 39.9523 96.8509C39.0783 97.0199 38.1323 96.8889 37.3863 96.4029C37.0643 96.1919 36.7843 95.9219 36.5123 95.6479C35.7833 94.9159 35.0873 94.1509 34.4263 93.3559C33.9133 92.7389 33.4193 92.1009 32.8273 91.5589C31.9453 90.7509 30.8783 90.1829 29.8623 89.5529C29.4853 89.3189 29.1023 89.0639 28.8693 88.6869C28.6393 88.3159 28.5793 87.8619 28.5993 87.4269C28.6083 87.2389 28.6333 87.0419 28.7443 86.8909C28.8873 86.6949 29.1383 86.6159 29.3743 86.5599C30.0073 86.4099 30.6603 86.3419 31.3113 86.3569C31.8113 86.3679 32.3203 86.4389 32.8173 86.4939C33.1833 86.5339 33.5473 86.5959 33.9013 86.7009" fill="#F451CF"/><path id="Fill 136" fill-rule="evenodd" clip-rule="evenodd" d="M122.298 81.1292L113.546 77.9112C113.024 77.7192 112.756 77.1402 112.948 76.6182L117.543 64.1212C117.736 63.5992 118.314 63.3312 118.836 63.5242L127.588 66.7412C128.11 66.9342 128.378 67.5122 128.186 68.0342L123.591 80.5312C123.399 81.0532 122.82 81.3212 122.298 81.1292" fill="#262649"/><path id="Fill 138" fill-rule="evenodd" clip-rule="evenodd" d="M117.984 58.2776C118.085 58.5746 117.927 58.8976 117.63 58.9986C117.333 59.1006 117.009 58.9426 116.908 58.6456L115.833 59.0126C115.934 59.3096 115.776 59.6326 115.479 59.7346C115.182 59.8356 114.859 59.6766 114.757 59.3806L113.682 59.7476C113.783 60.0446 113.625 60.3676 113.328 60.4686C113.031 60.5706 112.708 60.4116 112.606 60.1146L111.531 60.4826L118.523 80.9466L119.598 80.5786C119.497 80.2816 119.655 79.9596 119.952 79.8576C120.25 79.7566 120.572 79.9146 120.674 80.2116L121.75 79.8436C121.648 79.5476 121.807 79.2236 122.104 79.1226C122.401 79.0216 122.723 79.1796 122.825 79.4766L123.901 79.1096C123.799 78.8126 123.957 78.4886 124.255 78.3876C124.551 78.2856 124.875 78.4446 124.976 78.7416L126.051 78.3746L119.059 57.9106L117.984 58.2776Z" fill="#FBB965"/><path id="Fill 140" fill-rule="evenodd" clip-rule="evenodd" d="M112.592 63.7107C112.606 63.7107 112.619 63.7087 112.632 63.7037L120.16 61.1317C120.226 61.1097 120.261 61.0387 120.238 60.9727C120.216 60.9077 120.14 60.8717 120.08 60.8957L112.552 63.4677C112.487 63.4897 112.451 63.5607 112.474 63.6267C112.491 63.6777 112.54 63.7107 112.592 63.7107" fill="#FFDBB1"/><path id="Fill 142" fill-rule="evenodd" clip-rule="evenodd" d="M117.877 73.7717C117.891 73.7717 117.904 73.7697 117.917 73.7647C117.982 73.7427 118.018 73.6717 117.995 73.6057L114.827 64.3347C114.805 64.2697 114.73 64.2347 114.669 64.2577C114.604 64.2797 114.568 64.3507 114.591 64.4167L117.759 73.6877C117.776 73.7387 117.825 73.7717 117.877 73.7717" fill="#FFDBB1"/><path id="Fill 144" fill-rule="evenodd" clip-rule="evenodd" d="M117.847 70.2136C117.861 70.2136 117.874 70.2116 117.887 70.2066C117.952 70.1846 117.988 70.1136 117.965 70.0476L115.89 63.9726C115.868 63.9066 115.79 63.8726 115.732 63.8946C115.666 63.9166 115.631 63.9876 115.654 64.0536L117.729 70.1296C117.746 70.1806 117.795 70.2136 117.847 70.2136" fill="#FFDBB1"/><path id="Fill 146" fill-rule="evenodd" clip-rule="evenodd" d="M121.031 69.1253C121.045 69.1253 121.058 69.1233 121.071 69.1183C121.136 69.0963 121.172 69.0253 121.149 68.9593L119.074 62.8843C119.052 62.8183 118.975 62.7833 118.916 62.8063C118.85 62.8283 118.815 62.8993 118.838 62.9653L120.913 69.0413C120.93 69.0923 120.979 69.1253 121.031 69.1253" fill="#FFDBB1"/><g id="Group 150"><path id="Fill 148" fill-rule="evenodd" clip-rule="evenodd" d="M122.645 80.9163L113.893 77.6983C113.371 77.5063 113.103 76.9273 113.295 76.4053L117.89 63.9093C118.082 63.3863 118.661 63.1193 119.183 63.3113L127.935 66.5293C128.457 66.7213 128.725 67.2993 128.533 67.8223L123.938 80.3183C123.746 80.8403 123.167 81.1083 122.645 80.9163" fill="#0E2D8A"/></g><path id="Fill 151" fill-rule="evenodd" clip-rule="evenodd" d="M124.303 71.4158C124.58 70.6868 124.557 69.8948 124.237 69.1838C123.917 68.4738 123.34 67.9298 122.612 67.6528C121.106 67.0808 119.419 67.8408 118.849 69.3448C118.572 70.0728 118.595 70.8658 118.915 71.5758C119.235 72.2868 119.812 72.8308 120.54 73.1068C122.045 73.6778 123.732 72.9198 124.303 71.4158M120.452 73.3408C119.66 73.0408 119.034 72.4508 118.687 71.6788C118.34 70.9068 118.315 70.0468 118.615 69.2558C119.235 67.6228 121.069 66.7988 122.699 67.4188C123.491 67.7198 124.117 68.3098 124.465 69.0818C124.812 69.8538 124.837 70.7138 124.537 71.5048C124.237 72.2948 123.646 72.9218 122.874 73.2688C122.459 73.4558 122.019 73.5488 121.577 73.5488C121.198 73.5488 120.818 73.4798 120.452 73.3408" fill="#71BFF3"/><path id="Fill 153" fill-rule="evenodd" clip-rule="evenodd" d="M121.534 68.117C121.103 68.551 120.71 69.2 120.429 69.943C120.145 70.687 120.009 71.433 120.043 72.044C120.075 72.611 120.257 72.999 120.542 73.107C120.831 73.217 121.222 73.045 121.621 72.643C122.052 72.209 122.445 71.56 122.726 70.816C123.01 70.073 123.146 69.326 123.112 68.716C123.08 68.149 122.898 67.761 122.613 67.653C122.556 67.631 122.495 67.621 122.431 67.621C122.172 67.621 121.855 67.794 121.534 68.117M120.454 73.341C120.066 73.194 119.832 72.738 119.794 72.058C119.758 71.413 119.9 70.63 120.194 69.854C120.489 69.079 120.901 68.399 121.356 67.941C121.837 67.457 122.318 67.27 122.701 67.419C123.089 67.566 123.323 68.022 123.361 68.702C123.397 69.347 123.255 70.129 122.961 70.905C122.666 71.681 122.254 72.361 121.799 72.819C121.426 73.195 121.055 73.39 120.726 73.39C120.632 73.39 120.54 73.374 120.454 73.341" fill="#71BFF3"/><path id="Fill 155" fill-rule="evenodd" clip-rule="evenodd" d="M124.502 70.5906L124.59 70.3576L119.338 68.3626L119.25 68.5966L124.502 70.5906Z" fill="#71BFF3"/><path id="Fill 157" fill-rule="evenodd" clip-rule="evenodd" d="M123.815 72.3967L123.903 72.1637L118.651 70.1687L118.563 70.4027L123.815 72.3967Z" fill="#71BFF3"/><path id="Fill 159" fill-rule="evenodd" clip-rule="evenodd" d="M124.651 74.4729C124.068 74.7809 123.562 75.2339 123.192 75.7809C122.913 76.1939 122.735 76.8089 123.101 77.1489C123.349 77.3789 123.731 77.3639 124.069 77.3339C123.515 77.8229 123.195 78.5669 123.221 79.3049C123.224 79.3839 123.231 79.4659 123.269 79.5349C123.316 79.6179 123.401 79.6719 123.488 79.7099C124.208 80.0299 125.052 79.4689 125.407 78.7659C125.763 78.0629 125.801 77.2469 126.013 76.4889C126.212 75.7779 126.556 75.1209 126.848 74.4459C127.099 73.8629 127.458 73.0719 127.341 72.4179C127.25 71.9079 126.697 72.0669 126.346 72.1919C125.796 72.3879 125.108 72.6179 124.65 72.9839C124.235 73.3159 123.951 74.2539 124.651 74.4729" fill="#89a3f9"/></g></g></g><g id="Facial Expression" transform="translate(72.5586 94.9543) scale(2.149467641657049 2.058241994757401)"><g id="Facial Expression/Laugh"><g id="Expression"><path id="Fill 1" fill-rule="evenodd" clip-rule="evenodd" d="M10.0744 10.4623C10.1914 10.5683 10.3124 10.6713 10.4294 10.7773C10.5724 10.9093 10.6974 11.0523 10.8244 11.1993C10.8374 11.2143 10.8324 11.2093 10.8104 11.1783C10.8184 11.1883 10.8244 11.1993 10.8304 11.2083C10.8404 11.2243 10.8494 11.2383 10.8594 11.2543C10.8694 11.2723 10.8784 11.2913 10.8884 11.3113C10.9164 11.3633 10.8744 11.3113 10.8844 11.2963C10.8844 11.2963 10.8954 11.3483 10.8974 11.3493C10.8864 11.3413 10.8974 11.2683 10.8924 11.3223C10.8884 11.3643 10.9194 11.2493 10.8924 11.3103C10.8874 11.3223 10.8834 11.3333 10.8794 11.3483C10.8894 11.3223 10.8884 11.3253 10.8744 11.3543C10.8614 11.3783 10.8484 11.4003 10.8344 11.4213C10.8284 11.4303 10.7664 11.5093 10.8004 11.4713C10.7584 11.5173 10.7144 11.5603 10.6664 11.6023C10.6454 11.6203 10.6264 11.6363 10.6054 11.6553C10.5974 11.6613 10.5144 11.7213 10.5534 11.6913C10.5044 11.7283 10.4504 11.7633 10.3964 11.7953C10.2754 11.8753 10.2044 12.0363 10.2844 12.1713C10.3554 12.2923 10.5284 12.3673 10.6584 12.2843C10.9134 12.1223 11.1754 11.9373 11.3284 11.6693C11.4064 11.5343 11.4604 11.3953 11.4364 11.2373C11.4234 11.1443 11.3824 11.0503 11.3314 10.9683C11.1154 10.6163 10.7804 10.3583 10.4764 10.0843C10.3654 9.9843 10.2014 9.9643 10.0864 10.0733C9.98435 10.1663 9.96335 10.3623 10.0744 10.4623" fill="#073944"/><path id="Fill 3" fill-rule="evenodd" clip-rule="evenodd" d="M7.16193 5.7887C8.05493 5.3647 7.60093 3.9907 6.62693 4.1487C5.77793 4.2887 4.74693 4.6217 4.33193 5.4177C3.56993 6.8737 6.17193 6.2307 7.13493 5.8027C7.14293 5.7977 7.15193 5.7937 7.16193 5.7887" fill="#004E55"/><path id="Fill 5" fill-rule="evenodd" clip-rule="evenodd" d="M13.3055 5.4005C12.5395 5.0875 12.8555 3.9185 13.6765 4.0045C14.3935 4.0815 15.2715 4.3115 15.6565 4.9585C16.3605 6.1405 14.1545 5.7235 13.3295 5.4105C13.3225 5.4065 13.3135 5.4035 13.3055 5.4005" fill="#004E55"/><g id="Group 9"><mask id="mask0df68fb17-846a-4bc5-bafc-723923451e61" style="mask-type:alpha" maskUnits="userSpaceOnUse" x="7" y="12" width="5" height="4" fill="#ffffff"><path id="Clip 8" fill-rule="evenodd" clip-rule="evenodd" d="M7.2312 12.7608H11.8055V16H7.2312V12.7608Z" fill="#ffffff"/></mask><g mask="url(#mask0df68fb17-846a-4bc5-bafc-723923451e61)"><path id="Fill 7" fill-rule="evenodd" clip-rule="evenodd" d="M11.8055 13.0688L7.29254 12.7608L7.23654 13.5848C7.15154 14.8298 8.09254 15.9098 9.33854 15.9948C10.5845 16.0798 11.6635 15.1388 11.7485 13.8928L11.8055 13.0688Z" fill="#073944"/></g></g><path id="Fill 10" fill-rule="evenodd" clip-rule="evenodd" d="M14.5811 9.1505C14.5841 9.1495 14.5871 9.1485 14.5911 9.1475C14.7771 9.0795 14.9381 8.9585 15.1201 8.8795C15.2861 8.8075 15.4441 8.7175 15.5921 8.6115C15.8911 8.3985 16.1421 8.1255 16.3591 7.8315C16.4421 7.7195 16.5201 7.6045 16.5961 7.4875C16.6481 7.4055 16.8031 7.2635 16.7431 7.0465C16.6701 6.8925 16.3021 6.8605 16.0631 6.7735C15.2301 6.4685 14.3861 6.5175 13.5421 6.7265C13.3981 6.7615 13.3011 6.8735 13.2381 7.0105C13.2111 7.0705 13.2441 7.2155 13.2481 7.2825C13.2541 7.3815 13.2631 7.4805 13.2731 7.5785C13.2941 7.7715 13.3241 7.9625 13.3611 8.1515C13.3951 8.3275 13.4521 8.5045 13.4691 8.6825C13.4841 8.8645 13.5301 9.0525 13.5931 9.2245C13.6151 9.2835 13.6241 9.3125 13.6831 9.3175C13.7311 9.3225 13.7881 9.3075 13.8361 9.3045C14.0871 9.2845 14.3461 9.2335 14.5811 9.1505" fill="#073944"/><path id="Fill 12" fill-rule="evenodd" clip-rule="evenodd" d="M5.40607 9.2623C5.41407 9.2833 5.42507 9.3033 5.43907 9.3213C5.47907 9.3683 5.53507 9.4003 5.59107 9.4263C5.79307 9.5213 6.00707 9.5283 6.21607 9.5933C6.25807 9.6053 6.30007 9.6123 6.34307 9.6153C6.60607 9.6323 6.87107 9.6433 7.13507 9.6513C7.72807 9.6713 8.32807 9.6253 8.86807 9.3543C8.18407 8.0103 7.10507 7.3413 5.64807 7.2363C5.59607 7.2323 5.49407 7.8233 5.48407 7.8853C5.44907 8.1043 5.43107 8.3253 5.42207 8.5463C5.41507 8.6893 5.40707 8.8323 5.40207 8.9753C5.39907 9.0643 5.37507 9.1743 5.40607 9.2623" fill="#073944"/><path id="Fill 14" fill-rule="evenodd" clip-rule="evenodd" d="M13.2382 7.0104C12.9672 6.9114 12.7902 7.0924 12.6062 7.2344C11.9532 7.7394 11.5192 8.2744 11.0452 9.1414C11.0412 9.3344 11.2112 9.3904 11.3302 9.4124C12.0802 9.5484 12.9232 9.6074 13.6582 9.3174C13.6582 9.3174 13.2482 7.7654 13.2382 7.0104" fill="#E5E2FC"/><path id="Fill 16" fill-rule="evenodd" clip-rule="evenodd" d="M5.38865 9.2657C5.38165 9.1407 5.40965 8.9907 5.41065 8.8727C5.41565 8.6857 5.42165 8.4987 5.43565 8.3117C5.45065 8.1257 5.47165 7.9397 5.50665 7.7567C5.51665 7.7037 5.60465 7.2357 5.64865 7.2367C4.80465 7.2327 3.78665 7.1987 3.11865 7.9117C3.24665 8.2197 3.66465 8.4387 3.91765 8.6437C4.18665 8.8627 4.40465 9.0787 4.74465 9.1957C4.86265 9.2367 4.98565 9.2807 5.10465 9.3007C5.18665 9.3147 5.32365 9.3677 5.39765 9.3407C5.39265 9.3167 5.38965 9.2917 5.38865 9.2657" fill="#E5E2FC"/><path id="Stroke 18" d="M11.7881 7.84348C12.9044 6.51563 14.4914 6.04859 16.6733 6.92642C16.7663 6.96383 16.8114 7.06955 16.774 7.16255C16.7366 7.25554 16.6309 7.3006 16.5379 7.26319C14.5075 6.44634 13.0849 6.86498 12.066 8.07706C11.8755 8.30373 11.7119 8.54398 11.559 8.80773L11.2915 9.29346C11.2392 9.37899 11.1275 9.40594 11.0419 9.35366C10.9564 9.30139 10.9295 9.18967 10.9817 9.10415L11.245 8.62566C11.4077 8.34495 11.5828 8.08779 11.7881 7.84348Z" fill="#073944"/><path id="Stroke 20" d="M3.09621 7.70484C5.19444 6.58311 6.83938 6.89389 8.10546 8.10517C8.23926 8.23318 8.3627 8.36574 8.48053 8.50536L8.65369 8.72038C8.73873 8.8308 8.92428 9.08874 8.93829 9.1065C9.00036 9.1852 8.98689 9.29933 8.90818 9.36141C8.82948 9.42348 8.71535 9.41001 8.65327 9.3313L8.3661 8.94187C8.20639 8.73451 8.0408 8.54568 7.85452 8.36746C6.69691 7.25996 5.2202 6.98096 3.26735 8.02496C3.17895 8.07222 3.06898 8.03887 3.02172 7.95047C2.97446 7.86207 3.00781 7.7521 3.09621 7.70484Z" fill="#073944"/></g></g></g></g></g></g></svg>