<svg viewBox="24.78 54.28 127.43999999999997 127.43999999999997" fill="none" xmlns="http://www.w3.org/2000/svg" xmlns:xlink="http://www.w3.org/1999/xlink" overflow="visible" width="117.99999999999997px" height="117.99999999999997px"><rect id="Blush Background Color" fill="#f9f9f9" x="24.78" y="54.28" width="127.43999999999997" height="127.43999999999997"/><g id="Master/Character/Avatar"><g id="Group"><circle id="Mask" cx="89" cy="118" r="57" fill="#FBD6FF"/><mask id="mask0483f46ce-b89e-484c-ad84-c686755400d4" style="mask-type:alpha" maskUnits="userSpaceOnUse" x="32" y="61" width="114" height="114" fill="#ffffff"><circle id="Mask_2" cx="89" cy="118" r="57" fill="#ffffff"/></mask><g mask="url(#mask0483f46ce-b89e-484c-ad84-c686755400d4)"><g id="Head" transform="translate(2.44141 20) scale(2.119819859095982 2.1323556782286843)"><g id="Head/Wavy Hair"><g id="Hair"><g id="Hair_2"><path id="Fill 56" fill-rule="evenodd" clip-rule="evenodd" d="M18.1173 53.263C17.4093 53.538 16.7923 53.605 16.2713 53.461C16.0753 53.408 15.9593 53.204 16.0133 53.008C16.0673 52.809 16.2723 52.695 16.4673 52.749C17.0913 52.921 18.0153 52.624 19.1413 51.887C23.1303 49.28 28.3593 42.059 28.7603 39.316C28.7903 39.114 28.9763 38.974 29.1783 39.004C29.3803 39.034 29.5203 39.22 29.4913 39.422C29.0243 42.618 23.4473 49.955 19.5453 52.506C19.0353 52.839 18.5583 53.092 18.1173 53.263" fill="#e74bb1"/><path id="Fill 3" fill-rule="evenodd" clip-rule="evenodd" d="M54.5147 50.2335C54.2217 49.0945 53.9127 47.9585 53.6917 46.8005C53.4647 45.6065 53.6337 44.4375 53.6057 43.2295C53.5907 42.4675 53.5007 41.7095 53.3437 40.9575C53.1917 40.2425 52.9767 39.5415 52.6997 38.8655C52.4647 38.2925 52.1347 37.7665 51.9837 37.1635C51.8477 36.6245 51.4937 36.1735 51.1857 35.7205C50.8387 35.2115 50.4777 34.7115 50.0947 34.2285C48.6207 32.3735 46.7407 30.6935 44.3607 30.1865C43.1667 29.9325 41.9327 29.9905 40.7147 30.0565C38.6097 30.1715 36.4757 30.3135 34.4797 30.9915C29.9667 32.5225 28.1267 38.7535 26.9517 42.8895C25.7557 47.0955 24.8267 51.4745 22.4897 55.1705C23.7897 56.0195 24.1147 56.5455 25.4957 55.8135C26.3027 55.3855 27.0737 54.5385 27.3647 53.6715C27.8897 54.5455 27.8397 55.7325 27.2407 56.5595C28.3687 57.3775 29.8267 57.6295 31.2167 57.5325C32.3007 57.4575 33.3597 57.1865 34.3987 56.8775C34.8697 56.7365 35.3107 56.5445 35.7997 56.4955C36.3517 56.4385 36.9097 56.4175 37.4627 56.4625C39.1337 56.6005 40.6867 57.3345 42.2957 57.8025C42.9387 57.9905 43.6037 58.1355 44.2767 58.1235C44.4407 58.1205 44.5207 58.1035 44.6597 58.0475C44.9137 57.9465 45.1867 57.8935 45.4517 57.8275C46.0477 57.6755 46.6427 57.5255 47.2387 57.3745C48.3137 57.1015 49.4707 56.8335 50.5077 57.2275C50.5107 57.4325 50.5137 57.6375 50.5157 57.8425C50.6947 58.1115 51.0847 58.1795 51.3827 58.0575C51.6817 57.9355 51.8957 57.6645 52.0377 57.3755C52.3097 56.8195 52.3557 56.1845 52.3967 55.5675C52.7717 55.9205 53.1537 56.2835 53.3957 56.7375C53.6507 57.2145 53.6837 57.7175 53.4887 58.2165C54.1607 58.3785 55.1997 58.1965 55.5077 57.4815C55.6297 57.2005 55.6237 56.8775 55.6077 56.5775C55.5807 56.0645 55.5127 55.5515 55.4357 55.0445C55.3837 54.7065 55.3237 54.3705 55.2557 54.0355C55.1787 53.6585 55.0867 53.2865 54.9937 52.9135C54.9597 52.7755 54.9547 52.6715 54.9617 52.5325C54.9837 52.0665 54.8267 51.5685 54.7267 51.1175C54.6617 50.8215 54.5907 50.5275 54.5147 50.2335" fill="#ff88cf"/><path id="Fill 3" fill-rule="evenodd" clip-rule="evenodd" d="M36.1098 52.1487V52.1507C36.1108 52.1507 36.1108 52.1527 36.1138 52.1527L36.1098 52.1487Z" fill="#523E8C"/><path id="Fill 10" fill-rule="evenodd" clip-rule="evenodd" d="M28.4984 45.1223C28.0854 46.9063 29.1944 48.6843 30.9764 49.0983C32.7584 49.5103 34.5364 48.3993 34.9484 46.6193C35.3614 44.8373 34.2514 43.0593 32.4704 42.6463C30.6884 42.2333 28.9094 43.3413 28.4984 45.1223" fill="#f5cd62"/><path id="Fill 12" fill-rule="evenodd" clip-rule="evenodd" d="M32.6286 47.0911C32.6286 47.0911 33.1696 44.7531 30.8496 44.6031Z" fill="#1F97B0"/><g id="Group 2"><g id="Group 9"><g id="Group 6"><g id="Group"><rect id="Rectangle" x="37.1895" y="44.4041" width="8" height="17" rx="4" transform="rotate(10 37.1895 44.4041)" fill="#f5cd62"/><path id="Fill 44" fill-rule="evenodd" clip-rule="evenodd" d="M43.0849 57.1585C38.0049 56.7165 35.7188 49.4616 35.7188 49.4616L43.9835 51.9484L43.0849 57.1585Z" fill="#e4b85d"/></g></g></g></g><g id="Group 66"><path id="Fill 10" fill-rule="evenodd" clip-rule="evenodd" d="M28.6288 45.1827C28.2158 46.9667 29.3248 48.7447 31.1068 49.1587C32.8888 49.5707 34.6668 48.4597 35.0798 46.6797C35.4928 44.8977 34.3818 43.1197 32.6008 42.7067C30.8198 42.2937 29.0408 43.4017 28.6288 45.1827L32.0758 45.5293" fill="#f5cd62"/><path id="Fill 12" fill-rule="evenodd" clip-rule="evenodd" d="M32.759 47.1515C32.759 47.1515 33.3 44.8135 30.98 44.6635Z" fill="#e4b85d"/><path id="Fill 14" fill-rule="evenodd" clip-rule="evenodd" d="M40.3263 54.3058V54.3058C44.5253 54.9888 48.5223 52.2328 49.1963 48.8228L50.7373 40.7658C51.5783 36.4928 48.8853 34.1828 44.6403 33.1988C40.2953 32.1928 35.1883 32.8578 34.1813 37.2018L33.0143 43.6958C32.1103 48.7178 35.3553 53.1538 40.3263 54.3058" fill="#f5cd62"/><path id="Fill 16" fill-rule="evenodd" clip-rule="evenodd" d="M55.8257 41.132C55.1847 41.208 54.5757 41.024 54.1357 40.579C54.5587 41.006 54.8297 39.528 54.8177 39.386C54.7657 38.768 53.9247 38.297 53.5167 37.954C52.2227 36.867 51.2867 35.728 50.1087 34.487C48.0447 32.314 44.7637 31.858 41.7677 31.919C36.6457 32.026 32.1007 34.424 30.8047 39.672C30.1907 42.161 30.5197 42.196 32.7297 43.019C33.5187 43.315 33.8217 43.858 34.3697 44.417C35.1107 45.174 35.7957 43.19 36.1717 42.602C36.6997 41.778 37.2277 40.954 37.7557 40.13C37.9067 39.894 38.0337 39.691 38.1377 39.44C38.2617 39.142 38.5087 38.913 38.7037 38.658C39.1717 38.047 39.5747 37.388 39.9077 36.694C40.4017 37.346 41.1547 37.745 41.8937 38.098C42.5207 38.398 43.1577 38.678 43.8017 38.941C44.1237 39.071 44.4487 39.197 44.7737 39.319C45.1617 39.463 45.4487 39.675 45.8197 39.859C45.8617 39.879 45.9027 39.9 45.9447 39.92C46.8927 40.38 47.8867 40.777 48.7137 41.429C49.5407 42.082 50.1957 43.061 50.1477 44.113C50.1327 44.457 50.0427 44.8 50.0767 45.143C50.1017 45.395 50.2167 45.663 50.4277 45.813C50.5247 45.882 50.5997 45.894 50.7137 45.886C50.7977 45.881 50.8737 45.886 50.9587 45.891C51.3607 45.912 51.7567 45.779 52.1017 45.581C52.6477 45.269 53.1157 44.695 53.2827 44.084C53.3507 43.828 53.5197 42.271 53.3477 42.159C53.5007 42.258 53.5937 42.315 53.6817 42.379C54.4637 42.957 55.7937 42.626 56.2157 41.746C56.4357 41.292 56.3127 41.074 55.8257 41.132" fill="#ff88cf"/><g id="Group 60"><mask id="mask01031f26e-b983-4783-987c-7067a3a7c73d" style="mask-type:alpha" maskUnits="userSpaceOnUse" x="52" y="37" width="7" height="24" fill="#ffffff"><path id="Clip 59" fill-rule="evenodd" clip-rule="evenodd" d="M52.5029 37.8201H58.1419V60.2218H52.5029V37.8201Z" fill="#ffffff"/></mask><g mask="url(#mask01031f26e-b983-4783-987c-7067a3a7c73d)"><path id="Fill 58" fill-rule="evenodd" clip-rule="evenodd" d="M54.5922 60.2218C54.4542 60.2218 54.3212 60.1448 54.2582 60.0108C54.1712 59.8268 54.2492 59.6068 54.4342 59.5198C57.4882 58.0718 57.9362 52.7698 56.8912 49.8998C56.4292 48.6308 55.6772 47.4148 54.9492 46.2398C53.4392 43.7978 51.8762 41.2738 52.7592 38.0908C52.8132 37.8948 53.0112 37.7788 53.2132 37.8338C53.4092 37.8888 53.5252 38.0918 53.4702 38.2878C52.6742 41.1598 54.0852 43.4388 55.5772 45.8508C56.3242 47.0588 57.0972 48.3068 57.5842 49.6468C58.7482 52.8448 58.2232 58.5398 54.7502 60.1868C54.6992 60.2108 54.6462 60.2218 54.5922 60.2218" fill="#ff88cf"/></g></g></g></g></g><g id="Group 7"><g id="Group 3"><mask id="mask11031f26e-b983-4783-987c-7067a3a7c73d" style="mask-type:alpha" maskUnits="userSpaceOnUse" x="31" y="47" width="3" height="3" fill="#ffffff"><path id="Clip 2" fill-rule="evenodd" clip-rule="evenodd" d="M31.8809 47.9997H33.6519V49.7714H31.8809V47.9997Z" fill="#ffffff"/></mask><g mask="url(#mask11031f26e-b983-4783-987c-7067a3a7c73d)"><path id="Fill 1" fill-rule="evenodd" clip-rule="evenodd" d="M33.6519 48.8854C33.6519 49.3744 33.2559 49.7714 32.7669 49.7714C32.2779 49.7714 31.8809 49.3744 31.8809 48.8854C31.8809 48.3964 32.2779 47.9994 32.7669 47.9994C33.2559 47.9994 33.6519 48.3964 33.6519 48.8854" fill="#FED600"/></g></g><mask id="mask21031f26e-b983-4783-987c-7067a3a7c73d" style="mask-type:alpha" maskUnits="userSpaceOnUse" x="31" y="47" width="4" height="8" fill="#ffffff"><path id="Clip 5" fill-rule="evenodd" clip-rule="evenodd" d="M31 54.7227H34.534V47.9997H31V54.7227Z" fill="#ffffff"/></mask><g mask="url(#mask21031f26e-b983-4783-987c-7067a3a7c73d)"><path id="Fill 4" fill-rule="evenodd" clip-rule="evenodd" d="M32.6421 52.1477H32.8921V49.7707H32.6421V52.1477Z" fill="#FED600"/><path id="Fill 6" fill-rule="evenodd" clip-rule="evenodd" d="M32.812 54.7223L31 52.9993L32.722 51.1873L34.534 52.9103L32.812 54.7223Z" fill="#FED600"/></g></g><g id="Group 7_2"><path id="Fill 1_2" fill-rule="evenodd" clip-rule="evenodd" d="M54.2634 27.1043C54.1904 27.1193 50.8224 28.4833 49.8404 28.8303C48.9784 29.1323 46.9834 30.1273 46.0714 29.8043C45.2494 29.5143 44.1294 26.7323 43.9824 26.5573C44.0614 26.5683 44.3354 26.6023 44.3514 26.6463C44.0024 25.6743 41.9834 20.3463 34.8114 22.5143C27.9564 24.5853 29.5444 31.3353 29.6084 31.6323C29.4134 32.0993 29.8784 34.4513 28.5494 35.5873C27.7284 36.2893 26.7334 36.7133 25.7494 37.1283C24.8154 37.5243 23.9034 38.0313 22.9554 38.3703C22.7874 38.4303 22.4884 38.4243 22.3504 38.4903C21.9674 38.6713 21.8484 38.6703 22.2484 39.1093C22.6054 39.5003 23.1404 39.7673 23.6274 39.9533C24.6604 40.3483 25.8074 40.4203 26.9034 40.3643C28.8224 40.2643 30.8474 39.9033 32.5944 40.7053C33.2574 41.0093 33.8564 41.4743 34.5694 41.6313C35.3064 41.7933 36.0744 41.6043 36.7874 41.3553C39.4114 40.4383 41.7324 38.7083 44.4424 38.0883C45.0134 37.9583 45.6054 37.8753 46.1294 37.6123C47.2414 37.0533 47.8074 35.8283 48.4554 34.7663C49.1384 33.6443 50.0324 32.5983 51.2214 32.0413C51.9274 31.7103 52.7554 31.5363 53.2544 30.9373C53.7764 30.3103 53.8004 29.3653 54.3624 28.7743C54.8664 28.2423 55.6954 28.1173 56.1904 27.5773C56.5324 27.2063 56.6664 26.6553 56.5354 26.1673C55.9184 26.4153 54.4214 27.0723 54.2634 27.1043" fill="#B555F9"/><path id="Fill 3_2" fill-rule="evenodd" clip-rule="evenodd" d="M27.953 36.2439C28.756 36.2399 29.141 35.5439 29.705 35.1569C30.89 34.3479 32.021 33.4719 33.174 32.6219C33.734 32.8799 34.2101 33.1019 34.6501 33.3059C34.8281 33.2069 34.95 33.1389 35.054 33.0819C36.257 33.4929 37.3011 34.2119 38.5251 34.4979C38.5851 34.5109 38.663 34.4459 38.757 34.4079C39.164 33.6869 38.7031 32.7939 39.1341 32.0889C40.7601 31.4369 42.4891 31.2199 44.0571 30.4839C44.4481 30.2999 44.933 30.3169 45.375 30.2459C45.652 30.1979 45.885 30.1029 45.969 29.8029C45.277 28.5729 45.297 26.4379 43.567 26.3719C42.418 26.3259 41.203 27.0029 40.203 27.4949C39.972 27.6079 39.6391 27.6879 39.3361 27.4739C39.1471 26.8239 39.538 26.1129 39.175 25.3739C37.154 26.9619 35.1651 28.5189 33.14 30.1089C33.122 30.1239 32.889 29.9969 32.858 29.9829C32.759 29.9389 32.6591 29.8949 32.5591 29.8519C32.3631 29.7669 32.167 29.6839 31.971 29.5999C31.464 29.3849 30.9581 29.1649 30.4671 28.9149C30.3441 28.8519 30.2231 28.7839 30.0991 28.7209C30.0111 28.6739 29.914 28.6639 29.825 28.6219C29.579 28.5059 29.3521 28.3689 29.0911 28.2869C28.8751 28.2199 28.646 28.1829 28.42 28.2049C28.294 28.2169 28.2 28.2459 28.092 28.3069C27.937 28.3949 27.782 28.4979 27.711 28.6679C27.654 28.8049 27.653 28.9599 27.653 29.1049C27.657 30.8149 27.592 32.5299 27.655 34.2379C27.678 34.8999 27.398 35.6479 27.953 36.2439" fill="#2D2D83"/><path id="Fill 5" fill-rule="evenodd" clip-rule="evenodd" d="M33.3823 27.6023L34.9053 30.3873L37.6923 31.9113L34.9053 33.4353L33.3823 36.2203L31.8573 33.4353L29.0713 31.9113L31.8573 30.3873L33.3823 27.6023Z" fill="#FED600"/></g></g></g><g id="Upper Body" transform="translate(-53 26.5178) scale(2.1294117647058823 2.124879991686022)"><g id="Upper Body/Map"><g id="Upper"><g id="Group 9"><path id="Fill 7" fill-rule="evenodd" clip-rule="evenodd" d="M83.9361 73.1734C83.9591 71.2614 83.9291 69.3464 83.7691 67.4384C83.6661 66.2054 83.3461 64.9434 83.3931 63.7124C83.4331 62.6524 82.6251 61.4124 82.0411 60.5754C81.0681 59.1794 79.7491 58.0254 78.2351 57.2484C77.4841 56.8624 76.6441 56.5144 75.8051 56.3834C75.4621 56.3284 75.1551 56.3874 74.8151 56.4154C73.7381 56.5014 72.5931 56.0234 71.5651 55.7844C70.5761 57.1804 68.4631 57.8444 66.5281 57.6714C64.5941 57.4994 62.8391 56.6134 61.4101 55.5144C61.1111 55.2854 60.8081 55.0374 60.4201 54.9384C60.0151 54.8344 59.5791 54.9074 59.1671 54.9874C57.8121 55.2474 56.4761 55.5754 55.1681 55.9694C54.6421 56.1274 54.1831 56.2824 53.7461 56.5744C52.8161 57.1944 51.5411 57.1214 50.4831 57.5324C49.2261 58.0184 48.0881 58.8734 47.8731 60.0664C47.4911 62.1734 47.9561 64.3714 48.6871 66.3924C49.0951 67.5164 49.4721 68.6784 49.8111 69.8434C49.8581 69.9994 49.9041 70.1554 49.9481 70.3134C50.0151 70.5534 50.0831 70.7924 50.1491 71.0344C50.7481 73.2284 51.2411 75.4454 51.5761 77.6784C51.7281 78.6884 51.5401 79.9423 51.5761 80.9543C51.6091 81.9103 51.7791 82.7234 51.6921 83.6784C51.5161 85.6214 48.741 89.373 50.1621 89.5094C51.5832 89.6458 50.5761 94.9604 50.5761 94.9604C50.5761 94.9604 83.3101 95.0754 83.2161 94.2634C83.2661 93.5244 83.4421 92.8124 83.3691 92.0774C83.3111 91.1134 83.4291 90.1184 83.4601 89.1534C83.5211 87.1994 83.5831 85.2454 83.6441 83.2914C83.7081 81.2424 83.8371 79.1864 83.8371 77.1364C83.8791 75.8154 83.9201 74.4944 83.9361 73.1734Z" fill="#CA5BA9"/></g><path id="Fill 42" fill-rule="evenodd" clip-rule="evenodd" d="M67.5534 54.3278C67.5534 54.3278 61.0647 53.991 60.9997 54.009C60.1267 54.248 59.1018 54.486 58.2278 54.725C57.0048 55.059 55.7828 55.393 54.5608 55.727C54.0888 55.856 53.6178 55.985 53.1468 56.114C52.9988 56.154 52.8288 56.178 52.6878 56.239C52.3178 56.397 53.0348 57.02 53.1808 57.181C54.3678 58.497 55.8218 59.565 57.4168 60.336C59.0128 61.108 60.7528 61.585 62.5208 61.722C63.4028 61.79 64.2928 61.773 65.1708 61.665C65.3858 61.639 66.4344 61.675 66.6494 61.665C66.8604 61.654 67.9831 61.3296 68.1851 61.2656C68.1851 61.2656 69.4095 60.963 71.6755 60.336C73.9415 59.709 73.7118 59.369 75.9778 58.742L77.1158 58.472C77.6248 58.352 77.6308 57.631 77.1258 57.501L69.7098 55.594C69.4678 55.532 68.9373 55.1962 69.0847 54.4003L67.5534 54.3278Z" fill="#f5cd62"/><path id="Fill 10" fill-rule="evenodd" clip-rule="evenodd" d="M77.0562 75.8264C77.0982 76.1904 77.1372 76.5524 77.1692 76.9084H59.2802L59.2002 75.8264H77.0562Z" fill="white"/><path id="Fill 12" fill-rule="evenodd" clip-rule="evenodd" d="M76.0758 70.4231C76.1608 70.7711 76.2438 71.1191 76.3238 71.4681C76.3258 71.4811 76.3288 71.4921 76.3308 71.5051H58.8808L58.8008 70.4231H76.0758Z" fill="white"/><path id="Fill 14" fill-rule="evenodd" clip-rule="evenodd" d="M59.6006 81.2283H77.3876C77.3916 81.6063 77.3906 81.9663 77.3876 82.3113H59.6806L59.6006 81.2283Z" fill="white"/><path id="Fill 18" fill-rule="evenodd" clip-rule="evenodd" d="M74.5674 65.0193C74.6784 65.3753 74.7884 65.7363 74.8974 66.1023H58.4814L58.4014 65.0193H74.5674Z" fill="white"/><path id="Fill 20" fill-rule="evenodd" clip-rule="evenodd" d="M77.147 86.6321C77.189 86.9961 77.227 87.3591 77.26 87.7141H59.37L59.291 86.6321H77.147Z" fill="white"/><path id="Fill 24" fill-rule="evenodd" clip-rule="evenodd" d="M70.2112 54.3664C70.9932 54.2224 72.0542 54.5824 72.8192 54.7464C76.2462 55.4824 79.7332 56.9664 81.8142 59.9194C82.6992 61.1774 83.3362 62.5164 84.1652 63.8034C84.7852 64.7664 85.4082 65.7274 86.0352 66.6854C87.2892 68.6024 88.5562 70.5104 89.8372 72.4084C92.2202 75.9404 94.6502 79.4394 97.1262 82.9064C99.8262 81.5224 102.526 80.1374 105.226 78.7534C106.623 81.8404 107.47 85.1754 107.715 88.5544C107.731 88.7614 107.742 88.9774 107.664 89.1704C107.562 89.4194 107.329 89.5854 107.104 89.7344C103.895 91.8614 100.175 93.2124 96.3502 93.6394C94.5802 93.8384 92.7332 93.7944 91.0232 93.2594C90.1922 92.9984 89.3952 92.6144 88.7052 92.0784C88.3942 91.8364 88.0662 91.5754 87.9032 91.2084C87.7412 90.8454 87.6312 90.5224 87.4072 90.1814C87.0692 89.6684 86.7302 89.1564 86.3912 88.6434C85.9612 87.9924 85.5312 87.3414 85.1362 86.6684C84.9732 86.3904 84.8392 86.0834 84.6432 85.8254C84.5252 85.6694 84.3702 85.5474 84.2532 85.3894C83.8642 84.8664 83.5882 84.2454 83.2232 83.7024C83.1342 83.5694 83.0342 83.4304 82.8842 83.3744C82.4862 83.2254 82.2302 83.6944 82.4402 83.9984C82.7122 84.3914 82.7172 84.8424 82.7912 85.3094C82.9722 86.4464 83.594 89.5741 83.603 89.6151C83.603 89.6151 75.1192 89.8234 75.4995 89.7839C75.8799 89.7444 73.6522 74.3684 73.6522 74.3684C73.6652 73.7504 73.3562 72.9914 73.2272 72.3924C72.7442 70.1474 72.2612 67.9034 71.7782 65.6574L69.828 58.6769C69.643 57.8159 69.8162 56.5354 69.6312 55.6754C69.5582 55.3344 69.5292 54.9784 69.6692 54.7194C69.7622 54.5474 69.9312 54.4184 70.2112 54.3664Z" fill="#7E6EEF"/><path id="Fill 29" fill-rule="evenodd" clip-rule="evenodd" d="M94.5654 66.9187L85.6514 93.8757H96.4554H99.0524L106.257 66.5027L105.926 66.5157L94.5654 66.9187Z" fill="#F2E9E1"/><path id="Fill 31" fill-rule="evenodd" clip-rule="evenodd" d="M77.3715 67.3772C77.1325 68.0492 76.8925 68.7212 76.6535 69.3932C75.5905 72.3772 71.0155 87.1342 70.4595 88.3202C70.3735 88.5042 70.2895 88.7232 70.3885 88.9002C70.4665 89.0442 70.6365 89.1062 70.7915 89.1572C75.7345 90.7812 80.6725 92.3592 85.6515 93.8762L94.5655 66.9192L80.1545 64.3232L78.5605 64.0332L77.3715 67.3772Z" fill="#F1D8B3"/><path id="Fill 33" fill-rule="evenodd" clip-rule="evenodd" d="M106.258 66.5028L99.0518 93.8758L104.329 90.7238L117.635 62.5348L108.93 65.5718L106.258 66.5028Z" fill="#F1D8B3"/><path id="Fill 41" fill-rule="evenodd" clip-rule="evenodd" d="M48.1414 83.2971C47.5784 83.2971 46.9854 83.2851 46.3494 83.2571C46.2584 83.2531 46.1774 83.2001 46.1364 83.1191C46.0964 83.0381 46.1024 82.9411 46.1544 82.8661L51.0804 75.6841C51.1584 75.5711 51.3144 75.5421 51.4284 75.6201C51.5414 75.6981 51.5704 75.8531 51.4924 75.9671L46.8224 82.7751C49.3154 82.8571 51.1534 82.6961 53.2644 82.5101C54.1614 82.4321 55.1144 82.3481 56.1964 82.2751C56.3294 82.2691 56.4534 82.3701 56.4624 82.5081C56.4714 82.6461 56.3674 82.7651 56.2294 82.7741C55.1514 82.8471 54.2024 82.9301 53.3084 83.0081C51.5744 83.1611 50.0214 83.2971 48.1414 83.2971" fill="#9E2B26"/><path id="Fill 43" fill-rule="evenodd" clip-rule="evenodd" d="M106.979 76.9656C105.835 77.9116 106.108 80.0236 107.403 80.6846C105.888 80.3826 107.037 84.3106 107.132 85.1136C107.272 86.3016 107.602 87.3486 107.602 87.3486C107.822 86.5656 108.073 86.6936 108.656 86.1436C109.144 85.6826 109.81 85.5036 110.284 85.0336C111.701 83.6286 111.447 81.5316 110.358 80.0576C109.9 79.4366 109.382 78.8616 108.815 78.3436C108.647 78.1896 107.142 76.8356 106.979 76.9656" fill="#f5cd62"/><path id="Fill 5" fill-rule="evenodd" clip-rule="evenodd" d="M59.9095 53.8752C59.9095 53.8752 51.7795 55.5137 48.6015 57.5493C45.4235 59.585 38.3335 71.6089 35.7555 76.6838C32.0705 83.9356 30.3679 94.4156 43.4849 92.6855C56.6019 90.9553 58.4015 91.2388 58.4015 91.2388V86.3024L63.2745 84.7236L63.9505 69.3559L59.9095 53.8752Z" fill="#7E6EEF"/><path id="Fill 35" fill-rule="evenodd" clip-rule="evenodd" d="M60.1337 81.2393C60.2097 81.2233 60.2947 81.2133 60.3977 81.1913C61.6217 80.9313 62.9667 80.8233 64.2157 80.6923C65.0967 80.6003 65.9837 80.4953 66.8677 80.3813C67.3117 80.3233 67.7527 80.2623 68.1917 80.1993L68.8467 80.1023L69.4687 80.0073L69.5677 79.9913C72.2317 79.5763 74.7277 81.4013 75.1397 84.0653C75.3567 85.4653 76.8917 84.4593 75.6167 85.2203C75.1117 85.5243 74.1567 85.5563 73.5757 85.7283C72.8907 85.9313 72.2137 86.1623 71.5407 86.4043C70.1367 86.9093 68.7537 87.4693 67.3497 87.9733C64.9507 88.8343 62.1847 89.7163 59.6327 89.6413C59.0277 87.8373 58.8587 85.8923 59.1167 84.0083C59.2087 83.3393 59.2987 81.9583 59.7767 81.4433C59.9027 81.3063 60.0067 81.2653 60.1337 81.2393" fill="#f5cd62"/><path id="Fill 37" fill-rule="evenodd" clip-rule="evenodd" d="M80.4557 78.4176C80.4557 78.4176 81.7987 78.5246 81.4287 79.5436C81.1387 80.3316 80.5467 80.5236 80.5467 80.5236C80.5467 80.5236 81.9007 81.1136 80.8837 82.4696C80.2537 83.3096 75.3877 85.6096 72.7607 86.0586C70.1377 86.5086 64.3167 89.2676 66.2797 85.7646C66.2797 85.7646 72.6717 73.5756 76.1617 72.3586C79.6497 71.1406 80.0767 73.3856 80.1287 73.7576C80.1387 73.8216 80.1437 73.8766 80.1467 73.9296C80.5557 74.0116 80.9847 74.2946 81.0107 75.1066C81.0247 75.6186 80.8927 75.8956 80.7237 76.0416C80.3457 76.0806 80.0477 76.1626 80.0477 76.1626C80.0477 76.1626 80.4387 76.2836 80.7237 76.0416C81.3527 75.9756 81.6667 76.3756 81.7747 77.0946C81.9107 78.0036 80.4557 78.4176 80.4557 78.4176" fill="#f5cd62"/><path id="Fill 39" fill-rule="evenodd" clip-rule="evenodd" d="M57.6307 89.0745L55.3396 89.2979C55.0599 86.1626 55.5039 82.8648 55.731 81.4745C55.7984 81.0671 56.1473 80.7447 56.6005 80.6688L60.5799 80C60.3685 84.5776 60.9427 88.5483 61.2399 90.2339C61.3248 90.7196 60.9741 91.1798 60.4359 91.2837L56.8285 91.9789C56.2811 92.0861 55.7328 91.7744 55.6285 91.2837C55.5344 90.8425 55.4605 90.3881 55.4042 89.9263L57.6307 89.0745Z" fill="#402DC4"/><path id="Path (Stroke)" fill-rule="evenodd" clip-rule="evenodd" d="M45.7744 83.8706L56.3235 82.6235L56.4409 83.6166L45.8918 84.8637L45.7744 83.8706Z" fill="#402DC4"/></g></g></g><g id="Facial Expression" transform="translate(72.5586 94.9543) scale(2.149467641657049 2.058241994757401)"><g id="Facial Expression/Wink"><g id="Expression"><path id="Fill 1" fill-rule="evenodd" clip-rule="evenodd" d="M12.4531 10.5846C12.4551 10.5616 12.4531 10.5386 12.4491 10.5176C12.3911 10.2436 12.0901 10.1466 11.9061 9.97463C11.7091 9.79063 11.6271 9.53763 11.6311 9.27263C11.6411 8.71263 11.6181 8.15363 11.6091 7.59463C11.3381 7.59063 11.3031 7.75763 11.3091 7.98063C11.3171 8.29263 11.3941 8.60463 11.3561 8.91763C11.3161 9.24463 11.2221 9.51063 11.2631 9.85163C11.3011 10.1726 11.4531 10.3106 11.6431 10.5426C11.7841 10.7166 11.6191 10.8566 11.5111 10.9796C11.3791 11.1286 11.2011 11.2866 11.4091 11.4696C11.5901 11.6296 11.7371 11.4586 11.8711 11.3316C12.0491 11.1616 12.4321 10.8376 12.4531 10.5846" fill="#6F53CD"/><path id="Fill 3" fill-rule="evenodd" clip-rule="evenodd" d="M3.92288 7.35414C3.90188 7.46614 4.32388 7.77714 4.39588 7.83614C4.59988 8.00414 4.82188 8.14714 5.04388 8.29114C5.50288 8.58814 5.65188 8.21514 5.99588 7.96514C6.18888 7.82514 6.39388 7.68614 6.63088 7.63414C7.48488 7.45114 8.41088 8.06414 8.80088 8.80914C8.89688 8.99014 9.04688 9.03414 9.22788 8.94914C9.40588 8.86714 9.49188 8.69914 9.42688 8.53414C9.19788 7.94514 8.72588 7.53814 8.16088 7.26814C7.80388 7.09614 7.51488 6.99914 7.51188 6.53714C7.50988 6.35514 7.46788 6.20114 7.26588 6.22614C7.04988 6.25314 7.15388 6.44714 7.14688 6.57514C7.13588 6.74214 7.21588 6.96214 7.00388 7.03814C6.95288 7.05614 6.89888 7.05714 6.84488 7.05914C6.63788 7.06714 6.43188 7.09614 6.23188 7.14514C6.19588 7.15414 6.15988 7.16314 6.12388 7.15714C5.99288 7.13414 5.75988 6.44114 5.58288 6.46914C5.55188 6.47214 5.52188 6.47514 5.49088 6.47814C5.28688 6.58414 5.35688 6.74314 5.45888 6.91114C5.55288 7.06614 5.64188 7.19114 5.66388 7.37214C5.53688 7.43014 5.33788 7.70814 5.20188 7.70814C4.96988 7.76614 4.66288 7.43714 4.50788 7.29314C4.37888 7.17314 4.32488 7.04914 4.12588 7.11814C3.96588 7.17314 3.94388 7.23514 3.92288 7.35414" fill="#6F53CD"/><g id="Group 7"><mask id="mask067f65e1c-a258-4271-9b30-abbb8b8ce35a" style="mask-type:alpha" maskUnits="userSpaceOnUse" x="12" y="6" width="7" height="3" fill="#ffffff"><path id="Clip 6" fill-rule="evenodd" clip-rule="evenodd" d="M12.5378 6.00003H18.4395V8.96773H12.5378V6.00003Z" fill="#ffffff"/></mask><g mask="url(#mask067f65e1c-a258-4271-9b30-abbb8b8ce35a)"><path id="Fill 5" fill-rule="evenodd" clip-rule="evenodd" d="M18.2284 6.95472C18.0474 6.93072 17.8044 7.08872 17.6694 7.22472C17.5234 7.37172 17.3744 7.53572 17.1724 7.58772C16.9624 7.64172 16.8534 7.38872 16.7104 7.28772C16.5674 7.18572 16.5354 7.23172 16.6094 7.03472C16.6714 6.87172 16.7624 6.71472 16.8374 6.55772C16.8604 6.51072 16.8824 6.46172 16.8824 6.41072C16.8794 6.27872 16.7594 6.27872 16.6654 6.26472C16.4154 6.22472 16.3984 6.54272 16.3054 6.71172C16.2564 6.79972 16.2054 6.89072 16.1244 6.94972C16.1044 6.96372 16.0824 6.97572 16.0594 6.97772C16.0324 6.98072 16.0054 6.97172 15.9804 6.96172C15.7454 6.87672 15.4954 6.83372 15.2454 6.83372C15.1764 6.83372 15.1034 6.83672 15.0434 6.80372C14.9214 6.73672 14.9964 6.49472 14.9894 6.37772C14.9804 6.24072 15.0924 6.03172 14.8604 6.00272C14.6444 5.97572 14.5984 6.14272 14.5974 6.33672C14.5944 6.72272 14.4154 6.95472 14.0234 7.07672C13.6054 7.20672 13.1694 7.48872 12.9094 7.84772C12.8404 7.94272 12.7854 8.04772 12.7314 8.15172C12.5904 8.42272 12.3654 8.74172 12.7564 8.92372C12.9514 9.01372 13.1124 8.96672 13.2144 8.77272C13.5324 8.16672 14.1444 7.66972 14.8134 7.51172C15.6374 7.31572 16.2584 7.81572 16.8134 8.37172C17.1644 8.53372 17.6034 8.03772 17.8144 7.82572C17.9664 7.67172 18.1044 7.49772 18.2664 7.35372C18.3274 7.29972 18.4284 7.25572 18.4384 7.17972C18.4534 7.07572 18.3184 6.96772 18.2284 6.95472" fill="#6F53CD"/></g></g><path id="Fill 8" fill-rule="evenodd" clip-rule="evenodd" d="M16.4971 8.17293C16.0951 7.77293 15.6141 7.49793 15.0661 7.34493C14.9751 7.31993 14.8431 7.27893 14.7801 7.35593C14.7191 7.42993 14.7911 7.54693 14.8271 7.63493C14.9271 7.88393 14.9301 7.87293 14.6721 7.93993C14.5331 7.97593 14.3061 7.97193 14.3511 8.19493C14.3921 8.40193 14.5971 8.33793 14.7481 8.33193C14.7901 8.32993 14.8321 8.31293 14.8721 8.29893C15.0631 8.23093 15.2211 8.24293 15.3071 8.46093C15.3651 8.60993 15.4961 8.65993 15.6381 8.64293C15.8921 8.61293 16.1491 8.59193 16.3081 8.54093C16.6181 8.41993 16.6551 8.32993 16.4971 8.17293M12.3291 8.93393C12.2451 8.55393 12.5271 8.17993 12.7681 7.91493C12.8861 7.78393 13.0111 7.65893 13.1441 7.54393C13.7041 7.06293 14.3931 6.82193 15.1321 6.93293C15.6131 7.00593 16.0461 7.23193 16.4211 7.53593C16.6711 7.73993 16.7821 7.81593 17.1171 7.67093C17.3631 7.56393 17.5591 7.36293 17.7691 7.20193C17.9131 7.09293 18.0731 6.97893 18.2521 6.98893C18.3161 6.99293 18.3831 7.01693 18.4171 7.07093C18.4631 7.14393 18.4321 7.23993 18.3891 7.31493C18.2481 7.55893 18.0071 7.72293 17.7731 7.87893C17.3471 8.16393 16.8731 8.98493 16.2881 8.96293C16.0651 8.95393 15.8521 9.02193 15.6361 9.05793C14.9841 9.16993 14.3351 9.28893 13.6711 9.30593C13.4621 9.31193 13.1811 9.37293 12.9281 9.36693C12.6481 9.35993 12.4031 9.27193 12.3291 8.93393" fill="#6F53CD"/><path id="Fill 10" fill-rule="evenodd" clip-rule="evenodd" d="M16.3075 8.54113C16.6185 8.42013 16.6545 8.33013 16.4965 8.17313C16.0945 7.77213 15.6135 7.49813 15.0665 7.34513C14.9745 7.32013 14.8425 7.27913 14.7805 7.35613C14.7195 7.43013 14.7905 7.54713 14.8265 7.63513C14.9265 7.88413 14.9295 7.87313 14.6725 7.94013C14.5335 7.97613 14.3065 7.97213 14.3505 8.19513C14.3915 8.40113 14.5965 8.33713 14.7475 8.33213C14.7895 8.33013 14.8315 8.31313 14.8715 8.29913C15.0625 8.23113 15.2205 8.24313 15.3065 8.46113C15.3655 8.60913 15.4955 8.66013 15.6375 8.64313C15.8915 8.61313 16.1495 8.59213 16.3075 8.54113" fill="white"/><path id="Fill 12" fill-rule="evenodd" clip-rule="evenodd" d="M11.1359 14.3819C11.1459 14.3769 11.1559 14.3699 11.1659 14.3649C11.3119 14.2909 11.5529 14.2949 11.5339 14.0649C11.5129 13.8219 11.2729 13.8959 11.1169 13.8539C10.2529 14.0839 9.49286 13.8479 8.79686 13.3309C8.60286 13.3019 8.37986 13.0019 8.22486 13.3039C8.06786 13.6119 8.44086 13.6309 8.58586 13.7729C8.67686 13.8609 8.82886 13.8579 8.89886 13.9799C9.61186 14.2959 10.3509 14.4699 11.1359 14.3819" fill="#6F53CD"/><path id="Fill 14" fill-rule="evenodd" clip-rule="evenodd" d="M11.1357 14.3819C10.3507 14.4699 9.61168 14.2959 8.89868 13.9799C8.92968 14.1999 8.98968 14.4149 9.09768 14.6059C9.37068 15.0889 9.79868 15.2549 10.3287 15.1379C10.7397 15.0479 11.0387 14.8179 11.1357 14.3819" fill="#FA8CD5"/><path id="Fill 16" fill-rule="evenodd" clip-rule="evenodd" d="M8.79639 13.3312C9.49239 13.8482 10.2524 14.0832 11.1164 13.8532C11.0144 13.3702 10.7074 13.1782 10.2234 13.1522C9.73139 13.1252 9.26139 13.1842 8.79639 13.3312" fill="#FA8CD5"/><path id="Fill 18" fill-rule="evenodd" clip-rule="evenodd" d="M6.43849 11.2022C6.20649 11.5272 5.83949 11.7542 5.44849 11.8472C4.99649 11.9542 4.51549 11.8962 4.07849 11.7392C3.79249 11.6362 3.51449 11.4872 3.31449 11.2572C2.97049 10.8622 2.94749 10.1342 3.06249 9.64324C3.13149 9.34824 3.30149 9.06724 3.56449 8.91824C3.95149 8.69924 4.37249 8.68124 4.79549 8.76024C5.17049 8.82924 5.54949 8.90924 5.88349 9.09224C6.55049 9.45624 6.90649 10.3482 6.53649 11.0442C6.50649 11.0992 6.47449 11.1522 6.43849 11.2022" fill="#FF9DDD"/><path id="Fill 20" fill-rule="evenodd" clip-rule="evenodd" d="M3.66981 10.6451C3.74681 10.6451 3.82281 10.6091 3.87181 10.5421L4.45981 9.73813C4.54081 9.62613 4.51681 9.47013 4.40481 9.38913C4.29381 9.30713 4.13781 9.33113 4.05581 9.44313L3.46781 10.2481C3.38681 10.3591 3.41081 10.5161 3.52281 10.5971C3.56681 10.6291 3.61781 10.6451 3.66981 10.6451" fill="#FFCAF7"/><path id="Fill 22" fill-rule="evenodd" clip-rule="evenodd" d="M5.37199 11.316C5.50399 11.316 5.61399 11.213 5.62199 11.08L5.67799 10.086C5.68399 9.94703 5.57899 9.83003 5.44099 9.82203C5.31399 9.80503 5.18499 9.92003 5.17799 10.057L5.12199 11.052C5.11399 11.19 5.22099 11.308 5.35799 11.316C5.36299 11.316 5.36699 11.316 5.37199 11.316" fill="#FFCAF7"/><path id="Fill 24" fill-rule="evenodd" clip-rule="evenodd" d="M4.36724 11.065C4.45824 11.065 4.54524 11.016 4.59024 10.929L5.10824 9.91902C5.17124 9.79602 5.12324 9.64602 5.00024 9.58302C4.87724 9.51902 4.72724 9.56602 4.66324 9.69002L4.14424 10.701C4.08224 10.824 4.13024 10.974 4.25324 11.037C4.29024 11.056 4.32824 11.065 4.36724 11.065" fill="#FFCAF7"/><path id="Fill 26" fill-rule="evenodd" clip-rule="evenodd" d="M13.9844 11.3228C14.1794 11.5958 14.4854 11.7848 14.8144 11.8638C15.1924 11.9528 15.5954 11.9048 15.9614 11.7728C16.2014 11.6868 16.4334 11.5618 16.6014 11.3688C16.8894 11.0378 16.9094 10.4278 16.8134 10.0168C16.7554 9.76982 16.6114 9.53482 16.3914 9.40982C16.0674 9.22582 15.7154 9.21182 15.3604 9.27782C15.0464 9.33582 14.7284 9.40282 14.4484 9.55482C13.8904 9.86082 13.5924 10.6078 13.9024 11.1908C13.9264 11.2368 13.9544 11.2808 13.9844 11.3228" fill="#FF9DDD"/><path id="Fill 28" fill-rule="evenodd" clip-rule="evenodd" d="M16.3036 10.8971C16.3556 10.8971 16.4066 10.8811 16.4506 10.8491C16.5626 10.7681 16.5866 10.6111 16.5056 10.5001L16.0136 9.82614C15.9306 9.71414 15.7746 9.69014 15.6636 9.77214C15.5526 9.85314 15.5286 10.0091 15.6096 10.1211L16.1016 10.7941C16.1506 10.8611 16.2266 10.8971 16.3036 10.8971" fill="#FFCAF7"/><path id="Fill 30" fill-rule="evenodd" clip-rule="evenodd" d="M14.878 11.4591C14.883 11.4591 14.887 11.4591 14.892 11.4591C15.03 11.4511 15.136 11.3331 15.128 11.1951L15.081 10.3621C15.073 10.2241 14.967 10.1051 14.817 10.1261C14.679 10.1341 14.573 10.2521 14.581 10.3901L14.628 11.2231C14.636 11.3561 14.746 11.4591 14.878 11.4591" fill="#FFCAF7"/><path id="Fill 32" fill-rule="evenodd" clip-rule="evenodd" d="M15.7198 11.2486C15.7588 11.2486 15.7978 11.2396 15.8338 11.2206C15.9568 11.1576 16.0048 11.0076 15.9428 10.8846L15.5078 10.0386C15.4448 9.91463 15.2918 9.86663 15.1708 9.93063C15.0478 9.99363 14.9998 10.1436 15.0628 10.2666L15.4968 11.1126C15.5418 11.1996 15.6288 11.2486 15.7198 11.2486" fill="#FFCAF7"/></g></g></g></g></g></g></svg>