<svg viewBox="24.78 54.28 127.43999999999997 127.43999999999997" fill="none" xmlns="http://www.w3.org/2000/svg" xmlns:xlink="http://www.w3.org/1999/xlink" overflow="visible" width="117.99999999999997px" height="117.99999999999997px"><rect id="Blush Background Color" fill="#f9f9f9" x="24.78" y="54.28" width="127.43999999999997" height="127.43999999999997"/><g id="Master/Character/Avatar"><g id="Group"><circle id="Mask" cx="89" cy="118" r="57" fill="#FBD6FF"/><mask id="mask0483f46ce-b89e-484c-ad84-c686755400d4" style="mask-type:alpha" maskUnits="userSpaceOnUse" x="32" y="61" width="114" height="114" fill="#ffffff"><circle id="Mask_2" cx="89" cy="118" r="57" fill="#ffffff"/></mask><g mask="url(#mask0483f46ce-b89e-484c-ad84-c686755400d4)"><g id="Head" transform="translate(2.44141 20) scale(2.119819859095982 2.1323556782286843)"><g id="Head/Crazy Hair"><g id="Hair"><g id="Hair_2"><path id="Fill 1" fill-rule="evenodd" clip-rule="evenodd" d="M37.3552 30.5603C35.0452 30.6113 32.5842 30.8673 30.7862 32.3163C29.5472 33.3153 28.7632 34.7863 28.2972 36.3083C27.8312 37.8293 27.6512 39.4213 27.4152 40.9953C27.3572 41.3783 27.2872 41.7833 27.0302 42.0743C26.8082 42.3263 26.4792 42.4543 26.1582 42.5493C25.7112 42.6813 25.2532 42.7683 24.7912 42.8093C24.7922 43.7673 26.0332 44.4673 26.8532 43.9723C26.8292 46.1543 25.0542 48.1843 22.8942 48.4993C22.6232 48.5393 22.2922 48.5933 22.1922 48.8493C22.1482 48.9603 22.1622 49.0853 22.1862 49.2033C22.3872 50.1663 23.2312 50.8613 24.0972 51.3293C25.6272 52.1563 27.4002 52.5293 29.1342 52.3893C29.0132 53.0603 28.5252 53.6533 27.8892 53.8993C28.9752 54.5883 30.3882 54.7333 31.5912 54.2793C31.6802 54.8503 32.1352 55.3113 32.6582 55.5593C33.1792 55.8073 33.7662 55.8763 34.3412 55.9353C35.5692 56.0623 36.8132 56.1553 38.0322 55.9663C40.1412 55.6403 42.1012 54.4363 43.3462 52.7033C44.5372 51.0453 45.0592 48.9773 45.1402 46.9373C45.1802 45.9233 45.1192 44.9033 45.2452 43.8963C45.4142 42.5413 45.9272 41.2303 46.7232 40.1213C47.1742 39.4923 47.7202 38.9163 48.0112 38.2003C48.4632 37.0913 48.2222 35.8603 47.8762 34.7583C47.8002 34.5203 47.7132 34.2893 47.6872 34.0383C47.6702 33.8803 47.6822 33.7203 47.6582 33.5623C47.5902 33.1223 47.1962 32.8513 46.8532 32.6183C45.9912 32.0333 45.0342 31.5993 44.0412 31.2893C43.0282 30.9733 41.9792 30.7853 40.9252 30.6773C39.8602 30.5673 38.7872 30.5393 37.7162 30.5533C37.5962 30.5553 37.4752 30.5573 37.3552 30.5603" fill="#0d93b2"/><path id="Fill 3" fill-rule="evenodd" clip-rule="evenodd" d="M36.1098 52.1487V52.1507C36.1108 52.1507 36.1108 52.1527 36.1138 52.1527L36.1098 52.1487Z" fill="#523E8C"/><path id="Fill 5" fill-rule="evenodd" clip-rule="evenodd" d="M52.2251 48.0886C52.3411 47.9676 52.4531 47.8416 52.5581 47.7116C53.0461 47.1016 53.4001 46.3656 53.5051 45.5876C53.5321 45.3926 53.5441 45.1936 53.5351 44.9976C53.5271 44.8476 53.4641 44.7186 53.4541 44.5716C53.4191 44.1106 53.4861 43.6326 53.4751 43.1696C53.4601 42.4076 53.3711 41.6486 53.2141 40.9036C53.0231 40.0006 52.7311 39.1176 52.3391 38.2816C51.2411 35.9386 49.3711 33.9646 47.0871 32.7456C46.1381 32.2376 45.1261 31.8586 44.1061 31.5146C43.1821 31.2046 42.2471 30.9176 41.2881 30.7436C38.8751 30.3066 36.3981 30.6206 34.1461 31.5826C33.2031 31.9856 32.2751 32.4856 31.4451 33.0926C31.2951 33.2016 31.1511 33.3196 31.0271 33.4576C30.8311 33.6756 30.7011 33.9426 30.5321 34.1816C30.2671 34.5536 29.9521 34.8806 29.7041 35.2676C28.8101 36.6696 28.4561 38.3626 28.3191 39.9986C28.0601 43.0576 28.5711 46.4536 30.8471 48.5126C32.0931 49.6396 33.7261 50.2336 35.3481 50.6686C40.2041 51.9696 45.6001 52.0126 50.0421 49.6586C50.8371 49.2376 51.6041 48.7346 52.2251 48.0886" fill="#0d93b2"/><path id="Fill 10" fill-rule="evenodd" clip-rule="evenodd" d="M28.4984 45.1223C28.0854 46.9063 29.1944 48.6843 30.9764 49.0983C32.7584 49.5103 34.5364 48.3993 34.9484 46.6193C35.3614 44.8373 34.2514 43.0593 32.4704 42.6463C30.6884 42.2333 28.9094 43.3413 28.4984 45.1223" fill="#89a3f9"/><path id="Fill 12" fill-rule="evenodd" clip-rule="evenodd" d="M32.6286 47.0911C32.6286 47.0911 33.1696 44.7531 30.8496 44.6031Z" fill="#7294e8"/><g id="Group 2"><g id="Group 9"><g id="Group 6"><g id="Group"><rect id="Rectangle" x="37.1895" y="44.4041" width="8" height="17" rx="4" transform="rotate(10 37.1895 44.4041)" fill="#89a3f9"/><path id="Fill 44" fill-rule="evenodd" clip-rule="evenodd" d="M43.0849 57.1585C38.0049 56.7165 35.7188 49.4616 35.7188 49.4616L43.9835 51.9484L43.0849 57.1585Z" fill="#7294e8"/></g></g></g><path id="Fill 38" fill-rule="evenodd" clip-rule="evenodd" d="M36.8359 51.1764V51.1784C36.8369 51.1784 36.8369 51.1804 36.8399 51.1804L36.8359 51.1764Z" fill="#523E8C"/></g><path id="Fill 14" fill-rule="evenodd" clip-rule="evenodd" d="M40.1959 54.2454V54.2454C44.3949 54.9284 48.3919 52.1724 49.0659 48.7624L50.6069 40.7054C51.4489 36.4324 49.2889 32.3444 45.0449 31.3594C40.6989 30.3534 35.0579 32.7974 34.0509 37.1414L32.8839 43.6354C31.9799 48.6574 35.2249 53.0934 40.1959 54.2454" fill="#89a3f9"/><path id="Fill 16" fill-rule="evenodd" clip-rule="evenodd" d="M55.695 41.0716C55.054 41.1476 54.445 40.9636 54.005 40.5176C58.003 38.8806 49.095 32.5286 47.385 31.2336C43.608 28.3736 40.005 31.2616 35.973 32.1576C32.1 33.0156 26.967 36.1666 29.694 41.1766C29.953 41.6566 30.301 42.1026 30.774 42.3726C31.503 42.7876 32.384 42.7646 33.101 43.2156C33.22 43.2896 33.339 43.3636 33.459 43.4376C33.646 43.5526 33.815 43.6806 33.975 43.8336C34.23 44.0756 34.479 44.2996 34.795 44.4626C34.948 44.5416 35.108 44.6066 35.273 44.6566C35.317 44.6696 35.72 44.7376 35.723 44.7496C35.401 43.4396 35.561 42.0156 36.167 40.8096C36.558 40.0306 37.133 39.3446 37.828 38.8176C38.042 38.6556 38.269 38.5276 38.457 38.3346C38.713 38.0706 39.034 37.9206 39.354 37.7426C40.637 39.3556 42.363 40.6126 44.291 41.3406C44.234 40.7146 44.177 40.0886 44.121 39.4626C45.114 40.8166 46.695 41.7236 48.366 41.8956C49.033 41.9656 49.833 41.9886 50.18 42.5626C50.383 42.8966 50.354 43.3166 50.319 43.7056C50.229 44.6986 49.955 45.9206 48.987 46.1596C49.348 46.2416 49.751 46.1136 49.999 45.8376" fill="#0d93b2"/><path id="Fill 20" fill-rule="evenodd" clip-rule="evenodd" d="M37.3198 44.136V44.138C37.3188 44.138 37.3188 44.14 37.3178 44.14L37.3198 44.136Z" fill="#5F4596"/><path id="Fill 22" fill-rule="evenodd" clip-rule="evenodd" d="M50.0151 44.4514V44.4534H50.0171L50.0151 44.4514Z" fill="#5F4596"/><path id="Fill 24" fill-rule="evenodd" clip-rule="evenodd" d="M51.2299 55.6521C51.0909 55.6521 50.9589 55.5741 50.8959 55.4411C50.8079 55.2571 50.8869 55.0371 51.0709 54.9491C54.1259 53.5021 54.5729 48.2001 53.5279 45.3291C53.0669 44.0611 52.3149 42.8451 51.5869 41.6701C50.0769 39.2281 48.5139 36.7031 49.3959 33.5211C49.4499 33.3251 49.6479 33.2101 49.8509 33.2641C50.0469 33.3191 50.1629 33.5221 50.1079 33.7181C49.3119 36.5891 50.7219 38.8681 52.2149 41.2811C52.9619 42.4881 53.7349 43.7361 54.2219 45.0771C55.3849 48.2751 54.8599 53.9711 51.3869 55.6161C51.3359 55.6411 51.2829 55.6521 51.2299 55.6521" fill="#0d93b2"/><g id="Group 28"><mask id="mask0d88500c1-3711-4c4e-b326-c509c028fca3" style="mask-type:alpha" maskUnits="userSpaceOnUse" x="21" y="43" width="8" height="6" fill="#ffffff"><path id="Clip 27" fill-rule="evenodd" clip-rule="evenodd" d="M21 43.6473H28.1411V48.0183H21V43.6473Z" fill="#ffffff"/></mask><g mask="url(#mask0d88500c1-3711-4c4e-b326-c509c028fca3)"><path id="Fill 26" fill-rule="evenodd" clip-rule="evenodd" d="M21.3072 47.7853C21.1062 47.7513 20.9712 47.5603 21.0052 47.3593C21.0402 47.1583 21.2362 47.0203 21.4322 47.0583C22.4932 47.2393 23.8122 47.4663 24.8922 47.0113C26.2232 46.4503 26.9792 44.9523 27.4312 43.8733C27.5102 43.6853 27.7272 43.5973 27.9142 43.6763C28.1032 43.7543 28.1912 43.9713 28.1122 44.1593C27.6102 45.3573 26.7582 47.0263 25.1792 47.6923C24.6022 47.9353 23.9942 48.0183 23.3932 48.0183C22.6622 48.0183 21.9422 47.8943 21.3072 47.7853Z" fill="#005f72"/></g></g><g id="Group 31"><mask id="mask1d88500c1-3711-4c4e-b326-c509c028fca3" style="mask-type:alpha" maskUnits="userSpaceOnUse" x="52" y="41" width="6" height="6" fill="#ffffff"><path id="Clip 30" fill-rule="evenodd" clip-rule="evenodd" d="M52.1929 41.1646H57.1982V46.3064H52.1929V41.1646Z" fill="#ffffff"/></mask><g mask="url(#mask1d88500c1-3711-4c4e-b326-c509c028fca3)"><path id="Fill 29" fill-rule="evenodd" clip-rule="evenodd" d="M56.3337 46.3064C55.5577 46.3064 54.7537 45.9944 54.0977 45.4234C53.4497 44.8594 52.9377 44.0494 52.5727 43.0154C52.4097 42.5564 52.2837 42.0794 52.1987 41.5984C52.1627 41.3984 52.2967 41.2064 52.4967 41.1704C52.6977 41.1344 52.8897 41.2684 52.9257 41.4694C53.0047 41.9104 53.1197 42.3484 53.2697 42.7704C53.5907 43.6824 54.0327 44.3874 54.5827 44.8674C55.2187 45.4204 56.0507 45.6714 56.7537 45.5254C56.9517 45.4824 57.1487 45.6104 57.1907 45.8104C57.2327 46.0104 57.1047 46.2054 56.9057 46.2474C56.7187 46.2874 56.5267 46.3064 56.3337 46.3064" fill="#005f72"/></g></g></g></g></g></g><g id="Upper Body" transform="translate(-53 26.5178) scale(2.1294117647058823 2.124879991686022)"><g id="Upper Body/Chill"><g id="Upper"><path id="Fill 1" fill-rule="evenodd" clip-rule="evenodd" d="M97.5749 70.7372C97.6833 70.6666 97.5918 70.6935 98.6938 70.1155C99.7968 69.5395 100.913 68.8025 102.014 67.9595C103.12 67.1205 104.213 66.1765 105.3 65.1755C106.388 64.1715 107.468 63.1125 108.557 62.0145C110.159 60.4045 112.759 60.3985 114.368 61.9975C115.902 63.5225 115.935 65.1235 114.551 66.7435C113.509 67.9595 109.007 73.6495 107.698 74.8105C106.388 75.9705 104.963 77.0935 103.356 78.0985C101.754 79.1005 99.9578 79.9835 97.9818 80.5865C96.7178 80.9725 95.4138 80.7715 94.3628 80.1385L94.1168 79.9895C94.1168 79.9895 70.8458 65.8605 70.8248 65.8475C68.7268 64.5735 67.7738 62.0865 68.3298 59.7265C69.0268 56.7585 71.8528 57.0285 74.4468 56.8425C78.7268 56.5385 82.6688 60.5275 86.0178 62.8225C89.6948 65.3405 93.3708 67.8605 97.0468 70.3775C97.5918 70.7515 97.5749 70.7372 97.5749 70.7372Z" fill="#89a3f9"/><path id="Fill 3" fill-rule="evenodd" clip-rule="evenodd" d="M80.2459 80.9511C80.2699 80.8251 80.2939 80.7001 80.3159 80.5741C80.4989 79.5501 80.7529 76.4511 80.7569 75.9341C80.7569 75.8471 80.7189 64.3241 80.7229 64.4411C80.7189 64.3941 80.7089 64.3461 80.7059 64.2991C80.7029 64.2781 80.6999 64.2561 80.6979 64.2331C80.6929 64.1681 80.6889 64.1071 80.6829 64.0441C80.6659 63.8121 80.6499 63.5871 80.6349 63.3701C80.5279 61.8501 80.4789 60.6581 80.1959 59.6801C80.1129 59.4011 80.0129 59.1391 79.8879 58.8911C79.5099 58.1511 78.8979 57.5441 77.8719 57.0011C77.4309 56.7681 76.9649 56.5731 76.4909 56.3981C76.2229 56.2991 75.9739 56.1901 75.6869 56.1741C75.4049 56.1591 75.1179 56.1051 74.8379 56.0671C74.2709 55.9911 73.7069 55.9041 73.1439 55.8111C72.0169 55.6241 70.8959 55.4111 69.7749 55.1981C68.5309 54.9601 67.2859 54.7221 66.0339 54.5181C62.7779 53.9891 59.4189 53.6941 56.1719 54.2651C55.1109 54.4511 45.7279 56.3241 45.4419 59.1661C45.2109 61.4661 45.5249 63.8301 46.2569 66.0201C46.6639 67.2381 47.0409 68.4981 47.3809 69.7601C47.4279 69.9291 47.4739 70.0971 47.5169 70.2681C47.5849 70.5281 47.6519 70.7871 47.7189 71.0501C48.7299 75.0691 51.0939 88.9231 50.8559 91.1391C50.8049 91.6211 50.7599 93.7321 50.7599 93.7321L79.4099 93.8141C79.4099 93.8141 79.3839 88.2331 79.7109 85.2781C79.8319 84.1921 79.9519 83.1051 80.0719 82.0181C80.0839 81.9171 80.0649 81.8221 80.0869 81.7211C80.1139 81.5941 80.1419 81.4671 80.1689 81.3391C80.1949 81.2101 80.2219 81.0801 80.2459 80.9511" fill="#89a3f9"/><g id="Group 7"><mask id="mask09345c7ec-84eb-4b0a-bf39-d23e9f2672f6" style="mask-type:alpha" maskUnits="userSpaceOnUse" x="106" y="51" width="18" height="17" fill="#ffffff"><path id="Clip 6" fill-rule="evenodd" clip-rule="evenodd" d="M106.928 51.1818H123.437V67.5215H106.928V51.1818Z" fill="#ffffff"/></mask><g mask="url(#mask09345c7ec-84eb-4b0a-bf39-d23e9f2672f6)"><path id="Fill 5" fill-rule="evenodd" clip-rule="evenodd" d="M118.908 63.6933C118.579 64.0623 118.142 64.3143 117.72 64.5703C116.925 65.0523 116.152 65.5713 115.406 66.1263C115.129 66.3333 114.861 66.5853 114.552 66.7433C114.36 66.8403 114.158 66.8633 113.949 66.8973C113.806 66.9203 113.667 66.9513 113.529 66.9923C112.849 67.1923 112.174 67.3913 111.468 67.4773C111.079 67.5243 110.673 67.5483 110.286 67.4743C110.212 67.4603 110.029 67.4413 109.973 67.3753C109.966 67.3653 106.928 63.7153 106.928 63.7153C106.928 63.7153 109.551 59.4733 110.739 58.5263C111.414 57.9923 111.992 57.3193 112.584 56.6983C113.376 55.8683 114.166 55.0333 115.012 54.2563C115.248 54.0393 115.493 53.7613 115.782 53.6163C115.893 53.5613 115.979 53.4743 116.072 53.3923C116.284 53.2033 116.491 53.0103 116.701 52.8203C117 52.5503 117.304 52.2863 117.628 52.0493C118.28 51.5733 119.043 51.2013 119.849 51.1823C120.183 51.1733 120.481 51.2893 120.534 51.6563C120.554 51.7883 120.487 51.9073 120.429 52.0223C120.06 52.7633 119.454 53.3433 118.896 53.9423C117.839 55.0763 116.918 56.3373 116.158 57.6903C117.802 56.0723 119.755 54.7723 121.88 53.8803C122.126 53.7773 122.325 53.6513 122.599 53.6363C122.95 53.6183 123.214 53.7673 123.351 54.0883C123.448 54.3123 123.465 54.5753 123.396 54.8103C123.27 55.2493 122.931 55.5893 122.596 55.9013C121.782 56.6573 120.918 57.3603 120.01 58.0033C119.631 58.2713 119.245 58.5283 118.852 58.7753C118.672 58.8883 117.952 59.4593 117.916 59.5083C117.85 59.6003 118.117 59.8083 118.185 59.8843C118.262 59.9673 118.335 60.0533 118.404 60.1423C118.545 60.3183 118.673 60.5053 118.787 60.6983C119.019 61.0903 119.199 61.5143 119.317 61.9553C119.478 62.5543 119.322 63.2283 118.908 63.6933" fill="#89a3f9"/></g></g><path id="Fill 42" fill-rule="evenodd" clip-rule="evenodd" d="M67.5534 54.3279C67.5534 54.3279 61.0647 53.991 60.9997 54.009C60.1267 54.248 59.1018 54.486 58.2278 54.725C57.0048 55.059 55.7828 55.393 54.5608 55.727C54.0888 55.856 53.6178 55.985 53.1468 56.114C52.9988 56.154 52.8288 56.178 52.6878 56.239C52.3178 56.397 53.0348 57.02 53.1808 57.181C54.3678 58.497 55.8218 59.565 57.4168 60.336C59.0128 61.108 60.7528 61.585 62.5208 61.722C63.4028 61.79 64.2928 61.773 65.1708 61.665C65.3858 61.639 65.5958 61.603 65.8108 61.593C66.0218 61.582 66.2098 61.507 66.4118 61.443L67.7438 61.02C70.0098 60.393 73.7118 59.369 75.9778 58.742L77.1158 58.472C77.6248 58.352 77.6308 57.631 77.1258 57.501L69.7098 55.594C69.4678 55.532 68.9373 55.1962 69.0847 54.4003L67.5534 54.3279Z" fill="#89a3f9"/><path id="Fill 12" fill-rule="evenodd" clip-rule="evenodd" d="M114.965 61.7597C114.323 61.7597 113.379 61.0727 112.154 59.7127L112.348 59.5377C113.977 61.3447 114.728 61.5397 115.05 61.4917C115.201 61.4687 115.314 61.3797 115.384 61.2257C115.508 60.9547 114.538 59.5977 113.569 58.4967L113.765 58.3237C114.265 58.8907 115.874 60.7837 115.622 61.3347C115.514 61.5707 115.329 61.7137 115.089 61.7507C115.049 61.7567 115.008 61.7597 114.965 61.7597" fill="#00A2C5"/><path id="Fill 14" fill-rule="evenodd" clip-rule="evenodd" d="M109.369 65.4394L109.234 65.2144C112.234 63.4244 111.993 60.6694 111.99 60.6414L112.25 60.6144C112.253 60.6444 112.516 63.5614 109.369 65.4394" fill="#00A2C5"/><path id="Fill 16" fill-rule="evenodd" clip-rule="evenodd" d="M112.838 65.0444L112.717 64.8124L116.555 62.8254L116.676 63.0574L112.838 65.0444Z" fill="#00A2C5"/><path id="Fill 18" fill-rule="evenodd" clip-rule="evenodd" d="M113.471 67.0751C113.455 67.0681 112.007 66.4231 112.304 65.0431C111.898 64.6291 111.721 64.0561 111.821 63.4701C111.923 62.8581 112.318 62.3331 112.874 62.0651L114.346 61.3591L114.459 61.5941L112.988 62.3011C112.507 62.5321 112.167 62.9851 112.078 63.5131C111.992 64.0231 112.149 64.5201 112.507 64.8771L112.594 64.9561L112.575 65.0331C112.265 66.2471 113.521 66.8121 113.575 66.8351L113.471 67.0751Z" fill="#00A2C5"/><path id="Fill 20" fill-rule="evenodd" clip-rule="evenodd" d="M33.8319 80.041L51.3719 69.316L46.0909 58.502C46.0909 58.502 25.5819 71.881 23.7609 74.842C22.8239 80.508 22.2889 101.414 22.0589 103.48C21.9559 104.398 21.6929 105.973 21.1709 106.95C20.0109 109.119 19.3359 109.973 18.1649 112.043C16.8309 114.399 23.9779 118.74 25.7529 117.609C26.9769 116.83 27.3929 113.073 27.7599 110.071C27.9269 108.713 32.8019 81.694 33.8319 80.041" fill="#89a3f9"/><path id="Fill 22" fill-rule="evenodd" clip-rule="evenodd" d="M81.1537 68.8041L80.7567 93.8851H48.8457L48.8857 81.6371C48.8857 81.6371 56.5807 64.5781 53.6477 54.8171L58.3077 53.8571C58.3077 53.8571 59.9247 64.6521 70.4557 64.2161C77.2457 63.9341 73.1437 55.8111 73.1437 55.8111C73.1437 55.8111 82.6637 53.8571 81.1537 68.8041" fill="#008B95"/></g></g></g><g id="Facial Expression" transform="translate(72.5586 94.9543) scale(2.149467641657049 2.058241994757401)"><g id="Facial Expression/Joy"><g id="Group 40"><g id="Group 39"><g id="Group 3"><mask id="mask0cca6854f-220f-4cb7-bfca-3aa821ef0f0a" style="mask-type:alpha" maskUnits="userSpaceOnUse" x="1" y="9" width="5" height="4" fill="#ffffff"><path id="Clip 2" fill-rule="evenodd" clip-rule="evenodd" d="M2.03442 9.37509L5.94768 9.51175L5.82958 12.8936L1.91633 12.757L2.03442 9.37509Z" fill="#ffffff"/></mask><g mask="url(#mask0cca6854f-220f-4cb7-bfca-3aa821ef0f0a)"><path id="Fill 1" fill-rule="evenodd" clip-rule="evenodd" d="M5.59264 12.1414C5.33375 12.4776 4.93661 12.7038 4.51738 12.7893C4.03265 12.8874 3.52516 12.8067 3.06728 12.6236C2.7673 12.503 2.47803 12.3338 2.2746 12.0846C1.92355 11.6501 1.92555 10.8766 2.06565 10.3602C2.15153 10.05 2.34186 9.7575 2.62724 9.60837C3.04412 9.38978 3.49144 9.38839 3.93927 9.48708C4.33444 9.57493 4.73323 9.6739 5.08324 9.88024C5.77627 10.2927 6.12203 11.2513 5.70244 11.9771C5.66944 12.034 5.6325 12.0888 5.59264 12.1414" fill="#DD82E1"/></g></g><path id="Fill 4" fill-rule="evenodd" clip-rule="evenodd" d="M2.67483 11.419C2.62586 11.4173 2.57742 11.4006 2.53652 11.3682C2.43327 11.2875 2.41545 11.1388 2.49611 11.0356L3.14953 10.2038C3.23025 10.0986 3.37993 10.0818 3.48314 10.1635C3.58639 10.2441 3.60421 10.3928 3.52256 10.496L2.87014 11.3278C2.82189 11.3911 2.74779 11.4216 2.67483 11.419" fill="#F7C2E9"/><path id="Fill 6" fill-rule="evenodd" clip-rule="evenodd" d="M4.45687 12.1936L4.44388 12.1931C4.31324 12.1806 4.21617 12.0661 4.22874 11.9355L4.32359 10.8811C4.33613 10.7515 4.45599 10.6716 4.58226 10.666C4.7129 10.6786 4.80896 10.793 4.7974 10.9237L4.70158 11.977C4.69015 12.1037 4.58179 12.1979 4.45687 12.1936" fill="#F7C2E9"/><path id="Fill 8" fill-rule="evenodd" clip-rule="evenodd" d="M3.39996 11.889C3.36298 11.8877 3.32629 11.8784 3.29293 11.8593C3.1781 11.7952 3.13712 11.6507 3.20117 11.5359L3.78828 10.4827C3.85329 10.3689 3.99784 10.3269 4.11164 10.3919C4.22651 10.455 4.26746 10.6005 4.20345 10.7143L3.61534 11.7675C3.5705 11.8479 3.48591 11.892 3.39996 11.889" fill="#F7C2E9"/><path id="Fill 10" fill-rule="evenodd" clip-rule="evenodd" d="M14.1575 12.3572C14.3543 12.6532 14.6731 12.8655 15.0181 12.9596C15.4164 13.0716 15.847 13.0336 16.2406 12.9092C16.4976 12.8251 16.7501 12.7009 16.9342 12.5012C17.2522 12.1621 17.2958 11.5162 17.2092 11.0749C17.1563 10.8109 17.0132 10.5557 16.7849 10.4157C16.447 10.2068 16.0737 10.1807 15.6935 10.2365C15.3586 10.2858 15.0203 10.3461 14.7169 10.4956C14.1108 10.8006 13.7674 11.5821 14.0765 12.2133C14.0988 12.2621 14.1262 12.3101 14.1575 12.3572" fill="#DD82E1"/><path id="Fill 12" fill-rule="evenodd" clip-rule="evenodd" d="M16.6363 11.962C16.5634 11.9595 16.4916 11.924 16.4479 11.8574L15.9502 11.1236C15.8769 11.015 15.9041 10.8678 16.0127 10.7936C16.1214 10.7183 16.2695 10.7475 16.3427 10.8571L16.8414 11.592C16.9146 11.7006 16.8865 11.8477 16.7779 11.921C16.7348 11.9505 16.6853 11.9638 16.6363 11.962" fill="#F7C2E9"/><path id="Fill 14" fill-rule="evenodd" clip-rule="evenodd" d="M15.1022 12.5055C14.9772 12.5012 14.8757 12.3996 14.8731 12.2734L14.853 11.3872C14.8506 11.256 14.9545 11.1466 15.0857 11.1441C15.2259 11.141 15.3253 11.2446 15.3287 11.3758L15.3478 12.263C15.3512 12.3942 15.2474 12.5026 15.1162 12.506L15.1022 12.5055Z" fill="#F7C2E9"/><path id="Fill 16" fill-rule="evenodd" clip-rule="evenodd" d="M16.0046 12.3132C15.9186 12.3102 15.8373 12.2603 15.7982 12.1769L15.3668 11.2633C15.3119 11.1443 15.3629 11.003 15.4809 10.9471C15.6 10.8902 15.7403 10.9422 15.7971 11.0612L16.2275 11.9748C16.2834 12.0938 16.2324 12.2351 16.1144 12.291C16.0788 12.3078 16.0415 12.3145 16.0046 12.3132" fill="#F7C2E9"/><path id="Fill 18" fill-rule="evenodd" clip-rule="evenodd" d="M11.2136 10.3978C11.3 10.5309 11.3905 10.6612 11.4759 10.7942C11.5803 10.958 11.6644 11.128 11.7493 11.3031C11.7577 11.3204 11.755 11.3133 11.7412 11.2788C11.7458 11.29 11.7493 11.3031 11.753 11.3132C11.7584 11.3304 11.7638 11.3476 11.7692 11.3638C11.7735 11.385 11.7778 11.4051 11.783 11.4273C11.7961 11.4838 11.7691 11.4239 11.7826 11.4113C11.7826 11.4113 11.7807 11.4653 11.7817 11.4663C11.774 11.456 11.8034 11.388 11.7836 11.4394C11.7692 11.4789 11.8279 11.3749 11.787 11.4275C11.7796 11.4382 11.7713 11.4469 11.7639 11.4607C11.7816 11.4383 11.7796 11.4402 11.7577 11.4655C11.739 11.4848 11.7213 11.5032 11.7018 11.5196C11.6935 11.5263 11.6143 11.5876 11.6553 11.56C11.6041 11.5932 11.55 11.6233 11.494 11.6514C11.4686 11.6635 11.4452 11.6747 11.4207 11.6869C11.4116 11.6905 11.3163 11.7272 11.3619 11.7098C11.3041 11.7318 11.2433 11.7527 11.1837 11.7696C11.0461 11.8149 10.9352 11.9521 10.9789 12.1037C11.0162 12.2391 11.1643 12.3553 11.311 12.3084C11.5983 12.2174 11.8994 12.1058 12.1162 11.8863C12.2261 11.776 12.3144 11.655 12.3319 11.4965C12.3422 11.4028 12.3268 11.3012 12.299 11.2092C12.1797 10.8138 11.9222 10.4786 11.7001 10.1357C11.6174 10.0107 11.4634 9.94929 11.3247 10.0245C11.2024 10.0883 11.1319 10.2729 11.2136 10.3978" fill="#AE53B9"/><path id="Fill 20" fill-rule="evenodd" clip-rule="evenodd" d="M4.85936 5.35486C4.49606 5.58632 4.12185 5.78639 4.06181 6.27359C4.00932 6.68801 4.27967 6.9406 4.68721 6.87478C4.9407 6.8366 5.13906 6.68643 5.35381 6.58287C5.93004 6.2998 6.51127 6.24606 7.13501 6.3789C7.46468 6.45145 7.82801 6.53418 8.04628 6.10054C8.20019 5.79072 8.11428 5.61462 7.84737 5.46421C7.41645 5.22502 6.94058 5.18439 6.46511 5.16078C5.91948 5.14073 5.38105 5.20097 4.85936 5.35486" fill="#342A83"/><path id="Fill 22" fill-rule="evenodd" clip-rule="evenodd" d="M11.1753 14.4235C11.3731 14.3172 11.5643 14.2201 11.5165 13.9888C11.4719 13.7771 11.2589 13.8007 11.1101 13.8071C10.2135 13.8357 9.45035 13.4919 8.72713 13.004C8.57668 12.9043 8.40344 12.7566 8.20939 12.9058C8.04959 13.0283 8.04094 13.2038 8.14047 13.3784C8.61765 14.2241 10.3515 14.8091 11.1753 14.4235" fill="#AE53B9"/><path id="Fill 24" fill-rule="evenodd" clip-rule="evenodd" d="M15.3363 5.28105C15.6627 5.47456 15.9992 5.6394 16.0673 6.06704C16.1256 6.4303 15.8955 6.65941 15.5358 6.61483C15.3107 6.58695 15.1309 6.4626 14.9407 6.37791C14.4245 6.14676 13.9121 6.11986 13.3671 6.25392C13.0784 6.32489 12.7623 6.41091 12.5572 6.03552C12.4134 5.76934 12.4821 5.60764 12.7131 5.46862C13.0841 5.24643 13.5011 5.19595 13.9195 5.16253C14.3981 5.12521 14.8741 5.16285 15.3363 5.28105" fill="#342A83"/><g id="Group"><path id="Fill 26" fill-rule="evenodd" clip-rule="evenodd" d="M15.7179 9.87083C15.721 9.87037 15.7241 9.8699 15.7272 9.86944C15.923 9.83593 16.1026 9.74472 16.2957 9.69754C16.4727 9.65564 16.6429 9.59427 16.8069 9.51656C17.1385 9.35773 17.433 9.13345 17.6977 8.8816C17.7991 8.78473 17.8968 8.68519 17.991 8.583C18.0563 8.51226 18.2338 8.39834 18.2124 8.17422C18.1672 8.00989 17.8104 7.91447 17.5901 7.78729C16.8237 7.34245 15.983 7.24397 15.1156 7.30324C14.9687 7.31287 14.8515 7.40696 14.7669 7.53013C14.7299 7.58453 14.7372 7.73306 14.7295 7.79974C14.7182 7.89827 14.7099 7.99733 14.7025 8.09657C14.6899 8.2893 14.6862 8.4826 14.6899 8.67516C14.6926 8.85537 14.7192 9.03877 14.704 9.21684C14.6882 9.39886 14.6998 9.59181 14.732 9.77214C14.7434 9.83407 14.7473 9.86419 14.8045 9.87936C14.8509 9.89262 14.9096 9.88774 14.9576 9.89214C15.2081 9.91701 15.4709 9.91257 15.7179 9.87083" fill="#0D2D89"/><path id="Fill 30" fill-rule="evenodd" clip-rule="evenodd" d="M14.7671 7.53059C14.5174 7.38603 14.3117 7.53355 14.1068 7.64161C13.375 8.02537 12.8547 8.47688 12.2364 9.24823C12.2001 9.43679 12.3576 9.52244 12.4712 9.56379C13.186 9.82894 14.0059 10.0334 14.7801 9.87547C14.7801 9.87547 14.6459 8.27585 14.7671 7.53059" fill="#E4E1FB"/><g id="Group 36"><mask id="mask1cca6854f-220f-4cb7-bfca-3aa821ef0f0a" style="mask-type:alpha" maskUnits="userSpaceOnUse" x="12" y="6" width="7" height="5" fill="#ffffff"><path id="Clip 35" fill-rule="evenodd" clip-rule="evenodd" d="M12.6101 6.61388L18.3539 7.62666L17.8508 10.48L12.107 9.4672L12.6101 6.61388Z" fill="#ffffff"/></mask><g mask="url(#mask1cca6854f-220f-4cb7-bfca-3aa821ef0f0a)"><path id="Fill 34" fill-rule="evenodd" clip-rule="evenodd" d="M12.2859 9.49875C12.346 9.50935 12.4103 9.49022 12.4537 9.43999C12.4851 9.40593 12.5259 9.3532 12.5771 9.2871C13.1357 8.57224 14.836 6.39847 17.9723 8.35278C18.0555 8.40501 18.1685 8.38026 18.2233 8.29446C18.2758 8.2093 18.2498 8.09808 18.1638 8.04434C15.9003 6.63386 13.9249 6.97603 12.2905 9.06394C12.2457 9.12205 12.2082 9.16823 12.1812 9.20003C12.1151 9.2757 12.1214 9.38952 12.1969 9.45665C12.2235 9.4786 12.2544 9.4932 12.2859 9.49875" fill="#0D2D89"/></g></g></g><path id="Fill 28" fill-rule="evenodd" clip-rule="evenodd" d="M5.72332 9.49405C5.72959 9.51528 5.73985 9.53665 5.75421 9.55516C5.79255 9.60353 5.84739 9.63746 5.90249 9.6644C6.10101 9.76739 6.31464 9.78186 6.52128 9.85311C6.5628 9.86757 6.60453 9.87603 6.6474 9.88053C6.90968 9.9057 7.17413 9.92594 7.43666 9.94411C8.03063 9.98387 8.63088 9.9588 9.17997 9.70781C8.54333 8.33976 7.48833 7.63351 6.03585 7.47872C5.98502 7.47295 5.86146 8.05999 5.8493 8.12161C5.80668 8.33925 5.78201 8.55852 5.76427 8.78004C5.75228 8.92271 5.73929 9.06534 5.72931 9.20808C5.7232 9.29692 5.69538 9.40602 5.72332 9.49405" fill="#0D2D89"/><path id="Fill 32" fill-rule="evenodd" clip-rule="evenodd" d="M5.70558 9.49732C5.70295 9.37216 5.73516 9.22319 5.74128 9.10533C5.7528 8.91862 5.76536 8.73094 5.78585 8.54555C5.80733 8.36018 5.83481 8.17503 5.87617 7.99336C5.88801 7.94074 5.99226 7.4771 6.03523 7.4786C5.19385 7.44622 4.17669 7.37567 3.48422 8.06493C3.60139 8.37721 4.01149 8.61066 4.25718 8.82437C4.51838 9.05262 4.72771 9.27606 5.06438 9.40589C5.18091 9.44999 5.3023 9.49825 5.42053 9.52239C5.50199 9.53925 5.63702 9.59799 5.71196 9.57259C5.70776 9.54943 5.70567 9.52334 5.70558 9.49732" fill="#E4E1FB"/><path id="Fill 37" fill-rule="evenodd" clip-rule="evenodd" d="M9.10701 9.75088C9.14598 9.75224 9.18641 9.74065 9.2203 9.71581C9.30142 9.65661 9.31939 9.54317 9.26018 9.46205C9.23821 9.43227 9.21062 9.39128 9.17642 9.33905C7.74924 7.19894 5.82953 6.69864 3.46864 7.85795C3.37905 7.90185 3.34123 8.0106 3.38613 8.10022C3.42896 8.19177 3.53978 8.22766 3.62936 8.18376C6.9024 6.57801 8.38444 8.80909 8.8742 9.54063C8.91222 9.59799 8.94267 9.64308 8.9665 9.67693C9.00188 9.7242 9.05304 9.749 9.10701 9.75088" fill="#0D2D89"/></g></g></g></g></g></g></g></svg>