<svg viewBox="24.78 54.28 127.43999999999997 127.43999999999997" fill="none" xmlns="http://www.w3.org/2000/svg" xmlns:xlink="http://www.w3.org/1999/xlink" overflow="visible" width="117.99999999999997px" height="117.99999999999997px"><rect id="Blush Background Color" fill="#f9f9f9" x="24.78" y="54.28" width="127.43999999999997" height="127.43999999999997"/><g id="Master/Character/Avatar"><g id="Group"><circle id="Mask" cx="89" cy="118" r="57" fill="#FBD6FF"/><mask id="mask0483f46ce-b89e-484c-ad84-c686755400d4" style="mask-type:alpha" maskUnits="userSpaceOnUse" x="32" y="61" width="114" height="114" fill="#ffffff"><circle id="Mask_2" cx="89" cy="118" r="57" fill="#ffffff"/></mask><g mask="url(#mask0483f46ce-b89e-484c-ad84-c686755400d4)"><g id="Head" transform="translate(2.44141 20) scale(2.119819859095982 2.1323556782286843)"><g id="Head/Long hair"><g id="Hair"><g id="Group 68"><path id="Fill 2" fill-rule="evenodd" clip-rule="evenodd" d="M5.72374 76.1766C5.44274 74.0636 5.45474 71.2186 6.74374 69.5206C7.87274 68.0336 9.72374 67.3326 11.4167 66.5466C14.4857 65.1196 17.5827 62.8016 18.0877 59.4536C18.3297 57.8456 17.9427 56.1236 18.5777 54.6256C19.9567 51.3816 25.1037 51.2186 26.5157 47.9886C27.1507 46.5376 26.8257 44.8766 26.7027 43.2986C26.3157 38.3756 28.4287 32.9796 32.8377 30.7556C33.1267 30.6096 33.4497 30.4746 33.7657 30.5446C34.0257 30.6026 34.2377 30.7916 34.4057 30.9986C35.0857 31.8396 35.1977 33.0186 35.0257 34.0866C34.8547 35.1546 34.4357 36.1646 34.1597 37.2106C34.0387 37.6656 33.8887 38.1296 34.0237 38.5966C34.1477 39.0246 34.4287 39.4006 34.6997 39.7446C35.1377 40.3046 35.7427 40.6736 35.8717 41.4036C35.9627 41.9156 36.4877 42.5226 36.3067 43.0326C36.1917 43.3556 36.0137 43.6746 35.8957 44.0056C35.6667 44.6446 35.3767 45.2106 34.9027 45.7136C34.3647 46.2856 33.6637 46.9666 33.3107 47.6746C33.1757 47.9436 33.2657 48.3106 33.2547 48.6076C33.2387 49.0716 33.2237 49.5366 33.2097 50.0006C33.1557 51.8586 33.1187 53.7176 33.0997 55.5756C33.0717 58.4216 33.0767 61.3266 32.1717 64.0256C31.2387 66.8096 29.3987 69.1866 27.5187 71.4416C26.1297 73.1076 24.6577 74.7736 22.7557 75.8156C21.6637 76.4136 23.2907 75.3606 22.0417 75.3476C20.7227 75.3336 16.7777 76.0716 15.4937 76.0016C12.2327 75.8246 8.98774 76.2906 5.72374 76.1766" fill="#005f72"/><path id="Fill 4" fill-rule="evenodd" clip-rule="evenodd" d="M35.2006 43.7625C36.1756 42.7075 37.4316 41.9535 38.6166 41.1235C40.5646 39.7565 42.1306 38.1275 42.8476 35.9175C42.9356 35.6485 43.0066 35.3675 43.3896 35.1045C43.5876 35.7225 43.5836 36.2685 43.4866 36.7605C43.1066 38.6765 42.2496 40.3975 40.6846 41.7535C40.0336 42.3185 39.3126 42.8295 38.4956 43.1845M15.2436 75.6155C15.2086 76.0225 15.2586 76.0245 15.6406 76.0415C16.3996 76.0765 21.5276 76.2005 21.5276 76.2005C21.9446 76.1085 21.6376 75.9555 21.8066 75.5545C22.3526 74.2625 23.1656 73.0575 23.8246 71.8145C24.1196 71.2555 24.4716 70.7285 24.8106 70.1955C25.0676 69.7915 25.2226 69.3335 25.4726 68.9385C25.7496 68.4995 26.3046 68.1745 26.6836 67.8235C27.1316 67.4085 27.5596 66.9715 27.9626 66.5135C28.3896 66.0295 28.7856 65.5185 29.1436 64.9815C29.4556 64.5125 29.7286 64.0175 30.0106 63.5305C31.0156 61.7915 31.9176 59.9865 33.1086 58.3645C33.6776 57.5895 34.3176 56.8615 35.0496 56.2365C35.4076 55.9295 35.7876 55.6485 36.1906 55.4025C36.5196 55.2005 36.9076 54.9905 37.1976 54.7395C37.7886 54.2275 37.9556 53.3775 37.9456 52.5955C37.9296 51.4195 37.5856 50.2495 36.9646 49.2505C36.6926 48.8125 36.3686 48.4085 36.1056 47.9645C35.9786 47.7525 35.8506 47.5245 35.7806 47.2855C35.6516 46.8455 35.3126 46.4545 35.3686 45.9715C35.4586 45.1985 36.9246 44.6425 37.5486 44.3755C39.1006 43.7095 40.5056 42.8455 41.6716 41.6805C41.8646 41.4885 42.0426 41.2855 42.2076 41.0625C43.1016 39.8625 43.8106 38.5865 44.1086 37.1605C44.2456 36.5085 44.3006 35.7825 44.1216 35.1555C43.9856 34.6815 44.0136 34.2335 43.9516 33.7765C43.6646 32.3175 42.9936 31.0285 42.0586 29.9685C40.0146 30.7075 38.7646 32.2435 37.1896 33.4015C36.1966 34.1315 35.2966 34.9965 34.5746 35.9785C33.9756 36.7905 33.3226 37.5885 32.8696 38.4685C32.2396 39.6965 31.7166 40.9585 31.4676 42.3355C31.2606 43.4855 31.2406 44.5305 31.7206 45.6135C32.2026 46.7005 32.4256 47.8655 32.6016 49.0175C32.8166 50.4245 32.2476 51.7465 31.7006 53.0205C31.1006 54.4155 29.8066 55.3495 28.6036 56.2775C27.7636 56.9245 26.8616 57.5695 26.3006 58.4915C25.7606 59.3775 25.6626 60.6005 25.5096 61.6055C25.4106 62.2535 25.4306 62.8975 25.2816 63.5475C25.1336 64.1965 24.9266 64.8295 24.7056 65.4565C24.2236 66.8245 23.3146 67.8815 22.1516 68.7155C20.9056 69.6085 19.6296 70.4705 18.3696 71.3475C17.5796 71.8985 16.9356 72.6125 16.3306 73.3545C16.1786 73.5405 15.9896 73.7685 15.8166 74.0175C15.4846 74.4965 15.2956 75.0305 15.2436 75.6155" fill="#0d93b2"/><path id="Fill 6" fill-rule="evenodd" clip-rule="evenodd" d="M14.9094 75.5858C14.8874 76.0478 14.8734 76.1548 14.3804 76.1818C13.8804 76.2098 13.3704 76.1808 12.8694 76.1798C11.2804 76.1778 9.69141 76.1738 8.10241 76.1728C7.51741 76.1728 7.01041 76.3778 6.96741 75.6718C6.94441 75.2988 7.05841 74.9358 7.07541 74.5658C7.11341 73.7018 7.33241 72.8488 7.72241 72.0758C8.11341 71.2998 8.56241 70.5598 9.14641 69.9048C9.95741 68.9958 10.9774 68.3148 12.1104 67.7508C13.1444 67.2358 14.1044 66.5988 15.1274 66.0648C15.4544 65.8948 15.7224 65.6898 15.9784 65.4558C16.8954 64.6168 17.8224 63.7848 18.7244 62.9328C19.8204 61.8988 20.4464 60.6778 20.4034 59.2068C20.3914 58.8328 20.4334 58.4568 20.3944 58.0858C20.2904 57.1058 20.5704 56.1918 20.8744 55.2688C21.0634 54.6948 21.4014 54.2178 21.9194 53.9188C22.7864 53.4188 23.5444 52.7228 24.6044 52.5348C24.9414 52.4758 25.1884 52.2278 25.4044 52.0598C26.4014 51.2838 27.4384 50.4888 27.8214 49.2788C28.0984 48.4048 28.4074 47.5258 28.4034 46.5938C28.3964 44.7608 28.4094 42.9268 28.3974 41.0938C28.3824 38.8048 29.6254 36.8618 30.8974 35.0748C31.6864 33.9658 32.7524 33.1068 33.9294 32.3748C34.3454 32.1148 34.7624 31.8328 35.1254 31.5438C36.5164 30.4398 38.2034 29.9068 39.8694 29.3448C40.3464 29.1848 40.9424 29.3198 41.4524 29.3198C41.5484 29.6238 41.3574 29.6268 41.2104 29.7278C39.7864 30.7038 38.2984 31.6148 37.1064 32.8438C36.7584 33.2028 36.2784 33.3808 35.9154 33.7118C35.2424 34.3248 34.7874 35.0898 34.1964 35.7598C34.1204 35.8458 33.1364 38.3478 33.0314 38.4448C31.3274 40.0208 31.6494 39.7018 31.0484 41.7668C30.7754 42.7028 30.8624 43.6288 30.8594 44.5598C30.8574 45.2108 31.3164 45.7968 31.2904 46.4678C32.1114 47.7468 31.9614 49.1618 31.9494 50.5518C31.9414 51.4178 31.5604 52.2158 31.1344 52.9538C30.3544 54.2988 29.1484 55.3188 27.8044 56.1938C26.6004 56.9778 25.6584 58.3218 25.2634 59.6168C25.1124 60.1158 25.0674 60.5918 25.0704 61.0868C25.0804 62.7888 24.6584 64.3978 23.8874 65.9388C23.4514 66.8108 22.8704 67.5268 22.0044 68.1408C20.7214 69.0508 19.3184 69.8198 18.1314 70.8358C17.2324 71.6048 16.3814 72.3738 15.6534 73.3098C15.1484 73.9578 14.9494 74.7718 14.9094 75.5858" fill="#0d93b2"/><path id="Fill 8" fill-rule="evenodd" clip-rule="evenodd" d="M4.13727 70.4798C4.37827 69.9858 4.69727 69.5188 4.96827 69.0348C5.47127 68.1388 6.37927 67.6138 7.20227 67.0228C8.78227 65.8888 10.5203 64.9778 12.3163 64.1678C13.2963 63.7248 13.9913 62.9998 14.7283 62.3118C15.1543 61.9138 15.1673 61.3278 15.2503 60.8438C15.4593 59.6268 15.2093 58.5148 15.2073 57.3108C15.2073 56.9138 15.2073 56.4718 15.3003 56.0988C16.0733 52.9888 18.5193 51.6568 21.3623 50.6948C22.3413 50.3638 23.3683 50.2568 24.1543 49.5008C24.7463 48.9308 25.3053 48.1098 25.3973 47.2888C25.5263 46.1268 25.2933 45.0708 25.1383 43.9308C25.0373 43.1808 25.0103 42.4208 25.0183 41.6648C25.0363 40.0238 25.2263 38.1308 25.7203 36.5618C25.9093 35.9618 26.2623 35.4108 26.6543 34.8998C27.2563 34.1148 27.7403 33.2168 28.4823 32.5478C29.2843 31.8228 30.2203 31.1588 31.1343 30.5798C32.6083 29.6448 34.2793 29.1048 36.0053 28.6788C37.4533 28.3208 38.9003 28.5778 40.3333 28.4748C40.3593 28.6318 40.3693 28.6948 40.3923 28.8378C38.9683 28.7798 37.8843 29.6258 36.6293 30.0418C35.9423 30.2708 35.3423 30.7408 34.7353 31.1428C33.8023 31.7608 32.8963 32.4148 31.9813 33.0548C31.8933 33.1168 31.8083 33.1868 31.7443 33.2688C30.2743 35.1308 28.7843 36.7268 28.1723 39.0698C28.0603 39.4978 27.8243 39.9138 27.7673 40.3338C27.5243 42.1468 28.0843 44.0148 27.9373 45.8378C27.8143 47.3708 27.6263 48.9078 26.6333 50.2388C26.1763 50.8508 25.6593 51.3958 24.9393 51.7518C24.2793 52.0788 23.6353 52.4438 22.9443 52.7038C22.4183 52.8998 22.0453 53.2378 21.6163 53.5398C20.7603 54.1398 20.3863 55.0008 20.0423 55.8628C19.8373 56.3758 19.7843 56.9518 19.7473 57.5048C19.6993 58.2148 19.7403 58.9308 19.7343 59.6438C19.7263 60.7848 19.2053 61.7588 18.4173 62.5838C17.6153 63.4258 16.6973 64.1748 15.8413 64.9738C15.1743 65.5968 14.2833 65.9028 13.5133 66.3828C12.6943 66.8938 11.8193 67.3318 10.9623 67.7918C8.73027 68.9898 6.98327 71.4238 6.49027 73.9158C6.33927 74.6788 6.08527 75.4748 6.40027 76.2298C6.23227 76.1498 5.97427 76.1798 5.79527 76.1768C5.44127 76.1718 5.08627 76.1808 4.73227 76.1878C4.39027 76.1948 4.01627 76.2468 3.67927 76.2208C3.15227 76.1798 3.15327 75.6378 3.19327 75.2488C3.23827 74.8058 3.29527 74.3628 3.35827 73.9218C3.48527 73.0268 3.62127 72.1218 3.85427 71.2458C3.89527 71.0908 3.93927 70.9348 4.00027 70.7858C4.04227 70.6818 4.08827 70.5808 4.13727 70.4798" fill="#0d93b2"/><g id="Group 12"><path id="Fill 10" fill-rule="evenodd" clip-rule="evenodd" d="M1.39912 76.1959C0.80512 75.0889 0.51012 70.0829 3.22712 66.6339C4.24912 65.3369 5.69812 64.5419 7.10012 63.7729C8.57112 62.9659 9.96112 62.2029 10.7881 60.9299C11.4881 59.8519 11.7731 58.6209 12.0761 57.3179C12.4361 55.7699 12.8081 54.1679 13.9111 52.7259C15.0301 51.2619 16.5721 50.5949 18.0641 49.9499C19.2861 49.4209 20.4401 48.9219 21.3451 48.0149C22.7351 46.6219 23.0841 44.8099 23.4531 42.8919C23.6151 42.0519 23.7821 41.1829 24.0431 40.3469C24.8401 37.8019 26.0131 36.0529 27.7701 33.8909C27.9571 33.6599 28.2971 33.6249 28.5271 33.8119C28.7581 33.9999 28.7931 34.3389 28.6051 34.5689C26.9311 36.6299 25.8151 38.2879 25.0711 40.6679C24.8281 41.4459 24.6661 42.2839 24.5101 43.0949C24.1261 45.0879 23.7291 47.1479 22.1071 48.7749C21.0571 49.8279 19.7521 50.3919 18.4911 50.9369C17.0631 51.5549 15.7141 52.1379 14.7651 53.3789C13.8041 54.6369 13.4741 56.0579 13.1241 57.5619C12.8141 58.8979 12.4931 60.2799 11.6901 61.5159C10.7171 63.0159 9.14112 63.8809 7.61812 64.7169C6.25012 65.4669 4.95912 66.1749 4.07212 67.2999C1.60312 70.4349 1.96912 74.9829 2.34812 75.6859C2.48812 75.9479 2.39012 76.2739 2.12812 76.4149C2.04712 76.4579 1.96012 76.4789 1.87412 76.4789C1.68212 76.4789 1.49712 76.3759 1.39912 76.1959Z" fill="#0d93b2"/></g><path id="Fill 13" fill-rule="evenodd" clip-rule="evenodd" d="M69.6007 68.995C68.4717 67.508 66.6207 66.807 64.9277 66.021C61.8587 64.594 58.7617 62.276 58.2567 58.928C58.0147 57.32 58.4017 55.598 57.7657 54.1C56.3877 50.856 51.2407 50.693 49.8277 47.463C49.1937 46.012 49.5187 44.351 49.6417 42.773C50.0287 37.85 47.9147 32.454 43.5067 30.23C43.2177 30.084 42.8947 29.949 42.5787 30.019C42.3177 30.077 42.1067 30.266 41.9387 30.473C41.2577 31.314 41.1467 32.493 41.3187 33.561C41.4897 34.629 41.9087 35.639 42.1847 36.685C42.3057 37.14 42.4557 37.604 42.3207 38.071C42.1967 38.499 41.9157 38.875 41.6447 39.219C41.2057 39.779 40.6017 40.148 40.4717 40.878C40.3817 41.39 39.8567 41.997 40.0377 42.507C40.1527 42.83 40.3307 43.149 40.4487 43.48C40.6777 44.119 40.9677 44.685 41.4417 45.188C41.9797 45.76 42.6807 46.441 43.0337 47.149C43.1687 47.418 43.0787 47.785 43.0897 48.082C43.1057 48.546 43.1207 49.011 43.1347 49.475C43.1887 51.333 43.2257 53.192 43.2447 55.05C43.2727 57.896 43.2677 60.801 44.1727 63.5C45.1057 66.284 46.9457 68.661 48.8257 70.916C50.2147 72.582 51.6867 74.248 53.5887 75.29C54.6797 75.888 53.0537 74.835 54.3027 74.822C55.6217 74.808 59.5667 75.546 60.8507 75.476C64.1117 75.299 67.3567 75.765 70.6207 75.651C70.9007 73.538 70.8897 70.693 69.6007 68.995Z" fill="#005f72"/><path id="Fill 17" fill-rule="evenodd" clip-rule="evenodd" d="M61.8703 75.5858C61.8923 76.0478 61.9063 76.1548 62.3993 76.1818C62.8993 76.2098 63.4093 76.1808 63.9093 76.1798C65.4983 76.1778 67.0883 76.1738 68.6773 76.1728C69.2623 76.1728 69.7683 76.3778 69.8123 75.6718C69.8353 75.2988 69.7213 74.9358 69.7043 74.5658C69.6663 73.7018 69.4473 72.8488 69.0573 72.0758C68.6663 71.2998 68.2163 70.5598 67.6333 69.9048C66.8223 68.9958 65.8023 68.3148 64.6683 67.7508C63.6353 67.2358 62.6753 66.5988 61.6513 66.0648C61.3253 65.8948 61.0573 65.6898 60.8013 65.4558C59.8833 64.6168 58.9573 63.7848 58.0543 62.9328C56.9583 61.8988 56.3333 60.6778 56.3763 59.2068C56.3883 58.8328 56.3463 58.4568 56.3853 58.0858C56.4893 57.1058 56.2093 56.1918 55.9053 55.2688C55.7163 54.6948 55.3773 54.2178 54.8593 53.9188C53.9933 53.4188 53.2353 52.7228 52.1753 52.5348C51.8383 52.4758 51.5913 52.2278 51.3743 52.0598C50.3783 51.2838 49.3413 50.4888 48.9573 49.2788C48.6813 48.4048 48.3723 47.5258 48.3763 46.5938C48.3833 44.7608 48.3703 42.9268 48.3823 41.0938C48.3973 38.8048 47.1543 36.8618 45.8823 35.0748C45.0923 33.9658 44.0273 33.1068 42.8503 32.3748C42.4343 32.1148 42.0173 31.8328 41.6543 31.5438C40.2633 30.4398 38.5763 29.9068 36.9093 29.3448C36.4333 29.1848 35.8363 29.3198 35.3273 29.3198C35.2313 29.6238 35.4213 29.6268 35.5693 29.7278C36.9933 30.7038 38.4813 31.6148 39.6733 32.8438C40.0213 33.2028 40.5013 33.3808 40.8643 33.7118C41.5373 34.3248 41.9923 35.0898 42.5833 35.7598C42.6593 35.8458 43.6433 38.3478 43.7483 38.4448C45.4523 40.0208 45.1303 39.7018 45.7313 41.7668C46.0043 42.7028 45.9173 43.6288 45.9203 44.5598C45.9223 45.2108 45.4633 45.7968 45.4893 46.4678C44.6673 47.7468 44.8183 49.1618 44.8303 50.5518C44.8373 51.4178 45.2193 52.2158 45.6453 52.9538C46.4243 54.2988 47.6313 55.3188 48.9753 56.1938C50.1793 56.9778 51.1213 58.3218 51.5153 59.6168C51.6673 60.1158 51.7113 60.5918 51.7083 61.0868C51.6983 62.7888 52.1213 64.3978 52.8923 65.9388C53.3283 66.8108 53.9093 67.5268 54.7753 68.1408C56.0573 69.0508 57.4603 69.8198 58.6483 70.8358C59.5473 71.6048 60.3983 72.3738 61.1263 73.3098C61.6313 73.9578 61.8303 74.7718 61.8703 75.5858" fill="#0d93b2"/><path id="Fill 1" fill-rule="evenodd" clip-rule="evenodd" d="M36.9649 49.2501L29.7349 59.1581L18.6689 73.6821L21.5279 76.2001H55.2509C55.2509 76.2001 61.9161 76.2298 61.9161 76.2298C61.9161 76.2298 61.5022 74.0418 58.6778 72.1719C50.9331 67.0444 50.9331 64.1934 49.6279 59.8564C48.3227 55.5195 43.591 53.0229 43.5517 53.8346C43.4548 55.8342 39.8139 49.2501 39.8139 49.2501H36.9649Z" fill="#0d93b2"/><path id="Fill 19" fill-rule="evenodd" clip-rule="evenodd" d="M72.6422 70.4798C72.4012 69.9858 72.0822 69.5188 71.8102 69.0348C71.3082 68.1388 70.3992 67.6138 69.5772 67.0228C67.9972 65.8888 66.2592 64.9778 64.4632 64.1678C63.4832 63.7248 62.7882 62.9998 62.0512 62.3118C61.6242 61.9138 61.6122 61.3278 61.5292 60.8438C61.3202 59.6268 61.5702 58.5148 61.5722 57.3108C61.5722 56.9138 61.5722 56.4718 61.4792 56.0988C60.7052 52.9888 58.2602 51.6568 55.4172 50.6948C54.4372 50.3638 53.4112 50.2568 52.6252 49.5008C52.0322 48.9308 51.4732 48.1098 51.3822 47.2888C51.2532 46.1268 51.4862 45.0708 51.6412 43.9308C51.7422 43.1808 51.7692 42.4208 51.7602 41.6648C51.7432 40.0238 51.5522 38.1308 51.0592 36.5618C50.8702 35.9618 50.5172 35.4108 50.1252 34.8998C49.5232 34.1148 49.0392 33.2168 48.2972 32.5478C47.4952 31.8228 46.5592 31.1588 45.6442 30.5798C44.1702 29.6448 42.5002 29.1048 40.7742 28.6788C39.3262 28.3208 37.8782 28.5778 36.4462 28.4748C36.4202 28.6318 36.4102 28.6948 36.3872 28.8378C37.8112 28.7798 38.8952 29.6258 40.1502 30.0418C40.8372 30.2708 41.4372 30.7408 42.0442 31.1428C42.9772 31.7608 43.8832 32.4148 44.7982 33.0548C44.8852 33.1168 44.9712 33.1868 45.0352 33.2688C46.5052 35.1308 47.9952 36.7268 48.6072 39.0698C48.7192 39.4978 48.9552 39.9138 49.0122 40.3338C49.2552 42.1468 48.6952 44.0148 48.8422 45.8378C48.9652 47.3708 49.1532 48.9078 50.1452 50.2388C50.6032 50.8508 51.1202 51.3958 51.8402 51.7518C52.5002 52.0788 53.1442 52.4438 53.8352 52.7038C54.3612 52.8998 54.7342 53.2378 55.1632 53.5398C56.0182 54.1398 56.3932 55.0008 56.7372 55.8628C56.9422 56.3758 56.9952 56.9518 57.0322 57.5048C57.0802 58.2148 57.0392 58.9308 57.0442 59.6438C57.0532 60.7848 57.5742 61.7588 58.3622 62.5838C59.1642 63.4258 60.0822 64.1748 60.9382 64.9738C61.6052 65.5968 62.4962 65.9028 63.2662 66.3828C64.0852 66.8938 64.9602 67.3318 65.8162 67.7918C68.0492 68.9898 69.7952 71.4238 70.2892 73.9158C70.4402 74.6788 70.6942 75.4748 70.3792 76.2298C70.5472 76.1498 70.8052 76.1798 70.9842 76.1768C71.3382 76.1718 71.6932 76.1808 72.0462 76.1878C72.3892 76.1948 72.7632 76.2468 73.1002 76.2208C73.6272 76.1798 73.6262 75.6378 73.5862 75.2488C73.5412 74.8058 73.4842 74.3628 73.4212 73.9218C73.2942 73.0268 73.1582 72.1218 72.9252 71.2458C72.8842 71.0908 72.8392 70.9348 72.7792 70.7858C72.7372 70.6818 72.6912 70.5808 72.6422 70.4798" fill="#0d93b2"/><g id="Group 23"><path id="Fill 21" fill-rule="evenodd" clip-rule="evenodd" d="M74.9055 76.4789C74.8195 76.4789 74.7325 76.4579 74.6515 76.4149C74.3895 76.2739 74.2915 75.9479 74.4315 75.6869C74.8095 74.9819 75.1765 70.4339 72.7065 67.2999C71.8205 66.1749 70.5295 65.4669 69.1615 64.7159C67.6385 63.8799 66.0625 63.0159 65.0895 61.5159C64.2865 60.2799 63.9655 58.8979 63.6555 57.5619C63.3055 56.0579 62.9755 54.6379 62.0135 53.3789C61.0645 52.1379 59.7165 51.5549 58.2875 50.9369C57.0265 50.3919 55.7225 49.8279 54.6725 48.7749C53.0505 47.1489 52.6535 45.0879 52.2695 43.0959C52.1135 42.2849 51.9515 41.4459 51.7085 40.6679C50.9645 38.2879 49.8485 36.6289 48.1735 34.5689C47.9865 34.3389 48.0215 33.9999 48.2515 33.8119C48.4835 33.6249 48.8215 33.6609 49.0085 33.8909C50.7665 36.0519 51.9395 37.8019 52.7355 40.3469C52.9975 41.1829 53.1645 42.0519 53.3265 42.8929C53.6955 44.8109 54.0445 46.6219 55.4335 48.0149C56.3385 48.9219 57.4925 49.4209 58.7155 49.9499C60.2065 50.5949 61.7495 51.2619 62.8685 52.7259C63.9715 54.1679 64.3435 55.7699 64.7035 57.3179C65.0065 58.6219 65.2915 59.8529 65.9915 60.9299C66.8185 62.2029 68.2075 62.9659 69.6795 63.7729C71.0805 64.5419 72.5305 65.3369 73.5515 66.6339C76.2685 70.0819 75.9745 75.0879 75.3805 76.1949C75.2825 76.3759 75.0975 76.4789 74.9055 76.4789" fill="#0d93b2"/></g><path id="Fill 24" fill-rule="evenodd" clip-rule="evenodd" d="M53.0825 51.1737C53.1675 51.4257 53.2055 51.6787 53.1365 51.9117C52.9715 52.4747 52.5605 52.4437 52.0625 52.4477C51.4055 52.4537 50.7465 52.4547 50.0885 52.4617C49.5175 52.4667 48.4345 52.6697 48.1275 52.0057C47.9475 51.6167 48.2055 51.1237 48.2805 50.7357C48.3375 50.4457 48.8925 47.1357 49.0035 47.1687C49.1965 47.2267 49.4715 47.0497 49.5745 47.3677C49.5255 48.2377 48.9195 51.0117 49.0485 51.5397H52.1845C52.2865 51.3467 51.1985 49.2687 50.7965 48.3257C50.5775 47.8127 50.2695 47.3307 50.0155 46.8347C49.8885 46.5867 49.1745 45.1457 50.1175 45.4597C50.3585 45.5397 51.3095 47.5057 51.6235 48.1517C51.9375 48.7997 52.2425 49.4527 52.5605 50.0997C52.7105 50.4077 52.9535 50.7897 53.0825 51.1737" fill="#752A86"/><path id="Fill 26" fill-rule="evenodd" clip-rule="evenodd" d="M37.0268 50.8016V50.8036C37.0278 50.8036 37.0278 50.8056 37.0308 50.8056L37.0268 50.8016Z" fill="#523E8C"/><g id="Group"><rect id="Rectangle" x="37.1899" y="44.4041" width="8" height="17" rx="4" transform="rotate(10 37.1899 44.4041)" fill="#89a3f9"/><path id="Fill 44" fill-rule="evenodd" clip-rule="evenodd" d="M43.0854 57.1585C38.0054 56.7165 35.7192 49.4616 35.7192 49.4616L43.984 51.9484L43.0854 57.1585Z" fill="#7294e8"/></g><path id="Fill 30" fill-rule="evenodd" clip-rule="evenodd" d="M29.4154 43.7752C29.0024 45.5592 30.1114 47.3372 31.8934 47.7512C33.6754 48.1632 35.4534 47.0522 35.8664 45.2722C36.2794 43.4902 35.1684 41.7122 33.3874 41.2992C31.6064 40.8862 29.8274 41.9942 29.4154 43.7752" fill="#89a3f9"/><path id="Fill 32" fill-rule="evenodd" clip-rule="evenodd" d="M33.5461 45.744C33.5461 45.744 34.0871 43.406 31.7671 43.256Z" fill="#7294e8"/><path id="Fill 34" fill-rule="evenodd" clip-rule="evenodd" d="M41.1134 52.8983V52.8983C45.3124 53.5813 49.3094 50.8253 49.9834 47.4153L51.5244 39.3583C52.3654 35.0853 50.2054 30.9973 45.9614 30.0123C41.6164 29.0063 35.9754 31.4503 34.9684 35.7943L33.8014 42.2883C32.8974 47.3103 36.1424 51.7463 41.1134 52.8983" fill="#89a3f9"/><path id="Fill 36" fill-rule="evenodd" clip-rule="evenodd" d="M46.3579 38.5311C47.5709 37.9591 48.6679 37.1651 49.5119 36.1291C49.5109 36.1311 50.7969 37.7581 50.9509 37.9601C51.5139 38.7001 51.5659 39.8641 51.3189 40.7271C51.4099 40.4111 51.8189 40.0321 51.9829 39.7281C52.1789 39.3621 52.3409 38.9771 52.4679 38.5811C52.7229 37.7861 52.8369 36.9471 52.8169 36.1131C52.7779 34.5051 52.2299 32.6931 51.0829 31.5171C50.8379 31.2651 50.5129 31.1591 50.2329 30.9541C49.7979 30.6341 49.3769 30.3111 48.9069 30.0391C48.6009 29.8611 48.3619 29.6981 48.0179 29.6751C47.8469 29.6631 47.6769 29.6381 47.5099 29.6041C47.1599 29.5321 46.8199 29.4161 46.4879 29.2831C45.9589 29.0721 45.4559 28.7951 44.9229 28.5931C44.8149 28.5511 44.7139 28.5121 44.5969 28.5031C44.3959 28.4871 44.2059 28.5091 44.0029 28.4761C43.3929 28.3791 42.7859 28.2721 42.1739 28.1921C41.4129 28.0911 40.6469 28.0201 39.8789 28.0081C39.1939 27.9981 38.3909 27.9651 37.7329 28.1821C37.5329 28.2481 37.3559 28.3651 37.1579 28.4391C36.8679 28.5461 36.5569 28.5911 36.2629 28.6901C35.0879 29.0841 34.0519 29.8511 33.2749 30.8091C32.2269 32.0971 31.6259 33.7041 31.3389 35.3401C31.0989 36.7111 31.0709 38.1181 31.2529 39.4981C31.2999 39.8531 31.3589 40.2081 31.4349 40.5591C31.4789 40.7591 31.5189 40.9851 31.6879 41.1201C31.8169 41.2251 31.9899 41.2451 32.1489 41.2691C32.6289 41.3431 33.1069 41.4241 33.4899 41.7581C33.6949 41.9371 33.9589 42.1201 34.0229 42.3891C34.0759 42.6121 34.0099 42.8391 34.0969 43.0721C34.7019 42.1381 35.3069 41.2051 35.9119 40.2721C36.0409 40.0721 36.1779 39.8651 36.3849 39.7481C36.6429 39.6021 36.9589 39.6221 37.2539 39.6441C39.4609 39.8101 41.7029 39.8561 43.8629 39.3761C44.7179 39.1851 45.5629 38.9061 46.3579 38.5311" fill="#0d93b2"/><path id="Fill 40" fill-rule="evenodd" clip-rule="evenodd" d="M38.2373 42.7889V42.7909C38.2363 42.7909 38.2363 42.7929 38.2353 42.7929L38.2373 42.7889Z" fill="#5F4596"/><path id="Fill 42" fill-rule="evenodd" clip-rule="evenodd" d="M50.9321 43.1043V43.1063H50.9341L50.9321 43.1043Z" fill="#5F4596"/><path id="Fill 44" fill-rule="evenodd" clip-rule="evenodd" d="M33.2251 38.328C32.7811 38.328 32.3371 38.286 31.8991 38.198C31.7641 38.17 31.6761 38.038 31.7031 37.903C31.7301 37.768 31.8641 37.679 31.9971 37.707C35.0381 38.32 38.3931 36.569 39.6321 33.725C39.6881 33.599 39.8361 33.542 39.9611 33.596C40.0881 33.651 40.1451 33.798 40.0901 33.925C38.9391 36.567 36.0871 38.328 33.2251 38.328" fill="#005f72"/><path id="Fill 46" fill-rule="evenodd" clip-rule="evenodd" d="M30.1547 51.1737C30.0697 51.4257 30.0317 51.6787 30.1007 51.9117C30.2657 52.4747 30.6767 52.4437 31.1747 52.4477C31.8327 52.4537 32.4907 52.4547 33.1487 52.4617C33.7197 52.4667 34.8027 52.6697 35.1097 52.0057C35.2897 51.6167 35.0327 51.1237 34.9567 50.7357C34.8997 50.4457 34.3447 47.1357 34.2337 47.1687C34.0407 47.2267 33.7657 47.0497 33.6637 47.3677C33.7117 48.2377 34.3177 51.0117 34.1887 51.5397H31.0527C30.9507 51.3467 32.0387 49.2687 32.4407 48.3257C32.6597 47.8127 32.9677 47.3307 33.2217 46.8347C33.3487 46.5867 34.0627 45.1457 33.1207 45.4597C32.8787 45.5397 31.9277 47.5057 31.6137 48.1517C31.2997 48.7997 30.9947 49.4527 30.6767 50.0997C30.5267 50.4077 30.2837 50.7897 30.1547 51.1737" fill="#752A86"/><path id="Fill 48" fill-rule="evenodd" clip-rule="evenodd" d="M37.6934 39.7962C37.7284 39.7832 37.1364 38.6992 37.0764 38.6052C36.9554 38.4152 36.8254 38.2312 36.6874 38.0522C36.6004 37.9412 36.5024 37.7782 36.3624 37.7242C35.8884 37.5412 35.8264 38.7182 35.8234 38.9552C35.8214 39.1562 35.8444 39.3542 35.8714 39.5532C35.9084 39.8312 35.9164 40.1372 35.9884 40.4062C36.2734 40.3482 36.5654 40.2022 36.8394 40.1032C37.1244 40.0012 37.4084 39.8982 37.6934 39.7962" fill="#752A86"/><path id="Fill 50" fill-rule="evenodd" clip-rule="evenodd" d="M38.9492 33.5174V33.5194C38.9482 33.5194 38.9482 33.5214 38.9472 33.5214L38.9492 33.5174Z" fill="#5F4596"/><path id="Fill 52" fill-rule="evenodd" clip-rule="evenodd" d="M51.644 33.8329V33.8349H51.646L51.644 33.8329Z" fill="#5F4596"/><path id="Fill 54" fill-rule="evenodd" clip-rule="evenodd" d="M46.3898 33.0907L44.7148 32.8687L44.7818 32.3567L46.4568 32.5777L46.3898 33.0907Z" fill="black"/><path id="Fill 56" fill-rule="evenodd" clip-rule="evenodd" d="M38.0694 34.2049C38.8314 36.0609 40.8914 36.9749 42.6734 36.2449C44.4544 35.5149 45.2794 33.4179 44.5194 31.5589C43.7564 29.7029 38.6794 29.5239 36.8984 30.2539C36.8984 30.2539 37.3064 32.3459 38.0694 34.2049" fill="#1A1547"/><path id="Fill 58" fill-rule="evenodd" clip-rule="evenodd" d="M38.4105 34.0653C39.0935 35.7293 40.9435 36.5553 42.5325 35.9033C44.1215 35.2523 44.8595 33.3663 44.1775 31.7003C43.5515 30.1773 39.1975 29.9373 37.3265 30.4953C37.4695 31.1403 37.8415 32.6793 38.4105 34.0653M41.4025 36.8643C39.8575 36.8643 38.3685 35.9093 37.7265 34.3453C36.9595 32.4743 36.5525 30.4123 36.5355 30.3253L36.4775 30.0273L36.7575 29.9123C38.5505 29.1763 43.9705 29.2513 44.8605 31.4193C45.6975 33.4633 44.7785 35.7813 42.8125 36.5873C42.3525 36.7753 41.8745 36.8643 41.4025 36.8643" fill="black"/><path id="Fill 60" fill-rule="evenodd" clip-rule="evenodd" d="M38.308 34.1073C39.014 35.8283 40.927 36.6803 42.575 36.0063C44.22 35.3323 44.985 33.3813 44.28 31.6583C43.626 30.0633 39.047 29.8163 37.197 30.4203C37.322 30.9983 37.704 32.6363 38.308 34.1073M41.403 36.7533C39.901 36.7533 38.454 35.8243 37.829 34.3033C37.066 32.4413 36.661 30.3903 36.644 30.3033L36.603 30.0953L36.8 30.0153C38.566 29.2923 43.89 29.3473 44.758 31.4613C45.571 33.4483 44.68 35.7023 42.771 36.4843C42.324 36.6673 41.861 36.7533 41.403 36.7533" fill="black"/><path id="Fill 62" fill-rule="evenodd" clip-rule="evenodd" d="M46.4891 32.5467C45.8781 34.3307 46.7721 36.2527 48.4831 36.8387C50.1941 37.4237 52.0771 36.4507 52.6881 34.6657C53.2991 32.8817 53.4561 31.2027 53.4561 31.2027C51.4431 30.3907 47.1001 30.7617 46.4891 32.5467" fill="#1A1547"/><path id="Fill 64" fill-rule="evenodd" clip-rule="evenodd" d="M50.9133 31.0497C49.8063 31.0497 48.6613 31.2417 47.8453 31.6137C47.2533 31.8847 46.8683 32.2367 46.7333 32.6307V32.6317C46.4593 33.4307 46.5003 34.2837 46.8493 35.0337C47.1963 35.7797 47.8063 36.3347 48.5663 36.5947C50.1413 37.1327 51.8793 36.2297 52.4433 34.5827C52.9163 33.1977 53.1153 31.8637 53.1763 31.3747C52.5443 31.1567 51.7393 31.0497 50.9133 31.0497M49.5003 37.2667C49.1343 37.2677 48.7633 37.2087 48.3993 37.0837C47.5043 36.7777 46.7873 36.1267 46.3803 35.2517C45.9753 34.3797 45.9273 33.3897 46.2443 32.4637C46.4293 31.9247 46.8953 31.4807 47.6303 31.1437C49.2493 30.4037 51.9613 30.3217 53.5523 30.9637L53.7313 31.0357L53.7133 31.2277C53.7063 31.2977 53.5453 32.9577 52.9323 34.7497C52.4053 36.2887 50.9913 37.2667 49.5003 37.2667" fill="black"/><path id="Fill 66" fill-rule="evenodd" clip-rule="evenodd" d="M36.8871 30.9417L30.2661 33.7377L32.8631 34.1747L37.3251 32.7067C37.3971 32.4407 36.9631 31.3267 36.8871 30.9417" fill="black"/></g></g></g></g><g id="Upper Body" transform="translate(-53 26.5178) scale(2.1294117647058823 2.124879991686022)"><g id="Upper Body/Holding Phone"><path id="Upper" fill-rule="evenodd" clip-rule="evenodd" d="M67.5532 54.3278C67.5532 54.3278 61.0645 53.991 60.9995 54.009C60.8406 54.0525 60.8352 54.4678 60.0598 54.7305C56.5768 55.9103 47.669 58.6062 46.2605 59.2093C45.3491 59.5996 60.7526 61.585 62.5206 61.722C63.4026 61.79 64.2926 61.773 65.1706 61.665C65.3856 61.639 65.5956 61.603 65.8106 61.593C66.0216 61.582 66.2096 61.507 66.4116 61.443L67.7436 61.02C70.0096 60.393 73.7116 59.369 75.9776 58.742L77.1156 58.472C77.6246 58.352 77.6306 57.631 77.1256 57.501L69.7096 55.594C69.4676 55.532 68.9371 55.1962 69.0845 54.4003L67.5532 54.3278Z" fill="#89a3f9"/><g id="Upper"><path id="Fill 1" fill-rule="evenodd" clip-rule="evenodd" d="M98.8577 70.355C99.9137 69.804 100.98 69.099 102.033 68.293C103.09 67.491 104.136 66.589 105.176 65.631C106.216 64.672 107.248 63.659 108.29 62.609C109.82 61.07 112.308 61.064 113.846 62.593C115.311 64.051 115.378 66.39 114.055 67.938C113.058 69.101 112.033 70.266 110.948 71.423C109.863 72.584 108.72 73.734 107.468 74.844C106.215 75.954 104.852 77.027 103.316 77.988C101.784 78.946 100.066 79.791 98.1777 80.367C96.9697 80.736 95.7217 80.544 94.7167 79.939L94.4807 79.797C94.4807 79.797 72.2307 66.287 72.2107 66.274C70.2047 65.056 69.2937 62.678 69.8247 60.422C70.4917 57.584 72.6727 57.289 75.1527 57.111C79.2457 56.821 83.5357 61.187 86.7377 63.381C90.2537 65.789 93.7677 68.198 97.2837 70.606C97.8047 70.964 97.8047 70.908 98.8577 70.355Z" fill="#89a3f9"/><path id="Fill 3" fill-rule="evenodd" clip-rule="evenodd" d="M82.6724 68.9345C82.5234 68.1885 82.3874 67.4305 82.2754 66.6605C82.2144 66.2525 82.2204 66.5095 82.2244 66.6395C82.2204 66.5875 82.2104 66.5345 82.2074 66.4815C82.2044 66.4585 82.2014 66.4345 82.2004 66.4095C82.1954 66.3375 82.1914 66.2705 82.1854 66.1995C82.1674 65.9435 82.1524 65.6935 82.1364 65.4535C82.0304 63.7705 81.9814 62.4485 81.6984 61.3665C81.6154 61.0565 81.5144 60.7665 81.3894 60.4925C81.0114 59.6725 80.4004 58.9995 79.3734 58.3995C78.7464 58.0315 77.9654 57.6915 76.9874 57.3565C74.9094 56.6495 72.7794 56.6975 70.5694 56.6915C69.3684 56.6885 68.5274 56.5345 67.3354 56.7215C65.4964 57.0065 64.3664 56.1285 62.7714 55.4715C61.3514 54.8845 59.8044 55.2345 58.3654 55.6035C56.8794 55.9845 56.0139 56.7122 54.4939 57.0972C53.7199 57.2912 52.914 57.7042 52.148 57.8852C51.434 58.0522 49.9968 58.0855 49.3218 58.3995C48.0658 58.9835 47.1584 59.3645 46.9444 60.7965C46.5624 63.3255 47.0274 65.9635 47.7584 68.3885C48.1654 69.7385 48.5424 71.1335 48.8824 72.5305C48.9294 72.7185 48.9754 72.9055 49.0194 73.0935C49.0864 73.3825 49.1544 73.6695 49.2204 73.9595C49.2204 73.9595 50.3194 87.2885 50.6544 89.9865C50.7774 90.9795 50.8594 91.9735 50.9364 92.9705C50.9494 93.1385 50.9494 93.3285 51.0114 93.4875C51.1634 93.8725 51.4994 93.8565 51.8664 93.8665C52.4514 93.8815 53.0364 93.8945 53.6214 93.9075C55.9624 93.9615 58.3034 94.0065 60.6444 94.0415C65.3264 94.1115 70.0094 94.1445 74.6924 94.1405C76.1674 94.1405 77.6444 94.1345 79.1204 94.1255C79.7574 94.1215 80.5034 94.2255 81.1274 94.0885C81.3144 94.0485 81.4504 93.9865 81.5524 93.8185C81.9224 93.2015 81.6504 92.0525 81.6434 91.4005C81.6424 91.2875 81.6414 91.1805 81.6424 91.0795C81.6434 91.0675 81.6434 91.0535 81.6434 91.0395C81.6434 91.0395 82.9374 80.1785 83.8874 77.8225C84.7754 75.6225 83.5794 73.4935 82.6724 68.9345Z" fill="#89a3f9"/><g id="Group 7"><mask id="mask032768c63-6b5a-4655-9a78-c3cbfbfd051b" style="mask-type:alpha" maskUnits="userSpaceOnUse" x="108" y="51" width="13" height="18" fill="#ffffff"><path id="Clip 6" fill-rule="evenodd" clip-rule="evenodd" d="M108.069 51.0007H120.782V68.958H108.069V51.0007Z" fill="#ffffff"/></mask><g mask="url(#mask032768c63-6b5a-4655-9a78-c3cbfbfd051b)"><path id="Fill 5" fill-rule="evenodd" clip-rule="evenodd" d="M120.757 57.572C120.431 59.272 117.28 63.108 116.62 64.406C115.956 65.7 112.473 68.958 112.473 68.958L108.468 66.792C108.468 66.792 107.744 66.042 108.248 62.714C108.742 59.384 109.644 53.771 110.579 53.617C111.483 53.469 111.92 57.437 111.986 58.281L111.99 58.362C111.992 58.413 112.017 58.405 112.069 58.353C112.633 57.737 116.114 50.727 117.047 51.009C117.329 51.097 117.777 51.524 118.262 52.126C118.293 52.168 118.326 52.209 118.361 52.258C118.709 52.705 119.08 53.239 119.416 53.8C119.451 53.848 119.478 53.896 119.506 53.95C119.838 54.512 120.142 55.098 120.367 55.645C120.389 55.706 120.411 55.76 120.431 55.816C120.704 56.509 120.843 57.135 120.757 57.572" fill="#89a3f9"/></g></g><path id="Fill 8" fill-rule="evenodd" clip-rule="evenodd" d="M48.2253 80.9191C46.9263 80.9191 45.3793 81.1791 44.4093 81.8641C43.7653 82.3191 43.4733 82.8821 43.5173 83.5881C43.5543 84.1971 43.9423 84.5451 44.2613 84.7301C44.9363 85.1201 45.9363 85.1501 46.6423 84.8011C47.3353 84.4561 47.9913 83.5051 48.6233 82.5861C49.0093 82.0271 49.3763 81.4931 49.7673 81.0651C49.3563 80.9731 48.8163 80.9191 48.2253 80.9191V80.9191ZM44.9753 89.4971C44.7713 88.9931 45.2333 88.5451 46.8693 87.0701C47.4363 86.5581 48.0233 86.0291 48.3313 85.6791C49.3543 84.5231 49.8513 83.5341 49.9563 82.3431C49.7763 82.5881 49.5933 82.8541 49.4063 83.1251C48.7043 84.1441 47.9783 85.1961 47.0653 85.6521C46.0633 86.1481 44.7463 86.1081 43.7863 85.5521C43.0503 85.1271 42.6183 84.4501 42.5683 83.6461C42.5053 82.6141 42.9523 81.7301 43.8613 81.0881C45.7073 79.7841 49.1243 79.7241 50.5633 80.3181L50.7973 80.1081L50.8873 81.0431C51.1173 83.4211 50.3173 84.8671 49.0443 86.3081C48.7003 86.6981 48.1203 87.2211 47.5053 87.7751C46.8983 88.3231 45.9803 89.1511 45.8663 89.3931C45.8803 89.3631 45.9053 89.2611 45.8563 89.1401L44.9753 89.4971Z" fill="#FED600"/><g id="Group 12"><path id="Fill 10" fill-rule="evenodd" clip-rule="evenodd" d="M48.9717 70.4851C45.0847 71.9381 41.1427 73.2411 37.1547 74.3891C36.2277 74.6561 35.2467 74.9431 34.5877 75.6491C32.7407 77.6251 36.0587 82.5581 36.9767 84.4061C37.3717 85.1991 37.7817 85.9931 38.1997 86.7801C38.4087 87.1761 38.6197 87.5681 38.8327 87.9571L39.1547 88.5371L39.4607 89.0861L39.5107 89.1731C40.8327 91.5221 40.0007 94.4991 37.6507 95.8191C36.4157 96.5141 36.1787 98.3361 35.0187 97.4091C32.6727 93.5801 30.4207 89.6841 28.2827 85.7321C25.9457 81.4041 20.1297 73.1151 24.7087 68.7241C26.1747 67.3191 28.1097 66.5281 29.9917 65.7671C36.7357 63.0521 43.4777 60.3371 50.2207 57.6201C51.6217 57.0561 53.2207 56.4931 54.5957 57.1201C55.4587 57.5131 56.0677 58.3221 56.4667 59.1831C57.6047 61.6381 57.1777 64.7421 55.4187 66.7981C53.9397 68.5251 51.7427 69.4381 49.6177 70.2421C49.4027 70.3231 49.1867 70.4051 48.9717 70.4851" fill="#89a3f9"/></g><path id="Fill 13" fill-rule="evenodd" clip-rule="evenodd" d="M35.963 105.816C35.963 105.816 34.974 106.731 34.476 105.767C34.094 105.02 34.354 104.455 34.354 104.455C34.354 104.455 33.002 105.049 32.695 103.383C32.505 102.351 34.115 97.2136 35.567 94.9786C37.014 92.7456 38.934 86.5966 40.177 90.4146C40.177 90.4146 44.8 103.378 43.329 106.768C41.858 110.158 39.919 108.95 39.609 108.735C39.556 108.699 39.512 108.666 39.472 108.633C39.134 108.878 38.635 109.001 38.021 108.469C37.635 108.132 37.521 107.848 37.528 107.624C37.756 107.32 37.898 107.045 37.898 107.045C37.898 107.045 37.544 107.251 37.528 107.624C37.15 108.131 36.643 108.091 36.041 107.683C35.281 107.166 35.963 105.816 35.963 105.816" fill="#89a3f9"/><path id="Fill 15" fill-rule="evenodd" clip-rule="evenodd" d="M33.6134 95.7922C32.6244 95.5852 31.6814 95.0032 31.2164 94.2192C30.6814 93.3222 30.8224 92.3012 31.6024 91.4192C31.7844 91.2112 32.1004 91.1922 32.3074 91.3752C32.5144 91.5582 32.5344 91.8742 32.3514 92.0822C31.8574 92.6402 31.7654 93.1872 32.0754 93.7082C32.5574 94.5182 33.8904 95.0492 34.8674 94.8232C36.6794 94.4032 39.9144 91.7682 40.1554 89.7042C40.2544 88.8592 39.8174 88.2092 38.8214 87.7152C38.5744 87.5932 38.4724 87.2932 38.5954 87.0452C38.7174 86.7992 39.0164 86.6942 39.2664 86.8202C41.0104 87.6842 41.2534 88.9282 41.1484 89.8202C40.8504 92.3702 37.2174 95.3052 35.0924 95.7972C34.6244 95.9062 34.1124 95.8962 33.6134 95.7922" fill="#F5CD62"/><path id="Fill 17" fill-rule="evenodd" clip-rule="evenodd" d="M50.0393 94.1442L49.3223 75.7222C50.7223 75.2562 61.3823 54.3381 61.0003 54.0081C63.0243 55.7501 67.5823 56.9172 69.9533 55.1432C70.1273 56.1022 76.6313 62.4392 77.5813 63.3042C79.7803 65.3052 81.8413 67.5872 83.1933 70.2562C84.4293 72.6932 85.1353 75.6552 84.3743 78.3542C83.6813 80.8172 81.6573 91.9492 82.0153 94.7772L50.0393 94.1442Z" fill="#FED600"/></g><g id="Group 13"><path id="Fill 1" fill-rule="evenodd" clip-rule="evenodd" d="M119.3 53.7391L114.265 59.1612C114.245 59.176 114.225 59.1856 114.202 59.1846C114.183 59.1813 114.171 59.1741 114.154 59.16C114.126 59.1337 114.125 59.0879 114.154 59.0554L119.225 53.5939C119.25 53.641 119.275 53.6871 119.3 53.7391" fill="#9283BD"/><g id="Group 5"><mask id="mask132768c63-6b5a-4655-9a78-c3cbfbfd051b" style="mask-type:alpha" maskUnits="userSpaceOnUse" x="110" y="46" width="15" height="22" fill="#ffffff"><path id="Clip 4" fill-rule="evenodd" clip-rule="evenodd" d="M114.029 46.3242L124.602 48.1885L121.27 67.0856L110.697 65.2213L114.029 46.3242Z" fill="#ffffff"/></mask><g mask="url(#mask132768c63-6b5a-4655-9a78-c3cbfbfd051b)"><path id="Fill 3" fill-rule="evenodd" clip-rule="evenodd" d="M117.301 46.9024L123.947 48.5057C124.317 48.5944 124.515 48.9806 124.386 49.368L118.9 65.9717C118.774 66.3556 118.369 66.5981 117.999 66.5075L111.352 64.9079C110.983 64.8163 110.787 64.4316 110.912 64.0444L116.399 47.4419C116.527 47.0543 116.93 46.8136 117.301 46.9024" fill="#00C7DB"/></g></g><g id="Group 8"><mask id="mask232768c63-6b5a-4655-9a78-c3cbfbfd051b" style="mask-type:alpha" maskUnits="userSpaceOnUse" x="109" y="46" width="15" height="21" fill="#ffffff"><path id="Clip 7" fill-rule="evenodd" clip-rule="evenodd" d="M112.748 46.0161L123.32 47.8803L119.988 66.7773L109.416 64.9131L112.748 46.0161Z" fill="#ffffff"/></mask><g mask="url(#mask232768c63-6b5a-4655-9a78-c3cbfbfd051b)"><path id="Fill 6" fill-rule="evenodd" clip-rule="evenodd" d="M116.018 46.5939L122.666 48.1976C123.037 48.2854 123.233 48.6703 123.104 49.0568L117.618 65.6615C117.49 66.0481 117.087 66.2888 116.717 66.1992L110.072 64.5968C109.702 64.5103 109.506 64.1213 109.631 63.7363L115.118 47.1328C115.244 46.7448 115.649 46.5054 116.018 46.5939" fill="#271946"/></g></g><path id="Fill 9" fill-rule="evenodd" clip-rule="evenodd" d="M115.592 48.261L121.432 49.6686L116.962 63.2008L111.121 61.7911L115.592 48.261Z" fill="white"/><path id="Fill 11" fill-rule="evenodd" clip-rule="evenodd" d="M121.432 49.6687L111.119 61.7911L115.591 48.258L121.432 49.6687Z" fill="white"/></g></g></g><g id="Facial Expression" transform="translate(72.5586 94.9543) scale(2.149467641657049 2.058241994757401)"><g id="Facial Expression/Chill"><g id="Group 45"><g id="Group 44"><g id="Group 31"><path id="Fill 1" fill-rule="evenodd" clip-rule="evenodd" d="M5.70979 11.1893C5.47823 11.5096 5.11354 11.7325 4.72354 11.8253C4.27261 11.9321 3.79448 11.8736 3.35948 11.7185C3.07448 11.6164 2.79792 11.4688 2.59917 11.244C2.25604 10.8522 2.23261 10.1344 2.34698 9.65062C2.41729 9.35997 2.58605 9.08233 2.84855 8.93469C3.23198 8.71833 3.65104 8.70254 4.07386 8.77962C4.44698 8.84833 4.82386 8.92726 5.15854 9.1074C5.82136 9.46769 6.17667 10.3461 5.80729 11.0333C5.77823 11.0871 5.74542 11.1391 5.70979 11.1893" fill="#DD82E1"/><path id="Fill 3" fill-rule="evenodd" clip-rule="evenodd" d="M2.95232 10.6134C3.02076 10.6134 3.0892 10.5828 3.13232 10.5224L3.71639 9.72944C3.78951 9.63101 3.76795 9.49358 3.66857 9.42208C3.5692 9.34965 3.42951 9.37008 3.35732 9.47037L2.77232 10.2634C2.70014 10.3618 2.7217 10.4992 2.82107 10.5707C2.86045 10.5995 2.90639 10.6134 2.95232 10.6134" fill="#F7C2E9"/><path id="Fill 5" fill-rule="evenodd" clip-rule="evenodd" d="M4.64719 11.2745C4.76438 11.2745 4.86282 11.1835 4.86938 11.0656L4.92469 10.085C4.93126 9.96335 4.83751 9.86028 4.71469 9.85285C4.59657 9.83892 4.48688 9.94013 4.47938 10.0608L4.42501 11.0423C4.41751 11.164 4.51219 11.2671 4.63501 11.2745H4.64719Z" fill="#F7C2E9"/><path id="Fill 7" fill-rule="evenodd" clip-rule="evenodd" d="M3.64717 11.0261C3.7278 11.0261 3.80561 10.9825 3.84499 10.9063L4.36155 9.90997C4.4178 9.80225 4.37467 9.66854 4.26499 9.61375C4.15717 9.55618 4.02124 9.59982 3.96499 9.70847L3.44936 10.7048C3.39311 10.8135 3.43624 10.9463 3.54592 11.002C3.5778 11.0187 3.61249 11.0261 3.64717 11.0261" fill="#F7C2E9"/><path id="Fill 9" fill-rule="evenodd" clip-rule="evenodd" d="M14.1107 12.9249C14.3048 13.1933 14.6104 13.3799 14.9367 13.4561C15.3135 13.5471 15.7157 13.4979 16.0804 13.3697C16.3185 13.2834 16.551 13.1599 16.717 12.9686C17.0039 12.6436 17.0235 12.0428 16.9279 11.6361C16.8698 11.3928 16.7273 11.1607 16.5089 11.0381C16.1854 10.8552 15.8348 10.8431 15.4804 10.9072C15.1682 10.9638 14.8532 11.0307 14.5739 11.1792C14.016 11.4819 13.7198 12.2183 14.0301 12.794C14.0526 12.8386 14.0798 12.8822 14.1107 12.9249" fill="#DD82E1"/><path id="Fill 11" fill-rule="evenodd" clip-rule="evenodd" d="M16.4201 12.4788C16.4661 12.4788 16.512 12.4648 16.5514 12.436C16.6508 12.3645 16.6723 12.2271 16.6001 12.1287L16.1089 11.4629C16.0376 11.3635 15.8979 11.3422 15.7976 11.4146C15.6983 11.487 15.6776 11.6245 15.7498 11.7229L16.2401 12.3878C16.2833 12.4481 16.3517 12.4788 16.4201 12.4788" fill="#F7C2E9"/><path id="Fill 13" fill-rule="evenodd" clip-rule="evenodd" d="M15.0007 13.0328H15.0138C15.1366 13.0254 15.2304 12.9214 15.2229 12.7998L15.176 11.9771C15.1694 11.8554 15.0757 11.7728 14.9407 11.77C14.8179 11.7765 14.7241 11.8814 14.7307 12.0031L14.7785 12.8248C14.785 12.9418 14.8835 13.0328 15.0007 13.0328" fill="#F7C2E9"/><path id="Fill 15" fill-rule="evenodd" clip-rule="evenodd" d="M15.8398 12.8252C15.8745 12.8252 15.9091 12.8178 15.942 12.8011C16.0507 12.7453 16.0938 12.6126 16.0376 12.5039L15.6045 11.6701C15.5473 11.5623 15.4132 11.5187 15.3045 11.5744C15.1957 11.6301 15.1526 11.7629 15.2079 11.8716L15.642 12.7054C15.6813 12.7816 15.7591 12.8252 15.8398 12.8252" fill="#F7C2E9"/><path id="Fill 17" fill-rule="evenodd" clip-rule="evenodd" d="M11.4249 10.8638C11.5102 10.9845 11.5993 11.1024 11.6837 11.2231C11.7868 11.3717 11.8712 11.5268 11.9565 11.6865C11.9649 11.7023 11.9621 11.6958 11.948 11.6642C11.9527 11.6744 11.9565 11.6865 11.9602 11.6958C11.9658 11.7116 11.9715 11.7274 11.9771 11.7422C11.9818 11.7617 11.9865 11.7803 11.9921 11.8007C12.0062 11.8527 11.979 11.7979 11.9912 11.7859C11.9912 11.7859 11.9912 11.836 11.9921 11.8369C11.9846 11.8276 12.0099 11.7636 11.993 11.8119C11.9808 11.849 12.0324 11.7506 11.9958 11.8007C11.9893 11.8109 11.9818 11.8193 11.9752 11.8323C11.9912 11.8109 11.9893 11.8128 11.9696 11.8369C11.9527 11.8555 11.9368 11.8731 11.919 11.8889C11.9115 11.8954 11.8393 11.9549 11.8768 11.9279C11.8299 11.9604 11.7802 11.9901 11.7287 12.018C11.7052 12.0301 11.6837 12.0412 11.6612 12.0533C11.6527 12.057 11.5646 12.0941 11.6068 12.0765C11.5533 12.0988 11.4971 12.1201 11.4418 12.1378C11.3143 12.1842 11.2149 12.3151 11.2608 12.4544C11.3002 12.5789 11.4427 12.6819 11.5787 12.6336C11.8449 12.5399 12.1233 12.4266 12.3193 12.2158C12.4187 12.1099 12.4974 11.9948 12.5087 11.8471C12.5152 11.7599 12.4974 11.6661 12.4683 11.5816C12.3437 11.2185 12.0915 10.9158 11.8721 10.6047C11.7905 10.4914 11.6443 10.4394 11.5168 10.5137C11.4043 10.5769 11.3443 10.7505 11.4249 10.8638" fill="#C973D0"/><path id="Fill 19" fill-rule="evenodd" clip-rule="evenodd" d="M8.13869 4.60681C9.04244 4.40624 8.91494 3.07002 7.9915 3.01152C7.18619 2.96231 6.17463 3.05052 5.629 3.68659C4.62869 4.84731 7.14119 4.80181 8.11056 4.61424C8.11994 4.61052 8.12838 4.60866 8.13869 4.60681" fill="#005262"/><path id="Fill 21" fill-rule="evenodd" clip-rule="evenodd" d="M14.4477 5.87634C13.813 5.43434 14.3464 4.44077 15.0786 4.68962C15.717 4.90691 16.4717 5.29598 16.6883 5.9627C17.0858 7.17634 15.1564 6.34434 14.4674 5.89027C14.4617 5.88562 14.4542 5.88005 14.4477 5.87634" fill="#005262"/><path id="Fill 23" fill-rule="evenodd" clip-rule="evenodd" d="M6.87573 6.98172C6.92261 6.9845 6.97136 6.98915 7.01729 6.99565C7.80292 7.08479 8.53604 7.58529 9.01698 8.19072C9.14636 8.35229 9.18198 8.54543 9.10229 8.75157C8.99823 9.02272 8.82104 9.0775 8.64104 8.84536C8.15448 8.21579 7.48229 7.96508 6.73229 7.82579C6.35448 7.75615 6.00948 7.80815 5.67292 7.96136C5.41604 8.07836 5.17229 8.22229 4.91636 8.34207C4.73636 8.42657 4.53292 8.45072 4.39698 8.27708C4.25073 8.0895 4.33136 7.90658 4.48323 7.745C5.08604 7.09779 6.01511 6.91208 6.87573 6.98172" fill="#2D2163"/><g id="Group 27"><mask id="mask0483ae092-b8a6-466d-a8a0-fb9250c0a71d" style="mask-type:alpha" maskUnits="userSpaceOnUse" x="12" y="8" width="5" height="3" fill="#ffffff"><path id="Clip 26" fill-rule="evenodd" clip-rule="evenodd" d="M17 8.60916H12.55V10.5763H17V8.60916Z" fill="#ffffff"/></mask><g mask="url(#mask0483ae092-b8a6-466d-a8a0-fb9250c0a71d)"><path id="Fill 25" fill-rule="evenodd" clip-rule="evenodd" d="M16.4618 10.5763C15.963 9.95323 15.289 9.22894 14.4058 9.42673C13.9455 9.5298 13.5208 9.83623 13.0586 9.89937C12.8786 9.92351 12.6818 9.91701 12.5871 9.7443C12.4858 9.56323 12.6096 9.43694 12.7436 9.29766C13.3315 8.69873 14.133 8.55387 14.9383 8.6263C15.7774 8.70244 16.4683 9.27073 16.9343 9.95508C17.089 10.4249 16.9858 10.5614 16.4618 10.5763" fill="#2D2163"/></g></g><g id="Group 30"><mask id="mask1483ae092-b8a6-466d-a8a0-fb9250c0a71d" style="mask-type:alpha" maskUnits="userSpaceOnUse" x="6" y="12" width="6" height="4" fill="#ffffff"><path id="Clip 29" fill-rule="evenodd" clip-rule="evenodd" d="M11.0466 12.4751H6.46106V15.1996H11.0466V12.4751Z" fill="#ffffff"/></mask><g mask="url(#mask1483ae092-b8a6-466d-a8a0-fb9250c0a71d)"><path id="Fill 28" fill-rule="evenodd" clip-rule="evenodd" d="M6.70683 12.4824C6.79214 12.4703 6.88027 12.4731 6.9637 12.4917C7.09589 12.5195 7.21777 12.5827 7.31995 12.67C7.35745 12.7015 7.39683 12.7377 7.42495 12.7795C7.44183 12.8055 7.44933 12.8362 7.46902 12.8612C7.54214 12.9541 7.66214 13.0302 7.75402 13.1036C7.85339 13.1835 7.9537 13.2605 8.05589 13.3367C8.25933 13.4852 8.46839 13.6264 8.68308 13.7582C9.14433 14.0433 9.65339 14.2912 10.1971 14.2996C10.3556 14.3015 10.515 14.2838 10.6725 14.3089C10.7306 14.3182 10.7906 14.3284 10.8375 14.3665C10.9003 14.4185 10.9743 14.4714 11.0175 14.541C11.025 14.5522 11.0268 14.5652 11.0306 14.5791C11.0428 14.6153 11.0493 14.6487 11.0456 14.6868C11.04 14.7435 11.0231 14.775 10.9893 14.815C10.9621 14.8475 10.9368 14.8809 10.905 14.9106C10.8431 14.9691 10.7709 15.0155 10.694 15.0527C10.6443 15.0768 10.5928 15.0963 10.5393 15.114C10.3565 15.1715 10.1615 15.192 9.97027 15.1994C9.91589 15.2012 9.86245 15.1985 9.80902 15.192C9.78652 15.1901 9.76308 15.1882 9.74152 15.1808C9.72839 15.1762 9.71714 15.1687 9.70402 15.166C9.66089 15.1557 9.6112 15.1595 9.5662 15.1548C9.47339 15.1455 9.38058 15.1288 9.28964 15.1065C9.10495 15.061 8.92683 14.9942 8.75339 14.919C8.62589 14.8632 8.50027 14.8038 8.37558 14.7444C8.10464 14.6135 7.82995 14.4807 7.60589 14.282C7.55339 14.2365 7.5037 14.1863 7.45402 14.1362C7.38183 14.0637 7.30964 13.9904 7.23745 13.918C7.20089 13.8817 7.16527 13.8446 7.1287 13.8084C7.09589 13.775 7.05183 13.7415 7.02558 13.7016C7.00308 13.6672 6.96652 13.6403 6.93745 13.6115C6.90464 13.579 6.87464 13.5456 6.8437 13.5103C6.78558 13.4435 6.7312 13.3738 6.68245 13.2995C6.59527 13.1695 6.52214 13.0284 6.48089 12.878C6.42183 12.657 6.49402 12.5112 6.70683 12.4824" fill="#2D2163"/></g></g></g></g></g></g></g></g></g></g></svg>