<svg viewBox="24.78 54.28 127.43999999999997 127.43999999999997" fill="none" xmlns="http://www.w3.org/2000/svg" xmlns:xlink="http://www.w3.org/1999/xlink" overflow="visible" width="117.99999999999997px" height="117.99999999999997px"><rect id="Blush Background Color" fill="#f9f9f9" x="24.78" y="54.28" width="127.43999999999997" height="127.43999999999997"/><g id="Master/Character/Avatar"><g id="Group"><circle id="Mask" cx="89" cy="118" r="57" fill="#FBD6FF"/><mask id="mask0483f46ce-b89e-484c-ad84-c686755400d4" style="mask-type:alpha" maskUnits="userSpaceOnUse" x="32" y="61" width="114" height="114" fill="#ffffff"><circle id="Mask_2" cx="89" cy="118" r="57" fill="#ffffff"/></mask><g mask="url(#mask0483f46ce-b89e-484c-ad84-c686755400d4)"><g id="Head" transform="translate(2.44141 20) scale(2.119819859095982 2.1323556782286843)"><g id="Head/Ponytail"><rect id="Hair" x="37.1895" y="44.4042" width="8" height="17" rx="4" transform="rotate(10 37.1895 44.4042)" fill="#6e78f0"/><path id="Hair" fill-rule="evenodd" clip-rule="evenodd" d="M43.0849 57.1585C38.0049 56.7165 35.7188 49.4616 35.7188 49.4616L43.9835 51.9485L43.0849 57.1585Z" fill="#6a67f2"/><path id="Fill 19" fill-rule="evenodd" clip-rule="evenodd" d="M53.9793 35.8706C53.0293 35.8706 52.1033 35.6576 51.3673 35.4506C49.3513 34.8846 45.8453 33.4656 45.0083 30.3136C44.9733 30.1806 45.0523 30.0436 45.1863 30.0086C45.3203 29.9726 45.4573 30.0526 45.4923 30.1856C46.2653 33.0976 49.5893 34.4326 51.5013 34.9696C52.7493 35.3196 54.5723 35.6936 55.9983 34.8986C56.1173 34.8316 56.2703 34.8736 56.3373 34.9956C56.4053 35.1156 56.3613 35.2676 56.2413 35.3346C55.5313 35.7306 54.7483 35.8706 53.9793 35.8706" fill="#e74bb1"/><g id="Hair"><path id="Fill 1" fill-rule="evenodd" clip-rule="evenodd" d="M38.7361 28.0399C36.2571 26.8559 33.2561 26.7119 30.7561 27.8519C28.7371 28.7709 27.1431 30.4149 25.8441 32.1769C25.7021 32.3699 25.5141 32.5669 25.4291 32.7959C25.4001 32.8729 25.3891 32.9529 25.3561 33.0289C25.2511 33.2759 25.1071 33.5129 24.9871 33.7529C24.7341 34.2589 24.4911 34.7699 24.2581 35.2859C24.0461 35.7569 23.7901 36.2419 23.6751 36.7439C23.5501 37.2909 23.3091 37.8369 23.1211 38.3669C22.9281 38.9079 22.7311 39.4459 22.5291 39.9829C22.4851 40.0999 22.4501 40.2269 22.3951 40.3379C21.9251 41.5739 21.4361 42.8029 20.9471 44.0309C19.9721 46.4799 18.9451 49.0079 17.0501 50.8409C15.2311 52.6009 12.7501 53.5559 10.2461 53.9259C11.8761 56.2059 14.8551 57.4379 17.6191 56.9769C17.1491 58.1059 16.4461 59.1379 15.5681 59.9879C17.9941 61.2939 20.0381 63.3349 22.6571 64.1909C24.3921 64.7589 26.2541 64.7629 28.0801 64.7599C29.5961 64.7589 31.1651 64.7459 32.5451 64.1189C32.5901 64.0989 32.1381 62.1319 32.1041 61.9399C31.9691 61.1959 31.8531 60.4489 31.7531 59.6989C31.5521 58.1999 31.4191 56.6909 31.3541 55.1799C31.2891 53.6689 31.2921 52.1549 31.3631 50.6439C31.3931 50.0099 31.3311 49.2389 31.5751 48.6439C31.8171 48.0519 31.8781 47.4089 32.0281 46.7879C32.4071 45.2209 32.9691 43.7069 33.5351 42.1999C34.3801 39.9529 35.2341 37.6859 36.5471 35.6749C36.6211 35.5609 36.6971 35.4479 36.7741 35.3349C37.5481 34.2069 38.4381 33.1659 39.2491 32.0659C39.6531 31.5189 40.0371 30.9569 40.3731 30.3669C40.4971 30.1479 40.7381 29.8369 40.7361 29.5739C40.7361 29.4439 40.6701 29.3559 40.5851 29.2629C40.1061 28.7399 39.3691 28.3419 38.7361 28.0399" fill="#e74bb1"/><path id="Fill 3" fill-rule="evenodd" clip-rule="evenodd" d="M42.4451 27.6942C42.7851 26.7792 42.5931 25.6522 41.8681 25.0002C39.7641 25.5842 38.4011 28.0592 39.0311 30.1492C37.7271 27.9812 34.7391 27.0122 32.4111 28.0032C32.5661 29.1252 33.5241 30.0052 34.5861 30.4012C35.6481 30.7972 36.8101 30.8002 37.9431 30.7982C38.4731 30.7972 39.0171 30.7932 39.5151 30.6112C40.1731 30.3702 40.4431 29.7362 40.9991 29.3662C41.6331 28.9432 42.1741 28.4242 42.4451 27.6942" fill="#FED600"/><path id="Fill 7" fill-rule="evenodd" clip-rule="evenodd" d="M29.418 47.5116C29.412 49.3426 30.889 50.8286 32.718 50.8366C34.547 50.8416 36.034 49.3636 36.04 47.5356C36.046 45.7066 34.568 44.2196 32.74 44.2146C30.911 44.2076 29.423 45.6836 29.418 47.5116" fill="#6e78f0"/><path id="Fill 9" fill-rule="evenodd" clip-rule="evenodd" d="M33.8832 48.5121C33.8832 48.5121 33.8902 46.1121 31.5942 46.4821Z" fill="#6a67f2"/><path id="Fill 11" fill-rule="evenodd" clip-rule="evenodd" d="M42.8526 53.8031V53.8031C47.0976 53.5341 50.3816 49.9581 50.2796 46.4831L49.9896 38.2861C49.8586 33.9321 46.8436 30.4281 42.4866 30.4121C38.0266 30.3981 33.0706 34.0351 33.0566 38.4951L33.3626 45.0861C33.5996 50.1831 37.7496 53.7851 42.8526 53.8031" fill="#6e78f0"/><path id="Fill 13" fill-rule="evenodd" clip-rule="evenodd" d="M46.2179 39.8778C47.3079 39.9248 48.4029 39.7838 49.4289 39.4178C49.0009 39.0598 48.6579 38.5998 48.4359 38.0868C50.0059 39.0238 52.0669 39.0748 53.6809 38.2178C53.0529 37.6858 52.5229 37.0388 52.1209 36.3208C51.9359 35.9918 51.7519 35.6498 51.6969 35.2738C51.6769 35.1418 51.6679 35.0248 51.6169 34.8988C51.3269 34.1718 50.7039 33.4778 50.1859 32.9058C49.6669 32.3318 49.0899 31.8088 48.4659 31.3518C47.5269 30.6648 46.4769 30.1278 45.3649 29.7818C45.0269 29.6778 44.7569 29.5718 44.4159 29.6258C44.2469 29.6518 44.0759 29.6658 43.9049 29.6698C43.5479 29.6768 43.1909 29.6398 42.8379 29.5848C42.1319 29.4738 41.4399 29.2858 40.7309 29.1918C37.2839 28.7358 33.7939 30.7738 31.9839 33.7418C30.1729 36.7108 29.8819 40.4298 30.6039 43.8318C30.6549 44.0718 30.7209 44.3298 30.9119 44.4848C31.1859 44.7078 31.4009 44.4528 31.6649 44.4318C32.0669 44.3998 32.5339 44.4358 32.9349 44.4888C33.7139 44.5948 34.2709 45.0028 34.6789 45.6418C34.9149 46.0138 35.2479 46.2768 35.7119 46.2388C35.9019 46.2228 36.0889 46.1568 36.2479 46.0508C36.2939 46.0208 36.6599 45.7168 36.6069 45.6548C35.9969 44.9328 35.7439 43.9308 35.9249 43.0038C35.9799 42.7178 35.9709 42.6128 35.9139 42.3268C35.8479 41.9978 35.8229 41.6788 35.8579 41.3458C35.8879 41.0548 35.8199 40.7928 35.8039 40.5038C35.7879 40.1848 35.8369 39.8608 35.9479 39.5618C36.0599 39.2608 36.3029 39.0938 36.4539 38.8298C36.6309 38.5208 36.7859 38.1978 36.9519 37.8828C37.2679 37.2818 37.5419 36.6018 37.9259 36.0438C38.1479 36.2518 38.3079 36.5278 38.5539 36.7158C38.6999 36.8278 38.8659 36.8878 39.0289 36.9688C39.5469 37.2248 39.9979 37.6338 40.4869 37.9428C41.5319 38.6038 42.6579 39.1448 43.8479 39.4868C44.6179 39.7078 45.4169 39.8428 46.2179 39.8778" fill="#ff88cf"/><path id="Fill 15" fill-rule="evenodd" clip-rule="evenodd" d="M37.7991 44.5868V44.5888C37.7981 44.5888 37.7991 44.5908 37.7991 44.5908V44.5868Z" fill="#5F4596"/><path id="Fill 17" fill-rule="evenodd" clip-rule="evenodd" d="M50.2456 42.0697V42.0717C50.2456 42.0717 50.2466 42.0717 50.2486 42.0707L50.2456 42.0697Z" fill="#5F4596"/><path id="Fill 21" fill-rule="evenodd" clip-rule="evenodd" d="M30.5914 41.5214C30.4564 41.5214 30.3444 41.4144 30.3414 41.2774C30.3384 41.1404 30.4464 41.0254 30.5854 41.0214C33.6854 40.9394 36.5664 38.4884 37.1424 35.4394C37.1674 35.3034 37.2984 35.2164 37.4344 35.2404C37.5704 35.2664 37.6594 35.3964 37.6334 35.5324C37.0154 38.8034 33.9244 41.4344 30.5974 41.5214H30.5914Z" fill="#e74bb1"/><g id="Group 25"><mask id="mask034e83f8e-4ca1-4db9-925e-7090b39a270a" style="mask-type:alpha" maskUnits="userSpaceOnUse" x="9" y="30" width="21" height="23" fill="#ffffff"><path id="Clip 24" fill-rule="evenodd" clip-rule="evenodd" d="M9 30.861H29.2609V52.0199H9V30.861Z" fill="#ffffff"/></mask><g mask="url(#mask034e83f8e-4ca1-4db9-925e-7090b39a270a)"><path id="Fill 23" fill-rule="evenodd" clip-rule="evenodd" d="M9.00149 51.7959C8.98649 51.6589 9.08649 51.5359 9.22349 51.5209C12.0555 51.2229 14.9235 49.5139 17.2995 46.7099C18.9545 44.7589 20.2555 42.4839 21.5145 40.2839C21.8595 39.6799 22.2055 39.0759 22.5585 38.4779C24.1105 35.8429 26.0745 32.8839 28.8665 30.9069C28.9785 30.8279 29.1345 30.8529 29.2155 30.9659C29.2945 31.0789 29.2685 31.2349 29.1555 31.3149C26.4405 33.2369 24.5145 36.1429 22.9885 38.7309C22.6375 39.3279 22.2925 39.9299 21.9485 40.5329C20.6785 42.7519 19.3655 45.0469 17.6815 47.0339C15.2215 49.9359 12.2365 51.7059 9.27649 52.0189C9.26749 52.0199 9.25849 52.0199 9.24949 52.0199C9.12349 52.0199 9.01549 51.9249 9.00149 51.7959Z" fill="#ff88cf"/></g></g><path id="Fill 26" fill-rule="evenodd" clip-rule="evenodd" d="M16.3943 62.2167C16.3073 62.2167 16.2233 62.1717 16.1773 62.0907C16.1083 61.9697 16.1503 61.8177 16.2703 61.7497C18.1893 60.6607 19.0263 58.3507 19.7193 56.0777L20.1283 54.7317C22.0053 48.5517 23.9443 42.1617 27.2883 36.5337C27.3593 36.4147 27.5123 36.3757 27.6303 36.4467C27.7493 36.5167 27.7893 36.6707 27.7183 36.7897C24.4053 42.3647 22.4753 48.7257 20.6073 54.8767L20.1983 56.2237C19.4763 58.5927 18.5963 61.0057 16.5183 62.1837C16.4783 62.2067 16.4363 62.2167 16.3943 62.2167" fill="#ff88cf"/></g></g></g><g id="Upper Body" transform="translate(-53 26.5178) scale(2.1294117647058823 2.124879991686022)"><g id="Upper Body/Passport"><g id="Upper"><path id="Fill 1" fill-rule="evenodd" clip-rule="evenodd" d="M98.4141 84.609C98.4101 84.608 97.1084 82.9501 97.1084 82.9501C98.1334 83.0381 99.2444 82.9681 100.414 82.7531C101.586 82.5391 102.813 82.1811 104.057 81.7241C105.304 81.2701 106.571 80.7181 107.847 80.1121C109.125 79.5031 110.411 78.8411 111.717 78.1481C113.635 77.1311 116.011 77.8611 117.028 79.7781C117.996 81.6051 117.366 83.8591 115.645 84.9451C114.348 85.7611 113.025 86.5701 111.645 87.3541C110.265 88.1401 108.832 88.9011 107.308 89.5901C105.782 90.2791 104.163 90.9011 102.412 91.3631C100.664 91.8241 98.7744 92.1231 96.7994 92.1131C95.5354 92.1081 94.4014 91.5561 93.6204 90.6801L93.4384 90.4741C93.4384 90.4741 76.1874 70.9801 76.1714 70.9621C74.6164 69.2051 74.4504 66.6641 75.6264 64.6651C77.1044 62.1521 79.2734 62.5171 81.6954 63.0821C85.6904 64.0171 88.4954 69.4581 90.9044 72.5021C93.5484 75.8431 96.1924 79.1861 98.8364 82.5261C99.2284 83.0221 97.8311 83.3621 98.4141 83.6451V84.609Z" fill="#6e78f0"/><path id="Fill 3" fill-rule="evenodd" clip-rule="evenodd" d="M125.105 76.6218C124.374 78.1908 120.384 81.1428 119.427 82.2418C118.468 83.3338 114.296 85.6448 114.296 85.6448L110.94 82.5678C110.94 82.5678 110.421 81.6638 111.72 78.5588C113.012 75.4498 115.254 70.2268 116.199 70.3048C117.111 70.3818 116.568 74.3368 116.425 75.1718L116.411 75.2508C116.4 75.3008 116.425 75.2988 116.489 75.2618C117.186 74.8018 122.272 68.8518 123.107 69.3518C123.359 69.5068 123.688 70.0298 124.013 70.7318C124.033 70.7798 124.055 70.8278 124.077 70.8838C124.306 71.4018 124.535 72.0118 124.725 72.6358C124.746 72.6918 124.76 72.7448 124.775 72.8038C124.959 73.4308 125.111 74.0728 125.197 74.6578C125.203 74.7228 125.211 74.7808 125.217 74.8398C125.313 75.5778 125.295 76.2198 125.105 76.6218" fill="#6e78f0"/><path id="Fill 5" fill-rule="evenodd" clip-rule="evenodd" d="M115.945 79.8513L115.941 79.8503C115.901 79.8373 115.878 79.7933 115.89 79.7543C116.465 77.9493 116.435 75.2183 116.433 75.1903C116.432 75.1473 116.467 75.1153 116.509 75.1133C116.55 75.1113 116.587 75.1473 116.588 75.1883C116.587 75.2163 116.619 77.9733 116.038 79.8003C116.026 79.8393 115.986 79.8603 115.945 79.8513" fill="#BB96FD"/><path id="Fill 7" fill-rule="evenodd" clip-rule="evenodd" d="M76.3946 83.6721C76.2556 83.4431 76.1236 83.2101 75.9986 82.9721C75.9416 82.8631 75.8856 82.7531 75.8326 82.6421C75.3776 81.7111 75.0446 80.7201 74.8426 79.7041C74.7486 79.2351 74.6366 78.8021 74.7216 78.3321C74.8226 77.7721 74.9096 77.2101 74.9746 76.6461C75.0166 76.2831 75.0506 75.9201 75.0726 75.5551C75.2616 72.5331 74.7156 69.4991 74.9376 66.4801C75.1126 64.1061 75.8716 61.5801 77.6076 59.8721C77.9806 59.5051 78.4966 59.0051 78.9986 58.8271C79.4986 58.6501 80.2216 58.9021 80.7156 59.0471C81.9366 59.4041 83.0606 60.0501 84.0356 60.8621C84.8626 61.5511 85.5856 62.3631 86.1946 63.2521C84.9276 63.8151 83.6606 64.3771 82.3936 64.9411C81.7816 65.2121 81.6886 66.0591 81.9646 66.5801C82.2886 67.1951 83.0316 67.2631 83.6026 67.0101C83.6026 67.0101 87.3576 65.3401 87.3586 65.3401C87.4846 65.2841 88.4156 68.4411 88.4896 68.7221C88.5496 68.9561 88.6606 69.1691 88.7796 69.3851C89.0296 69.8381 89.3226 70.2671 89.6336 70.6811C90.1116 71.3171 90.6356 71.9161 91.1406 72.5311C91.3096 72.7361 91.4926 72.9311 91.5996 73.1761C91.7176 73.4481 91.8386 73.6541 92.0246 73.8911C92.5066 74.5041 92.9886 75.1161 93.4706 75.7291L96.3626 79.4041C96.6226 79.7351 96.8826 80.0661 97.1436 80.3961C97.3286 80.6321 97.5236 80.8951 97.5156 81.1941C97.5086 81.4551 97.3496 81.6841 97.2016 81.8991C96.1126 83.4811 95.3316 85.2741 94.9126 87.1491C94.5656 88.7011 94.5416 90.5261 95.6626 91.6551C95.7826 91.7771 95.9206 91.8981 95.9616 92.0641C96.0876 92.5721 95.3246 92.7681 94.8046 92.7111C92.8806 92.5011 90.9566 92.2901 89.0326 92.0791C87.0246 91.8591 84.9196 91.6711 82.9906 91.0101C81.7576 90.5891 80.5806 89.9211 79.7476 88.9181C79.2566 88.3261 78.8996 87.6361 78.5456 86.9531C78.3696 86.6101 78.1916 86.2681 78.0146 85.9251C77.8616 85.6281 77.7306 85.2831 77.4986 85.0371C77.3526 84.8811 77.1686 84.7711 77.0276 84.6071C76.7846 84.3251 76.5876 83.9891 76.3946 83.6721" fill="#F77DCE"/><path id="Fill 9" fill-rule="evenodd" clip-rule="evenodd" d="M80.5826 77.135C80.9556 75.509 81.3286 73.88 81.7006 72.251C81.8406 71.64 82.5776 71.222 83.1756 71.414C83.8146 71.622 84.1616 72.233 84.0106 72.888C83.6386 74.517 83.2656 76.143 82.8926 77.772C82.7526 78.384 82.0166 78.803 81.4196 78.609C80.7786 78.401 80.4326 77.79 80.5826 77.135" fill="#FED600"/><g id="Group 13"><path id="Fill 11" fill-rule="evenodd" clip-rule="evenodd" d="M42.4368 64.6858C42.5478 64.2988 42.5848 63.8938 42.6928 63.5148C42.8048 63.1248 43.1428 62.7428 43.3678 62.4108C43.8898 61.6378 44.4608 60.8918 45.1408 60.2488C46.1748 59.2748 47.5058 58.5448 48.9258 58.5068C49.9948 58.4778 51.0318 58.8358 52.0418 59.1898C52.7238 59.4298 53.4478 59.6978 53.8818 60.2768C54.2838 60.8128 54.3618 61.5188 54.4038 62.1878C54.4508 62.9388 54.4698 63.6908 54.4598 64.4428C54.4508 65.1138 54.4998 65.8848 54.3408 66.5378C54.2378 66.9578 54.0698 67.3738 53.9358 67.7858C53.5248 69.0438 53.1098 70.3008 52.6898 71.5568C52.1488 73.1768 51.5998 74.7938 51.0408 76.4078C50.4398 78.1428 49.8278 79.8728 49.1968 81.5968C48.6098 83.1998 48.0078 84.7968 47.3688 86.3798C46.8738 87.6068 46.3638 88.8338 45.7688 90.0158C45.6038 90.3438 45.4318 90.6698 45.2388 90.9828C45.1438 91.1378 44.9718 91.5128 44.7978 91.5938C39.5858 94.0038 19.5768 100.086 17.6468 100.859C16.7888 101.202 15.3408 101.874 14.5388 102.638C12.7558 104.334 12.1128 105.211 10.4288 106.891C8.51281 108.804 2.00851 103.929 4.01291 100.859C4.80959 99.6384 6.97981 98.2708 9.77581 97.1168C11.0408 96.5948 35.7868 84.7028 37.1058 83.2698L42.4368 64.6858Z" fill="#6e78f0"/></g><path id="Fill 14" fill-rule="evenodd" clip-rule="evenodd" d="M15.4967 106.897C15.6221 106.695 15.4199 106.453 15.2289 106.311C14.1892 105.542 12.9388 105.062 11.6512 104.939C11.0877 104.885 10.4882 104.907 10.002 105.196C9.58879 105.442 9.32483 105.887 9.24592 106.355C9.1867 106.705 8.13358 106.891 8.51679 107.072C8.72728 107.172 9.45649 107.429 13.0915 107.429C13.8606 107.429 14.4761 107.221 15.1603 107.072C15.2873 107.045 15.4279 107.007 15.4967 106.897Z" fill="#6e78f0"/><path id="Fill 16" fill-rule="evenodd" clip-rule="evenodd" d="M38.294 73.0525C38.156 74.7345 38.248 76.4445 37.89 78.0935C37.533 79.7425 36.617 81.3925 35.073 82.0725C34.445 82.3485 33.747 82.4505 33.141 82.7715C31.888 83.4335 31.252 85.0715 31.731 86.4055C36.117 86.9275 39.052 91.0495 41.321 94.8395C41.507 95.1495 41.719 95.4825 42.061 95.6005C42.44 95.7315 42.852 95.5545 43.199 95.3555C46.02 93.7325 47.486 90.5275 48.578 87.4605C51.275 79.8815 52.756 71.8715 52.961 63.8285C52.987 62.8125 52.992 61.7955 52.978 60.7795C52.966 59.9835 53.064 59.0505 52.731 58.3025C52.127 56.9455 50.677 57.0685 49.516 57.5665C46.643 58.7995 44.111 60.8535 42.193 63.3115C40.014 66.1065 38.585 69.5085 38.294 73.0525" fill="#F77DCE"/><path id="Fill 18" fill-rule="evenodd" clip-rule="evenodd" d="M45.2181 66.5422C46.2511 65.4202 47.2831 64.3002 48.3171 63.1792C48.7411 62.7192 49.5581 62.6602 50.0101 63.1202C50.4681 63.5852 50.5241 64.3202 50.0701 64.8142C49.0361 65.9352 48.0041 67.0562 46.9711 68.1752C46.5471 68.6362 45.7301 68.6942 45.2781 68.2352C44.8201 67.7702 44.7631 67.0342 45.2181 66.5422" fill="#FED600"/><path id="Fill 20" fill-rule="evenodd" clip-rule="evenodd" d="M42.3276 85.7083L47.5096 82.4503C48.0416 82.1143 48.8606 82.3723 49.1346 82.9293C49.4356 83.5413 49.2236 84.1973 48.6556 84.5543L43.4736 87.8123C42.9416 88.1473 42.1216 87.8903 41.8486 87.3343C41.5476 86.7203 41.7596 86.0663 42.3276 85.7083" fill="#FED600"/><path id="Fill 22" fill-rule="evenodd" clip-rule="evenodd" d="M81.9642 66.5803C81.6882 66.0593 81.7812 65.2123 82.3932 64.9413C83.6602 64.3773 84.9272 63.8143 86.1942 63.2513C86.4122 63.5703 86.6172 63.8983 86.8042 64.2353C87.0052 64.5963 87.1892 64.9653 87.3582 65.3403L83.6032 67.0103C83.0312 67.2633 82.2882 67.1953 81.9642 66.5803" fill="#FED600"/><path id="Fill 24" fill-rule="evenodd" clip-rule="evenodd" d="M80.5826 77.135C80.9556 75.509 81.3286 73.88 81.7006 72.251C81.8406 71.64 82.5776 71.222 83.1756 71.414C83.8146 71.622 84.1616 72.233 84.0106 72.888C83.6386 74.517 83.2656 76.143 82.8926 77.772C82.7526 78.384 82.0166 78.803 81.4196 78.609C80.7786 78.401 80.4326 77.79 80.5826 77.135" fill="#FED600"/><path id="Fill 26" fill-rule="evenodd" clip-rule="evenodd" d="M82.2307 86.7732L87.1117 84.5442C87.4137 84.4062 87.7047 84.3322 88.0357 84.4232C88.3127 84.5002 88.6147 84.7142 88.7517 84.9742C89.0287 85.5012 88.9297 86.3352 88.3227 86.6132C86.6947 87.3562 85.0677 88.1002 83.4407 88.8422C83.1397 88.9812 82.8477 89.0542 82.5177 88.9632C82.2387 88.8872 81.9387 88.6722 81.8017 88.4132C81.5227 87.8862 81.6217 87.0512 82.2307 86.7732" fill="#FED600"/><path id="Fill 28" fill-rule="evenodd" clip-rule="evenodd" d="M90.6621 78.8699C90.7381 78.5919 90.9541 78.2909 91.2121 78.1539C91.8371 77.8239 92.4541 78.0429 92.8511 78.5839C94.0101 80.1569 95.1671 81.7309 96.3241 83.3069C96.4971 83.5409 96.5191 83.9589 96.4451 84.2279C96.3681 84.5069 96.1531 84.8069 95.8941 84.9449C95.2691 85.2759 94.6521 85.0559 94.2551 84.5159C93.0981 82.9409 91.9401 81.3669 90.7831 79.7919C90.6101 79.5569 90.5881 79.1389 90.6621 78.8699" fill="#FED600"/><path id="Fill 30" fill-rule="evenodd" clip-rule="evenodd" d="M92.4353 85.3689C92.6573 84.5949 93.1443 83.9109 93.7143 83.2799C94.1423 82.8059 94.5703 82.3319 94.9983 81.8579C95.5003 81.3029 96.0823 80.7059 96.8313 80.6649C97.4873 80.6279 98.0783 81.0339 98.6093 81.4219C98.8713 81.6129 99.1333 81.8039 99.3953 81.9949C99.4543 82.0369 99.5153 82.0839 99.5393 82.1529C99.5603 82.2189 99.5433 82.2899 99.5243 82.3569C99.4713 82.5559 99.3553 82.8029 99.3833 83.0119C99.3923 83.0769 99.4373 83.1309 99.4503 83.1949C99.4893 83.3899 99.4353 83.5939 99.4183 83.7889C99.2163 86.0389 99.5663 88.3399 100.426 90.4279C100.609 90.8739 100.807 91.4149 100.522 91.8039C100.275 92.1399 99.4563 92.3879 99.0793 92.5469C98.5803 92.7579 98.0653 92.9309 97.5403 93.0669C96.6363 93.2989 95.6183 93.4939 94.6823 93.3579C93.0483 93.1189 92.7103 91.3909 92.6173 90.0109C92.5723 89.3549 92.6243 88.7009 92.5933 88.0469C92.5723 87.6089 92.4103 87.2139 92.3453 86.7859C92.2673 86.2799 92.3083 85.8089 92.4353 85.3689" fill="#E24BC6"/><path id="Fill 32" fill-rule="evenodd" clip-rule="evenodd" d="M47.8025 80.1588C47.8905 80.4894 47.9785 80.8201 48.0665 81.1508C48.0945 81.2572 48.1525 81.3712 48.1685 81.4786C48.1995 81.6724 48.1605 81.8909 48.1585 82.0867C48.1535 82.4905 48.1615 82.8943 48.2015 83.2972C48.2355 83.6478 48.2945 83.9975 48.2885 84.349C48.2775 84.8745 48.1205 85.3894 48.0015 85.9054C47.7815 86.8594 47.6915 87.8352 47.7305 88.8072C47.7405 89.0514 47.7585 89.2956 47.7855 89.5388C47.8095 89.7574 47.8545 89.9768 47.8475 90.1973C47.8385 90.4994 47.6695 90.7702 47.5815 91.0591C47.4495 91.4914 47.1855 91.9646 47.3775 92.4112C47.5675 92.8511 48.0015 93.2112 48.4955 93.4003C49.2535 93.6901 50.1175 93.6654 50.9465 93.635C52.5015 93.578 54.0575 93.521 55.6125 93.463C56.3905 93.4345 57.1675 93.406 57.9455 93.3775C58.3345 93.3632 58.7235 93.349 59.1125 93.3347C59.5925 93.3167 60.0235 93.4497 60.5065 93.5029C63.0945 93.788 65.7025 93.3338 68.2955 93.0962C71.5515 92.7988 74.8395 92.8444 78.1045 93.0516C78.9785 93.1076 79.8805 93.1703 80.7415 92.9936C81.0965 92.9214 81.4055 92.8064 81.7745 92.8055C82.4935 92.8045 83.1425 92.5024 83.5745 91.994C84.3125 91.1256 84.4115 89.9122 84.2595 88.8062C84.1085 87.7002 83.7435 86.6237 83.6715 85.5111C83.5735 83.9823 84.0365 82.4667 84.0195 80.936C83.9965 78.7858 83.0395 76.7591 82.3165 74.721C81.4285 72.2164 80.8795 69.6053 80.6805 66.9705C80.5895 65.7638 80.7625 64.4725 80.5255 63.2857C80.4535 62.9237 80.3045 62.5855 80.1995 62.233C80.1345 62.0097 80.0855 61.7854 80.0515 61.5555C80.0265 61.3892 80.0125 61.2201 79.9995 61.0529C79.9655 60.6158 80.1695 59.8984 80.0005 59.4955C79.9055 59.2684 79.7435 59.0537 79.5775 58.8675C79.2265 58.4741 78.7705 58.1672 78.2755 57.9553C77.6305 57.6798 76.9255 57.5543 76.2235 57.4973C75.8765 57.4688 75.5805 57.4536 75.2465 57.3567C74.9015 57.2569 74.5535 57.1629 74.2055 57.0755C72.8585 56.7344 71.4905 56.475 70.1155 56.2564C69.8145 56.2089 69.5365 56.1491 69.2345 56.1994C68.7575 56.2811 68.2785 56.2118 67.7985 56.1795C66.6295 56.1006 65.4605 56.0274 64.2915 55.9571C63.1925 55.8916 62.0935 55.8307 60.9945 55.7728C58.5715 55.6474 56.1295 55.5409 53.7305 55.8821C53.0015 55.9866 52.2665 56.1358 51.6255 56.4807C51.3425 56.6336 51.0815 56.8275 50.8635 57.0584C50.6455 57.2883 50.5155 57.5705 50.3085 57.8071C50.1625 57.9724 49.9935 58.1102 49.8725 58.2964C49.6705 58.6071 49.5845 58.9568 49.4845 59.3036C49.2835 60.0039 49.0815 60.7032 48.8805 61.4025C48.3895 63.11 47.8985 64.8165 47.4075 66.523C46.9855 67.99 46.5625 69.4571 46.1405 70.9251C46.0025 71.404 45.8655 71.8819 45.7275 72.3608C46.4185 74.9604 47.1105 77.5591 47.8025 80.1588Z" fill="#FF87D0"/><path id="Fill 42" fill-rule="evenodd" clip-rule="evenodd" d="M67.5534 54.3279C67.5534 54.3279 61.0647 53.991 60.9997 54.009C60.1267 54.248 59.1018 54.486 58.2278 54.725C57.0048 55.059 55.7828 55.393 54.5608 55.727C54.0888 55.856 53.6178 55.985 53.1468 56.114C52.9988 56.154 52.8288 56.178 52.6878 56.239C52.3178 56.397 53.0348 57.02 53.1808 57.181C54.3678 58.497 55.8218 59.565 57.4168 60.336C59.0128 61.108 60.7528 61.585 62.5208 61.722C63.4028 61.79 64.2928 61.773 65.1708 61.665C65.3858 61.639 65.5958 61.603 65.8108 61.593C66.0218 61.582 66.2098 61.507 66.4118 61.443L70.5241 61.665C72.7901 61.038 74.8598 60.8126 77.1258 60.1856H78.918C79.427 60.0656 77.6308 57.631 77.1258 57.501L69.7098 55.594C69.4678 55.532 68.9373 55.1962 69.0847 54.4003L67.5534 54.3279Z" fill="#6e78f0"/><path id="Fill 100" fill-rule="evenodd" clip-rule="evenodd" d="M74.179 65.8777C74.639 64.0317 75.1 62.1857 75.56 60.3387C75.711 59.7297 76.429 59.3057 77.033 59.5017C77.663 59.7057 78.033 60.3227 77.871 60.9767C77.41 62.8227 76.95 64.6687 76.491 66.5147C76.338 67.1227 75.621 67.5477 75.016 67.3517C74.386 67.1477 74.016 66.5307 74.179 65.8777" fill="#FED600"/><path id="Fill 102" fill-rule="evenodd" clip-rule="evenodd" d="M70.5705 71.8543C70.7835 71.1953 71.3825 70.8923 72.0445 71.0173C74.0415 71.3943 76.0385 71.7723 78.0355 72.1503C78.6525 72.2673 79.0595 73.0433 78.8725 73.6243C78.6585 74.2823 78.0595 74.5853 77.3985 74.4613C75.4015 74.0833 73.4035 73.7063 71.4075 73.3293C70.7905 73.2103 70.3825 72.4353 70.5705 71.8543" fill="#FED600"/><path id="Fill 104" fill-rule="evenodd" clip-rule="evenodd" d="M70.2028 80.6658C70.7998 80.9428 71.1008 81.6038 70.8568 82.2298C70.2348 83.8138 69.6138 85.3998 68.9938 86.9848C68.7648 87.5688 68.0108 87.9078 67.4298 87.6368C66.8328 87.3598 66.5308 86.6988 66.7758 86.0738C67.3978 84.4898 68.0188 82.9038 68.6388 81.3188C68.8688 80.7358 69.6218 80.3978 70.2028 80.6658" fill="#FED600"/><path id="Fill 106" fill-rule="evenodd" clip-rule="evenodd" d="M76.5685 82.0442C77.7505 80.6222 78.9335 79.1992 80.1165 77.7752C80.5175 77.2942 81.3125 77.1622 81.8015 77.5952C82.2825 78.0192 82.4105 78.7642 81.9825 79.2812C80.7985 80.7052 79.6165 82.1272 78.4335 83.5492C78.0335 84.0312 77.2385 84.1622 76.7485 83.7302C76.2675 83.3062 76.1395 82.5612 76.5685 82.0442" fill="#FED600"/><path id="Fill 108" fill-rule="evenodd" clip-rule="evenodd" d="M79.3041 92.0261L80.2231 87.3691C80.3451 86.7521 81.1131 86.3431 81.6971 86.5321C82.3521 86.7441 82.6641 87.3461 82.5341 88.0061L81.6151 92.6631C81.4941 93.2791 80.7241 93.6891 80.1411 93.5001C79.4861 93.2881 79.1751 92.6861 79.3041 92.0261" fill="#FED600"/><path id="Fill 110" fill-rule="evenodd" clip-rule="evenodd" d="M60.8019 85.8377C60.1469 85.7317 59.6949 85.1757 59.7519 84.5067C59.9279 82.4937 60.1039 80.4827 60.2789 78.4697C60.3339 77.8437 60.9849 77.3177 61.6099 77.4187C62.2659 77.5257 62.7179 78.0807 62.6599 78.7497C62.4839 80.7627 62.3089 82.7737 62.1339 84.7867C62.0779 85.4127 61.4279 85.9387 60.8019 85.8377" fill="#FED600"/><path id="Fill 112" fill-rule="evenodd" clip-rule="evenodd" d="M69.1619 91.8626C70.4339 90.7686 71.7069 89.6746 72.9799 88.5806C73.2239 88.3706 73.4949 88.2306 73.8269 88.2306C74.1199 88.2306 74.4729 88.3616 74.6739 88.5806C75.0859 89.0296 75.1819 89.8396 74.6739 90.2766C73.4019 91.3686 72.1289 92.4636 70.8559 93.5566C70.6119 93.7666 70.3409 93.9076 70.0089 93.9076C69.7149 93.9076 69.3649 93.7776 69.1619 93.5566C68.7499 93.1086 68.6549 92.2996 69.1619 91.8626" fill="#FED600"/><path id="Fill 114" fill-rule="evenodd" clip-rule="evenodd" d="M57.0296 88.1477C57.3881 89.5432 57.7466 90.9372 58.1051 92.332C58.2229 92.7926 58.8091 93.1108 59.2951 92.9638C59.807 92.81 60.0976 92.3455 59.9701 91.854C59.6124 90.457 59.2539 89.063 58.8947 87.6674C58.7768 87.2076 58.1906 86.8902 57.7054 87.0357C57.1927 87.191 56.9029 87.6554 57.0296 88.1477" fill="#FED600"/><path id="Fill 116" fill-rule="evenodd" clip-rule="evenodd" d="M51.3784 89.5442C51.8964 87.9892 52.4144 86.4362 52.9334 84.8802C53.1304 84.2872 53.7674 83.8372 54.4074 84.0432C54.9984 84.2352 55.4554 84.8802 55.2424 85.5172C54.7254 87.0722 54.2074 88.6262 53.6894 90.1792C53.4904 90.7732 52.8534 91.2242 52.2154 91.0192C51.6254 90.8272 51.1674 90.1792 51.3784 89.5442" fill="#FED600"/><path id="Fill 118" fill-rule="evenodd" clip-rule="evenodd" d="M66.3226 77.596C65.6506 77.817 65.0846 77.498 64.7776 76.9C63.8096 75.013 62.8426 73.129 61.8746 71.244C61.5876 70.684 62.0026 69.885 62.5696 69.698C63.2426 69.476 63.8086 69.795 64.1146 70.394C65.0836 72.279 66.0506 74.165 67.0196 76.05C67.3066 76.61 66.8896 77.408 66.3226 77.596" fill="#FED600"/><path id="Fill 120" fill-rule="evenodd" clip-rule="evenodd" d="M51.7941 75.4251C51.8071 74.7981 52.3371 74.1981 52.9931 74.2271C53.6311 74.2561 54.2031 74.7521 54.1901 75.4251C54.1631 76.9051 54.1361 78.3871 54.1081 79.8691C54.0971 80.4951 53.5661 81.0961 52.9111 81.0671C52.2721 81.0391 51.7001 80.5401 51.7121 79.8691C51.7391 78.3871 51.7671 76.9051 51.7941 75.4251" fill="#FED600"/><path id="Fill 122" fill-rule="evenodd" clip-rule="evenodd" d="M50.7886 67.8123C51.1646 67.2293 51.8216 67.0933 52.4276 67.3833L57.9856 70.0323C58.5536 70.3033 58.7466 71.1603 58.4156 71.6733C58.0396 72.2553 57.3826 72.3913 56.7766 72.1033L51.2176 69.4523C50.6516 69.1823 50.4576 68.3243 50.7886 67.8123" fill="#FED600"/><path id="Fill 124" fill-rule="evenodd" clip-rule="evenodd" d="M47.5011 59.4168C47.7101 58.7688 48.3161 58.4388 48.9751 58.5798C50.3801 58.8808 51.7861 59.1808 53.1911 59.4808C53.8051 59.6118 54.2181 60.3638 54.0281 60.9558C53.8181 61.6018 53.2111 61.9318 52.5531 61.7918L48.3381 60.8908C47.7241 60.7588 47.3101 60.0058 47.5011 59.4168" fill="#FED600"/><path id="Fill 126" fill-rule="evenodd" clip-rule="evenodd" d="M40.8086 71.9631C40.9546 71.7141 41.2386 71.4771 41.5246 71.4131C42.1096 71.2781 42.8806 71.5891 42.9976 72.2501C43.2886 73.8791 43.5796 75.5071 43.8706 77.1371C43.9286 77.4621 43.9206 77.7671 43.7496 78.0611C43.6036 78.3101 43.3196 78.5471 43.0336 78.6111C42.4496 78.7441 41.6766 78.4341 41.5606 77.7741C41.2696 76.1451 40.9776 74.5161 40.6866 72.8871C40.6306 72.5631 40.6376 72.2561 40.8086 71.9631" fill="#FED600"/><path id="Fill 128" fill-rule="evenodd" clip-rule="evenodd" d="M83.5899 93.3612C83.9519 93.3483 84.2209 93.005 84.1779 92.6163C84.1409 92.2892 84.1079 91.9621 84.1019 91.6382C84.0849 90.8232 84.0509 90.3341 84.0549 89.6821C84.0569 89.2945 83.7649 88.9814 83.4069 89.0009C80.9989 89.1326 72.8519 89.3917 72.0479 89.3819C70.1589 89.3582 68.2699 89.3506 66.3819 89.3798C63.5819 89.4251 47.7699 89.3031 47.6129 89.4996C47.5379 89.5957 47.5129 89.7263 47.4919 89.8516C47.2989 90.9959 46.8539 91.4709 47.0479 93.127C47.0859 93.4454 47.3149 93.7002 47.6099 93.7283C48.1839 93.7833 49.0889 93.8568 49.2729 93.8427C49.7599 93.8039 50.2669 93.8524 50.7559 93.86C52.8829 93.8913 55.0119 93.9237 57.1399 93.9496C59.6329 93.9798 62.1259 94.0047 64.6189 93.9993C65.7699 93.9971 80.2869 93.48 83.5899 93.3612" fill="#F451CF"/><path id="Fill 130" fill-rule="evenodd" clip-rule="evenodd" d="M67.847 65.9623C60.8309 65.9623 54.4626 65.9623 48.3682 58.1668C49.2832 57.2748 50.3562 56.5478 51.5232 56.0278C51.7862 55.9108 52.0702 55.8028 52.3532 55.8528C52.6832 55.9108 52.9352 56.1688 53.1692 56.4088C54.5172 57.7908 55.8013 59.0323 57.7112 59.9768C62.6648 62.4267 72.679 61.0249 75.0201 59.4533C77.3612 57.8818 76.2422 57.5358 77.3612 57.5988C77.6992 57.6178 78.0412 57.6578 78.3692 57.7418C78.4902 57.7728 78.5832 57.8398 78.6982 57.8818C78.8492 57.9378 79.0262 57.9418 79.1842 57.9778C79.8642 58.1298 80.5012 58.4308 81.0982 58.7838C81.8672 59.2388 82.5792 59.7838 83.3382 60.2548C82.6759 60.9013 74.8632 65.9623 67.847 65.9623Z" fill="#F451CF"/><path id="Fill 132" fill-rule="evenodd" clip-rule="evenodd" d="M34.4793 84.8352C34.6013 84.5732 34.8643 84.3132 35.1423 84.2212C35.8133 84.0012 36.3853 84.3202 36.6863 84.9202C37.5633 86.6662 38.4393 88.4122 39.3153 90.1592C39.4473 90.4192 39.3983 90.8362 39.2803 91.0882C39.1583 91.3502 38.8963 91.6102 38.6173 91.7022C37.9453 91.9232 37.3743 91.6032 37.0733 91.0032C36.1973 89.2572 35.3193 87.5112 34.4433 85.7642C34.3123 85.5042 34.3613 85.0882 34.4793 84.8352" fill="#FED600"/><path id="Fill 134" fill-rule="evenodd" clip-rule="evenodd" d="M33.9013 86.7009C35.5393 87.1879 36.7563 88.5309 37.8843 89.8139C38.2613 90.2429 38.6383 90.6709 39.0143 91.0989C39.2803 91.4019 39.5473 91.7049 39.7743 92.0369C40.1943 92.6539 40.4703 93.3549 40.8253 94.0119C41.1803 94.6689 41.6413 95.3049 42.3023 95.6509C41.6293 96.2329 40.8253 96.6829 39.9523 96.8509C39.0783 97.0199 38.1323 96.8889 37.3863 96.4029C37.0643 96.1919 36.7843 95.9219 36.5123 95.6479C35.7833 94.9159 35.0873 94.1509 34.4263 93.3559C33.9133 92.7389 33.4193 92.1009 32.8273 91.5589C31.9453 90.7509 30.8783 90.1829 29.8623 89.5529C29.4853 89.3189 29.1023 89.0639 28.8693 88.6869C28.6393 88.3159 28.5793 87.8619 28.5993 87.4269C28.6083 87.2389 28.6333 87.0419 28.7443 86.8909C28.8873 86.6949 29.1383 86.6159 29.3743 86.5599C30.0073 86.4099 30.6603 86.3419 31.3113 86.3569C31.8113 86.3679 32.3203 86.4389 32.8173 86.4939C33.1833 86.5339 33.5473 86.5959 33.9013 86.7009" fill="#F451CF"/><path id="Fill 136" fill-rule="evenodd" clip-rule="evenodd" d="M122.298 81.1292L113.546 77.9112C113.024 77.7192 112.756 77.1402 112.948 76.6182L117.543 64.1212C117.736 63.5992 118.314 63.3312 118.836 63.5242L127.588 66.7412C128.11 66.9342 128.378 67.5122 128.186 68.0342L123.591 80.5312C123.399 81.0532 122.82 81.3212 122.298 81.1292" fill="#262649"/><path id="Fill 138" fill-rule="evenodd" clip-rule="evenodd" d="M117.984 58.2776C118.085 58.5746 117.927 58.8976 117.63 58.9986C117.333 59.1006 117.009 58.9426 116.908 58.6456L115.833 59.0126C115.934 59.3096 115.776 59.6326 115.479 59.7346C115.182 59.8356 114.859 59.6766 114.757 59.3806L113.682 59.7476C113.783 60.0446 113.625 60.3676 113.328 60.4686C113.031 60.5706 112.708 60.4116 112.606 60.1146L111.531 60.4826L118.523 80.9466L119.598 80.5786C119.497 80.2816 119.655 79.9596 119.952 79.8576C120.25 79.7566 120.572 79.9146 120.674 80.2116L121.75 79.8436C121.648 79.5476 121.807 79.2236 122.104 79.1226C122.401 79.0216 122.723 79.1796 122.825 79.4766L123.901 79.1096C123.799 78.8126 123.957 78.4886 124.255 78.3876C124.551 78.2856 124.875 78.4446 124.976 78.7416L126.051 78.3746L119.059 57.9106L117.984 58.2776Z" fill="#FBB965"/><path id="Fill 140" fill-rule="evenodd" clip-rule="evenodd" d="M112.592 63.7107C112.606 63.7107 112.619 63.7087 112.632 63.7037L120.16 61.1317C120.226 61.1097 120.261 61.0387 120.238 60.9727C120.216 60.9077 120.14 60.8717 120.08 60.8957L112.552 63.4677C112.487 63.4897 112.451 63.5607 112.474 63.6267C112.491 63.6777 112.54 63.7107 112.592 63.7107" fill="#FFDBB1"/><path id="Fill 142" fill-rule="evenodd" clip-rule="evenodd" d="M117.877 73.7717C117.891 73.7717 117.904 73.7697 117.917 73.7647C117.982 73.7427 118.018 73.6717 117.995 73.6057L114.827 64.3347C114.805 64.2697 114.73 64.2347 114.669 64.2577C114.604 64.2797 114.568 64.3507 114.591 64.4167L117.759 73.6877C117.776 73.7387 117.825 73.7717 117.877 73.7717" fill="#FFDBB1"/><path id="Fill 144" fill-rule="evenodd" clip-rule="evenodd" d="M117.847 70.2136C117.861 70.2136 117.874 70.2116 117.887 70.2066C117.952 70.1846 117.988 70.1136 117.965 70.0476L115.89 63.9726C115.868 63.9066 115.79 63.8726 115.732 63.8946C115.666 63.9166 115.631 63.9876 115.654 64.0536L117.729 70.1296C117.746 70.1806 117.795 70.2136 117.847 70.2136" fill="#FFDBB1"/><path id="Fill 146" fill-rule="evenodd" clip-rule="evenodd" d="M121.031 69.1253C121.045 69.1253 121.058 69.1233 121.071 69.1183C121.136 69.0963 121.172 69.0253 121.149 68.9593L119.074 62.8843C119.052 62.8183 118.975 62.7833 118.916 62.8063C118.85 62.8283 118.815 62.8993 118.838 62.9653L120.913 69.0413C120.93 69.0923 120.979 69.1253 121.031 69.1253" fill="#FFDBB1"/><g id="Group 150"><path id="Fill 148" fill-rule="evenodd" clip-rule="evenodd" d="M122.645 80.9163L113.893 77.6983C113.371 77.5063 113.103 76.9273 113.295 76.4053L117.89 63.9093C118.082 63.3863 118.661 63.1193 119.183 63.3113L127.935 66.5293C128.457 66.7213 128.725 67.2993 128.533 67.8223L123.938 80.3183C123.746 80.8403 123.167 81.1083 122.645 80.9163" fill="#0E2D8A"/></g><path id="Fill 151" fill-rule="evenodd" clip-rule="evenodd" d="M124.303 71.4158C124.58 70.6868 124.557 69.8948 124.237 69.1838C123.917 68.4738 123.34 67.9298 122.612 67.6528C121.106 67.0808 119.419 67.8408 118.849 69.3448C118.572 70.0728 118.595 70.8658 118.915 71.5758C119.235 72.2868 119.812 72.8308 120.54 73.1068C122.045 73.6778 123.732 72.9198 124.303 71.4158M120.452 73.3408C119.66 73.0408 119.034 72.4508 118.687 71.6788C118.34 70.9068 118.315 70.0468 118.615 69.2558C119.235 67.6228 121.069 66.7988 122.699 67.4188C123.491 67.7198 124.117 68.3098 124.465 69.0818C124.812 69.8538 124.837 70.7138 124.537 71.5048C124.237 72.2948 123.646 72.9218 122.874 73.2688C122.459 73.4558 122.019 73.5488 121.577 73.5488C121.198 73.5488 120.818 73.4798 120.452 73.3408" fill="#71BFF3"/><path id="Fill 153" fill-rule="evenodd" clip-rule="evenodd" d="M121.534 68.117C121.103 68.551 120.71 69.2 120.429 69.943C120.145 70.687 120.009 71.433 120.043 72.044C120.075 72.611 120.257 72.999 120.542 73.107C120.831 73.217 121.222 73.045 121.621 72.643C122.052 72.209 122.445 71.56 122.726 70.816C123.01 70.073 123.146 69.326 123.112 68.716C123.08 68.149 122.898 67.761 122.613 67.653C122.556 67.631 122.495 67.621 122.431 67.621C122.172 67.621 121.855 67.794 121.534 68.117M120.454 73.341C120.066 73.194 119.832 72.738 119.794 72.058C119.758 71.413 119.9 70.63 120.194 69.854C120.489 69.079 120.901 68.399 121.356 67.941C121.837 67.457 122.318 67.27 122.701 67.419C123.089 67.566 123.323 68.022 123.361 68.702C123.397 69.347 123.255 70.129 122.961 70.905C122.666 71.681 122.254 72.361 121.799 72.819C121.426 73.195 121.055 73.39 120.726 73.39C120.632 73.39 120.54 73.374 120.454 73.341" fill="#71BFF3"/><path id="Fill 155" fill-rule="evenodd" clip-rule="evenodd" d="M124.502 70.5906L124.59 70.3576L119.338 68.3626L119.25 68.5966L124.502 70.5906Z" fill="#71BFF3"/><path id="Fill 157" fill-rule="evenodd" clip-rule="evenodd" d="M123.815 72.3967L123.903 72.1637L118.651 70.1687L118.563 70.4027L123.815 72.3967Z" fill="#71BFF3"/><path id="Fill 159" fill-rule="evenodd" clip-rule="evenodd" d="M124.651 74.4729C124.068 74.7809 123.562 75.2339 123.192 75.7809C122.913 76.1939 122.735 76.8089 123.101 77.1489C123.349 77.3789 123.731 77.3639 124.069 77.3339C123.515 77.8229 123.195 78.5669 123.221 79.3049C123.224 79.3839 123.231 79.4659 123.269 79.5349C123.316 79.6179 123.401 79.6719 123.488 79.7099C124.208 80.0299 125.052 79.4689 125.407 78.7659C125.763 78.0629 125.801 77.2469 126.013 76.4889C126.212 75.7779 126.556 75.1209 126.848 74.4459C127.099 73.8629 127.458 73.0719 127.341 72.4179C127.25 71.9079 126.697 72.0669 126.346 72.1919C125.796 72.3879 125.108 72.6179 124.65 72.9839C124.235 73.3159 123.951 74.2539 124.651 74.4729" fill="#6e78f0"/></g></g></g><g id="Facial Expression" transform="translate(72.5586 94.9543) scale(2.149467641657049 2.058241994757401)"><g id="Facial Expression/Pretty"><g id="Expression"><path id="Fill 1" fill-rule="evenodd" clip-rule="evenodd" d="M11.6052 10.1558C11.7113 10.2737 11.8211 10.3882 11.9263 10.5063C12.0549 10.6517 12.1646 10.8065 12.2759 10.9661C12.2869 10.9819 12.2831 10.9753 12.2641 10.9434C12.2704 10.9537 12.2759 10.9661 12.2811 10.9755C12.2891 10.9917 12.2972 11.0078 12.3051 11.023C12.3126 11.0432 12.32 11.0624 12.3286 11.0835C12.3503 11.1373 12.3144 11.0823 12.3257 11.0678C12.3257 11.0678 12.3323 11.1214 12.3334 11.1222C12.3242 11.1133 12.3426 11.0415 12.3311 11.0953C12.323 11.1366 12.3647 11.0247 12.3326 11.083C12.327 11.0948 12.3201 11.1047 12.3149 11.1195C12.329 11.0946 12.3272 11.0968 12.3095 11.1252C12.2941 11.1472 12.2796 11.1681 12.2628 11.1873C12.2557 11.1953 12.1871 11.2682 12.2232 11.2345C12.1779 11.2753 12.1292 11.3136 12.0782 11.35C12.055 11.366 12.0336 11.3807 12.0114 11.3965C12.003 11.4016 11.9145 11.4528 11.9569 11.4284C11.9032 11.4592 11.8465 11.4893 11.7902 11.5154C11.6613 11.5816 11.5733 11.7344 11.6402 11.8773C11.6982 12.0052 11.8626 12.0969 12.0002 12.0276C12.2698 11.8927 12.5497 11.7355 12.7295 11.4847C12.8208 11.3586 12.8891 11.2253 12.8816 11.066C12.8771 10.9719 12.8459 10.8739 12.8041 10.7874C12.6244 10.4155 12.3177 10.1247 12.0446 9.82074C11.9434 9.71025 11.7817 9.67368 11.6565 9.76966C11.5457 9.85177 11.5049 10.0452 11.6052 10.1558" fill="#752A86"/><g id="Group 5"><mask id="mask0a943ee9c-bc11-4974-af7f-16abec66e42e" style="mask-type:alpha" maskUnits="userSpaceOnUse" x="4" y="4" width="5" height="2" fill="#ffffff"><path id="Clip 4" fill-rule="evenodd" clip-rule="evenodd" d="M4.58105 4.62811L8.58562 4.13641L8.71338 5.17696L4.70882 5.66866L4.58105 4.62811Z" fill="#ffffff"/></mask><g mask="url(#mask0a943ee9c-bc11-4974-af7f-16abec66e42e)"><path id="Fill 3" fill-rule="evenodd" clip-rule="evenodd" d="M5.22414 4.60648C5.03897 4.65743 4.81305 4.73756 4.71071 4.91334C4.60974 5.08392 4.62166 5.47639 4.87131 5.49107C5.03775 5.50086 5.23154 5.42166 5.39261 5.38777C5.57937 5.34973 5.76661 5.31566 5.95434 5.28555C6.69534 5.16636 7.45106 5.1179 8.19893 5.20239C8.30918 5.21404 8.42487 5.22905 8.52865 5.1881C8.99505 5.00691 8.34469 4.62532 8.12635 4.58664C7.97397 4.56002 7.82392 4.54418 7.6733 4.50726C6.90644 4.31731 6.0148 4.40764 5.25318 4.59687C5.24462 4.60095 5.23481 4.60316 5.22414 4.60648" fill="#DE83E2"/></g></g><path id="Fill 6" fill-rule="evenodd" clip-rule="evenodd" d="M15.2346 4.77445C15.2974 4.78488 15.3591 4.79543 15.4202 4.80908C15.8896 4.90661 16.3549 5.10236 16.6775 5.45669C16.7541 5.53896 16.8161 5.63312 16.837 5.74641C16.8504 5.82235 16.8204 5.87338 16.7732 5.93257C16.6421 6.09576 16.4301 6.16612 16.2246 6.13293C16.0858 6.11067 15.957 6.04589 15.8288 5.98707C15.8193 5.9832 15.8097 5.97934 15.8001 5.97448C15.5582 5.86716 15.3093 5.77681 15.0538 5.70642C14.9779 5.68653 14.9137 5.62388 14.8394 5.59271C14.7629 5.56079 14.6827 5.53941 14.6031 5.52298C14.4355 5.48714 14.2641 5.4699 14.1 5.42154C13.9851 5.3883 13.8674 5.33222 13.8025 5.23037C13.7698 5.17697 13.7566 5.11108 13.7662 5.04945C13.776 4.98175 13.8204 4.94104 13.857 4.88617C13.9303 4.77743 14.0681 4.74337 14.1904 4.72131C14.5116 4.66272 14.8327 4.718 15.1515 4.76248C15.1792 4.76614 15.2068 4.7698 15.2346 4.77445" fill="#DE83E2"/><path id="Fill 18" fill-rule="evenodd" clip-rule="evenodd" d="M5.71569 10.9339C5.52503 11.2847 5.18843 11.5548 4.81168 11.6947C4.37609 11.856 3.8916 11.8571 3.43873 11.7545C3.14231 11.6871 2.84822 11.5731 2.62168 11.3692C2.23211 11.0191 2.12056 10.2993 2.17486 9.79794C2.2074 9.49673 2.34188 9.19711 2.58477 9.01717C2.94219 8.75264 3.35786 8.68347 3.78733 8.71033C4.16795 8.73311 4.55387 8.76633 4.90769 8.90726C5.61407 9.18726 6.07613 10.0292 5.79371 10.7651C5.77063 10.8234 5.74533 10.8799 5.71569 10.9339" fill="#FF9DDD"/><path id="Fill 20" fill-rule="evenodd" clip-rule="evenodd" d="M2.8997 10.7184C2.97613 10.709 3.04717 10.664 3.08764 10.5915L3.57328 9.72183C3.64002 9.6008 3.59719 9.44889 3.47615 9.38214C3.35599 9.31428 3.20408 9.35711 3.13634 9.47827L2.65082 10.3489C2.58396 10.469 2.62691 10.6219 2.74795 10.6886C2.79552 10.715 2.84809 10.7247 2.8997 10.7184" fill="#FFCAF7"/><path id="Fill 22" fill-rule="evenodd" clip-rule="evenodd" d="M4.67111 11.1768C4.80213 11.1607 4.89875 11.0451 4.89048 10.9121L4.82493 9.91868C4.81394 9.77999 4.69547 9.67666 4.55752 9.68554C4.4294 9.68414 4.31537 9.814 4.32512 9.95084L4.3908 10.9452C4.39968 11.0832 4.52026 11.1873 4.65721 11.1785C4.66218 11.1779 4.66615 11.1774 4.67111 11.1768" fill="#FFCAF7"/><path id="Fill 24" fill-rule="evenodd" clip-rule="evenodd" d="M3.64297 11.0501C3.73329 11.0391 3.81367 10.9798 3.84773 10.888L4.23878 9.82238C4.28632 9.69262 4.2204 9.54959 4.09064 9.50205C3.96076 9.45352 3.8176 9.51845 3.76919 9.64932L3.37727 10.716C3.33072 10.8457 3.39665 10.9887 3.52641 11.0362C3.56545 11.0506 3.60426 11.0549 3.64297 11.0501" fill="#FFCAF7"/><path id="Fill 26" fill-rule="evenodd" clip-rule="evenodd" d="M15.2201 12.134C15.4469 12.3812 15.7737 12.5315 16.1099 12.5698C16.4959 12.6121 16.89 12.5153 17.2372 12.3397C17.4649 12.2251 17.68 12.0727 17.8232 11.8607C18.0687 11.4971 18.0142 10.8892 17.8689 10.4929C17.7812 10.2549 17.6096 10.0392 17.376 9.9419C17.032 9.79875 16.6809 9.82776 16.3366 9.93653C16.032 10.0324 15.7246 10.1376 15.4652 10.3226C14.9486 10.6943 14.7439 11.4721 15.1226 12.013C15.1521 12.0557 15.1852 12.0959 15.2201 12.134" fill="#FF9DDD"/><path id="Fill 28" fill-rule="evenodd" clip-rule="evenodd" d="M17.4702 11.4288C17.5218 11.4225 17.5705 11.4004 17.6102 11.3632C17.7115 11.2692 17.7162 11.1104 17.6223 11.0101L17.0518 10.4011C16.9558 10.3001 16.798 10.2953 16.6978 10.3902C16.5975 10.4841 16.5927 10.6419 16.6868 10.7432L17.2571 11.3512C17.3139 11.4117 17.3937 11.4382 17.4702 11.4288" fill="#FFCAF7"/><path id="Fill 30" fill-rule="evenodd" clip-rule="evenodd" d="M16.1235 12.1604C16.1285 12.1598 16.1324 12.1593 16.1374 12.1587C16.2734 12.1339 16.3642 12.0039 16.3395 11.8679L16.1913 11.0468C16.1665 10.9108 16.0468 10.8056 15.9005 10.8447C15.7645 10.8695 15.6737 10.9995 15.6984 11.1355L15.8466 11.9566C15.8708 12.0876 15.9925 12.1765 16.1235 12.1604" fill="#FFCAF7"/><path id="Fill 32" fill-rule="evenodd" clip-rule="evenodd" d="M16.9334 11.8489C16.9721 11.8441 17.0098 11.8304 17.0432 11.8072C17.1576 11.7296 17.1869 11.5749 17.1104 11.4604L16.5755 10.6737C16.4979 10.5583 16.3402 10.5293 16.2279 10.6076C16.1135 10.6851 16.0841 10.8398 16.1617 10.9542L16.6955 11.741C16.7508 11.8219 16.8431 11.8599 16.9334 11.8489" fill="#FFCAF7"/><path id="Fill 8" fill-rule="evenodd" clip-rule="evenodd" d="M15.1881 9.52303C15.1911 9.52266 15.195 9.52218 15.1979 9.52082C15.3905 9.47299 15.5631 9.36918 15.7522 9.30869C15.9248 9.25424 16.0912 9.18142 16.2483 9.0906C16.5674 8.90834 16.8457 8.66361 17.0915 8.39263C17.1857 8.29039 17.2754 8.18366 17.3618 8.07532C17.4229 7.99831 17.5909 7.8729 17.5535 7.6508C17.4965 7.48955 17.1343 7.42017 16.9051 7.30928C16.1079 6.92154 15.263 6.88422 14.4015 7.00613C14.2558 7.02603 14.1464 7.12812 14.0706 7.25732C14.0373 7.31381 14.0555 7.46269 14.0535 7.52843C14.0486 7.62777 14.0468 7.72774 14.0478 7.82635C14.0494 8.0196 14.06 8.21274 14.0766 8.40516C14.0925 8.58455 14.131 8.76622 14.1296 8.94371C14.1268 9.12641 14.1525 9.31872 14.1985 9.49643C14.213 9.55712 14.2196 9.58653 14.2774 9.59757C14.326 9.60772 14.3823 9.59879 14.4318 9.59977C14.6834 9.60615 14.9455 9.58204 15.1881 9.52303" fill="#752A86"/><path id="Fill 10" fill-rule="evenodd" clip-rule="evenodd" d="M6.04207 8.69991C6.02695 8.86397 6.0199 9.02805 6.0286 9.1892C6.03314 9.26722 6.03739 9.36745 6.07023 9.43798C6.20294 9.72293 6.29817 9.16919 6.32043 9.08788C7.37007 9.11919 8.396 9.55642 9.4837 9.14278C8.94114 7.73541 7.93616 6.96011 6.49666 6.70766C6.44719 6.69862 6.28432 7.27577 6.26756 7.33626C6.21128 7.55072 6.17161 7.76918 6.13901 7.98779C6.10414 8.22077 6.06405 8.46044 6.04207 8.69991" fill="#752A86"/><path id="Fill 12" fill-rule="evenodd" clip-rule="evenodd" d="M14.0708 7.25752C13.8104 7.1313 13.6167 7.29312 13.4201 7.41499C12.718 7.8508 12.2318 8.33869 11.6709 9.15312C11.6481 9.34532 11.8112 9.41799 11.9272 9.45211C12.6606 9.66432 13.4924 9.80902 14.253 9.59474C14.253 9.59474 14.0039 8.00927 14.0708 7.25752" fill="#E5E2FC"/><path id="Fill 14" fill-rule="evenodd" clip-rule="evenodd" d="M6.03172 8.70017C6.03745 8.57454 6.07995 8.42827 6.09484 8.31158C6.11831 8.12533 6.1429 7.93995 6.17667 7.75546C6.20957 7.57209 6.24966 7.38984 6.30326 7.21098C6.31912 7.15966 6.45445 6.70276 6.49736 6.70757C5.65821 6.61817 4.64886 6.48015 3.91243 7.12067C4.00811 7.4404 4.40185 7.70136 4.63255 7.93095C4.87723 8.17596 5.07157 8.41304 5.39956 8.5652C5.5117 8.61692 5.62953 8.67399 5.74531 8.70612C5.82564 8.7285 5.95672 8.79502 6.03292 8.77559C6.03099 8.75164 6.03092 8.72646 6.03172 8.70017" fill="#E5E2FC"/><path id="Fill 16" fill-rule="evenodd" clip-rule="evenodd" d="M5.64211 8.68796C5.59775 8.67124 5.55239 8.65464 5.50702 8.63805C5.49438 8.63355 5.20002 9.15733 5.20263 9.21142C5.21315 9.39551 5.38879 9.33263 5.48336 9.24949C5.54873 9.19109 5.69912 8.70917 5.64211 8.68796" fill="#752A86"/><path id="Fill 18_2" fill-rule="evenodd" clip-rule="evenodd" d="M15.928 9.15814C15.9721 9.13963 16.0173 9.12199 16.0613 9.10348C16.0738 9.09793 16.3866 9.61063 16.3862 9.66508C16.3827 9.84988 16.2045 9.79318 16.107 9.71346C16.0397 9.65725 15.8724 9.18109 15.928 9.15814" fill="#752A86"/><path id="Fill 20_2" fill-rule="evenodd" clip-rule="evenodd" d="M5.00692 8.45807C5.0282 8.42624 5.04241 8.39427 5.04558 8.36265C5.03121 8.35233 4.86045 8.11033 4.84264 8.14577C4.73077 8.36705 4.33539 8.46194 4.51841 8.82837C4.64974 8.83945 4.73125 8.77302 4.80811 8.67693C4.85973 8.61317 4.95416 8.53709 5.00692 8.45807" fill="#752A86"/><path id="Fill 22_2" fill-rule="evenodd" clip-rule="evenodd" d="M16.9734 8.94714C16.9641 8.9372 16.9547 8.92627 16.9451 8.91335C16.8953 8.8439 16.8034 8.69498 16.6972 8.73221C16.6537 8.74762 16.6118 8.76688 16.5714 8.79098C16.6089 8.88309 16.6781 8.93 16.7502 8.99168C16.8458 9.07264 16.9419 9.22405 17.081 9.2241C17.1494 9.22375 17.0883 9.05394 17.0675 9.03231C17.0354 9.00099 17.0035 8.97872 16.9734 8.94714" fill="#752A86"/><path id="Fill 24_2" fill-rule="evenodd" clip-rule="evenodd" d="M15.2153 9.4395C15.261 9.42583 15.3076 9.41204 15.3533 9.39837C15.366 9.3948 15.6259 9.93616 15.6194 9.99035C15.5976 10.1734 15.4263 10.0997 15.3377 10.0098C15.2757 9.94793 15.157 9.45674 15.2153 9.4395" fill="#752A86"/><path id="Fill 26_2" fill-rule="evenodd" clip-rule="evenodd" d="M11.779 9.39997C11.7334 9.40557 11.6867 9.39418 11.6467 9.36383C11.5667 9.30313 11.5517 9.18911 11.6124 9.10911C11.6376 9.07679 11.6698 9.0275 11.7108 8.96706C13.1885 6.76556 15.1338 6.27987 17.4961 7.52425C17.5845 7.57183 17.6191 7.68143 17.5726 7.76976C17.524 7.85834 17.4133 7.89209 17.3271 7.84625C14.0575 6.12185 12.5186 8.4155 12.0126 9.16878C11.9667 9.23789 11.9301 9.29276 11.9014 9.32953C11.8711 9.37052 11.8257 9.39424 11.779 9.39997" fill="#752A86"/><path id="Fill 28_2" fill-rule="evenodd" clip-rule="evenodd" d="M17.5766 7.70568C17.4493 7.75154 17.3137 7.80446 17.1759 7.84757C17.1615 7.83625 17.1451 7.82617 17.1296 7.81497C17.0777 7.72059 16.9891 7.65491 16.8746 7.64176C16.8725 7.64101 16.8695 7.64138 16.8674 7.64063C16.7084 7.55135 16.5356 7.48188 16.3254 7.45228C16.3365 7.47711 16.3483 7.49884 16.3591 7.52168C16.2305 7.48308 16.1009 7.44558 15.9677 7.41863C15.8909 7.29405 15.8271 7.15983 15.7681 7.02401C15.8939 7.02267 16.0222 7.02605 16.1548 7.03899C16.3216 6.80592 16.3793 6.52883 16.6341 6.41292C16.7136 6.41222 16.7833 6.41374 16.8436 6.49499C16.9046 6.7293 16.6389 6.87074 16.6295 7.10564C16.7475 7.16469 16.8688 7.22536 16.9697 7.27544C17.2337 7.16947 17.2506 6.85508 17.4718 6.75336C17.6567 6.80722 17.7182 6.91353 17.6804 7.09851C17.5808 7.21451 17.4698 7.34401 17.3702 7.46001C17.4007 7.58523 17.4861 7.64123 17.5766 7.70568" fill="#752A86"/><path id="Fill 30_2" fill-rule="evenodd" clip-rule="evenodd" d="M9.44895 9.18132C9.38145 9.1896 9.31231 9.15981 9.27349 9.09808C9.25112 9.06355 9.22307 9.01561 9.18946 8.95525C8.75217 8.19186 7.4189 5.86701 4.04821 7.2491C3.95423 7.28784 3.84989 7.24222 3.81127 7.14923C3.77377 7.05711 3.81816 6.95091 3.91114 6.91229C6.34204 5.91763 8.22428 6.5429 9.50379 8.7746C9.53555 8.82813 9.56014 8.87246 9.58004 8.90327C9.63381 8.98835 9.60826 9.1003 9.52417 9.15395C9.50094 9.16989 9.47475 9.17815 9.44895 9.18132" fill="#752A86"/><path id="Fill 32_2" fill-rule="evenodd" clip-rule="evenodd" d="M3.92815 7.06837C3.93096 7.0912 3.94666 7.11245 3.98285 7.12815C4.05522 7.15957 4.35396 7.01609 4.43824 6.98862C4.66898 6.91495 4.89507 6.86905 5.13431 6.82355C5.27701 6.79596 5.43432 6.78067 5.56791 6.71994C5.61571 6.69896 5.73142 6.64848 5.69003 6.57397C5.6437 6.492 5.32431 6.60678 5.28748 6.54481C5.14029 6.29791 5.10779 6.01677 4.86324 5.87955C4.78487 5.87306 4.71368 5.86769 4.64753 5.94432C4.56666 6.17188 4.81847 6.33541 4.80803 6.57043C4.686 6.61866 4.55925 6.66949 4.45447 6.71056C4.20098 6.5825 4.21072 6.26797 3.99938 6.14682C3.81064 6.18511 3.74034 6.28543 3.76238 6.47314C3.85017 6.59737 3.95083 6.73613 4.03962 6.86024C4.02139 6.91688 3.9211 7.00274 3.92815 7.06837" fill="#752A86"/><g id="Group 39"><mask id="mask1a943ee9c-bc11-4974-af7f-16abec66e42e" style="mask-type:alpha" maskUnits="userSpaceOnUse" x="7" y="13" width="4" height="3" fill="#ffffff"><path id="Clip 38" fill-rule="evenodd" clip-rule="evenodd" d="M7.94897 13.4867L10.1926 13.2112L10.4071 14.9581L8.16346 15.2336L7.94897 13.4867Z" fill="#ffffff"/></mask><g mask="url(#mask1a943ee9c-bc11-4974-af7f-16abec66e42e)"><path id="Fill 37" fill-rule="evenodd" clip-rule="evenodd" d="M10.3443 14.4469C9.46509 14.3594 8.69886 13.9941 7.99409 13.4812C7.97519 13.7293 7.99177 13.9792 8.06481 14.213C8.24821 14.804 8.67799 15.0878 9.28416 15.0849C9.75413 15.0806 10.1349 14.8998 10.3443 14.4469" fill="#EE99D0"/></g></g><path id="Fill 40" fill-rule="evenodd" clip-rule="evenodd" d="M8.07373 13.0742C8.71427 13.8026 9.48829 14.2395 10.4879 14.1913C10.4904 13.6379 10.2001 13.3572 9.6767 13.2139C9.14528 13.0706 8.61662 13.0237 8.07373 13.0742" fill="#EE99D0"/><path id="Fill 42" fill-rule="evenodd" clip-rule="evenodd" d="M10.4041 14.3712C9.99316 14.4217 9.56048 14.3851 9.15181 14.257C8.63643 14.0966 7.92555 13.7144 7.46313 12.812C7.41693 12.723 7.45289 12.6138 7.54193 12.5676C7.62997 12.5215 7.74016 12.5573 7.78635 12.6464C8.19072 13.437 8.8119 13.7698 9.26036 13.9101C9.89213 14.1076 10.6159 14.053 11.1471 13.7681C11.2339 13.7202 11.3447 13.753 11.393 13.8427C11.4401 13.9307 11.4072 14.0405 11.3185 14.0887C11.0424 14.2364 10.7296 14.3312 10.4041 14.3712" fill="#752A86"/></g></g></g></g></g></g></svg>