<svg viewBox="24.78 54.28 127.43999999999997 127.43999999999997" fill="none" xmlns="http://www.w3.org/2000/svg" xmlns:xlink="http://www.w3.org/1999/xlink" overflow="visible" width="117.99999999999997px" height="117.99999999999997px"><rect id="Blush Background Color" fill="#f9f9f9" x="24.78" y="54.28" width="127.43999999999997" height="127.43999999999997"/><g id="Master/Character/Avatar"><g id="Group"><circle id="Mask" cx="89" cy="118" r="57" fill="#FBD6FF"/><mask id="mask0483f46ce-b89e-484c-ad84-c686755400d4" style="mask-type:alpha" maskUnits="userSpaceOnUse" x="32" y="61" width="114" height="114" fill="#ffffff"><circle id="Mask_2" cx="89" cy="118" r="57" fill="#ffffff"/></mask><g mask="url(#mask0483f46ce-b89e-484c-ad84-c686755400d4)"><g id="Head" transform="translate(2.44141 20) scale(2.119819859095982 2.1323556782286843)"><g id="Head/Curly"><g id="Hair"><g id="Hair_2"><g id="Group 9"><g id="Group 3"><path id="Fill 1" fill-rule="evenodd" clip-rule="evenodd" d="M48.3185 28.9576C47.6765 27.7486 46.4615 26.7456 45.0925 26.7566C44.7395 26.7596 44.3825 26.8276 44.0395 26.7476C43.5295 26.6286 43.1375 26.2026 42.6345 26.0586C42.2835 25.9576 41.9065 26.0036 41.5475 26.0706C40.6405 26.2396 39.8385 26.5776 38.9935 26.9276C38.8095 27.0036 36.6845 28.0216 36.7855 28.1406C35.3775 26.4516 32.7875 26.0176 30.7565 26.8606C28.7245 27.7036 27.2665 29.6336 26.6545 31.7466C25.3025 31.4086 23.9525 32.3926 23.1755 33.5486C22.5205 34.5226 21.7995 36.1356 22.0515 37.3466C22.1125 37.6366 22.1925 37.9146 22.2415 38.2116C22.3535 38.8886 22.5875 39.5436 22.9185 40.1446C23.4805 41.1656 24.3275 42.0356 25.3515 42.5956C26.5285 43.2386 27.6285 44.0926 28.7485 44.8446C29.8505 45.5846 30.9785 46.3476 31.7495 47.4286C32.3365 48.2496 32.6845 49.2116 33.1345 50.1146C33.6325 51.1136 34.2545 52.0436 34.8745 52.9706C35.0275 53.1996 35.1835 53.4326 35.3995 53.6056C36.2915 54.3196 37.7455 53.7326 38.6405 53.3106C39.4625 52.9226 40.2625 52.4926 41.0355 52.0146C42.5565 51.0726 43.9715 49.9386 45.1475 48.5836C45.9515 47.6576 46.6385 46.6286 47.1635 45.5186C48.4585 42.7716 48.7125 39.6656 48.9455 36.6376C49.0825 34.8746 49.4085 33.1756 49.1025 31.4376C48.9625 30.6446 48.7605 29.8546 48.4055 29.1286C48.3775 29.0716 48.3485 29.0146 48.3185 28.9576Z" fill="#342a83"/></g><g id="Group 6"><g id="Group"><rect id="Rectangle" x="37.1895" y="44.4042" width="8" height="17" rx="4" transform="rotate(10 37.1895 44.4042)" fill="#bb96fd"/><path id="Fill 44" fill-rule="evenodd" clip-rule="evenodd" d="M43.0849 57.1585C38.0049 56.7165 35.7188 49.4616 35.7188 49.4616L43.9835 51.9485L43.0849 57.1585Z" fill="#9376e0"/></g><path id="Fill 4" fill-rule="evenodd" clip-rule="evenodd" d="M42.2765 53.5851V53.5851C46.5215 53.3161 49.8055 49.7401 49.7035 46.2661L49.4135 38.0681C49.2835 33.7141 46.2675 30.2101 41.9105 30.1941C37.4505 30.1801 32.4955 33.8171 32.4805 38.2771L32.7875 44.8681C33.0235 49.9651 37.1725 53.5671 42.2765 53.5851" fill="#bb96fd"/></g><path id="Fill 7" fill-rule="evenodd" clip-rule="evenodd" d="M49.4057 36.7089C49.1637 35.7319 49.2937 34.7039 49.2137 33.7009C49.1357 32.6989 48.7927 31.7509 47.9447 31.1659C46.9627 30.4879 45.9327 29.9199 44.7887 29.5649C44.4507 29.4599 44.1807 29.3539 43.8397 29.4069C43.6717 29.4339 43.5007 29.4479 43.3297 29.4509C42.9717 29.4589 42.6147 29.4219 42.2617 29.3659C41.5557 29.2559 40.8647 29.0679 40.1547 28.9739C36.7087 28.5179 33.2177 30.5559 31.4077 33.5249C29.5967 36.4929 29.3057 40.2119 30.0277 43.6139C30.0787 43.8539 30.1447 44.1119 30.3367 44.2669C30.6097 44.4899 30.8247 44.2349 31.0877 44.2139C31.4917 44.1819 31.9587 44.2179 32.3587 44.2709C33.1377 44.3769 33.6957 44.7849 34.1027 45.4249C34.3387 45.7959 34.6717 46.0599 35.1357 46.0209C35.3267 46.0049 35.5127 45.9389 35.6717 45.8329C35.7177 45.8029 36.0847 45.4999 36.0317 45.4369C35.4207 44.7149 35.1687 43.7139 35.3477 42.7869C35.4047 42.4999 35.3947 42.3949 35.3377 42.1089C35.2717 41.7799 35.2477 41.4609 35.2827 41.1279C35.3127 40.8369 35.2437 40.5749 35.2287 40.2859C35.2127 39.9669 35.2607 39.6439 35.3727 39.3439C35.4837 39.0429 35.7267 38.8759 35.8787 38.6119C36.0547 38.3029 36.2107 37.9799 36.3757 37.6649C36.7027 37.0439 36.8057 36.0229 37.6257 36.1809C38.1817 36.2899 38.7387 36.3979 39.2977 36.4869C40.4197 36.6649 41.5467 36.7919 42.6787 36.8679C43.6537 36.9329 44.6307 36.9599 45.6087 36.9479C46.8777 36.9329 48.1447 36.8539 49.4057 36.7089Z" fill="#342a83"/><path id="Path" fill-rule="evenodd" clip-rule="evenodd" d="M35.5377 39.4709C40.9999 33.3035 50.6488 43.3649 51.648 32.6633C51.7256 31.8327 52.0757 28.9101 47.9322 29.5537C46.437 29.786 44.0903 25.5542 41.6927 25.137C32.6067 23.5559 25.138 45.8729 34.9942 40.2388L35.5377 39.4709Z" fill="#342a83"/></g><path id="Fill 38" fill-rule="evenodd" clip-rule="evenodd" d="M36.8359 51.1764V51.1784C36.8369 51.1784 36.8369 51.1804 36.8399 51.1804L36.8359 51.1764Z" fill="#523E8C"/></g><path id="Fill 10" fill-rule="evenodd" clip-rule="evenodd" d="M28.4984 45.1223C28.0854 46.9063 29.1944 48.6843 30.9764 49.0983C32.7584 49.5103 34.5364 48.3993 34.9484 46.6193C35.3614 44.8373 34.2514 43.0593 32.4704 42.6463C30.6884 42.2333 28.9094 43.3413 28.4984 45.1223" fill="#bb96fd"/><path id="Fill 12" fill-rule="evenodd" clip-rule="evenodd" d="M32.6286 47.0911C32.6286 47.0911 33.1696 44.7531 30.8496 44.6031Z" fill="#9376e0"/></g></g></g><g id="Upper Body" transform="translate(-53 26.5178) scale(2.1294117647058823 2.124879991686022)"><g id="Upper Body/Backpack"><g id="Upper"><path id="Fill 42" fill-rule="evenodd" clip-rule="evenodd" d="M67.5534 54.3279C67.5534 54.3279 61.0647 53.991 60.9997 54.009C60.1267 54.248 59.1018 54.486 58.2278 54.725C57.0048 55.059 55.7828 55.393 54.5608 55.727C54.0888 55.856 53.6178 55.985 53.1468 56.114C52.9988 56.154 52.8288 56.178 52.6878 56.239C52.3178 56.397 53.0348 57.02 53.1808 57.181C54.3678 58.497 55.8218 59.565 57.4168 60.336C59.0128 61.108 60.7528 61.585 62.5208 61.722C63.4028 61.79 64.2928 61.773 65.1708 61.665C65.3858 61.639 65.5958 61.603 65.8108 61.593C66.0218 61.582 66.2098 61.507 66.4118 61.443L67.7438 61.02C70.0098 60.393 73.7118 59.369 75.9778 58.742L77.1158 58.472C77.6248 58.352 77.6308 57.631 77.1258 57.501L69.7098 55.594C69.4678 55.532 68.9373 55.1962 69.0847 54.4003L67.5534 54.3279Z" fill="#bb96fd"/><path id="Stroke 1 (Stroke)" fill-rule="evenodd" clip-rule="evenodd" d="M109.921 85.4119L110.17 85.3863L110.171 85.3951L110.173 85.4205C110.176 85.4426 110.179 85.4751 110.182 85.5164C110.19 85.599 110.2 85.7172 110.211 85.8598C110.232 86.1449 110.256 86.5284 110.265 86.9211C110.274 87.3127 110.269 87.7177 110.23 88.0441C110.211 88.2068 110.183 88.3554 110.142 88.4748C110.104 88.5882 110.044 88.7026 109.944 88.7604C109.944 88.7604 109.944 88.7604 109.944 88.7604C109.807 88.8394 109.638 88.8866 109.455 88.8452C109.271 88.8038 109.094 88.6787 108.933 88.454C108.613 88.0104 108.325 87.1415 108.146 85.5733L108.394 85.5448C108.573 87.1066 108.856 87.9197 109.136 88.3079C109.273 88.499 109.403 88.5772 109.51 88.6013C109.616 88.6254 109.721 88.6003 109.819 88.5438C109.837 88.5338 109.871 88.4956 109.906 88.3941C109.938 88.2986 109.964 88.1697 109.982 88.0148C110.018 87.7058 110.024 87.3146 110.015 86.9268C110.006 86.54 109.983 86.1611 109.962 85.8786C109.951 85.7375 109.941 85.6206 109.933 85.539C109.93 85.4983 109.927 85.4664 109.925 85.4447L109.922 85.4201L109.921 85.4119Z" fill="#0087A9"/><path id="Fill 3" fill-rule="evenodd" clip-rule="evenodd" d="M91.7667 86.1898C92.9457 86.3538 94.2237 86.3988 95.5487 86.3538C96.8747 86.3138 98.2507 86.1858 99.6527 86.0098C101.057 85.8318 102.486 85.6068 103.943 85.3558C106.083 84.9918 108.112 86.4298 108.476 88.5678C108.824 90.6068 107.961 91.8718 105.986 92.3648C104.499 92.7338 97.8357 94.6648 96.1717 94.8428C94.5077 95.0188 92.7757 95.1018 90.9667 94.9928C89.1627 94.8838 87.2737 94.5748 85.4017 93.9478C84.2037 93.5468 83.2987 92.6668 82.8317 91.5908L82.7227 91.3378C82.7227 91.3378 72.4457 67.4218 72.4357 67.3998C71.5097 65.2438 72.1477 62.7788 73.8897 61.2488C76.0807 59.3258 78.1307 61.1038 80.2537 62.3988C83.7557 64.5378 84.6107 69.8308 85.9447 73.4768C87.4097 77.4778 88.8737 81.4798 90.3387 85.4808C90.5557 86.0738 90.5877 86.0288 91.7667 86.1898Z" fill="#bb96fd"/><g id="Group 7"><mask id="mask050424ce6-3885-4290-8ca9-539bcdfa229c" style="mask-type:alpha" maskUnits="userSpaceOnUse" x="101" y="82" width="19" height="11" fill="#ffffff"><path id="Clip 6" fill-rule="evenodd" clip-rule="evenodd" d="M101.729 82.6308H119.08V92.472H101.729V82.6308Z" fill="#ffffff"/></mask><g mask="url(#mask050424ce6-3885-4290-8ca9-539bcdfa229c)"><path id="Fill 5" fill-rule="evenodd" clip-rule="evenodd" d="M111.069 92.4073C110.609 92.5123 110.129 92.4663 109.658 92.4303C108.771 92.3653 107.881 92.3413 106.993 92.3583C106.662 92.3653 106.314 92.4133 105.985 92.3643C105.782 92.3343 105.611 92.2393 105.43 92.1503C105.307 92.0893 105.181 92.0363 105.05 91.9913C104.41 91.7693 103.774 91.5493 103.176 91.2243C102.848 91.0453 102.518 90.8393 102.257 90.5673C102.207 90.5143 102.076 90.3983 102.069 90.3163C102.069 90.3043 101.729 85.7763 101.729 85.7763C101.729 85.7763 106.126 83.9283 107.577 83.8503C108.399 83.8093 109.222 83.6063 110.027 83.4513C111.105 83.2443 112.183 83.0323 113.273 82.8973C113.577 82.8593 113.923 82.7793 114.228 82.8263C114.345 82.8453 114.461 82.8263 114.578 82.8133C114.848 82.7833 115.116 82.7483 115.386 82.7173C115.767 82.6733 116.15 82.6353 116.535 82.6313C117.307 82.6213 118.107 82.7563 118.746 83.1883C119.011 83.3673 119.178 83.6223 119.016 83.9383C118.958 84.0523 118.84 84.1073 118.732 84.1643C118.032 84.5363 117.239 84.6523 116.472 84.8083C115.519 85.0033 114.581 85.2723 113.67 85.6133C113.283 85.7583 112.743 85.8873 112.41 86.1373C112.369 86.1683 112.297 86.1813 112.27 86.2293C112.1 86.5253 112.299 87.1173 112.341 87.4453C112.428 88.1413 112.516 88.8363 112.603 89.5323C112.684 90.1723 112.581 90.6703 112.353 91.2813C112.146 91.8383 111.651 92.2753 111.069 92.4073" fill="#bb96fd"/></g></g><path id="Fill 8" fill-rule="evenodd" clip-rule="evenodd" d="M103.236 88.4962C103.055 88.4962 102.867 88.4892 102.673 88.4732L102.694 88.2242C106.015 88.4912 107.363 86.2152 107.376 86.1922L107.594 86.3152C107.581 86.3392 106.319 88.4962 103.236 88.4962" fill="#00A2C5"/><path id="Fill 10" fill-rule="evenodd" clip-rule="evenodd" d="M109.685 90.673L105.594 90.09L105.629 89.843L109.72 90.426L109.685 90.673Z" fill="#00A2C5"/><path id="Fill 12" fill-rule="evenodd" clip-rule="evenodd" d="M104.961 92.0231C104.953 92.0101 104.184 90.7031 105.18 89.7931C105.095 89.2431 105.275 88.7001 105.677 88.3001C106.097 87.8811 106.692 87.6901 107.277 87.7921L108.815 88.0581L108.772 88.3041L107.234 88.0381C106.733 87.9531 106.216 88.1161 105.854 88.4771C105.504 88.8261 105.35 89.3001 105.43 89.7771L105.45 89.8901L105.395 89.9361C104.481 90.7091 105.147 91.8461 105.175 91.8941L104.961 92.0231Z" fill="#00A2C5"/><path id="Fill 16" fill-rule="evenodd" clip-rule="evenodd" d="M79.6506 85.045C79.9996 82.481 80.2426 79.905 80.3356 77.315C80.4426 74.346 80.3516 71.376 80.3446 68.407C80.3416 67.004 80.3196 65.585 80.4216 64.185C80.4296 64.074 80.4546 64.003 80.4176 63.893C80.3736 63.762 80.3246 63.632 80.2786 63.502C80.0916 62.982 79.8976 62.463 79.6816 61.954C79.4706 61.456 79.2396 60.965 78.9776 60.492C78.4986 59.632 77.9086 58.824 77.1756 58.163C77.0046 58.01 76.8206 57.826 76.6146 57.723C76.4706 57.65 76.3026 57.663 76.1486 57.621C75.6206 57.477 75.1036 57.328 74.5626 57.237C73.4866 57.055 72.3936 57.013 71.3036 57.002C70.8196 56.997 70.3366 56.999 69.8526 56.998C68.6516 56.994 67.8106 56.841 66.6186 57.027C64.7796 57.313 63.6496 56.435 62.0546 55.777C60.6346 55.191 59.0876 55.54 57.6486 55.909C56.1636 56.291 54.6416 56.379 53.1216 56.764C52.3476 56.958 51.6736 57.287 50.9076 57.468C50.1936 57.635 49.5116 57.747 48.8376 58.062C47.5806 58.646 46.4426 59.671 46.2276 61.103C45.8456 63.632 46.3106 66.27 47.0416 68.695C47.4496 70.044 47.8266 71.44 48.1656 72.837C48.2126 73.024 48.2586 73.211 48.3026 73.4C48.3696 73.689 48.4376 73.976 48.5046 74.266C49.5156 78.718 50.1496 83.059 50.2526 85.974C50.2946 87.137 50.3736 88.3 50.4386 89.463C50.5216 90.96 50.4806 92.274 52.3546 92.282C60.4846 92.319 68.6156 92.356 76.7456 92.392C77.1906 92.395 78.0856 92.567 78.4096 92.25C78.5066 92.154 78.5436 91.64 78.5516 91.597C78.6946 90.866 78.8326 90.133 78.9626 89.4C79.2206 87.953 79.4526 86.502 79.6506 85.045" fill="#bb96fd"/><path id="Fill 18" fill-rule="evenodd" clip-rule="evenodd" d="M41.9741 92.8844H60.4341C62.4481 92.8844 64.0801 91.2524 64.0801 89.2384V63.3724C64.0801 61.3594 62.4481 59.7264 60.4341 59.7264H51.4951C44.2231 59.7264 38.3281 65.6214 38.3281 72.8934V89.2384C38.3281 91.2524 39.9601 92.8844 41.9741 92.8844" fill="black"/><path id="Fill 20" fill-rule="evenodd" clip-rule="evenodd" d="M74.4141 56.964C74.6861 56.698 77.1901 57.301 77.8391 57.901C78.6571 58.66 79.4541 59.441 80.2341 60.238C81.6841 61.719 83.1841 63.245 84.3521 64.964C86.0011 67.389 92.7341 82.422 92.7341 82.422L79.9561 86.403L80.3901 92.884H48.1211L48.8041 85.333L38.3281 78.932C39.3521 75.724 40.4011 72.525 41.4751 69.334C42.2051 67.16 42.9421 64.987 43.7421 62.839C43.9681 62.229 44.0181 61.749 44.4571 61.258C46.1181 59.402 48.1671 57.881 50.3901 56.765C52.6631 55.623 55.1511 54.901 57.6871 54.683C58.2581 54.634 58.8621 54.616 59.3721 54.876C60.0321 55.212 60.3861 55.926 60.7871 56.548C62.1391 58.651 64.4961 60.076 66.9871 60.295C69.4771 60.514 72.0461 59.522 73.7451 57.687C73.9651 57.449 74.1801 57.192 74.4141 56.964" fill="#FED600"/><path id="Fill 22" fill-rule="evenodd" clip-rule="evenodd" d="M76.2206 66.0797C75.1606 60.3677 73.7656 57.2117 73.7656 57.2117C73.7656 57.2117 74.2396 56.5437 76.2206 57.2117C78.2016 57.8797 80.0056 59.6577 80.6876 60.8397C81.0196 61.4147 80.8766 63.5757 80.9256 64.2107C81.2276 68.0937 81.2436 72.0067 81.2916 75.8987C81.3186 78.0937 80.7896 80.0087 80.5196 82.1837C80.1626 85.0737 79.8856 87.9737 79.6896 90.8787C78.3006 88.3607 77.5126 85.5187 77.3716 82.6487C77.3196 81.5697 76.8136 69.2787 76.2206 66.0797" fill="black"/><path id="Fill 24" fill-rule="evenodd" clip-rule="evenodd" d="M52.2474 83.9503C52.2474 83.9503 56.8064 75.9253 56.9994 68.0683C57.1944 60.2113 56.0434 54.4383 56.0434 54.4383C56.0434 54.4383 54.8174 54.0523 52.2474 54.9973C49.6764 55.9433 48.7744 57.5073 48.7744 57.5073C48.7744 57.5073 51.4224 63.5823 51.6414 68.8203C51.8594 74.0573 49.9674 81.2953 49.9674 81.2953L52.2474 83.9503Z" fill="black"/><path id="Fill 26" fill-rule="evenodd" clip-rule="evenodd" d="M51.0481 87.1022L48.1221 92.8842L50.0681 86.9332L51.0481 87.1022Z" fill="black"/><g id="Group 30"><mask id="mask150424ce6-3885-4290-8ca9-539bcdfa229c" style="mask-type:alpha" maskUnits="userSpaceOnUse" x="36" y="78" width="19" height="18" fill="#ffffff"><path id="Clip 29" fill-rule="evenodd" clip-rule="evenodd" d="M36 78.869H54.3909V95.3746H36V78.869Z" fill="#ffffff"/></mask><g mask="url(#mask150424ce6-3885-4290-8ca9-539bcdfa229c)"><path id="Fill 28" fill-rule="evenodd" clip-rule="evenodd" d="M38.3284 78.9317C38.3284 78.9317 36.9214 85.7217 36.6304 86.4967C36.3394 87.2727 35.3704 91.9287 36.6304 93.7717C37.8914 95.6147 40.5104 95.9057 42.6444 94.4507C44.7784 92.9957 47.8824 89.0187 47.8824 89.0187C47.8824 89.0187 51.1804 89.2367 51.9564 88.5457C52.7324 87.8547 54.1874 81.8837 54.3814 80.4077C54.5754 78.9317 51.7624 78.7377 50.0164 78.9317C48.2704 79.1257 44.5664 82.1377 44.5664 82.1377L38.3284 78.9317Z" fill="#bb96fd"/></g></g><path id="Fill 31" fill-rule="evenodd" clip-rule="evenodd" d="M42.9289 81.295L44.5669 82.137L39.6709 84.964" fill="#00A2C5"/></g></g></g><g id="Facial Expression" transform="translate(72.5586 94.9543) scale(2.149467641657049 2.058241994757401)"><g id="Facial Expression/Chill"><g id="Group 45"><g id="Group 44"><g id="Group 31"><path id="Fill 1" fill-rule="evenodd" clip-rule="evenodd" d="M5.70979 11.1893C5.47823 11.5096 5.11354 11.7325 4.72354 11.8253C4.27261 11.9321 3.79448 11.8736 3.35948 11.7185C3.07448 11.6164 2.79792 11.4688 2.59917 11.244C2.25604 10.8522 2.23261 10.1344 2.34698 9.65062C2.41729 9.35997 2.58605 9.08233 2.84855 8.93469C3.23198 8.71833 3.65104 8.70254 4.07386 8.77962C4.44698 8.84833 4.82386 8.92726 5.15854 9.1074C5.82136 9.46769 6.17667 10.3461 5.80729 11.0333C5.77823 11.0871 5.74542 11.1391 5.70979 11.1893" fill="#DD82E1"/><path id="Fill 3" fill-rule="evenodd" clip-rule="evenodd" d="M2.95232 10.6134C3.02076 10.6134 3.0892 10.5828 3.13232 10.5224L3.71639 9.72944C3.78951 9.63101 3.76795 9.49358 3.66857 9.42208C3.5692 9.34965 3.42951 9.37008 3.35732 9.47037L2.77232 10.2634C2.70014 10.3618 2.7217 10.4992 2.82107 10.5707C2.86045 10.5995 2.90639 10.6134 2.95232 10.6134" fill="#F7C2E9"/><path id="Fill 5" fill-rule="evenodd" clip-rule="evenodd" d="M4.64719 11.2745C4.76438 11.2745 4.86282 11.1835 4.86938 11.0656L4.92469 10.085C4.93126 9.96335 4.83751 9.86028 4.71469 9.85285C4.59657 9.83892 4.48688 9.94013 4.47938 10.0608L4.42501 11.0423C4.41751 11.164 4.51219 11.2671 4.63501 11.2745H4.64719Z" fill="#F7C2E9"/><path id="Fill 7" fill-rule="evenodd" clip-rule="evenodd" d="M3.64717 11.0261C3.7278 11.0261 3.80561 10.9825 3.84499 10.9063L4.36155 9.90997C4.4178 9.80225 4.37467 9.66854 4.26499 9.61375C4.15717 9.55618 4.02124 9.59982 3.96499 9.70847L3.44936 10.7048C3.39311 10.8135 3.43624 10.9463 3.54592 11.002C3.5778 11.0187 3.61249 11.0261 3.64717 11.0261" fill="#F7C2E9"/><path id="Fill 9" fill-rule="evenodd" clip-rule="evenodd" d="M14.1107 12.9249C14.3048 13.1933 14.6104 13.3799 14.9367 13.4561C15.3135 13.5471 15.7157 13.4979 16.0804 13.3697C16.3185 13.2834 16.551 13.1599 16.717 12.9686C17.0039 12.6436 17.0235 12.0428 16.9279 11.6361C16.8698 11.3928 16.7273 11.1607 16.5089 11.0381C16.1854 10.8552 15.8348 10.8431 15.4804 10.9072C15.1682 10.9638 14.8532 11.0307 14.5739 11.1792C14.016 11.4819 13.7198 12.2183 14.0301 12.794C14.0526 12.8386 14.0798 12.8822 14.1107 12.9249" fill="#DD82E1"/><path id="Fill 11" fill-rule="evenodd" clip-rule="evenodd" d="M16.4201 12.4788C16.4661 12.4788 16.512 12.4648 16.5514 12.436C16.6508 12.3645 16.6723 12.2271 16.6001 12.1287L16.1089 11.4629C16.0376 11.3635 15.8979 11.3422 15.7976 11.4146C15.6983 11.487 15.6776 11.6245 15.7498 11.7229L16.2401 12.3878C16.2833 12.4481 16.3517 12.4788 16.4201 12.4788" fill="#F7C2E9"/><path id="Fill 13" fill-rule="evenodd" clip-rule="evenodd" d="M15.0007 13.0328H15.0138C15.1366 13.0254 15.2304 12.9214 15.2229 12.7998L15.176 11.9771C15.1694 11.8554 15.0757 11.7728 14.9407 11.77C14.8179 11.7765 14.7241 11.8814 14.7307 12.0031L14.7785 12.8248C14.785 12.9418 14.8835 13.0328 15.0007 13.0328" fill="#F7C2E9"/><path id="Fill 15" fill-rule="evenodd" clip-rule="evenodd" d="M15.8398 12.8252C15.8745 12.8252 15.9091 12.8178 15.942 12.8011C16.0507 12.7453 16.0938 12.6126 16.0376 12.5039L15.6045 11.6701C15.5473 11.5623 15.4132 11.5187 15.3045 11.5744C15.1957 11.6301 15.1526 11.7629 15.2079 11.8716L15.642 12.7054C15.6813 12.7816 15.7591 12.8252 15.8398 12.8252" fill="#F7C2E9"/><path id="Fill 17" fill-rule="evenodd" clip-rule="evenodd" d="M11.4249 10.8638C11.5102 10.9845 11.5993 11.1024 11.6837 11.2231C11.7868 11.3717 11.8712 11.5268 11.9565 11.6865C11.9649 11.7023 11.9621 11.6958 11.948 11.6642C11.9527 11.6744 11.9565 11.6865 11.9602 11.6958C11.9658 11.7116 11.9715 11.7274 11.9771 11.7422C11.9818 11.7617 11.9865 11.7803 11.9921 11.8007C12.0062 11.8527 11.979 11.7979 11.9912 11.7859C11.9912 11.7859 11.9912 11.836 11.9921 11.8369C11.9846 11.8276 12.0099 11.7636 11.993 11.8119C11.9808 11.849 12.0324 11.7506 11.9958 11.8007C11.9893 11.8109 11.9818 11.8193 11.9752 11.8323C11.9912 11.8109 11.9893 11.8128 11.9696 11.8369C11.9527 11.8555 11.9368 11.8731 11.919 11.8889C11.9115 11.8954 11.8393 11.9549 11.8768 11.9279C11.8299 11.9604 11.7802 11.9901 11.7287 12.018C11.7052 12.0301 11.6837 12.0412 11.6612 12.0533C11.6527 12.057 11.5646 12.0941 11.6068 12.0765C11.5533 12.0988 11.4971 12.1201 11.4418 12.1378C11.3143 12.1842 11.2149 12.3151 11.2608 12.4544C11.3002 12.5789 11.4427 12.6819 11.5787 12.6336C11.8449 12.5399 12.1233 12.4266 12.3193 12.2158C12.4187 12.1099 12.4974 11.9948 12.5087 11.8471C12.5152 11.7599 12.4974 11.6661 12.4683 11.5816C12.3437 11.2185 12.0915 10.9158 11.8721 10.6047C11.7905 10.4914 11.6443 10.4394 11.5168 10.5137C11.4043 10.5769 11.3443 10.7505 11.4249 10.8638" fill="#C973D0"/><path id="Fill 19" fill-rule="evenodd" clip-rule="evenodd" d="M8.13869 4.60681C9.04244 4.40624 8.91494 3.07002 7.9915 3.01152C7.18619 2.96231 6.17463 3.05052 5.629 3.68659C4.62869 4.84731 7.14119 4.80181 8.11056 4.61424C8.11994 4.61052 8.12838 4.60866 8.13869 4.60681" fill="#005262"/><path id="Fill 21" fill-rule="evenodd" clip-rule="evenodd" d="M14.4477 5.87634C13.813 5.43434 14.3464 4.44077 15.0786 4.68962C15.717 4.90691 16.4717 5.29598 16.6883 5.9627C17.0858 7.17634 15.1564 6.34434 14.4674 5.89027C14.4617 5.88562 14.4542 5.88005 14.4477 5.87634" fill="#005262"/><path id="Fill 23" fill-rule="evenodd" clip-rule="evenodd" d="M6.87573 6.98172C6.92261 6.9845 6.97136 6.98915 7.01729 6.99565C7.80292 7.08479 8.53604 7.58529 9.01698 8.19072C9.14636 8.35229 9.18198 8.54543 9.10229 8.75157C8.99823 9.02272 8.82104 9.0775 8.64104 8.84536C8.15448 8.21579 7.48229 7.96508 6.73229 7.82579C6.35448 7.75615 6.00948 7.80815 5.67292 7.96136C5.41604 8.07836 5.17229 8.22229 4.91636 8.34207C4.73636 8.42657 4.53292 8.45072 4.39698 8.27708C4.25073 8.0895 4.33136 7.90658 4.48323 7.745C5.08604 7.09779 6.01511 6.91208 6.87573 6.98172" fill="#2D2163"/><g id="Group 27"><mask id="mask0483ae092-b8a6-466d-a8a0-fb9250c0a71d" style="mask-type:alpha" maskUnits="userSpaceOnUse" x="12" y="8" width="5" height="3" fill="#ffffff"><path id="Clip 26" fill-rule="evenodd" clip-rule="evenodd" d="M17 8.60916H12.55V10.5763H17V8.60916Z" fill="#ffffff"/></mask><g mask="url(#mask0483ae092-b8a6-466d-a8a0-fb9250c0a71d)"><path id="Fill 25" fill-rule="evenodd" clip-rule="evenodd" d="M16.4618 10.5763C15.963 9.95323 15.289 9.22894 14.4058 9.42673C13.9455 9.5298 13.5208 9.83623 13.0586 9.89937C12.8786 9.92351 12.6818 9.91701 12.5871 9.7443C12.4858 9.56323 12.6096 9.43694 12.7436 9.29766C13.3315 8.69873 14.133 8.55387 14.9383 8.6263C15.7774 8.70244 16.4683 9.27073 16.9343 9.95508C17.089 10.4249 16.9858 10.5614 16.4618 10.5763" fill="#2D2163"/></g></g><g id="Group 30"><mask id="mask1483ae092-b8a6-466d-a8a0-fb9250c0a71d" style="mask-type:alpha" maskUnits="userSpaceOnUse" x="6" y="12" width="6" height="4" fill="#ffffff"><path id="Clip 29" fill-rule="evenodd" clip-rule="evenodd" d="M11.0466 12.4751H6.46106V15.1996H11.0466V12.4751Z" fill="#ffffff"/></mask><g mask="url(#mask1483ae092-b8a6-466d-a8a0-fb9250c0a71d)"><path id="Fill 28" fill-rule="evenodd" clip-rule="evenodd" d="M6.70683 12.4824C6.79214 12.4703 6.88027 12.4731 6.9637 12.4917C7.09589 12.5195 7.21777 12.5827 7.31995 12.67C7.35745 12.7015 7.39683 12.7377 7.42495 12.7795C7.44183 12.8055 7.44933 12.8362 7.46902 12.8612C7.54214 12.9541 7.66214 13.0302 7.75402 13.1036C7.85339 13.1835 7.9537 13.2605 8.05589 13.3367C8.25933 13.4852 8.46839 13.6264 8.68308 13.7582C9.14433 14.0433 9.65339 14.2912 10.1971 14.2996C10.3556 14.3015 10.515 14.2838 10.6725 14.3089C10.7306 14.3182 10.7906 14.3284 10.8375 14.3665C10.9003 14.4185 10.9743 14.4714 11.0175 14.541C11.025 14.5522 11.0268 14.5652 11.0306 14.5791C11.0428 14.6153 11.0493 14.6487 11.0456 14.6868C11.04 14.7435 11.0231 14.775 10.9893 14.815C10.9621 14.8475 10.9368 14.8809 10.905 14.9106C10.8431 14.9691 10.7709 15.0155 10.694 15.0527C10.6443 15.0768 10.5928 15.0963 10.5393 15.114C10.3565 15.1715 10.1615 15.192 9.97027 15.1994C9.91589 15.2012 9.86245 15.1985 9.80902 15.192C9.78652 15.1901 9.76308 15.1882 9.74152 15.1808C9.72839 15.1762 9.71714 15.1687 9.70402 15.166C9.66089 15.1557 9.6112 15.1595 9.5662 15.1548C9.47339 15.1455 9.38058 15.1288 9.28964 15.1065C9.10495 15.061 8.92683 14.9942 8.75339 14.919C8.62589 14.8632 8.50027 14.8038 8.37558 14.7444C8.10464 14.6135 7.82995 14.4807 7.60589 14.282C7.55339 14.2365 7.5037 14.1863 7.45402 14.1362C7.38183 14.0637 7.30964 13.9904 7.23745 13.918C7.20089 13.8817 7.16527 13.8446 7.1287 13.8084C7.09589 13.775 7.05183 13.7415 7.02558 13.7016C7.00308 13.6672 6.96652 13.6403 6.93745 13.6115C6.90464 13.579 6.87464 13.5456 6.8437 13.5103C6.78558 13.4435 6.7312 13.3738 6.68245 13.2995C6.59527 13.1695 6.52214 13.0284 6.48089 12.878C6.42183 12.657 6.49402 12.5112 6.70683 12.4824" fill="#2D2163"/></g></g></g></g></g></g></g></g></g></g></svg>