<svg viewBox="24.78 54.28 127.43999999999997 127.43999999999997" fill="none" xmlns="http://www.w3.org/2000/svg" xmlns:xlink="http://www.w3.org/1999/xlink" overflow="visible" width="117.99999999999997px" height="117.99999999999997px"><rect id="Blush Background Color" fill="#f9f9f9" x="24.78" y="54.28" width="127.43999999999997" height="127.43999999999997"/><g id="Master/Character/Avatar"><g id="Group"><circle id="Mask" cx="89" cy="118" r="57" fill="#FBD6FF"/><mask id="mask0483f46ce-b89e-484c-ad84-c686755400d4" style="mask-type:alpha" maskUnits="userSpaceOnUse" x="32" y="61" width="114" height="114" fill="#ffffff"><circle id="Mask_2" cx="89" cy="118" r="57" fill="#ffffff"/></mask><g mask="url(#mask0483f46ce-b89e-484c-ad84-c686755400d4)"><g id="Head" transform="translate(2.44141 20) scale(2.119819859095982 2.1323556782286843)"><g id="Head/Short Hair Punk"><g id="Hair"><g id="Hair_2"><g id="Group 9"><g id="Group 6"><g id="Group"><rect id="Rectangle" x="37.1895" y="44.4042" width="8" height="17" rx="4" transform="rotate(10 37.1895 44.4042)" fill="#89a3f9"/><path id="Fill 44" fill-rule="evenodd" clip-rule="evenodd" d="M43.0849 57.1586C38.0049 56.7166 35.7188 49.4617 35.7188 49.4617L43.9835 51.9485L43.0849 57.1586Z" fill="#7294e8"/></g></g></g><path id="Fill 38" fill-rule="evenodd" clip-rule="evenodd" d="M36.8359 51.1765V51.1785C36.8369 51.1785 36.8369 51.1805 36.8399 51.1805L36.8359 51.1765Z" fill="#523E8C"/></g><g id="Hair_3"><path id="Fill 1" fill-rule="evenodd" clip-rule="evenodd" d="M51.3177 50.5707C49.5097 51.6037 47.1567 51.6037 45.3487 50.5717C44.1857 49.9077 43.2227 48.7647 43.0947 47.4317C43.0627 47.0947 43.0927 46.7487 43.1957 46.4267C43.2917 46.1217 43.4907 45.8677 43.5967 45.5687C43.8097 44.9677 43.9497 44.3977 44.4147 43.9237C44.7337 43.5997 45.2067 43.2787 45.6577 43.1797C45.7587 43.1577 45.8517 43.1597 45.9507 43.1197C46.2407 42.9997 46.5137 42.7417 46.7497 42.5397C47.2477 42.1137 47.6977 41.6337 48.2087 41.2247C49.0257 40.5727 50.1607 40.1097 51.1037 40.5577C51.5247 40.7577 51.8717 41.1247 52.3287 41.2137C52.5757 41.2617 52.8347 41.2237 53.0747 41.2987C53.4947 41.4297 53.7417 41.8807 53.7937 42.3167C53.8477 42.7537 53.7487 43.1917 53.7037 43.6287C53.5167 45.3857 54.2157 47.2147 55.5277 48.3987C54.9867 48.6547 54.3307 48.6547 53.7887 48.3977C53.7057 48.7977 53.7507 49.2217 53.9167 49.5947C53.5537 50.3247 52.3567 50.4127 51.8907 49.7427C51.7997 49.7817 51.7167 49.8357 51.6427 49.9017C51.4537 50.0707 51.3297 50.3157 51.3177 50.5707Z" fill="#2a0752"/><path id="Fill 3" fill-rule="evenodd" clip-rule="evenodd" d="M36.2231 51.7625V51.7645C36.2251 51.7645 36.2251 51.7665 36.2271 51.7665L36.2231 51.7625Z" fill="#523E8C"/><path id="Fill 8" fill-rule="evenodd" clip-rule="evenodd" d="M28.6119 44.7362C28.1999 46.5202 29.3079 48.2982 31.0899 48.7122C32.8719 49.1242 34.6499 48.0132 35.0629 46.2332C35.4759 44.4512 34.3659 42.6732 32.5849 42.2602C30.8029 41.8472 29.0239 42.9552 28.6119 44.7362" fill="#89a3f9"/><path id="Fill 10" fill-rule="evenodd" clip-rule="evenodd" d="M32.7424 46.7049C32.7424 46.7049 33.2834 44.3669 30.9634 44.2169Z" fill="#7294e8"/><g id="Group 14"><mask id="mask0b1f6a151-f40a-4ef3-917a-41f49a4d18eb" style="mask-type:alpha" maskUnits="userSpaceOnUse" x="32" y="30" width="19" height="24" fill="#ffffff"><path id="Clip 13" fill-rule="evenodd" clip-rule="evenodd" d="M32.8467 30.7482H50.8995V53.9637H32.8467V30.7482Z" fill="#ffffff"/></mask><g mask="url(#mask0b1f6a151-f40a-4ef3-917a-41f49a4d18eb)"><path id="Fill 12" fill-rule="evenodd" clip-rule="evenodd" d="M40.3097 53.8592V53.8592C44.5077 54.5422 48.5047 51.7862 49.1787 48.3762L50.7197 40.3192C51.5617 36.0462 49.4017 31.9582 45.1587 30.9732C40.8127 29.9672 35.1717 32.4112 34.1647 36.7552L32.9977 43.2492C32.0937 48.2712 35.3377 52.7072 40.3097 53.8592" fill="#89a3f9"/></g></g><path id="Fill 15" fill-rule="evenodd" clip-rule="evenodd" d="M55.8091 40.6854C55.1671 40.7614 54.5591 40.5774 54.1191 40.1314C54.9161 39.8044 55.6691 39.4464 55.8091 38.4834C55.9151 37.7424 55.5641 36.9724 54.9801 36.5034C54.6631 36.2494 54.2851 36.0754 53.9851 35.8004C53.6851 35.5264 53.4681 35.0954 53.6111 34.7144C54.1391 34.4964 54.6191 34.1614 55.0061 33.7404C55.2891 33.4334 55.5201 32.9374 55.2421 32.6264C55.0581 32.4204 54.7451 32.4134 54.4691 32.4134C53.1681 32.4164 51.8561 32.2604 50.6381 31.8034C48.7581 31.0974 47.1311 29.6874 45.1451 29.3924C43.0901 29.0854 41.0771 30.0284 39.2121 30.9454C39.5031 30.4404 39.7901 29.7844 39.4441 29.3154C39.0781 28.8194 38.2641 28.9624 37.8031 29.3714C37.3431 29.7804 37.0801 30.3704 36.6541 30.8144C36.0861 31.4084 35.2871 31.6854 34.5051 31.8674C34.1381 31.9524 33.8551 32.0224 33.5291 32.2014C32.8171 32.5914 32.1971 32.9524 31.6551 33.5774C31.0411 34.2874 30.5921 35.1474 30.3671 36.0584C29.8231 38.2534 30.3091 40.5584 30.7951 42.7674C30.7531 42.5744 32.0381 42.4564 32.1681 42.4624C33.1741 42.5114 33.6821 43.2854 34.3531 43.9704C34.6171 44.2394 34.7211 44.0594 34.9201 43.8554C35.0491 43.7224 35.1701 43.5814 35.2851 43.4354C35.5131 43.1394 35.7101 42.8214 35.8911 42.4944C36.2501 41.8414 36.5381 41.1514 36.8691 40.4834C37.5021 39.1984 38.4491 37.8904 39.8531 37.6054C40.0411 37.5684 40.2481 37.5534 40.4141 37.6494C40.6091 37.7644 40.6911 37.9964 40.7731 38.2064C41.4231 39.8754 42.9801 41.1594 44.7431 41.4814C44.9011 40.6794 45.0601 39.8774 45.2181 39.0764C45.6101 40.1944 46.0231 41.3474 46.8301 42.2144C47.6381 43.0814 48.9551 43.5904 50.0381 43.1084C49.9171 42.6644 49.8921 42.1954 49.9631 41.7414C50.3121 42.4954 50.8891 43.2464 51.7101 43.3744C52.4881 43.4964 52.8121 42.8734 53.2591 42.3964C53.4211 42.2244 53.5981 42.1274 53.8371 42.1254C54.0651 42.1234 54.2831 42.2064 54.5081 42.2184C55.1761 42.2534 55.8991 41.9184 56.1991 41.2994C56.4181 40.8454 56.2961 40.6274 55.8091 40.6854" fill="#342a83"/><path id="Fill 19" fill-rule="evenodd" clip-rule="evenodd" d="M37.4341 43.7498V43.7518C37.4331 43.7518 37.4331 43.7538 37.4321 43.7538L37.4341 43.7498Z" fill="#5F4596"/><path id="Fill 21" fill-rule="evenodd" clip-rule="evenodd" d="M50.1284 44.0653V44.0673H50.1314L50.1284 44.0653Z" fill="#5F4596"/><path id="Stroke 23" d="M48.0358 34.9388C48.1504 34.8618 48.3057 34.8922 48.3828 35.0067C49.6913 36.9522 52.3616 37.7572 55.6255 37.5647C57.5941 37.4479 58.9747 37.0089 59.8509 36.0287C59.9429 35.9257 60.101 35.9169 60.2039 36.0089C60.3069 36.1009 60.3157 36.2589 60.2237 36.3619C59.2379 37.4648 57.7434 37.9399 55.655 38.0638C52.2329 38.2656 49.3971 37.4107 47.9679 35.2858C47.8908 35.1712 47.9212 35.0159 48.0358 34.9388Z" fill="#2a0752"/><path id="Stroke 25" d="M32.2634 35.6803C32.39 35.7355 32.4479 35.8828 32.3927 36.0094C31.0607 39.0651 27.4699 40.9378 24.2013 40.2816C24.066 40.2544 23.9783 40.1226 24.0054 39.9873C24.0326 39.8519 24.1644 39.7642 24.2997 39.7914C27.3375 40.4012 30.6965 38.6495 31.9344 35.8096C31.9803 35.7041 32.0903 35.6463 32.1989 35.6619L32.2634 35.6803Z" fill="#2a0752"/><path id="Fill 27" fill-rule="evenodd" clip-rule="evenodd" d="M32.1634 48.5321C32.1634 48.8011 32.3814 49.0181 32.6494 49.0181C32.9184 49.0181 33.1364 48.8011 33.1364 48.5321C33.1364 48.2631 32.9184 48.0451 32.6494 48.0451C32.3814 48.0451 32.1634 48.2631 32.1634 48.5321" fill="#2A0752"/><path id="Stroke 29" d="M29.3502 44.406C29.3845 44.4658 29.3638 44.5422 29.3039 44.5766L28.8557 44.8242C28.7291 44.8979 28.6458 44.9552 28.5595 45.0276C28.3343 45.2181 28.2027 45.4642 28.2204 45.6929C28.2361 45.9046 28.42 46.0896 28.6012 46.0957L28.6687 46.0893C28.736 46.0739 28.8031 46.1158 28.8186 46.1831C28.834 46.2504 28.7921 46.3175 28.7248 46.333C28.3641 46.416 27.9993 46.0927 27.9711 45.7118C27.9464 45.3931 28.1167 45.0746 28.3984 44.8364C28.4965 44.7541 28.5882 44.6908 28.7235 44.6119L29.1795 44.3597C29.2394 44.3254 29.3158 44.3461 29.3502 44.406Z" fill="#2A0752"/></g></g></g></g><g id="Upper Body" transform="translate(-53 26.5178) scale(2.1294117647058823 2.124879991686022)"><g id="Upper Body/Backpacker Holding Map"><g id="Upper"><g id="Group 3"><mask id="mask0cabf1faa-6b0d-4764-807c-8ae945a20677" style="mask-type:alpha" maskUnits="userSpaceOnUse" x="32" y="39" width="47" height="54" fill="#ffffff"><path id="Clip 2" fill-rule="evenodd" clip-rule="evenodd" d="M32 39.3912H78.1663V92.1399H32V39.3912Z" fill="#ffffff"/></mask><g mask="url(#mask0cabf1faa-6b0d-4764-807c-8ae945a20677)"><path id="Fill 1" fill-rule="evenodd" clip-rule="evenodd" d="M62.2117 54.8967C53.0221 53.5794 39.6591 52.8207 36.0681 59.2477C32.4761 65.6737 29.7341 87.5624 36.0681 90.9724C42.4021 94.3844 68.2511 89.7064 75.4911 84.8084C82.7311 79.9104 75.4911 57.0444 75.4911 57.0444C75.4911 57.0444 71.4013 56.2141 62.2117 54.8967Z" fill="#FF8A88"/></g></g><path id="Fill 14" fill-rule="evenodd" clip-rule="evenodd" d="M96.2464 79.0077C96.2424 79.0067 92.8314 77.4857 92.8314 77.4857C93.8584 77.5377 94.9674 77.4297 96.1294 77.1747C97.2924 76.9197 98.5064 76.5197 99.7344 76.0197C100.965 75.5227 102.211 74.9277 103.466 74.2777C104.722 73.6247 105.984 72.9197 107.265 72.1797C109.146 71.0977 111.548 71.7457 112.629 73.6257C113.661 75.4177 113.109 77.6917 111.426 78.8377C110.159 79.6977 108.863 80.5517 107.513 81.3827C106.16 82.2167 104.755 83.0267 103.255 83.7687C101.755 84.5097 100.157 85.1867 98.4244 85.7107C96.6924 86.2317 94.8134 86.5947 92.8404 86.6537C91.5774 86.6927 90.4244 86.1797 89.6134 85.3317L89.4244 85.1327C89.4244 85.1327 71.5084 66.2477 71.4924 66.2307C69.8774 64.5277 69.6234 61.9937 70.7284 59.9567C72.1194 57.3937 74.3004 57.6827 76.7394 58.1637C80.7654 58.9597 83.7564 64.2997 86.2684 67.2587C89.0274 70.5067 91.7854 73.7557 94.5444 77.0017C94.9524 77.4837 95.6534 78.7447 96.2464 79.0077" fill="#89a3f9"/><path id="Fill 16" fill-rule="evenodd" clip-rule="evenodd" d="M49.5429 82.0907C49.7029 83.3837 49.6209 84.6277 49.7659 85.9107C49.9369 87.4327 50.1069 88.9547 50.2789 90.4777C50.6209 93.5217 50.9639 86.5657 51.3069 89.6097C51.3509 90.0057 51.4009 90.4187 51.6249 90.7487C51.8679 91.1087 52.2799 91.3137 52.6849 91.4757C54.4439 92.1817 56.3649 92.3567 58.2569 92.4847C65.7949 92.9957 73.3759 92.8747 80.8939 92.1247C82.7149 82.6627 82.1669 82.9247 81.6119 73.3057C81.4839 71.0877 81.5289 68.7587 81.1259 66.5837C81.1049 66.6307 81.1069 66.6777 81.1119 66.7277C81.1069 66.6807 81.0999 66.6337 81.0969 66.5867C81.0939 66.5627 81.0909 66.5387 81.0889 66.5137C81.0839 66.4417 81.0799 66.3747 81.0749 66.3037C81.0579 66.0477 81.0409 65.7987 81.0259 65.5577C80.9199 63.8747 80.8699 62.5527 80.5869 61.4707C80.5049 61.1617 80.4039 60.8707 80.2789 60.5967C79.9009 59.7767 79.2889 59.1037 78.2629 58.5037C77.6359 58.1357 76.8549 57.7957 75.8769 57.4617C73.7999 56.7537 71.6679 56.8007 69.4579 56.7957C68.2579 56.7927 67.4159 56.6387 66.2249 56.8257C65.5149 56.9367 64.8029 56.8677 64.1199 56.6477C63.2569 56.3697 62.4109 55.9367 61.5939 55.5457C61.2799 55.3957 61.0169 55.1697 60.6899 55.0427C60.1739 54.8417 59.6149 54.7117 59.0809 54.5637C56.9289 53.9687 54.6589 53.5417 52.4319 53.9477C51.1859 54.1747 49.9999 54.6547 48.8419 55.1677C48.4789 55.3297 48.1059 55.5017 47.8329 55.7907C47.4959 56.1477 47.3509 56.6387 47.2159 57.1097C46.9089 58.1797 46.7229 59.4407 46.2079 60.4287C46.0479 60.7367 45.8579 60.9857 45.7859 61.3337C45.5919 62.2727 45.6799 63.3277 45.7719 64.2737C45.9109 65.7057 46.2319 67.1167 46.6469 68.4937C47.0559 69.8417 47.4329 71.2377 47.7719 72.6347C47.8179 72.8227 47.8649 73.0087 47.9079 73.1987C47.9759 73.4867 48.0429 73.7737 48.1099 74.0647C48.7119 76.7147 49.2079 79.3927 49.5429 82.0907" fill="#89a3f9"/><path id="Fill 18" fill-rule="evenodd" clip-rule="evenodd" d="M120.617 70.598C119.855 72.153 115.808 75.025 114.829 76.105C113.848 77.178 109.632 79.405 109.632 79.405L106.337 76.263C106.337 76.263 105.836 75.348 107.197 72.27C108.55 69.187 110.895 64.009 111.838 64.106C112.748 64.202 112.127 68.145 111.969 68.977L111.952 69.056C111.94 69.105 111.966 69.104 112.03 69.068C112.736 68.621 117.938 62.773 118.763 63.29C119.013 63.45 119.332 63.979 119.642 64.687C119.661 64.736 119.682 64.784 119.703 64.841C119.922 65.364 120.138 65.977 120.316 66.606C120.337 66.662 120.349 66.715 120.363 66.775C120.535 67.405 120.674 68.05 120.748 68.637C120.753 68.702 120.761 68.759 120.764 68.818C120.846 69.558 120.815 70.2 120.617 70.598" fill="#89a3f9"/><path id="Fill 42" fill-rule="evenodd" clip-rule="evenodd" d="M67.5534 54.3278C67.5534 54.3278 61.0647 53.991 60.9997 54.009C60.1267 54.248 59.1018 54.486 58.2278 54.725C57.0048 55.059 55.7828 55.393 54.5608 55.727C54.0888 55.856 53.6178 55.985 53.1468 56.114C52.9988 56.154 52.8288 56.178 52.6878 56.239C52.3178 56.397 53.0348 57.02 53.1808 57.181C54.3678 58.497 55.8218 59.565 57.4168 60.336C59.0128 61.108 60.7528 61.585 62.5208 61.722C63.4028 61.79 64.2928 61.773 65.1708 61.665C65.3858 61.639 65.5958 61.603 65.8108 61.593C66.0218 61.582 66.2098 61.507 66.4118 61.443L67.7438 61.02C70.0098 60.393 73.7118 59.369 75.9778 58.742L77.1158 58.472C77.6248 58.352 77.6308 57.631 77.1258 57.501L69.7098 55.594C69.4678 55.532 68.9373 55.1962 69.0847 54.4003L67.5534 54.3278Z" fill="#89a3f9"/><path id="Fill 20" fill-rule="evenodd" clip-rule="evenodd" d="M56.1365 63.7586C56.0595 64.1916 56.0135 64.6106 56.0665 65.0936C56.2175 66.4616 55.6565 67.9586 55.0675 69.1596C54.3065 70.7146 53.2015 72.0876 51.8695 73.1496C51.2055 73.6786 50.4835 74.1316 49.7185 74.4876C49.3775 74.6476 48.9975 74.7446 48.6415 74.8616C48.2625 74.9866 47.7865 75.2306 47.3855 75.2216C47.0955 77.4746 47.2475 92.2116 47.2585 92.9416H81.3125C81.3125 92.9416 83.0305 84.7946 82.5735 82.4736C81.4545 76.7836 79.3075 71.3766 77.6505 65.8286C77.0955 63.9706 76.5926 62.0726 76.4576 60.1246C76.4116 59.4586 76.5635 58.6186 76.3045 57.9886C75.9405 57.0996 74.6195 57.0786 73.8965 56.9516C72.9785 56.7906 72.0475 56.7036 71.1165 56.6916C71.3665 58.5016 71.2545 60.5176 70.1025 61.9016C68.5575 63.7566 65.5726 63.7176 63.6556 62.2826C61.7395 60.8466 60.7625 58.3866 60.4115 55.9626C60.3515 55.5376 60.2905 55.0776 59.9995 54.7726C59.8245 54.5916 59.5885 54.4896 59.3595 54.3936C58.1995 53.9046 57.0175 53.4226 55.7765 53.2116C55.1725 53.1096 55.3675 53.6896 54.7605 53.7876C54.0745 53.8986 53.8585 53.7966 54.1035 54.1026C55.4505 55.7896 56.2625 57.9206 56.4385 60.0996C56.5155 61.0666 56.4675 62.0456 56.2845 62.9976C56.2345 63.2656 56.1805 63.5136 56.1365 63.7586" fill="#F3F562"/><path id="Fill 22" fill-rule="evenodd" clip-rule="evenodd" d="M58.447 81.367C58.447 81.367 55.201 92.525 47.957 92.941L48.597 91.114C48.597 91.114 52.888 89.878 53.178 84.451L58.447 81.367Z" fill="#191723"/><path id="Fill 24" fill-rule="evenodd" clip-rule="evenodd" d="M57.4312 92.2069C57.4312 92.2069 61.9022 69.1489 60.5172 54.3709C60.3512 52.6069 58.6082 52.4399 56.9102 52.9509L49.7382 53.9539C48.5002 54.3249 49.6752 55.0469 49.7412 56.3369L51.6032 93.0379L57.4312 92.2069Z" fill="#F36260"/><path id="Fill 26" fill-rule="evenodd" clip-rule="evenodd" d="M77.529 62.5125C80.413 70.9435 83.33 79.5745 83.258 88.4835C82.79 84.3715 80.008 80.9525 78.31 77.1785C77.104 74.4965 71.297 60.1675 69.38 55.7575C69.308 55.5935 69.237 55.4185 69.262 55.2415C69.325 54.8045 69.883 54.6705 70.325 54.6385C71.541 54.5515 73.511 54.3545 74.335 55.4955C75.262 56.7805 75.958 58.2835 76.536 59.7515C76.894 60.6615 77.213 61.5865 77.529 62.5125" fill="#F36260"/><path id="Fill 28" fill-rule="evenodd" clip-rule="evenodd" d="M95.9023 65.5946L86.9883 92.5516H97.7933H100.389L107.594 65.1786L107.263 65.1916L95.9023 65.5946Z" fill="#F2E9E1"/><path id="Fill 30" fill-rule="evenodd" clip-rule="evenodd" d="M78.7097 66.0536C78.4697 66.7256 78.2307 67.3976 77.9907 68.0696C76.9287 71.0526 72.3537 85.8106 71.7977 86.9966C71.7117 87.1796 71.6277 87.3996 71.7257 87.5766C71.8047 87.7206 71.9737 87.7826 72.1297 87.8336C77.0727 89.4576 82.0107 91.0346 86.9887 92.5516L95.9027 65.5946L81.4917 62.9986L79.8977 62.7096L78.7097 66.0536Z" fill="#F1D8B3"/><path id="Fill 32" fill-rule="evenodd" clip-rule="evenodd" d="M107.595 65.1786L100.389 92.5516L105.665 89.3996L118.972 61.2106L110.267 64.2476L107.595 65.1786Z" fill="#F1D8B3"/><path id="Fill 34" fill-rule="evenodd" clip-rule="evenodd" d="M57.279 64.1234C57.28 64.2344 57.263 64.3504 57.276 64.4594C57.283 64.5224 57.308 64.5794 57.321 64.6404C57.362 64.8514 57.348 65.0844 57.354 65.2984C57.388 66.4564 57.34 67.6164 57.212 68.7674C57.186 69.0064 57.165 69.2364 57.084 69.4634C57.07 69.5054 57.059 69.5474 57.054 69.5924C57.03 69.8164 57.048 70.0504 57.045 70.2764C57.038 71.0034 57.025 71.7294 57.007 72.4564C56.937 75.3354 56.791 78.2114 56.566 81.0824C56.49 82.0424 56.415 83.0624 56.845 83.9264C58.047 86.3504 63.831 84.9734 65.883 84.7624C66.765 84.6694 67.652 84.5654 68.536 84.4504C68.98 84.3934 69.421 84.3314 69.86 84.2694L70.515 84.1714L71.137 84.0774L71.236 84.0614C73.9 83.6464 76.396 85.4714 76.808 88.1354C77.026 89.5354 78.56 88.5294 77.285 89.2904C72.875 90.1434 68.526 91.7524 64.076 92.3684C59.203 93.0394 49.4 94.5774 46.894 88.7484C46.093 86.8834 46.031 84.7944 45.978 82.7644C45.877 78.9004 45.79 77.0374 45.696 73.1724C45.648 71.2214 45.6 69.2694 45.552 67.3184C45.535 66.5914 45.502 65.8634 45.498 65.1364C45.498 65.0414 45.524 64.9664 45.543 64.8744C45.597 64.6174 45.551 64.3114 45.549 64.0484C45.544 63.4634 45.54 62.8784 45.535 62.2934C45.534 62.0824 45.532 61.8724 45.53 61.6614C45.526 61.1544 45.522 60.6444 45.588 60.1424C45.726 59.1054 46.159 58.1334 46.688 57.2404C46.795 57.0594 46.872 56.9144 46.913 56.7094C46.932 56.6164 46.973 56.5374 47.029 56.4594C47.356 56.0004 47.849 55.6444 48.347 55.3924C48.543 55.2924 48.748 55.2074 48.956 55.1344C49.781 54.8454 50.742 54.7654 51.496 55.2074C51.593 55.2654 51.684 55.3664 51.783 55.4144C51.826 55.4344 51.876 55.4374 51.923 55.4474C52.029 55.4684 52.133 55.4974 52.237 55.5314C52.443 55.6004 52.64 55.6934 52.83 55.8004C53.214 56.0184 53.564 56.2924 53.908 56.5694C54.617 57.1414 55.327 57.7344 55.841 58.4854C56.685 59.7164 56.929 61.2494 57.144 62.7264C57.208 63.1904 57.278 63.6544 57.279 64.1234Z" fill="#89a3f9"/><path id="Fill 36" fill-rule="evenodd" clip-rule="evenodd" d="M82.1247 82.4872C82.1247 82.4872 83.4687 82.5942 83.0987 83.6132C82.8077 84.4012 82.2167 84.5932 82.2167 84.5932C82.2167 84.5932 83.5697 85.1842 82.5537 86.5392C81.9237 87.3792 77.0567 89.6792 74.4297 90.1282C71.8067 90.5782 65.9857 93.3372 67.9487 89.8342C67.9487 89.8342 74.3417 77.6462 77.8307 76.4282C81.3187 75.2112 81.7457 77.4552 81.7977 77.8272C81.8077 77.8922 81.8127 77.9472 81.8157 77.9992C82.2257 78.0812 82.6537 78.3642 82.6807 79.1762C82.6937 79.6882 82.5617 79.9652 82.3927 80.1122C82.0157 80.1502 81.7167 80.2322 81.7167 80.2322C81.7167 80.2322 82.1077 80.3532 82.3927 80.1122C83.0217 80.0462 83.3367 80.4452 83.4437 81.1642C83.5797 82.0732 82.1247 82.4872 82.1247 82.4872" fill="#89a3f9"/><path id="Fill 38" fill-rule="evenodd" clip-rule="evenodd" d="M42.9742 90.1415C42.9592 90.1415 42.9452 90.1405 42.9302 90.1375C42.8042 90.1125 42.7222 89.9915 42.7452 89.8655C44.6432 80.0375 40.6822 59.7295 40.6422 59.5255C40.6172 59.3995 40.6992 59.2775 40.8252 59.2525C40.9582 59.2265 41.0732 59.3095 41.0972 59.4355C41.1382 59.6415 45.1172 80.0375 43.2032 89.9535C43.1812 90.0645 43.0832 90.1415 42.9742 90.1415" fill="#D75000"/></g></g></g><g id="Facial Expression" transform="translate(72.5586 94.9543) scale(2.149467641657049 2.058241994757401)"><g id="Facial Expression/Laugh"><g id="Expression"><path id="Fill 1" fill-rule="evenodd" clip-rule="evenodd" d="M10.0744 10.4623C10.1914 10.5683 10.3124 10.6713 10.4294 10.7773C10.5724 10.9093 10.6974 11.0523 10.8244 11.1993C10.8374 11.2143 10.8324 11.2093 10.8104 11.1783C10.8184 11.1883 10.8244 11.1993 10.8304 11.2083C10.8404 11.2243 10.8494 11.2383 10.8594 11.2543C10.8694 11.2723 10.8784 11.2913 10.8884 11.3113C10.9164 11.3633 10.8744 11.3113 10.8844 11.2963C10.8844 11.2963 10.8954 11.3483 10.8974 11.3493C10.8864 11.3413 10.8974 11.2683 10.8924 11.3223C10.8884 11.3643 10.9194 11.2493 10.8924 11.3103C10.8874 11.3223 10.8834 11.3333 10.8794 11.3483C10.8894 11.3223 10.8884 11.3253 10.8744 11.3543C10.8614 11.3783 10.8484 11.4003 10.8344 11.4213C10.8284 11.4303 10.7664 11.5093 10.8004 11.4713C10.7584 11.5173 10.7144 11.5603 10.6664 11.6023C10.6454 11.6203 10.6264 11.6363 10.6054 11.6553C10.5974 11.6613 10.5144 11.7213 10.5534 11.6913C10.5044 11.7283 10.4504 11.7633 10.3964 11.7953C10.2754 11.8753 10.2044 12.0363 10.2844 12.1713C10.3554 12.2923 10.5284 12.3673 10.6584 12.2843C10.9134 12.1223 11.1754 11.9373 11.3284 11.6693C11.4064 11.5343 11.4604 11.3953 11.4364 11.2373C11.4234 11.1443 11.3824 11.0503 11.3314 10.9683C11.1154 10.6163 10.7804 10.3583 10.4764 10.0843C10.3654 9.9843 10.2014 9.9643 10.0864 10.0733C9.98435 10.1663 9.96335 10.3623 10.0744 10.4623" fill="#073944"/><path id="Fill 3" fill-rule="evenodd" clip-rule="evenodd" d="M7.16193 5.7887C8.05493 5.3647 7.60093 3.9907 6.62693 4.1487C5.77793 4.2887 4.74693 4.6217 4.33193 5.4177C3.56993 6.8737 6.17193 6.2307 7.13493 5.8027C7.14293 5.7977 7.15193 5.7937 7.16193 5.7887" fill="#004E55"/><path id="Fill 5" fill-rule="evenodd" clip-rule="evenodd" d="M13.3055 5.4005C12.5395 5.0875 12.8555 3.9185 13.6765 4.0045C14.3935 4.0815 15.2715 4.3115 15.6565 4.9585C16.3605 6.1405 14.1545 5.7235 13.3295 5.4105C13.3225 5.4065 13.3135 5.4035 13.3055 5.4005" fill="#004E55"/><g id="Group 9"><mask id="mask0df68fb17-846a-4bc5-bafc-723923451e61" style="mask-type:alpha" maskUnits="userSpaceOnUse" x="7" y="12" width="5" height="4" fill="#ffffff"><path id="Clip 8" fill-rule="evenodd" clip-rule="evenodd" d="M7.2312 12.7608H11.8055V16H7.2312V12.7608Z" fill="#ffffff"/></mask><g mask="url(#mask0df68fb17-846a-4bc5-bafc-723923451e61)"><path id="Fill 7" fill-rule="evenodd" clip-rule="evenodd" d="M11.8055 13.0688L7.29254 12.7608L7.23654 13.5848C7.15154 14.8298 8.09254 15.9098 9.33854 15.9948C10.5845 16.0798 11.6635 15.1388 11.7485 13.8928L11.8055 13.0688Z" fill="#073944"/></g></g><path id="Fill 10" fill-rule="evenodd" clip-rule="evenodd" d="M14.5811 9.1505C14.5841 9.1495 14.5871 9.1485 14.5911 9.1475C14.7771 9.0795 14.9381 8.9585 15.1201 8.8795C15.2861 8.8075 15.4441 8.7175 15.5921 8.6115C15.8911 8.3985 16.1421 8.1255 16.3591 7.8315C16.4421 7.7195 16.5201 7.6045 16.5961 7.4875C16.6481 7.4055 16.8031 7.2635 16.7431 7.0465C16.6701 6.8925 16.3021 6.8605 16.0631 6.7735C15.2301 6.4685 14.3861 6.5175 13.5421 6.7265C13.3981 6.7615 13.3011 6.8735 13.2381 7.0105C13.2111 7.0705 13.2441 7.2155 13.2481 7.2825C13.2541 7.3815 13.2631 7.4805 13.2731 7.5785C13.2941 7.7715 13.3241 7.9625 13.3611 8.1515C13.3951 8.3275 13.4521 8.5045 13.4691 8.6825C13.4841 8.8645 13.5301 9.0525 13.5931 9.2245C13.6151 9.2835 13.6241 9.3125 13.6831 9.3175C13.7311 9.3225 13.7881 9.3075 13.8361 9.3045C14.0871 9.2845 14.3461 9.2335 14.5811 9.1505" fill="#073944"/><path id="Fill 12" fill-rule="evenodd" clip-rule="evenodd" d="M5.40607 9.2623C5.41407 9.2833 5.42507 9.3033 5.43907 9.3213C5.47907 9.3683 5.53507 9.4003 5.59107 9.4263C5.79307 9.5213 6.00707 9.5283 6.21607 9.5933C6.25807 9.6053 6.30007 9.6123 6.34307 9.6153C6.60607 9.6323 6.87107 9.6433 7.13507 9.6513C7.72807 9.6713 8.32807 9.6253 8.86807 9.3543C8.18407 8.0103 7.10507 7.3413 5.64807 7.2363C5.59607 7.2323 5.49407 7.8233 5.48407 7.8853C5.44907 8.1043 5.43107 8.3253 5.42207 8.5463C5.41507 8.6893 5.40707 8.8323 5.40207 8.9753C5.39907 9.0643 5.37507 9.1743 5.40607 9.2623" fill="#073944"/><path id="Fill 14" fill-rule="evenodd" clip-rule="evenodd" d="M13.2382 7.0104C12.9672 6.9114 12.7902 7.0924 12.6062 7.2344C11.9532 7.7394 11.5192 8.2744 11.0452 9.1414C11.0412 9.3344 11.2112 9.3904 11.3302 9.4124C12.0802 9.5484 12.9232 9.6074 13.6582 9.3174C13.6582 9.3174 13.2482 7.7654 13.2382 7.0104" fill="#E5E2FC"/><path id="Fill 16" fill-rule="evenodd" clip-rule="evenodd" d="M5.38865 9.2657C5.38165 9.1407 5.40965 8.9907 5.41065 8.8727C5.41565 8.6857 5.42165 8.4987 5.43565 8.3117C5.45065 8.1257 5.47165 7.9397 5.50665 7.7567C5.51665 7.7037 5.60465 7.2357 5.64865 7.2367C4.80465 7.2327 3.78665 7.1987 3.11865 7.9117C3.24665 8.2197 3.66465 8.4387 3.91765 8.6437C4.18665 8.8627 4.40465 9.0787 4.74465 9.1957C4.86265 9.2367 4.98565 9.2807 5.10465 9.3007C5.18665 9.3147 5.32365 9.3677 5.39765 9.3407C5.39265 9.3167 5.38965 9.2917 5.38865 9.2657" fill="#E5E2FC"/><path id="Stroke 18" d="M11.7881 7.84348C12.9044 6.51563 14.4914 6.04859 16.6733 6.92642C16.7663 6.96383 16.8114 7.06955 16.774 7.16255C16.7366 7.25554 16.6309 7.3006 16.5379 7.26319C14.5075 6.44634 13.0849 6.86498 12.066 8.07706C11.8755 8.30373 11.7119 8.54398 11.559 8.80773L11.2915 9.29346C11.2392 9.37899 11.1275 9.40594 11.0419 9.35366C10.9564 9.30139 10.9295 9.18967 10.9817 9.10415L11.245 8.62566C11.4077 8.34495 11.5828 8.08779 11.7881 7.84348Z" fill="#073944"/><path id="Stroke 20" d="M3.09621 7.70484C5.19444 6.58311 6.83938 6.89389 8.10546 8.10517C8.23926 8.23318 8.3627 8.36574 8.48053 8.50536L8.65369 8.72038C8.73873 8.8308 8.92428 9.08874 8.93829 9.1065C9.00036 9.1852 8.98689 9.29933 8.90818 9.36141C8.82948 9.42348 8.71535 9.41001 8.65327 9.3313L8.3661 8.94187C8.20639 8.73451 8.0408 8.54568 7.85452 8.36746C6.69691 7.25996 5.2202 6.98096 3.26735 8.02496C3.17895 8.07222 3.06898 8.03887 3.02172 7.95047C2.97446 7.86207 3.00781 7.7521 3.09621 7.70484Z" fill="#073944"/></g></g></g></g></g></g></svg>