<svg viewBox="29.5 59 117.99999999999997 117.99999999999997" fill="none" xmlns="http://www.w3.org/2000/svg" xmlns:xlink="http://www.w3.org/1999/xlink" overflow="visible" width="117.99999999999997px" height="117.99999999999997px"><g id="Master/Character/Avatar"><g id="Group"><circle id="Mask" cx="89" cy="118" r="57" fill="#FBD6FF"/><mask id="mask0483f46ce-b89e-484c-ad84-c686755400d4" style="mask-type:alpha" maskUnits="userSpaceOnUse" x="32" y="61" width="114" height="114" fill="#ffffff"><circle id="Mask_2" cx="89" cy="118" r="57" fill="#ffffff"/></mask><g mask="url(#mask0483f46ce-b89e-484c-ad84-c686755400d4)"><g id="Head" transform="translate(2.44141 20) scale(2.119819859095982 2.1323556782286843)"><g id="Head/Short Straight Hair"><g id="Hair"><g id="Hair_2"><path id="Fill 3" fill-rule="evenodd" clip-rule="evenodd" d="M36.1098 52.1487V52.1507C36.1108 52.1507 36.1108 52.1527 36.1138 52.1527L36.1098 52.1487Z" fill="#523E8C"/><path id="Fill 10" fill-rule="evenodd" clip-rule="evenodd" d="M28.4984 45.1223C28.0854 46.9063 29.1944 48.6843 30.9764 49.0983C32.7584 49.5103 34.5364 48.3993 34.9484 46.6193C35.3614 44.8373 34.2514 43.0593 32.4704 42.6463C30.6884 42.2333 28.9094 43.3413 28.4984 45.1223" fill="#bb96fd"/><path id="Fill 12" fill-rule="evenodd" clip-rule="evenodd" d="M32.6286 47.0911C32.6286 47.0911 33.1696 44.7531 30.8496 44.6031Z" fill="#9376e0"/><g id="Group 2"><g id="Group 9"><g id="Group 6"><g id="Group"><rect id="Rectangle" x="37.1895" y="44.4042" width="8" height="17" rx="4" transform="rotate(10 37.1895 44.4042)" fill="#bb96fd"/><path id="Fill 44" fill-rule="evenodd" clip-rule="evenodd" d="M43.0849 57.1585C38.0049 56.7165 35.7188 49.4616 35.7188 49.4616L43.9835 51.9485L43.0849 57.1585Z" fill="#9376e0"/></g></g></g></g><path id="Fill 14" fill-rule="evenodd" clip-rule="evenodd" d="M40.1959 54.2454V54.2454C44.3949 54.9284 48.3919 52.1724 49.0659 48.7624L50.6069 40.7054C51.4489 36.4324 49.2889 32.3444 45.0449 31.3594C40.6989 30.3534 35.0579 32.7974 34.0509 37.1414L32.8839 43.6354C31.9799 48.6574 35.2249 53.0934 40.1959 54.2454" fill="#bb96fd"/></g><g id="Hair_3"><path id="Fill 27" fill-rule="evenodd" clip-rule="evenodd" d="M32.1634 48.5321C32.1634 48.8011 32.3814 49.0181 32.6494 49.0181C32.9184 49.0181 33.1364 48.8011 33.1364 48.5321C33.1364 48.2631 32.9184 48.0451 32.6494 48.0451C32.3814 48.0451 32.1634 48.2631 32.1634 48.5321" fill="#2A0752"/><path id="Stroke 29" d="M29.3502 44.4059C29.3845 44.4658 29.3638 44.5422 29.3039 44.5765L28.8557 44.8242C28.7291 44.8978 28.6458 44.9551 28.5595 45.0275C28.3343 45.218 28.2027 45.4641 28.2204 45.6929C28.2361 45.9045 28.42 46.0895 28.6012 46.0957L28.6687 46.0893C28.736 46.0738 28.8031 46.1158 28.8186 46.1831C28.834 46.2503 28.7921 46.3174 28.7248 46.3329C28.3641 46.416 27.9993 46.0926 27.9711 45.7118C27.9464 45.393 28.1167 45.0746 28.3984 44.8363C28.4965 44.7541 28.5882 44.6908 28.7235 44.6118L29.1795 44.3597C29.2394 44.3253 29.3158 44.346 29.3502 44.4059Z" fill="#2A0752"/></g><g id="Hair_4"><path id="Fill 1" fill-rule="evenodd" clip-rule="evenodd" d="M55.7673 41.0716C55.1263 41.1476 54.5173 40.9636 54.0773 40.5176C58.0743 38.8806 49.1673 32.5286 47.4573 31.2336C43.6803 28.3736 40.0773 31.2616 36.0453 32.1576C32.1723 33.0156 27.0393 36.1666 29.7663 41.1766C30.0253 41.6566 30.3733 42.1026 30.8463 42.3726C31.4023 42.6896 32.0713 42.7346 32.6713 42.9586C33.4603 43.2546 33.7633 43.7976 34.3113 44.3566C35.0523 45.1136 35.7373 43.1296 36.1133 42.5416C36.6143 41.7586 37.1173 40.9786 37.6163 40.1966C37.7043 40.0596 37.7753 39.8586 37.9173 39.7606C38.0833 39.6466 38.3293 39.6986 38.5173 39.6966C39.2853 39.6866 40.0553 39.6306 40.8183 39.5526C41.5613 39.4776 42.3023 39.3756 43.0383 39.2456C43.6093 39.1446 44.2133 39.0616 44.7303 38.7956C44.9353 38.6896 45.2123 38.6706 45.4373 38.6216C45.4893 38.6106 45.5473 38.5996 45.5923 38.6276C45.6373 38.6546 45.6543 38.7096 45.6633 38.7606C45.7363 39.2116 45.3753 39.6046 45.0443 39.9196C45.7053 40.1886 46.4493 40.2516 47.1463 40.0966C47.2823 40.0666 47.4193 40.0286 47.5573 40.0446C47.6943 40.0616 47.8353 40.1496 47.8633 40.2846C47.8943 40.4376 47.7793 40.5776 47.6693 40.6876C47.4873 40.8666 47.2953 41.0356 47.0933 41.1916C47.3073 41.2926 47.5343 41.3656 47.7663 41.4106C47.9903 41.4546 48.2403 41.4236 48.4563 41.4836C48.6043 41.5256 48.6213 41.6286 48.6593 41.7616C48.7073 41.9336 48.8033 42.0836 48.8873 42.2406C49.1723 42.7766 49.4293 43.3486 49.7673 43.8506C49.8363 43.9526 49.8683 44.0656 49.9103 44.1816C49.9993 44.4296 50.0973 44.6766 50.2143 44.9146C50.4413 45.3726 50.7503 45.8046 51.1993 46.0676C51.9323 46.4976 52.8533 46.3876 53.6843 46.2136C53.2133 46.0966 53.0533 45.6886 52.8893 45.2906C52.8263 45.1396 52.7063 45.0136 52.7673 44.8376C52.8263 44.6676 53.0323 44.5646 53.2033 44.6206C53.3013 44.6536 53.3813 44.7276 53.4813 44.7536C53.6593 44.8006 53.8353 44.6856 53.9833 44.5756C53.5923 44.1006 53.4253 43.4906 53.3293 42.8946C53.3053 42.7416 53.1673 42.1646 53.4953 42.2376C53.5823 42.2566 53.6653 42.3526 53.7423 42.3976C53.8643 42.4686 53.9963 42.5216 54.1333 42.5556C54.3893 42.6206 54.6603 42.6216 54.9183 42.5726C55.4333 42.4736 55.9243 42.1666 56.1573 41.6856C56.3773 41.2316 56.2543 41.0136 55.7673 41.0716" fill="#342a83"/></g></g></g></g><g id="Upper Body" transform="translate(-53 26.5178) scale(2.1294117647058823 2.124879991686022)"><g id="Upper Body/Holding Book"><g id="Upper"><g id="Group 7"><path id="Fill 1" fill-rule="evenodd" clip-rule="evenodd" d="M49 60.1152C49.733 61.7577 51.497 62.7252 53.162 63.5431C55.444 64.6619 57.757 65.7198 60.1 66.7139C62.504 67.7346 65.019 68.7049 67.651 68.703C70.283 68.702 73.078 67.5099 74.169 65.2294C74.469 64.6029 74.659 63.9363 74.941 63.3031C75.205 62.7099 75.587 62.1853 75.908 61.6216C76.571 60.4532 80.1072 56.8217 77.5092 56.1894C76.0182 55.8276 70.5684 54.703 63.389 54.703C58.143 54.8106 53.129 57.032 49 60.1152Z" fill="#006261"/><path id="Fill 3" fill-rule="evenodd" clip-rule="evenodd" d="M102.149 72.6495C102.276 71.9895 102.609 71.3475 102.976 70.7725C103.386 70.1285 103.848 69.5175 104.353 68.9455C104.606 68.6595 104.871 68.3825 105.145 68.1175C105.721 67.5585 106.37 67.1505 107.032 66.6845C108.188 65.8685 109.344 64.9995 110.513 64.0935C112.232 62.7675 114.698 63.0865 116.024 64.8025C117.288 66.4395 117.12 67.9615 115.606 69.3235C114.466 70.3475 109.489 75.1795 108.103 76.1175C107.661 76.4165 107.199 76.7945 106.718 77.0255C106.349 77.2045 105.772 77.0415 105.401 76.9285C104.427 76.6325 103.586 75.9755 102.943 75.1985C102.584 74.7655 102.269 74.2765 102.15 73.7265C102.072 73.3675 102.08 73.0055 102.149 72.6495" fill="#bb96fd"/><path id="Fill 5" fill-rule="evenodd" clip-rule="evenodd" d="M81.9809 78.1475C82.0039 78.0335 82.0279 77.9205 82.0499 77.8065C82.2339 76.8835 82.4869 74.0865 82.4909 73.6205C82.4909 73.5425 82.2829 66.7025 82.4299 66.0215C82.5009 65.6955 82.6209 65.3915 82.7299 65.0755C82.9299 64.4945 82.4529 63.1455 82.4579 63.2515C82.4529 63.2085 82.4439 63.1655 82.4399 63.1225C82.4369 63.1035 82.4339 63.0845 82.4319 63.0645C82.4269 63.0045 82.4229 62.9505 82.4179 62.8935C82.4009 62.6835 82.3839 62.4805 82.3699 62.2855C82.2629 60.9135 82.2129 59.8375 81.9299 58.9565C81.8479 58.7045 81.7479 58.4665 81.6229 58.2445C81.2449 57.5765 80.6319 57.0275 79.6059 56.5385C78.9789 56.2395 78.1979 55.9615 77.2199 55.6895C75.1429 55.1135 73.0109 55.1525 70.8009 55.1475C69.6009 55.1455 68.7589 55.0205 67.5679 55.1715C65.7289 55.4045 64.5989 54.6895 63.0029 54.1535C61.5839 53.6755 60.0369 53.9605 58.5979 54.2615C57.6329 54.4625 56.6519 54.5645 55.6759 54.6945C55.2159 54.7565 54.7129 54.7865 54.2679 54.9165C54.2189 54.9305 54.1789 54.9225 54.1289 54.9455C53.7739 55.1075 53.4239 55.4985 53.1169 55.7415C52.4339 56.2785 51.7519 56.8155 51.0699 57.3525C50.1459 58.0805 49.2119 58.8175 48.4889 59.7445C47.9389 60.4495 47.5149 61.2785 47.3759 62.1675C47.3429 62.3705 47.2959 62.6155 47.3379 62.8195C47.3699 62.9675 47.4629 63.0905 47.5169 63.2305C47.6969 63.7035 47.8149 64.2015 47.9909 64.6765C48.3989 65.7745 48.7759 66.9115 49.1149 68.0495C49.1619 68.2025 49.2089 68.3545 49.2519 68.5085C49.3189 68.7435 49.3859 68.9775 49.4539 69.2135C50.4639 72.8405 51.0989 76.3765 51.2019 78.7505C51.2739 80.3455 52.0419 89.8485 51.8039 91.8475C51.7519 92.2825 51.6949 92.7265 51.6249 93.1815C51.6249 93.1815 51.5139 94.7205 54.0599 94.9705L79.9239 94.4365C80.1039 92.9745 80.2839 91.5125 80.4629 90.0505C80.7909 87.3845 81.1179 84.7175 81.4459 82.0515C81.5659 81.0715 81.6859 80.0905 81.8069 79.1105C81.8179 79.0185 81.7989 78.9335 81.8209 78.8425C81.8479 78.7275 81.8769 78.6125 81.9029 78.4975C81.9299 78.3815 81.9559 78.2645 81.9809 78.1475" fill="#bb96fd"/></g><g id="Group 17"><g id="Group 10"><mask id="mask0916dc270-b433-4f67-a8a1-6dbac76540bd" style="mask-type:alpha" maskUnits="userSpaceOnUse" x="50" y="54" width="34" height="32" fill="#ffffff"><path id="Clip 9" fill-rule="evenodd" clip-rule="evenodd" d="M71.7586 54.6149C71.1716 56.4159 69.8756 58.0309 68.1216 58.7439V58.7439C66.3676 59.4629 64.1716 59.1469 62.8606 57.7819V57.7819C62.3456 57.2509 61.9866 56.5969 61.6446 55.9439V55.9439C61.2176 56.0529 60.8226 56.2799 60.4716 56.6809V56.6809C59.1926 58.1389 59.2566 60.5609 58.6506 62.3129V62.3129C57.9416 64.3589 56.6146 64.9199 55.2186 66.4469V66.4469C54.1316 67.6379 53.1986 69.2829 52.3636 70.6579V70.6579C51.3266 72.3619 50.7326 74.1729 50.2446 76.0209V76.0209C49.8386 77.5589 50.7056 78.9259 50.7556 80.4419V80.4419C50.8036 81.8819 49.9256 84.0079 51.1026 85.2149V85.2149C51.9956 86.1259 55.4226 85.8279 56.8166 85.6959V85.6959C61.6196 85.2389 66.6516 85.2829 71.5546 84.9709V84.9709C74.5576 84.7799 78.5676 84.5479 81.1246 82.8099V82.8099C81.1106 82.4509 81.1026 82.1249 81.0986 81.8379V81.8379C81.0966 81.7249 81.0956 81.6189 81.0976 81.5169V81.5169V81.4769C81.0976 81.4769 82.3916 78.6149 83.3426 76.2599V76.2599C84.2296 74.0609 83.0346 71.9319 82.1286 67.3739V67.3739C81.9796 66.6269 81.8426 65.8689 81.7316 65.0989V65.0989C81.6706 64.6909 81.6776 64.9459 81.6796 65.0779V65.0779C81.6766 65.0239 81.6656 64.9729 81.6606 64.9199V64.9199C81.6606 64.8959 81.6586 64.8709 81.6566 64.8489V64.8489C81.6516 64.7749 81.6456 64.7039 81.6416 64.6369V64.6369C81.6236 64.3799 81.6066 64.1329 81.5936 63.8929V63.8929C81.4866 62.2079 81.4366 60.8859 81.1516 59.8039V59.8039C81.0696 59.4939 80.9706 59.2029 80.8456 58.9299V58.9299C80.4666 58.1099 79.8566 57.4379 78.8296 56.8359V56.8359C78.2026 56.4679 77.4206 56.1289 76.4436 55.7939V55.7939C76.0786 55.6709 72.7086 54.5649 71.9206 54.5649V54.5649C71.8266 54.5649 71.7696 54.5799 71.7586 54.6149" fill="#ffffff"/></mask><g mask="url(#mask0916dc270-b433-4f67-a8a1-6dbac76540bd)"><path id="Fill 8" fill-rule="evenodd" clip-rule="evenodd" d="M48.045 87.6838C52.116 86.8928 56.333 87.2168 60.198 88.7458C63.932 90.2208 67.186 92.6468 70.617 94.6828C76.297 98.0538 83.985 100.658 89.659 95.7978C90.241 95.2988 89.398 94.4628 88.819 94.9578C82.526 100.349 74.123 95.5308 68.36 91.8878C65.252 89.9208 62.088 87.9428 58.52 86.9218C55.004 85.9198 51.309 85.8438 47.73 86.5378C46.98 86.6828 47.298 87.8278 48.045 87.6838" fill="#00C8DC"/></g></g><g id="Group 13"><mask id="mask1916dc270-b433-4f67-a8a1-6dbac76540bd" style="mask-type:alpha" maskUnits="userSpaceOnUse" x="50" y="54" width="34" height="32" fill="#ffffff"><path id="Clip 12" fill-rule="evenodd" clip-rule="evenodd" d="M71.7586 54.6149C71.1716 56.4159 69.8756 58.0309 68.1216 58.7439V58.7439C66.3676 59.4629 64.1716 59.1469 62.8606 57.7819V57.7819C62.3456 57.2509 61.9866 56.5969 61.6446 55.9439V55.9439C61.2176 56.0529 60.8226 56.2799 60.4716 56.6809V56.6809C59.1926 58.1389 59.2566 60.5609 58.6506 62.3129V62.3129C57.9416 64.3589 56.6146 64.9199 55.2186 66.4469V66.4469C54.1316 67.6379 53.1986 69.2829 52.3636 70.6579V70.6579C51.3266 72.3619 50.7326 74.1729 50.2446 76.0209V76.0209C49.8386 77.5589 50.7056 78.9259 50.7556 80.4419V80.4419C50.8036 81.8819 49.9256 84.0079 51.1026 85.2149V85.2149C51.9956 86.1259 55.4226 85.8279 56.8166 85.6959V85.6959C61.6196 85.2389 66.6516 85.2829 71.5546 84.9709V84.9709C74.5576 84.7799 78.5676 84.5479 81.1246 82.8099V82.8099C81.1106 82.4509 81.1026 82.1249 81.0986 81.8379V81.8379C81.0966 81.7249 81.0956 81.6189 81.0976 81.5169V81.5169V81.4769C81.0976 81.4769 82.3916 78.6149 83.3426 76.2599V76.2599C84.2296 74.0609 83.0346 71.9319 82.1286 67.3739V67.3739C81.9796 66.6269 81.8426 65.8689 81.7316 65.0989V65.0989C81.6706 64.6909 81.6776 64.9459 81.6796 65.0779V65.0779C81.6766 65.0239 81.6656 64.9729 81.6606 64.9199V64.9199C81.6606 64.8959 81.6586 64.8709 81.6566 64.8489V64.8489C81.6516 64.7749 81.6456 64.7039 81.6416 64.6369V64.6369C81.6236 64.3799 81.6066 64.1329 81.5936 63.8929V63.8929C81.4866 62.2079 81.4366 60.8859 81.1516 59.8039V59.8039C81.0696 59.4939 80.9706 59.2029 80.8456 58.9299V58.9299C80.4666 58.1099 79.8566 57.4379 78.8296 56.8359V56.8359C78.2026 56.4679 77.4206 56.1289 76.4436 55.7939V55.7939C76.0786 55.6709 72.7086 54.5649 71.9206 54.5649V54.5649C71.8266 54.5649 71.7696 54.5799 71.7586 54.6149" fill="#ffffff"/></mask><g mask="url(#mask1916dc270-b433-4f67-a8a1-6dbac76540bd)"><path id="Fill 11" fill-rule="evenodd" clip-rule="evenodd" d="M70.841 88.6534C76.113 91.0254 81.658 88.6354 86.411 86.1694C89.079 84.7824 91.76 83.3244 94.72 82.6634C98.124 81.9034 101.599 82.5384 104.97 83.1714C105.718 83.3114 106.039 82.1664 105.287 82.0254C102.306 81.4674 99.252 80.8874 96.208 81.2224C93.436 81.5244 90.855 82.5914 88.377 83.8234C83.299 86.3474 77.256 90.2434 71.442 87.6304C70.748 87.3174 70.145 88.3404 70.841 88.6534" fill="#00C8DC"/></g></g><g id="Group 16"><mask id="mask2916dc270-b433-4f67-a8a1-6dbac76540bd" style="mask-type:alpha" maskUnits="userSpaceOnUse" x="50" y="54" width="34" height="32" fill="#ffffff"><path id="Clip 15" fill-rule="evenodd" clip-rule="evenodd" d="M71.7586 54.6149C71.1716 56.4159 69.8756 58.0309 68.1216 58.7439V58.7439C66.3676 59.4629 64.1716 59.1469 62.8606 57.7819V57.7819C62.3456 57.2509 61.9866 56.5969 61.6446 55.9439V55.9439C61.2176 56.0529 60.8226 56.2799 60.4716 56.6809V56.6809C59.1926 58.1389 59.2566 60.5609 58.6506 62.3129V62.3129C57.9416 64.3589 56.6146 64.9199 55.2186 66.4469V66.4469C54.1316 67.6379 53.1986 69.2829 52.3636 70.6579V70.6579C51.3266 72.3619 50.7326 74.1729 50.2446 76.0209V76.0209C49.8386 77.5589 50.7056 78.9259 50.7556 80.4419V80.4419C50.8036 81.8819 49.9256 84.0079 51.1026 85.2149V85.2149C51.9956 86.1259 55.4226 85.8279 56.8166 85.6959V85.6959C61.6196 85.2389 66.6516 85.2829 71.5546 84.9709V84.9709C74.5576 84.7799 78.5676 84.5479 81.1246 82.8099V82.8099C81.1106 82.4509 81.1026 82.1249 81.0986 81.8379V81.8379C81.0966 81.7249 81.0956 81.6189 81.0976 81.5169V81.5169V81.4769C81.0976 81.4769 82.3916 78.6149 83.3426 76.2599V76.2599C84.2296 74.0609 83.0346 71.9319 82.1286 67.3739V67.3739C81.9796 66.6269 81.8426 65.8689 81.7316 65.0989V65.0989C81.6706 64.6909 81.6776 64.9459 81.6796 65.0779V65.0779C81.6766 65.0239 81.6656 64.9729 81.6606 64.9199V64.9199C81.6606 64.8959 81.6586 64.8709 81.6566 64.8489V64.8489C81.6516 64.7749 81.6456 64.7039 81.6416 64.6369V64.6369C81.6236 64.3799 81.6066 64.1329 81.5936 63.8929V63.8929C81.4866 62.2079 81.4366 60.8859 81.1516 59.8039V59.8039C81.0696 59.4939 80.9706 59.2029 80.8456 58.9299V58.9299C80.4666 58.1099 79.8566 57.4379 78.8296 56.8359V56.8359C78.2026 56.4679 77.4206 56.1289 76.4436 55.7939V55.7939C76.0786 55.6709 72.7086 54.5649 71.9206 54.5649V54.5649C71.8266 54.5649 71.7696 54.5799 71.7586 54.6149" fill="#ffffff"/></mask><g mask="url(#mask2916dc270-b433-4f67-a8a1-6dbac76540bd)"><path id="Fill 14" fill-rule="evenodd" clip-rule="evenodd" d="M68.6987 86.5109C68.1637 86.2149 67.6297 85.9159 67.0937 85.6199C66.8227 85.4689 66.4327 85.5449 66.2807 85.8319C66.1347 86.1119 66.2057 86.4859 66.4947 86.6469C67.0307 86.9429 67.5647 87.2399 68.0987 87.5369C68.3727 87.6879 68.7597 87.6109 68.9117 87.3229C69.0597 87.0449 68.9887 86.6719 68.6987 86.5109" fill="#00C8DC"/></g></g></g><g id="Group 59"><g id="Group 20"><mask id="mask3916dc270-b433-4f67-a8a1-6dbac76540bd" style="mask-type:alpha" maskUnits="userSpaceOnUse" x="107" y="59" width="16" height="14" fill="#ffffff"><path id="Clip 19" fill-rule="evenodd" clip-rule="evenodd" d="M107.986 59.6373H122.638V72.1388H107.986V59.6373Z" fill="#ffffff"/></mask><g mask="url(#mask3916dc270-b433-4f67-a8a1-6dbac76540bd)"><path id="Fill 18" fill-rule="evenodd" clip-rule="evenodd" d="M107.986 66.8746C108.736 65.6656 112.041 61.2276 113.16 60.2866C113.426 60.0616 113.703 59.8316 114.034 59.7206C114.386 59.6036 114.768 59.6306 115.136 59.6766C116.316 59.8236 117.465 60.1456 118.609 60.4676C120.158 60.9036 122.876 61.0926 122.622 63.3516C122.548 64.0066 121.943 64.6076 121.289 64.5286C121.693 64.9046 121.885 65.4936 121.783 66.0346C121.638 66.7956 120.391 66.6156 119.859 66.5966C120.362 66.9606 120.925 67.4746 120.791 68.0796C120.7 68.4886 120.295 68.7676 119.882 68.8406C119.47 68.9136 119.049 68.8236 118.639 68.7336C118.809 68.9516 118.984 69.1826 119.028 69.4546C119.11 69.9616 118.688 70.4446 118.197 70.5936C117.706 70.7426 116.697 70.3456 116.378 70.2336C115.519 70.8526 114.34 71.5826 113.419 71.8436C112.888 71.9926 112.348 72.1446 111.798 72.1386C110.719 72.1276 109.673 71.4616 109.209 70.4886" fill="#bb96fd"/></g></g><path id="Fill 21" fill-rule="evenodd" clip-rule="evenodd" d="M116.057 60.4054C116.703 60.7944 117.357 61.1754 117.989 61.5864C118.533 61.9404 119.132 62.1444 119.639 62.5694C119.996 62.8674 120.341 63.2094 120.503 63.6464C120.666 64.0824 120.601 64.6334 120.241 64.9274C119.972 65.1464 119.592 65.1854 119.251 65.1174C118.911 65.0494 118.599 64.8864 118.286 64.7354C117.468 64.3374 116.618 64.0074 115.745 63.7464C115.247 63.5984 115.067 63.8814 114.792 64.2474C113.689 65.7254 111.835 66.6114 109.993 66.5434" fill="#bb96fd"/><path id="Fill 23" fill-rule="evenodd" clip-rule="evenodd" d="M119.155 62.17C119.722 62.339 120.217 62.832 120.038 63.467C119.916 63.899 119.521 64.113 119.102 64.176C118.074 64.33 117.007 63.9 116.047 63.587C116.101 63.494 116.155 63.401 116.209 63.309C116.415 63.469 116.143 63.917 116.067 64.081C115.892 64.458 115.705 64.83 115.451 65.16C115.003 65.743 114.465 66.26 113.864 66.685C113.317 67.071 112.559 67.527 111.86 67.467C111.71 67.454 111.673 67.249 111.824 67.199C112.424 67.005 112.979 66.85 113.517 66.502C114.062 66.151 114.552 65.711 114.977 65.222C115.228 64.933 115.412 64.647 115.585 64.312C115.664 64.157 115.743 64.001 115.813 63.841C115.845 63.769 115.869 63.691 115.904 63.621C115.958 63.511 115.894 63.482 115.973 63.544C115.841 63.441 115.985 63.217 116.135 63.266C116.875 63.505 117.619 63.778 118.395 63.866C118.753 63.907 119.203 63.936 119.515 63.721C120.141 63.29 119.615 62.538 119.112 62.274C119.054 62.244 119.093 62.151 119.155 62.17" fill="#C66ACB"/><path id="Fill 25" fill-rule="evenodd" clip-rule="evenodd" d="M119.493 66.6158C118.774 66.4748 118.06 66.2278 117.389 65.9348C117.095 65.8058 116.806 65.6578 116.546 65.4668C116.32 65.3018 116.059 65.0898 115.962 64.8198C115.937 64.7518 116.026 64.7208 116.071 64.7568C116.185 64.8468 116.273 64.9608 116.38 65.0608C116.492 65.1658 116.614 65.2618 116.741 65.3498C116.991 65.5228 117.264 65.6618 117.542 65.7828C118.187 66.0638 118.864 66.2578 119.531 66.4788C119.618 66.5078 119.583 66.6338 119.493 66.6158" fill="#C66ACB"/><path id="Fill 27" fill-rule="evenodd" clip-rule="evenodd" d="M118.296 68.6451C117.584 68.5081 116.9 68.2361 116.288 67.8451C115.992 67.6561 115.713 67.4391 115.457 67.1991C115.199 66.9571 114.941 66.6751 114.905 66.3101C114.901 66.2651 114.934 66.2151 114.973 66.1931C115.091 66.1271 115.154 66.2421 115.199 66.3341C115.285 66.5081 115.375 66.6651 115.505 66.8111C115.753 67.0881 116.029 67.3431 116.329 67.5641C116.929 68.0071 117.612 68.3221 118.337 68.4981C118.434 68.5211 118.392 68.6641 118.296 68.6451" fill="#C66ACB"/><path id="Fill 29" fill-rule="evenodd" clip-rule="evenodd" d="M116.569 70.3732C115.714 70.0642 114.925 69.5552 114.368 68.8272C114.105 68.4832 113.912 68.0682 113.949 67.6252C113.978 67.2862 114.142 66.8052 114.529 66.7382C114.621 66.7222 114.715 66.8142 114.658 66.9052C114.575 67.0372 114.465 67.1512 114.395 67.2912C114.321 67.4402 114.292 67.6092 114.297 67.7742C114.308 68.1622 114.525 68.5242 114.764 68.8162C115.261 69.4232 115.907 69.9332 116.606 70.2852C116.655 70.3092 116.621 70.3922 116.569 70.3732" fill="#C66ACB"/><path id="Fill 31" fill-rule="evenodd" clip-rule="evenodd" d="M109.27 70.6799C109.47 71.2639 109.639 71.8579 109.848 72.4389C109.985 72.8189 110.138 73.1949 110.329 73.5519C110.423 73.7319 110.524 73.9199 110.649 74.0819C110.692 74.1389 110.747 74.1779 110.792 74.2299C110.873 74.3249 111.221 74.9479 111.148 75.0269C111.02 75.1649 110.882 75.2939 110.736 75.4129C110.005 76.0079 109.072 76.3519 108.129 76.3669C107.876 76.3719 107.828 76.4709 107.618 76.5939C107.435 76.6999 107.228 76.7619 107.018 76.7849C106.595 76.8319 106.155 76.7269 105.792 76.5059C105.156 76.1169 104.743 75.4469 104.44 74.7639C103.648 72.9779 103.457 70.9929 103.275 69.0469C103.26 68.8929 103.248 68.7299 103.309 68.5879C103.456 68.2499 103.904 68.2109 104.258 68.1099C105.122 67.8639 105.67 67.0279 106.437 66.5609C106.575 66.4769 106.739 66.4029 106.892 66.4539C107.023 66.4979 107.108 66.6219 107.183 66.7389C107.882 67.8229 108.586 68.9149 109.062 70.1149C109.136 70.3019 109.205 70.4899 109.27 70.6799" fill="#006261"/><path id="Fill 33" fill-rule="evenodd" clip-rule="evenodd" d="M98.82 68.9869C98.52 69.0709 98.216 69.1459 97.934 69.2959C97.746 69.3959 97.59 69.5249 97.389 69.6079C95.865 70.2379 94.279 70.6959 92.766 71.3699C91.826 71.7879 90.893 72.2329 89.988 72.7229C89.654 72.9039 89.39 73.3609 89.08 73.4979C88.062 73.9469 86.259 68.5079 86.028 67.6779C85.546 65.9449 85.29 64.1479 84.674 62.4579C83.913 60.3749 82.448 58.4119 80.921 56.8299C80.672 56.5719 80.409 56.3169 80.087 56.1609C79.709 55.9789 79.273 55.9459 78.855 55.9829C77.985 56.0589 77.143 56.4279 76.497 57.0159C75.702 57.7399 75.225 58.7609 74.986 59.8099C74.851 60.3989 74.786 61.0009 74.754 61.6039C74.726 62.1029 74.738 62.5629 74.561 63.0349C74.378 63.5239 74.385 64.0349 74.386 64.5519C74.387 65.1999 74.424 65.8459 74.472 66.4919C74.506 66.9239 74.546 67.3569 74.587 67.7879C75.031 72.4789 75.475 77.1699 75.92 81.8609C76.012 82.8399 76.125 83.6839 76.41 84.6429C76.712 85.6589 77.081 86.6619 77.617 87.5809C78.476 89.0569 79.841 90.3269 81.513 90.6749C82.285 90.8349 83.084 90.7939 83.87 90.7299C84.924 90.6629 85.987 90.5049 87.019 90.2779C88.018 90.0569 89.038 89.7699 89.955 89.3069C90.514 89.0249 90.937 88.6199 91.398 88.2059C92.967 86.7969 94.898 85.6909 96.674 84.5629C97.582 83.9869 98.498 83.4239 99.422 82.8729C99.849 82.6179 100.284 82.3659 100.716 82.1209C100.799 82.0739 100.88 82.0369 100.969 82.0079C101.149 81.9519 101.313 81.9069 101.483 81.8199C101.913 81.5999 102.338 81.3689 102.758 81.1319C103.598 80.6569 104.421 80.1469 105.198 79.5739C106.019 78.9679 106.792 78.2909 107.466 77.5239C107.747 77.2039 108.197 76.7889 108.265 76.3499C108.324 75.9669 108.013 75.6809 107.751 75.4539C107.024 74.8269 106.354 74.2329 105.852 73.3999C105.373 72.6049 105.056 71.7089 104.944 70.7869C104.935 70.7129 104.927 70.6389 104.922 70.5649C104.869 69.9519 104.818 69.3619 104.711 68.7559C104.689 68.6339 104.685 68.5739 104.587 68.4819C104.374 68.2819 104.049 68.2259 103.768 68.1949C102.759 68.0849 101.732 68.1469 100.743 68.3719C100.248 68.4849 99.762 68.6379 99.293 68.8309C99.138 68.8949 98.98 68.9419 98.82 68.9869" fill="#009598"/><path id="Fill 35" fill-rule="evenodd" clip-rule="evenodd" d="M79.1579 53.815C79.1749 53.832 79.1899 53.85 79.2049 53.869C79.4089 54.14 79.4429 54.538 79.5279 54.832C79.7309 55.533 79.9059 56.237 80.0699 56.943C80.3199 58.013 80.5419 59.086 80.7469 60.161C81.0179 61.586 81.2579 63.015 81.4719 64.445C81.7379 66.213 81.9669 67.984 82.1639 69.756C82.3189 71.148 82.4539 72.541 82.5719 73.935C82.7079 75.546 83.3399 77.148 83.3799 78.754C83.3869 79.086 83.3599 79.377 83.5059 79.7C84.0109 80.822 85.3809 85.398 85.7849 86.699C86.1889 88.001 86.1319 89.415 85.2369 90.593C83.7669 92.529 83.0309 92.949 80.3039 93.596C80.0569 93.655 79.7939 93.749 79.5389 93.748C79.3339 93.748 79.1579 93.732 78.9509 93.763C78.3779 93.852 77.8029 93.931 77.2259 93.995C76.0889 94.12 74.9449 94.194 73.8019 94.231C70.7549 94.33 67.7079 94.166 64.6659 94.001C62.5099 93.884 60.3529 93.768 58.1969 93.651C56.8619 93.579 55.5049 93.502 54.2499 93.044C52.9939 92.587 51.8319 91.685 51.3899 90.424C50.9839 89.259 51.2329 87.961 50.9389 86.763C50.7399 85.954 50.3039 85.229 49.9219 84.489C48.7029 82.126 48.0059 79.496 47.8939 76.84C47.8939 76.825 47.8929 76.811 47.8919 76.796C47.8359 75.359 47.9969 73.814 47.5829 72.417C47.4549 71.983 47.1629 71.678 46.9709 71.282C46.8589 71.05 46.8119 70.797 46.7919 70.542C46.6469 68.798 47.0269 67.038 47.2449 65.316C47.4999 63.3 47.8039 61.213 48.7359 59.283C48.8939 58.955 49.0479 58.625 49.2109 58.297C49.6019 57.512 50.0479 56.725 50.7499 56.044C51.3469 55.466 52.3599 54.703 53.4239 54.576C53.8389 54.526 54.2779 54.588 54.6959 54.589C55.3779 54.589 56.0329 54.587 56.7079 54.676C58.0509 54.853 59.3219 55.247 60.4909 55.729C62.5259 56.566 64.3389 57.656 66.4539 58.394C66.8399 58.528 67.2469 58.652 67.6789 58.673C68.4529 58.709 69.1719 58.408 69.7939 58.087C71.1329 57.396 72.3079 56.555 73.2619 55.607C73.7619 55.11 74.2039 54.584 74.7559 54.112C75.0319 53.875 75.3339 53.649 75.6789 53.459C76.3869 53.068 76.9939 53.44 77.8729 53.485C78.3039 53.506 78.8899 53.546 79.1579 53.815" fill="#FEC00A"/><path id="Fill 37" fill-rule="evenodd" clip-rule="evenodd" d="M86.0777 93.9171C86.0167 94.0771 85.9307 94.2281 85.8027 94.3641C85.5637 94.6171 85.1237 94.8051 84.6687 94.7771C84.4127 94.7621 84.2417 94.6961 83.9867 94.7071C83.6637 94.7191 61.4807 95.6271 56.3597 95.1631C55.7257 95.1051 55.0917 95.0621 54.4567 95.0141C53.9867 94.9791 53.5167 94.9441 53.0477 94.9081C52.8447 94.8921 52.6517 94.8841 52.4497 94.8961C52.2547 94.9071 52.1047 94.7931 51.9557 94.6831C51.2227 94.1421 50.7277 93.3261 50.4887 92.4701C50.2007 91.4381 50.2527 90.3451 50.4327 89.2931C50.5077 88.8621 50.6087 88.4211 50.8637 88.0621C50.9567 87.9321 51.0827 87.8071 51.2447 87.7891C51.3477 87.7781 51.4497 87.8111 51.5477 87.8451C51.9277 87.9791 56.6157 88.8861 56.9577 88.9411C57.6707 89.0571 58.3847 89.1641 59.0987 89.2641C61.9897 89.6681 64.8997 89.9491 67.8067 90.1041C70.7127 90.2601 73.6167 90.2901 76.4967 90.1941C77.9177 90.1461 79.3337 90.0691 80.7407 89.9601C81.9947 89.8631 83.2107 89.5891 84.4837 89.5651C84.6897 89.5621 84.8867 89.5591 85.0897 89.6101C85.5687 89.7311 86.0757 90.0431 86.2657 90.3851C86.4737 90.7561 86.4367 91.1561 86.3967 91.5401C86.3427 92.0641 86.2887 92.5891 86.2337 93.1141C86.2067 93.3841 86.1747 93.6621 86.0777 93.9171" fill="#006261"/><path id="Fill 39" fill-rule="evenodd" clip-rule="evenodd" d="M69.789 83.127C69.784 83.126 66.602 81.171 66.602 81.171C67.613 81.357 68.727 81.396 69.912 81.294C71.099 81.194 72.354 80.957 73.638 80.622C74.923 80.291 76.236 79.863 77.565 79.383C78.895 78.9 80.24 78.366 81.606 77.801C83.614 76.975 85.909 77.932 86.735 79.937C87.523 81.849 86.248 82.571 84.429 83.487C83.06 84.173 77.697 88.226 76.113 88.765C74.529 89.303 72.857 89.766 71.069 90.057C69.285 90.347 67.375 90.462 65.41 90.262C64.153 90.135 63.077 89.476 62.385 88.528L62.223 88.306C62.223 88.306 46.935 67.238 46.921 67.218C45.543 65.319 45.623 62.774 46.985 60.898C48.699 58.54 51.091 59.823 53.446 60.619C57.333 61.936 59.332 66.91 61.435 70.173C63.745 73.754 66.054 77.336 68.363 80.916C68.705 81.447 69.234 82.789 69.789 83.127" fill="#C0C7FF"/><path id="Fill 41" fill-rule="evenodd" clip-rule="evenodd" d="M94.5851 51.2946L104.918 80.6876L94.3151 82.7666L91.7671 83.2656L80.7891 58.8906L94.5851 51.2946Z" fill="#E680F1"/><path id="Fill 43" fill-rule="evenodd" clip-rule="evenodd" d="M97.9851 58.5246C98.2561 59.1846 98.5271 59.8436 98.7981 60.5036C100.003 63.4326 105.281 77.9546 105.892 79.1126C105.987 79.2916 106.081 79.5066 105.992 79.6886C105.92 79.8356 105.754 79.9056 105.601 79.9636C100.741 81.8226 95.8841 83.6356 90.9841 85.3896L80.7891 58.8906L95.0581 55.6076L96.6361 55.2416L97.9851 58.5246Z" fill="#866FC8"/><path id="Fill 45" fill-rule="evenodd" clip-rule="evenodd" d="M96.8425 75.467C95.9175 76.773 91.7995 78.793 90.7445 79.633C89.6925 80.466 85.5155 81.871 85.5155 81.871L82.9765 78.514C82.9765 78.514 82.6545 77.607 84.3525 74.999C86.0455 72.39 88.9535 68.015 89.7985 68.242C90.6145 68.465 89.4635 71.969 89.1945 72.706L89.1665 72.775C89.1505 72.818 89.1735 72.821 89.2375 72.797C89.9475 72.494 95.5615 67.933 96.2385 68.527C96.4415 68.71 96.6555 69.24 96.8295 69.932C96.8415 69.978 96.8545 70.026 96.8635 70.078C96.9875 70.59 97.0905 71.181 97.1615 71.782C97.1715 71.835 97.1765 71.886 97.1785 71.941C97.2425 72.541 97.2735 73.151 97.2535 73.699C97.2495 73.757 97.2465 73.812 97.2435 73.866C97.2065 74.553 97.0835 75.134 96.8425 75.467" fill="#bb96fd"/><path id="Fill 47" fill-rule="evenodd" clip-rule="evenodd" d="M82.9008 75.6271C83.1018 75.4901 83.3178 75.3491 83.5608 75.3421C83.8448 75.3341 84.0978 75.5091 84.3208 75.6851C86.0628 77.0641 87.3618 78.9951 87.9818 81.1291C88.0498 81.3631 88.1098 81.6141 88.0338 81.8451C87.9158 82.2031 87.5238 82.3801 87.1718 82.5171C86.0558 82.9521 84.9388 83.3861 83.8218 83.8211C83.1368 82.2321 82.4368 80.6181 81.3188 79.2981C80.7438 78.6201 80.2258 77.9261 80.8478 77.0751C81.2998 76.4571 82.2738 76.0511 82.9008 75.6271" fill="#006261"/><path id="Fill 49" fill-rule="evenodd" clip-rule="evenodd" d="M79.7202 83.4615C77.7732 85.7435 75.1682 87.3605 72.5202 88.7715C71.2932 89.4255 70.0212 90.0515 68.6462 90.2595C67.1722 90.4825 65.6632 90.2075 64.2392 89.7705C59.2982 88.2545 55.0882 84.7725 52.1852 80.4975C49.2812 76.2225 47.6192 71.1925 46.8192 66.0875C46.6412 64.9495 46.5042 63.7795 46.7392 62.6515C47.2882 60.0055 50.3262 58.8245 52.7752 59.0815C54.9752 59.3135 56.9732 60.4615 58.7622 61.7625C62.0492 64.1545 64.8882 67.1595 67.0902 70.5765C67.8032 71.6835 68.4742 72.8595 69.5092 73.6715C71.0972 74.9175 73.3212 75.1305 74.8792 76.4125C75.6242 77.0245 76.1852 77.8565 77.0032 78.3655C77.8472 78.8915 78.6952 78.7835 79.4922 78.2785C80.2052 77.8285 80.7422 78.4635 81.0022 79.1595C81.5502 80.6215 80.6562 82.3655 79.7202 83.4615" fill="#EDAB04"/><path id="Fill 51" fill-rule="evenodd" clip-rule="evenodd" d="M47.9032 58.4766C44.5622 60.8656 43.2992 64.6506 48.5462 74.8916C50.2192 78.1576 51.9152 81.4156 53.7222 84.6106C54.2332 85.5136 54.7262 85.8876 55.4262 86.5806C56.3522 87.4656 57.1512 88.4256 57.9412 89.4126C57.9812 89.4626 58.0232 89.5116 58.0662 89.5606C58.5212 90.0776 59.0902 90.4876 59.6612 90.8676C59.9272 91.0446 60.2142 91.2036 60.4392 91.4346C60.5862 91.5856 60.6962 91.7676 60.8402 91.9216C61.2622 92.3736 61.8972 92.6786 62.4392 92.9666C63.0222 93.2776 63.6272 93.5486 64.2462 93.7816C66.7102 94.7046 69.4142 94.9976 72.0142 94.5766C74.0392 94.2486 75.9882 93.4886 77.7172 92.3876C78.7532 91.7276 79.7112 90.9456 80.5592 90.0586C80.9862 89.6136 81.3662 89.1366 81.7482 88.6536C81.9012 88.4586 82.0852 88.3616 82.2682 88.2036C82.7772 87.7686 83.2692 87.2846 83.7432 86.8106C84.2282 86.3266 84.7152 85.7876 84.9542 85.1326C85.6862 83.1306 83.9982 80.2376 83.1042 78.7226C82.5702 77.8166 81.9492 76.8386 80.9442 76.5276C78.5392 75.7836 76.7912 79.2876 74.2842 79.5216C73.9632 79.5516 73.6252 79.5206 73.3482 79.3546C72.5562 78.8776 72.7152 77.6906 72.3162 76.8566C71.7582 75.6936 70.2602 75.4286 68.9922 75.1926C68.2022 75.0456 67.3302 74.7766 66.7302 74.2136C66.1652 73.6816 66.1352 72.9296 65.7092 72.3066C64.8152 71.0006 63.8952 69.7126 62.9412 68.4506C61.0072 65.8926 58.9442 63.3866 56.5622 61.2296C54.4662 59.3316 50.7922 56.4106 47.9032 58.4766" fill="#009598"/><path id="Fill 55" fill-rule="evenodd" clip-rule="evenodd" d="M63.9708 81.3527C64.0828 81.3467 64.1858 81.3017 64.2008 81.2517C66.7978 72.7257 63.8068 60.3757 63.7768 60.2517C63.7638 60.2037 63.6588 60.1777 63.5408 60.1947C63.4228 60.2117 63.3368 60.2637 63.3488 60.3117C63.3798 60.4357 66.3668 72.7657 63.7758 81.2707C63.7608 81.3217 63.8428 81.3587 63.9598 81.3527C63.9628 81.3527 63.9668 81.3527 63.9708 81.3527" fill="#006261"/><path id="Fill 57" fill-rule="evenodd" clip-rule="evenodd" d="M77.2664 79.94C77.2694 79.94 77.2714 79.94 77.2734 79.94C77.3914 79.931 77.4924 79.883 77.4994 79.832C78.8174 69.651 72.8024 59.733 72.7424 59.634C72.7134 59.589 72.5984 59.571 72.4834 59.594C72.3684 59.618 72.2964 59.673 72.3244 59.719C72.3854 59.817 78.3854 69.712 77.0704 79.865C77.0644 79.915 77.1524 79.947 77.2664 79.94" fill="#006261"/></g></g><path id="Upper" fill-rule="evenodd" clip-rule="evenodd" d="M67.5536 54.3278C67.5536 54.3278 61.065 53.991 61 54.009C60.8614 54.0469 56.131 54.4749 55.6145 54.7305C55.5383 54.7682 56.2009 55.1037 56.1012 55.1375C52.6182 56.3173 55.4447 54.1274 54.0363 54.7305C53.1249 55.1207 62.1242 60.883 63.8922 61.02C64.7742 61.088 64.2931 61.773 65.1711 61.665C65.3861 61.639 65.5961 61.603 65.8111 61.593C66.0221 61.582 66.2101 61.507 66.4121 61.443L69.0849 62.2658C71.3509 61.6388 73.7121 59.369 75.9781 58.742L77.1161 58.472C77.6251 58.352 77.6311 57.631 77.1261 57.501L69.7101 55.594C69.4681 55.532 68.9376 55.1962 69.0849 54.4003L67.5536 54.3278Z" fill="#bb96fd"/><path id="Upper_2" fill-rule="evenodd" clip-rule="evenodd" d="M57.3946 60.2843C56.8026 60.1928 56.0976 60.1583 55.5596 59.9758C55.2046 59.8551 54.9616 59.65 54.6406 59.502C53.5246 58.9854 52.0556 58.8189 50.7716 58.5038C49.7356 58.2494 48.7186 57.8725 48.1966 57.2822C47.2426 56.2008 48.9056 55.1117 50.3116 54.5124C51.8356 53.8627 53.8116 53.5744 55.6586 53.8003C55.9846 53.8401 56.3366 53.9079 56.5126 54.0761C56.6356 54.195 56.6456 54.3412 56.6716 54.4798C56.8886 55.6556 58.3656 56.6003 59.8826 57.3654C60.7786 57.8172 61.7176 58.2428 62.5426 58.7416C63.3026 59.2006 63.6526 59.8474 64.4156 60.2807C65.2226 60.7397 65.9796 61.1974 66.9736 61.5197C67.2486 61.6088 67.5496 61.6909 67.8626 61.679C68.4286 61.657 68.8246 61.349 69.1306 61.0655C69.7816 60.4621 70.3826 59.8396 70.9306 59.2012C71.2116 58.8736 71.4666 58.5401 71.7286 58.2078C72.2716 57.5211 68.3783 56.7364 68.4983 55.9695C68.5793 55.4499 69.2557 54.8296 68.8307 54.3719C70.1387 54.2619 75.3766 54.774 76.3306 55.3168C77.0486 55.7252 77.7836 56.3042 78.0266 56.888C78.2206 57.3523 77.8826 57.8095 77.7226 58.2589C77.5396 58.7696 77.3936 59.4277 76.8326 59.842C76.6236 59.996 76.3516 60.1315 76.1036 60.2635C75.5786 60.5417 75.0116 60.792 74.4226 61.0221C73.2336 61.487 71.9596 61.868 70.6886 62.2467C69.9026 62.4809 69.0796 62.7205 68.1996 62.7241C67.1666 62.7282 66.2206 62.4072 65.3076 62.1189C63.0886 61.4162 60.7446 60.852 58.3286 60.4371C58.0176 60.3836 57.7076 60.3331 57.3946 60.2843Z" fill="#009598"/></g></g><g id="Facial Expression" transform="translate(72.5586 94.9543) scale(2.149467641657049 2.058241994757401)"><g id="Facial Expression/Joy"><g id="Group 40"><g id="Group 39"><g id="Group 3"><mask id="mask0cca6854f-220f-4cb7-bfca-3aa821ef0f0a" style="mask-type:alpha" maskUnits="userSpaceOnUse" x="1" y="9" width="5" height="4" fill="#ffffff"><path id="Clip 2" fill-rule="evenodd" clip-rule="evenodd" d="M2.03442 9.37509L5.94768 9.51175L5.82958 12.8936L1.91633 12.757L2.03442 9.37509Z" fill="#ffffff"/></mask><g mask="url(#mask0cca6854f-220f-4cb7-bfca-3aa821ef0f0a)"><path id="Fill 1" fill-rule="evenodd" clip-rule="evenodd" d="M5.59264 12.1414C5.33375 12.4776 4.93661 12.7038 4.51738 12.7893C4.03265 12.8874 3.52516 12.8067 3.06728 12.6236C2.7673 12.503 2.47803 12.3338 2.2746 12.0846C1.92355 11.6501 1.92555 10.8766 2.06565 10.3602C2.15153 10.05 2.34186 9.7575 2.62724 9.60837C3.04412 9.38978 3.49144 9.38839 3.93927 9.48708C4.33444 9.57493 4.73323 9.6739 5.08324 9.88024C5.77627 10.2927 6.12203 11.2513 5.70244 11.9771C5.66944 12.034 5.6325 12.0888 5.59264 12.1414" fill="#DD82E1"/></g></g><path id="Fill 4" fill-rule="evenodd" clip-rule="evenodd" d="M2.67483 11.419C2.62586 11.4173 2.57742 11.4006 2.53652 11.3682C2.43327 11.2875 2.41545 11.1388 2.49611 11.0356L3.14953 10.2038C3.23025 10.0986 3.37993 10.0818 3.48314 10.1635C3.58639 10.2441 3.60421 10.3928 3.52256 10.496L2.87014 11.3278C2.82189 11.3911 2.74779 11.4216 2.67483 11.419" fill="#F7C2E9"/><path id="Fill 6" fill-rule="evenodd" clip-rule="evenodd" d="M4.45687 12.1936L4.44388 12.1931C4.31324 12.1806 4.21617 12.0661 4.22874 11.9355L4.32359 10.8811C4.33613 10.7515 4.45599 10.6716 4.58226 10.666C4.7129 10.6786 4.80896 10.793 4.7974 10.9237L4.70158 11.977C4.69015 12.1037 4.58179 12.1979 4.45687 12.1936" fill="#F7C2E9"/><path id="Fill 8" fill-rule="evenodd" clip-rule="evenodd" d="M3.39996 11.889C3.36298 11.8877 3.32629 11.8784 3.29293 11.8593C3.1781 11.7952 3.13712 11.6507 3.20117 11.5359L3.78828 10.4827C3.85329 10.3689 3.99784 10.3269 4.11164 10.3919C4.22651 10.455 4.26746 10.6005 4.20345 10.7143L3.61534 11.7675C3.5705 11.8479 3.48591 11.892 3.39996 11.889" fill="#F7C2E9"/><path id="Fill 10" fill-rule="evenodd" clip-rule="evenodd" d="M14.1575 12.3572C14.3543 12.6532 14.6731 12.8655 15.0181 12.9596C15.4164 13.0716 15.847 13.0336 16.2406 12.9092C16.4976 12.8251 16.7501 12.7009 16.9342 12.5012C17.2522 12.1621 17.2958 11.5162 17.2092 11.0749C17.1563 10.8109 17.0132 10.5557 16.7849 10.4157C16.447 10.2068 16.0737 10.1807 15.6935 10.2365C15.3586 10.2858 15.0203 10.3461 14.7169 10.4956C14.1108 10.8006 13.7674 11.5821 14.0765 12.2133C14.0988 12.2621 14.1262 12.3101 14.1575 12.3572" fill="#DD82E1"/><path id="Fill 12" fill-rule="evenodd" clip-rule="evenodd" d="M16.6363 11.962C16.5634 11.9595 16.4916 11.924 16.4479 11.8574L15.9502 11.1236C15.8769 11.015 15.9041 10.8678 16.0127 10.7936C16.1214 10.7183 16.2695 10.7475 16.3427 10.8571L16.8414 11.592C16.9146 11.7006 16.8865 11.8477 16.7779 11.921C16.7348 11.9505 16.6853 11.9638 16.6363 11.962" fill="#F7C2E9"/><path id="Fill 14" fill-rule="evenodd" clip-rule="evenodd" d="M15.1022 12.5055C14.9772 12.5012 14.8757 12.3996 14.8731 12.2734L14.853 11.3872C14.8506 11.256 14.9545 11.1466 15.0857 11.1441C15.2259 11.141 15.3253 11.2446 15.3287 11.3758L15.3478 12.263C15.3512 12.3942 15.2474 12.5026 15.1162 12.506L15.1022 12.5055Z" fill="#F7C2E9"/><path id="Fill 16" fill-rule="evenodd" clip-rule="evenodd" d="M16.0046 12.3132C15.9186 12.3102 15.8373 12.2603 15.7982 12.1769L15.3668 11.2633C15.3119 11.1443 15.3629 11.003 15.4809 10.9471C15.6 10.8902 15.7403 10.9422 15.7971 11.0612L16.2275 11.9748C16.2834 12.0938 16.2324 12.2351 16.1144 12.291C16.0788 12.3078 16.0415 12.3145 16.0046 12.3132" fill="#F7C2E9"/><path id="Fill 18" fill-rule="evenodd" clip-rule="evenodd" d="M11.2136 10.3978C11.3 10.5309 11.3905 10.6612 11.4759 10.7942C11.5803 10.958 11.6644 11.128 11.7493 11.3031C11.7577 11.3204 11.755 11.3133 11.7412 11.2788C11.7458 11.29 11.7493 11.3031 11.753 11.3132C11.7584 11.3304 11.7638 11.3476 11.7692 11.3638C11.7735 11.385 11.7778 11.4051 11.783 11.4273C11.7961 11.4838 11.7691 11.4239 11.7826 11.4113C11.7826 11.4113 11.7807 11.4653 11.7817 11.4663C11.774 11.456 11.8034 11.388 11.7836 11.4394C11.7692 11.4789 11.8279 11.3749 11.787 11.4275C11.7796 11.4382 11.7713 11.4469 11.7639 11.4607C11.7816 11.4383 11.7796 11.4402 11.7577 11.4655C11.739 11.4848 11.7213 11.5032 11.7018 11.5196C11.6935 11.5263 11.6143 11.5876 11.6553 11.56C11.6041 11.5932 11.55 11.6233 11.494 11.6514C11.4686 11.6635 11.4452 11.6747 11.4207 11.6869C11.4116 11.6905 11.3163 11.7272 11.3619 11.7098C11.3041 11.7318 11.2433 11.7527 11.1837 11.7696C11.0461 11.8149 10.9352 11.9521 10.9789 12.1037C11.0162 12.2391 11.1643 12.3553 11.311 12.3084C11.5983 12.2174 11.8994 12.1058 12.1162 11.8863C12.2261 11.776 12.3144 11.655 12.3319 11.4965C12.3422 11.4028 12.3268 11.3012 12.299 11.2092C12.1797 10.8138 11.9222 10.4786 11.7001 10.1357C11.6174 10.0107 11.4634 9.94929 11.3247 10.0245C11.2024 10.0883 11.1319 10.2729 11.2136 10.3978" fill="#AE53B9"/><path id="Fill 20" fill-rule="evenodd" clip-rule="evenodd" d="M4.85936 5.35486C4.49606 5.58632 4.12185 5.78639 4.06181 6.27359C4.00932 6.68801 4.27967 6.9406 4.68721 6.87478C4.9407 6.8366 5.13906 6.68643 5.35381 6.58287C5.93004 6.2998 6.51127 6.24606 7.13501 6.3789C7.46468 6.45145 7.82801 6.53418 8.04628 6.10054C8.20019 5.79072 8.11428 5.61462 7.84737 5.46421C7.41645 5.22502 6.94058 5.18439 6.46511 5.16078C5.91948 5.14073 5.38105 5.20097 4.85936 5.35486" fill="#342A83"/><path id="Fill 22" fill-rule="evenodd" clip-rule="evenodd" d="M11.1753 14.4235C11.3731 14.3172 11.5643 14.2201 11.5165 13.9888C11.4719 13.7771 11.2589 13.8007 11.1101 13.8071C10.2135 13.8357 9.45035 13.4919 8.72713 13.004C8.57668 12.9043 8.40344 12.7566 8.20939 12.9058C8.04959 13.0283 8.04094 13.2038 8.14047 13.3784C8.61765 14.2241 10.3515 14.8091 11.1753 14.4235" fill="#AE53B9"/><path id="Fill 24" fill-rule="evenodd" clip-rule="evenodd" d="M15.3363 5.28105C15.6627 5.47456 15.9992 5.6394 16.0673 6.06704C16.1256 6.4303 15.8955 6.65941 15.5358 6.61483C15.3107 6.58695 15.1309 6.4626 14.9407 6.37791C14.4245 6.14676 13.9121 6.11986 13.3671 6.25392C13.0784 6.32489 12.7623 6.41091 12.5572 6.03552C12.4134 5.76934 12.4821 5.60764 12.7131 5.46862C13.0841 5.24643 13.5011 5.19595 13.9195 5.16253C14.3981 5.12521 14.8741 5.16285 15.3363 5.28105" fill="#342A83"/><g id="Group"><path id="Fill 26" fill-rule="evenodd" clip-rule="evenodd" d="M15.7179 9.87083C15.721 9.87037 15.7241 9.8699 15.7272 9.86944C15.923 9.83593 16.1026 9.74472 16.2957 9.69754C16.4727 9.65564 16.6429 9.59427 16.8069 9.51656C17.1385 9.35773 17.433 9.13345 17.6977 8.8816C17.7991 8.78473 17.8968 8.68519 17.991 8.583C18.0563 8.51226 18.2338 8.39834 18.2124 8.17422C18.1672 8.00989 17.8104 7.91447 17.5901 7.78729C16.8237 7.34245 15.983 7.24397 15.1156 7.30324C14.9687 7.31287 14.8515 7.40696 14.7669 7.53013C14.7299 7.58453 14.7372 7.73306 14.7295 7.79974C14.7182 7.89827 14.7099 7.99733 14.7025 8.09657C14.6899 8.2893 14.6862 8.4826 14.6899 8.67516C14.6926 8.85537 14.7192 9.03877 14.704 9.21684C14.6882 9.39886 14.6998 9.59181 14.732 9.77214C14.7434 9.83407 14.7473 9.86419 14.8045 9.87936C14.8509 9.89262 14.9096 9.88774 14.9576 9.89214C15.2081 9.91701 15.4709 9.91257 15.7179 9.87083" fill="#0D2D89"/><path id="Fill 30" fill-rule="evenodd" clip-rule="evenodd" d="M14.7671 7.53059C14.5174 7.38603 14.3117 7.53355 14.1068 7.64161C13.375 8.02537 12.8547 8.47688 12.2364 9.24823C12.2001 9.43679 12.3576 9.52244 12.4712 9.56379C13.186 9.82894 14.0059 10.0334 14.7801 9.87547C14.7801 9.87547 14.6459 8.27585 14.7671 7.53059" fill="#E4E1FB"/><g id="Group 36"><mask id="mask1cca6854f-220f-4cb7-bfca-3aa821ef0f0a" style="mask-type:alpha" maskUnits="userSpaceOnUse" x="12" y="6" width="7" height="5" fill="#ffffff"><path id="Clip 35" fill-rule="evenodd" clip-rule="evenodd" d="M12.6101 6.61388L18.3539 7.62666L17.8508 10.48L12.107 9.4672L12.6101 6.61388Z" fill="#ffffff"/></mask><g mask="url(#mask1cca6854f-220f-4cb7-bfca-3aa821ef0f0a)"><path id="Fill 34" fill-rule="evenodd" clip-rule="evenodd" d="M12.2859 9.49875C12.346 9.50935 12.4103 9.49022 12.4537 9.43999C12.4851 9.40593 12.5259 9.3532 12.5771 9.2871C13.1357 8.57224 14.836 6.39847 17.9723 8.35278C18.0555 8.40501 18.1685 8.38026 18.2233 8.29446C18.2758 8.2093 18.2498 8.09808 18.1638 8.04434C15.9003 6.63386 13.9249 6.97603 12.2905 9.06394C12.2457 9.12205 12.2082 9.16823 12.1812 9.20003C12.1151 9.2757 12.1214 9.38952 12.1969 9.45665C12.2235 9.4786 12.2544 9.4932 12.2859 9.49875" fill="#0D2D89"/></g></g></g><path id="Fill 28" fill-rule="evenodd" clip-rule="evenodd" d="M5.72332 9.49405C5.72959 9.51528 5.73985 9.53665 5.75421 9.55516C5.79255 9.60353 5.84739 9.63746 5.90249 9.6644C6.10101 9.76739 6.31464 9.78186 6.52128 9.85311C6.5628 9.86757 6.60453 9.87603 6.6474 9.88053C6.90968 9.9057 7.17413 9.92594 7.43666 9.94411C8.03063 9.98387 8.63088 9.9588 9.17997 9.70781C8.54333 8.33976 7.48833 7.63351 6.03585 7.47872C5.98502 7.47295 5.86146 8.05999 5.8493 8.12161C5.80668 8.33925 5.78201 8.55852 5.76427 8.78004C5.75228 8.92271 5.73929 9.06534 5.72931 9.20808C5.7232 9.29692 5.69538 9.40602 5.72332 9.49405" fill="#0D2D89"/><path id="Fill 32" fill-rule="evenodd" clip-rule="evenodd" d="M5.70558 9.49732C5.70295 9.37216 5.73516 9.22319 5.74128 9.10533C5.7528 8.91862 5.76536 8.73094 5.78585 8.54555C5.80733 8.36018 5.83481 8.17503 5.87617 7.99336C5.88801 7.94074 5.99226 7.4771 6.03523 7.4786C5.19385 7.44622 4.17669 7.37567 3.48422 8.06493C3.60139 8.37721 4.01149 8.61066 4.25718 8.82437C4.51838 9.05262 4.72771 9.27606 5.06438 9.40589C5.18091 9.44999 5.3023 9.49825 5.42053 9.52239C5.50199 9.53925 5.63702 9.59799 5.71196 9.57259C5.70776 9.54943 5.70567 9.52334 5.70558 9.49732" fill="#E4E1FB"/><path id="Fill 37" fill-rule="evenodd" clip-rule="evenodd" d="M9.10701 9.75088C9.14598 9.75224 9.18641 9.74065 9.2203 9.71581C9.30142 9.65661 9.31939 9.54317 9.26018 9.46205C9.23821 9.43227 9.21062 9.39128 9.17642 9.33905C7.74924 7.19894 5.82953 6.69864 3.46864 7.85795C3.37905 7.90185 3.34123 8.0106 3.38613 8.10022C3.42896 8.19177 3.53978 8.22766 3.62936 8.18376C6.9024 6.57801 8.38444 8.80909 8.8742 9.54063C8.91222 9.59799 8.94267 9.64308 8.9665 9.67693C9.00188 9.7242 9.05304 9.749 9.10701 9.75088" fill="#0D2D89"/></g></g></g></g></g></g></g></svg>