<svg viewBox="44.25 50.150000000000006 97.35 188.79999999999998" fill="none" xmlns="http://www.w3.org/2000/svg" xmlns:xlink="http://www.w3.org/1999/xlink" overflow="visible" width="97.35px" height="188.79999999999998px"><g id="Master/Character/Standing"><g id="Lower Body/Standing" transform="translate(32 118) scale(1 1)"><g id="Lower Body/Standing/Green Pants"><g id="Lower"><path id="Fill 1" fill-rule="evenodd" clip-rule="evenodd" d="M74.7914 90.1794L80.9574 107.652L71.5944 110.129L65.3154 92.7004L74.7914 90.1794Z" fill="#f4c9f5"/><g id="Group 33"><g id="Group 4"><mask id="mask08d0180b7-9b69-49ec-912f-af125b336883" style="mask-type:alpha" maskUnits="userSpaceOnUse" x="68" y="106" width="30" height="12" fill="#ffffff"><path id="Clip 3" fill-rule="evenodd" clip-rule="evenodd" d="M68.6348 106.023H97.8382V117.203H68.6348V106.023Z" fill="#ffffff"/></mask><g mask="url(#mask08d0180b7-9b69-49ec-912f-af125b336883)"><path id="Fill 2" fill-rule="evenodd" clip-rule="evenodd" d="M81.0938 106.557L94.7608 112.534C96.9068 113.361 98.1358 115.264 97.7768 117.203H68.6348L70.1788 106.023L81.0938 106.557Z" fill="#F0BF00"/></g></g><path id="Fill 5" fill-rule="evenodd" clip-rule="evenodd" d="M83.4077 107.628V107.121C83.4077 105.688 82.3587 104.227 80.6277 104.227C79.5537 104.227 78.5537 104.683 77.9797 105.435L76.3047 107.628H83.4077Z" fill="#F0BF00"/><g id="Group 9"><mask id="mask18d0180b7-9b69-49ec-912f-af125b336883" style="mask-type:alpha" maskUnits="userSpaceOnUse" x="68" y="115" width="30" height="4" fill="#ffffff"><path id="Clip 8" fill-rule="evenodd" clip-rule="evenodd" d="M68.4551 115.226H97.7761V118.837H68.4551V115.226Z" fill="#ffffff"/></mask><g mask="url(#mask18d0180b7-9b69-49ec-912f-af125b336883)"><path id="Fill 7" fill-rule="evenodd" clip-rule="evenodd" d="M97.7761 117.203C101.915 117.776 97.7761 119.226 97.7761 119.226H68.4551L68.9071 115.226C68.9071 115.226 93.6375 116.629 97.7761 117.203Z" fill="#BB70FF"/></g></g><path id="Fill 10" fill-rule="evenodd" clip-rule="evenodd" d="M81.9232 116.008C80.7312 108.859 69.7892 108.844 69.7892 108.844L68.9072 115.226L81.9232 116.008Z" fill="#591A90"/><path id="Stroke 12" d="M89.6155 109.045C89.8274 109.063 89.9846 109.25 89.9666 109.461C89.9509 109.647 89.8063 109.79 89.6284 109.811L89.5175 109.811C88.8007 109.779 87.8682 109.948 86.9687 110.496C86.6862 110.668 86.4206 110.873 86.1744 111.112C86.0219 111.26 85.7782 111.257 85.63 111.104C85.4817 110.952 85.4852 110.708 85.6376 110.56C85.9257 110.28 86.237 110.04 86.568 109.838C87.1682 109.473 87.8085 109.244 88.4562 109.127C88.8162 109.062 89.1369 109.037 89.4007 109.038L89.6155 109.045Z" fill="black"/><path id="Stroke 14" d="M87.471 108.339C87.6829 108.357 87.8401 108.543 87.8221 108.755C87.8064 108.94 87.6617 109.084 87.4839 109.105L87.373 109.104C86.6562 109.072 85.7237 109.241 84.8242 109.789C84.5417 109.961 84.276 110.166 84.0299 110.405C83.8774 110.554 83.6337 110.55 83.4854 110.398C83.3372 110.245 83.3406 110.002 83.4931 109.853C83.7811 109.573 84.0925 109.333 84.4235 109.132C85.0237 108.766 85.664 108.538 86.3117 108.42C86.6717 108.355 86.9923 108.33 87.2562 108.331L87.471 108.339Z" fill="black"/><path id="Stroke 16" d="M85.6326 107.633C85.8445 107.651 86.0017 107.837 85.9837 108.049C85.968 108.234 85.8234 108.378 85.6455 108.399L85.5346 108.398C84.8178 108.366 83.8853 108.535 82.9858 109.083C82.7033 109.255 82.4377 109.46 82.1915 109.699C82.039 109.848 81.7953 109.844 81.6471 109.692C81.4988 109.539 81.5022 109.296 81.6547 109.147C81.9428 108.867 82.2541 108.628 82.5851 108.426C83.1853 108.06 83.8256 107.832 84.4733 107.714C84.8333 107.649 85.154 107.624 85.4178 107.625L85.6326 107.633Z" fill="black"/><g id="Group 20"><mask id="mask28d0180b7-9b69-49ec-912f-af125b336883" style="mask-type:alpha" maskUnits="userSpaceOnUse" x="39" y="1" width="49" height="97" fill="#ffffff"><path id="Clip 19" fill-rule="evenodd" clip-rule="evenodd" d="M39.7241 1H87.4981V97.6027H39.7241V1Z" fill="#ffffff"/></mask><g mask="url(#mask28d0180b7-9b69-49ec-912f-af125b336883)"><path id="Fill 18" fill-rule="evenodd" clip-rule="evenodd" d="M65.9271 0.999695L87.4981 93.3077C87.4981 93.3077 77.3611 99.2017 60.8211 97.1807L39.7241 0.999695H65.9271Z" fill="#6B2AA5"/></g></g><path id="Fill 21" fill-rule="evenodd" clip-rule="evenodd" d="M36.8721 109.413H46.6691V93.634H36.8721V109.413Z" fill="#f4c9f5"/><path id="Fill 23" fill-rule="evenodd" clip-rule="evenodd" d="M50.3718 116.104C50.3718 116.104 49.1308 107.018 42.2638 106.624C35.3968 106.229 34.0768 111.967 33.4028 116.104H50.3718Z" fill="#F0BF00"/><path id="Fill 24" fill-rule="evenodd" clip-rule="evenodd" d="M38.646 108H44.652V107.047C44.652 105.674 43.308 104.56 41.649 104.56C39.991 104.56 38.646 105.674 38.646 107.047V108Z" fill="#F0BF00"/><path id="Fill 25" fill-rule="evenodd" clip-rule="evenodd" d="M33.4033 118.795H50.3723V116.104H33.4033V118.795Z" fill="#BB70FF"/><path id="Fill 26" fill-rule="evenodd" clip-rule="evenodd" d="M48.8106 111.354C48.8106 111.354 47.2196 112.888 47.6436 116.104H50.3726C50.3726 116.104 49.8696 113.209 48.8106 111.354" fill="#591A90"/><path id="Fill 27" fill-rule="evenodd" clip-rule="evenodd" d="M34.6503 111.279C34.6503 111.279 36.5553 112.887 36.1303 116.103H33.4023C33.4023 116.103 33.7943 112.685 34.6503 111.279" fill="#591A90"/><path id="Stroke 28" d="M39.3147 110.506C40.7952 109.908 42.3625 110.004 43.8509 110.518C44.1153 110.61 44.3551 110.708 44.5666 110.806L44.7942 110.919C44.8123 110.928 44.8279 110.937 44.841 110.944C45.0262 111.049 45.0916 111.284 44.9871 111.469C44.8826 111.654 44.6478 111.719 44.4626 111.615C44.3056 111.526 44.0065 111.387 43.5993 111.246C42.271 110.787 40.885 110.702 39.603 111.22C39.345 111.324 39.0942 111.452 38.8511 111.605C38.6712 111.719 38.4335 111.665 38.3201 111.485C38.2067 111.305 38.2606 111.067 38.4405 110.954C38.7227 110.776 39.0144 110.627 39.3147 110.506Z" fill="black"/><path id="Stroke 29" d="M39.3147 109.037C40.7952 108.439 42.3625 108.535 43.8509 109.05C44.1153 109.141 44.3551 109.239 44.5666 109.338L44.7942 109.45C44.8123 109.459 44.8279 109.468 44.841 109.475C45.0262 109.58 45.0916 109.815 44.9871 110C44.8826 110.185 44.6478 110.251 44.4626 110.146L44.294 110.059C44.1259 109.978 43.8902 109.878 43.5993 109.777C42.271 109.318 40.885 109.233 39.603 109.751C39.345 109.855 39.0942 109.983 38.8511 110.136C38.6712 110.25 38.4335 110.196 38.3201 110.016C38.2067 109.836 38.2606 109.598 38.4405 109.485C38.7227 109.307 39.0144 109.158 39.3147 109.037Z" fill="black"/><path id="Stroke 30" d="M39.3148 107.568C40.7952 106.971 42.3625 107.067 43.8509 107.581C44.1153 107.672 44.3551 107.77 44.5665 107.869L44.7325 107.949C44.7784 107.972 44.8147 107.992 44.8409 108.007C45.0261 108.111 45.0916 108.346 44.9871 108.531C44.8827 108.716 44.6479 108.782 44.4627 108.677C44.3056 108.589 44.0066 108.45 43.5994 108.309C42.271 107.85 40.885 107.765 39.6029 108.283C39.3449 108.387 39.0941 108.515 38.851 108.668C38.6711 108.781 38.4334 108.727 38.32 108.547C38.2067 108.367 38.2607 108.13 38.4406 108.016C38.7228 107.839 39.0145 107.69 39.3148 107.568Z" fill="black"/><path id="Fill 31" fill-rule="evenodd" clip-rule="evenodd" d="M40.2675 0.999695C40.2675 0.999695 31.8305 10.2967 30.7175 31.8227C29.6045 53.3487 27.9995 97.1807 27.9995 97.1807C27.9995 97.1807 38.6315 101.727 55.1555 97.1807L52.5475 0.999695H40.2675Z" fill="#7A36B7"/><path id="Stroke 32" d="M53.0439 24.1336C53.214 24.1287 53.3593 24.2452 53.3968 24.4046L53.406 24.4753L54.639 66.9343C54.6446 67.1286 54.4917 67.2907 54.2974 67.2963C54.1273 67.3013 53.982 67.1848 53.9445 67.0254L53.9353 66.9547L52.7023 24.4957C52.6967 24.3014 52.8496 24.1393 53.0439 24.1336Z" fill="#4F1A7D"/></g></g></g></g><g id="Head" transform="translate(45 23) scale(1 1)"><g id="Head/Long hair"><g id="Hair"><g id="Group 68"><path id="Fill 2" fill-rule="evenodd" clip-rule="evenodd" d="M5.72374 76.1766C5.44274 74.0636 5.45474 71.2186 6.74374 69.5206C7.87274 68.0336 9.72374 67.3326 11.4167 66.5466C14.4857 65.1196 17.5827 62.8016 18.0877 59.4536C18.3297 57.8456 17.9427 56.1236 18.5777 54.6256C19.9567 51.3816 25.1037 51.2186 26.5157 47.9886C27.1507 46.5376 26.8257 44.8766 26.7027 43.2986C26.3157 38.3756 28.4287 32.9796 32.8377 30.7556C33.1267 30.6096 33.4497 30.4746 33.7657 30.5446C34.0257 30.6026 34.2377 30.7916 34.4057 30.9986C35.0857 31.8396 35.1977 33.0186 35.0257 34.0866C34.8547 35.1546 34.4357 36.1646 34.1597 37.2106C34.0387 37.6656 33.8887 38.1296 34.0237 38.5966C34.1477 39.0246 34.4287 39.4006 34.6997 39.7446C35.1377 40.3046 35.7427 40.6736 35.8717 41.4036C35.9627 41.9156 36.4877 42.5226 36.3067 43.0326C36.1917 43.3556 36.0137 43.6746 35.8957 44.0056C35.6667 44.6446 35.3767 45.2106 34.9027 45.7136C34.3647 46.2856 33.6637 46.9666 33.3107 47.6746C33.1757 47.9436 33.2657 48.3106 33.2547 48.6076C33.2387 49.0716 33.2237 49.5366 33.2097 50.0006C33.1557 51.8586 33.1187 53.7176 33.0997 55.5756C33.0717 58.4216 33.0767 61.3266 32.1717 64.0256C31.2387 66.8096 29.3987 69.1866 27.5187 71.4416C26.1297 73.1076 24.6577 74.7736 22.7557 75.8156C21.6637 76.4136 23.2907 75.3606 22.0417 75.3476C20.7227 75.3336 16.7777 76.0716 15.4937 76.0016C12.2327 75.8246 8.98774 76.2906 5.72374 76.1766" fill="#e74bb1"/><path id="Fill 4" fill-rule="evenodd" clip-rule="evenodd" d="M35.2006 43.7625C36.1756 42.7075 37.4316 41.9535 38.6166 41.1235C40.5646 39.7565 42.1306 38.1275 42.8476 35.9175C42.9356 35.6485 43.0066 35.3675 43.3896 35.1045C43.5876 35.7225 43.5836 36.2685 43.4866 36.7605C43.1066 38.6765 42.2496 40.3975 40.6846 41.7535C40.0336 42.3185 39.3126 42.8295 38.4956 43.1845M15.2436 75.6155C15.2086 76.0225 15.2586 76.0245 15.6406 76.0415C16.3996 76.0765 21.5276 76.2005 21.5276 76.2005C21.9446 76.1085 21.6376 75.9555 21.8066 75.5545C22.3526 74.2625 23.1656 73.0575 23.8246 71.8145C24.1196 71.2555 24.4716 70.7285 24.8106 70.1955C25.0676 69.7915 25.2226 69.3335 25.4726 68.9385C25.7496 68.4995 26.3046 68.1745 26.6836 67.8235C27.1316 67.4085 27.5596 66.9715 27.9626 66.5135C28.3896 66.0295 28.7856 65.5185 29.1436 64.9815C29.4556 64.5125 29.7286 64.0175 30.0106 63.5305C31.0156 61.7915 31.9176 59.9865 33.1086 58.3645C33.6776 57.5895 34.3176 56.8615 35.0496 56.2365C35.4076 55.9295 35.7876 55.6485 36.1906 55.4025C36.5196 55.2005 36.9076 54.9905 37.1976 54.7395C37.7886 54.2275 37.9556 53.3775 37.9456 52.5955C37.9296 51.4195 37.5856 50.2495 36.9646 49.2505C36.6926 48.8125 36.3686 48.4085 36.1056 47.9645C35.9786 47.7525 35.8506 47.5245 35.7806 47.2855C35.6516 46.8455 35.3126 46.4545 35.3686 45.9715C35.4586 45.1985 36.9246 44.6425 37.5486 44.3755C39.1006 43.7095 40.5056 42.8455 41.6716 41.6805C41.8646 41.4885 42.0426 41.2855 42.2076 41.0625C43.1016 39.8625 43.8106 38.5865 44.1086 37.1605C44.2456 36.5085 44.3006 35.7825 44.1216 35.1555C43.9856 34.6815 44.0136 34.2335 43.9516 33.7765C43.6646 32.3175 42.9936 31.0285 42.0586 29.9685C40.0146 30.7075 38.7646 32.2435 37.1896 33.4015C36.1966 34.1315 35.2966 34.9965 34.5746 35.9785C33.9756 36.7905 33.3226 37.5885 32.8696 38.4685C32.2396 39.6965 31.7166 40.9585 31.4676 42.3355C31.2606 43.4855 31.2406 44.5305 31.7206 45.6135C32.2026 46.7005 32.4256 47.8655 32.6016 49.0175C32.8166 50.4245 32.2476 51.7465 31.7006 53.0205C31.1006 54.4155 29.8066 55.3495 28.6036 56.2775C27.7636 56.9245 26.8616 57.5695 26.3006 58.4915C25.7606 59.3775 25.6626 60.6005 25.5096 61.6055C25.4106 62.2535 25.4306 62.8975 25.2816 63.5475C25.1336 64.1965 24.9266 64.8295 24.7056 65.4565C24.2236 66.8245 23.3146 67.8815 22.1516 68.7155C20.9056 69.6085 19.6296 70.4705 18.3696 71.3475C17.5796 71.8985 16.9356 72.6125 16.3306 73.3545C16.1786 73.5405 15.9896 73.7685 15.8166 74.0175C15.4846 74.4965 15.2956 75.0305 15.2436 75.6155" fill="#ff88cf"/><path id="Fill 6" fill-rule="evenodd" clip-rule="evenodd" d="M14.9094 75.5858C14.8874 76.0478 14.8734 76.1548 14.3804 76.1818C13.8804 76.2098 13.3704 76.1808 12.8694 76.1798C11.2804 76.1778 9.69141 76.1738 8.10241 76.1728C7.51741 76.1728 7.01041 76.3778 6.96741 75.6718C6.94441 75.2988 7.05841 74.9358 7.07541 74.5658C7.11341 73.7018 7.33241 72.8488 7.72241 72.0758C8.11341 71.2998 8.56241 70.5598 9.14641 69.9048C9.95741 68.9958 10.9774 68.3148 12.1104 67.7508C13.1444 67.2358 14.1044 66.5988 15.1274 66.0648C15.4544 65.8948 15.7224 65.6898 15.9784 65.4558C16.8954 64.6168 17.8224 63.7848 18.7244 62.9328C19.8204 61.8988 20.4464 60.6778 20.4034 59.2068C20.3914 58.8328 20.4334 58.4568 20.3944 58.0858C20.2904 57.1058 20.5704 56.1918 20.8744 55.2688C21.0634 54.6948 21.4014 54.2178 21.9194 53.9188C22.7864 53.4188 23.5444 52.7228 24.6044 52.5348C24.9414 52.4758 25.1884 52.2278 25.4044 52.0598C26.4014 51.2838 27.4384 50.4888 27.8214 49.2788C28.0984 48.4048 28.4074 47.5258 28.4034 46.5938C28.3964 44.7608 28.4094 42.9268 28.3974 41.0938C28.3824 38.8048 29.6254 36.8618 30.8974 35.0748C31.6864 33.9658 32.7524 33.1068 33.9294 32.3748C34.3454 32.1148 34.7624 31.8328 35.1254 31.5438C36.5164 30.4398 38.2034 29.9068 39.8694 29.3448C40.3464 29.1848 40.9424 29.3198 41.4524 29.3198C41.5484 29.6238 41.3574 29.6268 41.2104 29.7278C39.7864 30.7038 38.2984 31.6148 37.1064 32.8438C36.7584 33.2028 36.2784 33.3808 35.9154 33.7118C35.2424 34.3248 34.7874 35.0898 34.1964 35.7598C34.1204 35.8458 33.1364 38.3478 33.0314 38.4448C31.3274 40.0208 31.6494 39.7018 31.0484 41.7668C30.7754 42.7028 30.8624 43.6288 30.8594 44.5598C30.8574 45.2108 31.3164 45.7968 31.2904 46.4678C32.1114 47.7468 31.9614 49.1618 31.9494 50.5518C31.9414 51.4178 31.5604 52.2158 31.1344 52.9538C30.3544 54.2988 29.1484 55.3188 27.8044 56.1938C26.6004 56.9778 25.6584 58.3218 25.2634 59.6168C25.1124 60.1158 25.0674 60.5918 25.0704 61.0868C25.0804 62.7888 24.6584 64.3978 23.8874 65.9388C23.4514 66.8108 22.8704 67.5268 22.0044 68.1408C20.7214 69.0508 19.3184 69.8198 18.1314 70.8358C17.2324 71.6048 16.3814 72.3738 15.6534 73.3098C15.1484 73.9578 14.9494 74.7718 14.9094 75.5858" fill="#ff88cf"/><path id="Fill 8" fill-rule="evenodd" clip-rule="evenodd" d="M4.13727 70.4798C4.37827 69.9858 4.69727 69.5188 4.96827 69.0348C5.47127 68.1388 6.37927 67.6138 7.20227 67.0228C8.78227 65.8888 10.5203 64.9778 12.3163 64.1678C13.2963 63.7248 13.9913 62.9998 14.7283 62.3118C15.1543 61.9138 15.1673 61.3278 15.2503 60.8438C15.4593 59.6268 15.2093 58.5148 15.2073 57.3108C15.2073 56.9138 15.2073 56.4718 15.3003 56.0988C16.0733 52.9888 18.5193 51.6568 21.3623 50.6948C22.3413 50.3638 23.3683 50.2568 24.1543 49.5008C24.7463 48.9308 25.3053 48.1098 25.3973 47.2888C25.5263 46.1268 25.2933 45.0708 25.1383 43.9308C25.0373 43.1808 25.0103 42.4208 25.0183 41.6648C25.0363 40.0238 25.2263 38.1308 25.7203 36.5618C25.9093 35.9618 26.2623 35.4108 26.6543 34.8998C27.2563 34.1148 27.7403 33.2168 28.4823 32.5478C29.2843 31.8228 30.2203 31.1588 31.1343 30.5798C32.6083 29.6448 34.2793 29.1048 36.0053 28.6788C37.4533 28.3208 38.9003 28.5778 40.3333 28.4748C40.3593 28.6318 40.3693 28.6948 40.3923 28.8378C38.9683 28.7798 37.8843 29.6258 36.6293 30.0418C35.9423 30.2708 35.3423 30.7408 34.7353 31.1428C33.8023 31.7608 32.8963 32.4148 31.9813 33.0548C31.8933 33.1168 31.8083 33.1868 31.7443 33.2688C30.2743 35.1308 28.7843 36.7268 28.1723 39.0698C28.0603 39.4978 27.8243 39.9138 27.7673 40.3338C27.5243 42.1468 28.0843 44.0148 27.9373 45.8378C27.8143 47.3708 27.6263 48.9078 26.6333 50.2388C26.1763 50.8508 25.6593 51.3958 24.9393 51.7518C24.2793 52.0788 23.6353 52.4438 22.9443 52.7038C22.4183 52.8998 22.0453 53.2378 21.6163 53.5398C20.7603 54.1398 20.3863 55.0008 20.0423 55.8628C19.8373 56.3758 19.7843 56.9518 19.7473 57.5048C19.6993 58.2148 19.7403 58.9308 19.7343 59.6438C19.7263 60.7848 19.2053 61.7588 18.4173 62.5838C17.6153 63.4258 16.6973 64.1748 15.8413 64.9738C15.1743 65.5968 14.2833 65.9028 13.5133 66.3828C12.6943 66.8938 11.8193 67.3318 10.9623 67.7918C8.73027 68.9898 6.98327 71.4238 6.49027 73.9158C6.33927 74.6788 6.08527 75.4748 6.40027 76.2298C6.23227 76.1498 5.97427 76.1798 5.79527 76.1768C5.44127 76.1718 5.08627 76.1808 4.73227 76.1878C4.39027 76.1948 4.01627 76.2468 3.67927 76.2208C3.15227 76.1798 3.15327 75.6378 3.19327 75.2488C3.23827 74.8058 3.29527 74.3628 3.35827 73.9218C3.48527 73.0268 3.62127 72.1218 3.85427 71.2458C3.89527 71.0908 3.93927 70.9348 4.00027 70.7858C4.04227 70.6818 4.08827 70.5808 4.13727 70.4798" fill="#ff88cf"/><g id="Group 12"><path id="Fill 10" fill-rule="evenodd" clip-rule="evenodd" d="M1.39912 76.1959C0.80512 75.0889 0.51012 70.0829 3.22712 66.6339C4.24912 65.3369 5.69812 64.5419 7.10012 63.7729C8.57112 62.9659 9.96112 62.2029 10.7881 60.9299C11.4881 59.8519 11.7731 58.6209 12.0761 57.3179C12.4361 55.7699 12.8081 54.1679 13.9111 52.7259C15.0301 51.2619 16.5721 50.5949 18.0641 49.9499C19.2861 49.4209 20.4401 48.9219 21.3451 48.0149C22.7351 46.6219 23.0841 44.8099 23.4531 42.8919C23.6151 42.0519 23.7821 41.1829 24.0431 40.3469C24.8401 37.8019 26.0131 36.0529 27.7701 33.8909C27.9571 33.6599 28.2971 33.6249 28.5271 33.8119C28.7581 33.9999 28.7931 34.3389 28.6051 34.5689C26.9311 36.6299 25.8151 38.2879 25.0711 40.6679C24.8281 41.4459 24.6661 42.2839 24.5101 43.0949C24.1261 45.0879 23.7291 47.1479 22.1071 48.7749C21.0571 49.8279 19.7521 50.3919 18.4911 50.9369C17.0631 51.5549 15.7141 52.1379 14.7651 53.3789C13.8041 54.6369 13.4741 56.0579 13.1241 57.5619C12.8141 58.8979 12.4931 60.2799 11.6901 61.5159C10.7171 63.0159 9.14112 63.8809 7.61812 64.7169C6.25012 65.4669 4.95912 66.1749 4.07212 67.2999C1.60312 70.4349 1.96912 74.9829 2.34812 75.6859C2.48812 75.9479 2.39012 76.2739 2.12812 76.4149C2.04712 76.4579 1.96012 76.4789 1.87412 76.4789C1.68212 76.4789 1.49712 76.3759 1.39912 76.1959Z" fill="#ff88cf"/></g><path id="Fill 13" fill-rule="evenodd" clip-rule="evenodd" d="M69.6007 68.995C68.4717 67.508 66.6207 66.807 64.9277 66.021C61.8587 64.594 58.7617 62.276 58.2567 58.928C58.0147 57.32 58.4017 55.598 57.7657 54.1C56.3877 50.856 51.2407 50.693 49.8277 47.463C49.1937 46.012 49.5187 44.351 49.6417 42.773C50.0287 37.85 47.9147 32.454 43.5067 30.23C43.2177 30.084 42.8947 29.949 42.5787 30.019C42.3177 30.077 42.1067 30.266 41.9387 30.473C41.2577 31.314 41.1467 32.493 41.3187 33.561C41.4897 34.629 41.9087 35.639 42.1847 36.685C42.3057 37.14 42.4557 37.604 42.3207 38.071C42.1967 38.499 41.9157 38.875 41.6447 39.219C41.2057 39.779 40.6017 40.148 40.4717 40.878C40.3817 41.39 39.8567 41.997 40.0377 42.507C40.1527 42.83 40.3307 43.149 40.4487 43.48C40.6777 44.119 40.9677 44.685 41.4417 45.188C41.9797 45.76 42.6807 46.441 43.0337 47.149C43.1687 47.418 43.0787 47.785 43.0897 48.082C43.1057 48.546 43.1207 49.011 43.1347 49.475C43.1887 51.333 43.2257 53.192 43.2447 55.05C43.2727 57.896 43.2677 60.801 44.1727 63.5C45.1057 66.284 46.9457 68.661 48.8257 70.916C50.2147 72.582 51.6867 74.248 53.5887 75.29C54.6797 75.888 53.0537 74.835 54.3027 74.822C55.6217 74.808 59.5667 75.546 60.8507 75.476C64.1117 75.299 67.3567 75.765 70.6207 75.651C70.9007 73.538 70.8897 70.693 69.6007 68.995Z" fill="#e74bb1"/><path id="Fill 17" fill-rule="evenodd" clip-rule="evenodd" d="M61.8703 75.5858C61.8923 76.0478 61.9063 76.1548 62.3993 76.1818C62.8993 76.2098 63.4093 76.1808 63.9093 76.1798C65.4983 76.1778 67.0883 76.1738 68.6773 76.1728C69.2623 76.1728 69.7683 76.3778 69.8123 75.6718C69.8353 75.2988 69.7213 74.9358 69.7043 74.5658C69.6663 73.7018 69.4473 72.8488 69.0573 72.0758C68.6663 71.2998 68.2163 70.5598 67.6333 69.9048C66.8223 68.9958 65.8023 68.3148 64.6683 67.7508C63.6353 67.2358 62.6753 66.5988 61.6513 66.0648C61.3253 65.8948 61.0573 65.6898 60.8013 65.4558C59.8833 64.6168 58.9573 63.7848 58.0543 62.9328C56.9583 61.8988 56.3333 60.6778 56.3763 59.2068C56.3883 58.8328 56.3463 58.4568 56.3853 58.0858C56.4893 57.1058 56.2093 56.1918 55.9053 55.2688C55.7163 54.6948 55.3773 54.2178 54.8593 53.9188C53.9933 53.4188 53.2353 52.7228 52.1753 52.5348C51.8383 52.4758 51.5913 52.2278 51.3743 52.0598C50.3783 51.2838 49.3413 50.4888 48.9573 49.2788C48.6813 48.4048 48.3723 47.5258 48.3763 46.5938C48.3833 44.7608 48.3703 42.9268 48.3823 41.0938C48.3973 38.8048 47.1543 36.8618 45.8823 35.0748C45.0923 33.9658 44.0273 33.1068 42.8503 32.3748C42.4343 32.1148 42.0173 31.8328 41.6543 31.5438C40.2633 30.4398 38.5763 29.9068 36.9093 29.3448C36.4333 29.1848 35.8363 29.3198 35.3273 29.3198C35.2313 29.6238 35.4213 29.6268 35.5693 29.7278C36.9933 30.7038 38.4813 31.6148 39.6733 32.8438C40.0213 33.2028 40.5013 33.3808 40.8643 33.7118C41.5373 34.3248 41.9923 35.0898 42.5833 35.7598C42.6593 35.8458 43.6433 38.3478 43.7483 38.4448C45.4523 40.0208 45.1303 39.7018 45.7313 41.7668C46.0043 42.7028 45.9173 43.6288 45.9203 44.5598C45.9223 45.2108 45.4633 45.7968 45.4893 46.4678C44.6673 47.7468 44.8183 49.1618 44.8303 50.5518C44.8373 51.4178 45.2193 52.2158 45.6453 52.9538C46.4243 54.2988 47.6313 55.3188 48.9753 56.1938C50.1793 56.9778 51.1213 58.3218 51.5153 59.6168C51.6673 60.1158 51.7113 60.5918 51.7083 61.0868C51.6983 62.7888 52.1213 64.3978 52.8923 65.9388C53.3283 66.8108 53.9093 67.5268 54.7753 68.1408C56.0573 69.0508 57.4603 69.8198 58.6483 70.8358C59.5473 71.6048 60.3983 72.3738 61.1263 73.3098C61.6313 73.9578 61.8303 74.7718 61.8703 75.5858" fill="#ff88cf"/><path id="Fill 1" fill-rule="evenodd" clip-rule="evenodd" d="M36.9649 49.2501L29.7349 59.1581L18.6689 73.6821L21.5279 76.2001H55.2509C55.2509 76.2001 61.9161 76.2298 61.9161 76.2298C61.9161 76.2298 61.5022 74.0418 58.6778 72.1719C50.9331 67.0444 50.9331 64.1934 49.6279 59.8564C48.3227 55.5195 43.591 53.0229 43.5517 53.8346C43.4548 55.8342 39.8139 49.2501 39.8139 49.2501H36.9649Z" fill="#ff88cf"/><path id="Fill 19" fill-rule="evenodd" clip-rule="evenodd" d="M72.6422 70.4798C72.4012 69.9858 72.0822 69.5188 71.8102 69.0348C71.3082 68.1388 70.3992 67.6138 69.5772 67.0228C67.9972 65.8888 66.2592 64.9778 64.4632 64.1678C63.4832 63.7248 62.7882 62.9998 62.0512 62.3118C61.6242 61.9138 61.6122 61.3278 61.5292 60.8438C61.3202 59.6268 61.5702 58.5148 61.5722 57.3108C61.5722 56.9138 61.5722 56.4718 61.4792 56.0988C60.7052 52.9888 58.2602 51.6568 55.4172 50.6948C54.4372 50.3638 53.4112 50.2568 52.6252 49.5008C52.0322 48.9308 51.4732 48.1098 51.3822 47.2888C51.2532 46.1268 51.4862 45.0708 51.6412 43.9308C51.7422 43.1808 51.7692 42.4208 51.7602 41.6648C51.7432 40.0238 51.5522 38.1308 51.0592 36.5618C50.8702 35.9618 50.5172 35.4108 50.1252 34.8998C49.5232 34.1148 49.0392 33.2168 48.2972 32.5478C47.4952 31.8228 46.5592 31.1588 45.6442 30.5798C44.1702 29.6448 42.5002 29.1048 40.7742 28.6788C39.3262 28.3208 37.8782 28.5778 36.4462 28.4748C36.4202 28.6318 36.4102 28.6948 36.3872 28.8378C37.8112 28.7798 38.8952 29.6258 40.1502 30.0418C40.8372 30.2708 41.4372 30.7408 42.0442 31.1428C42.9772 31.7608 43.8832 32.4148 44.7982 33.0548C44.8852 33.1168 44.9712 33.1868 45.0352 33.2688C46.5052 35.1308 47.9952 36.7268 48.6072 39.0698C48.7192 39.4978 48.9552 39.9138 49.0122 40.3338C49.2552 42.1468 48.6952 44.0148 48.8422 45.8378C48.9652 47.3708 49.1532 48.9078 50.1452 50.2388C50.6032 50.8508 51.1202 51.3958 51.8402 51.7518C52.5002 52.0788 53.1442 52.4438 53.8352 52.7038C54.3612 52.8998 54.7342 53.2378 55.1632 53.5398C56.0182 54.1398 56.3932 55.0008 56.7372 55.8628C56.9422 56.3758 56.9952 56.9518 57.0322 57.5048C57.0802 58.2148 57.0392 58.9308 57.0442 59.6438C57.0532 60.7848 57.5742 61.7588 58.3622 62.5838C59.1642 63.4258 60.0822 64.1748 60.9382 64.9738C61.6052 65.5968 62.4962 65.9028 63.2662 66.3828C64.0852 66.8938 64.9602 67.3318 65.8162 67.7918C68.0492 68.9898 69.7952 71.4238 70.2892 73.9158C70.4402 74.6788 70.6942 75.4748 70.3792 76.2298C70.5472 76.1498 70.8052 76.1798 70.9842 76.1768C71.3382 76.1718 71.6932 76.1808 72.0462 76.1878C72.3892 76.1948 72.7632 76.2468 73.1002 76.2208C73.6272 76.1798 73.6262 75.6378 73.5862 75.2488C73.5412 74.8058 73.4842 74.3628 73.4212 73.9218C73.2942 73.0268 73.1582 72.1218 72.9252 71.2458C72.8842 71.0908 72.8392 70.9348 72.7792 70.7858C72.7372 70.6818 72.6912 70.5808 72.6422 70.4798" fill="#ff88cf"/><g id="Group 23"><path id="Fill 21" fill-rule="evenodd" clip-rule="evenodd" d="M74.9055 76.4789C74.8195 76.4789 74.7325 76.4579 74.6515 76.4149C74.3895 76.2739 74.2915 75.9479 74.4315 75.6869C74.8095 74.9819 75.1765 70.4339 72.7065 67.2999C71.8205 66.1749 70.5295 65.4669 69.1615 64.7159C67.6385 63.8799 66.0625 63.0159 65.0895 61.5159C64.2865 60.2799 63.9655 58.8979 63.6555 57.5619C63.3055 56.0579 62.9755 54.6379 62.0135 53.3789C61.0645 52.1379 59.7165 51.5549 58.2875 50.9369C57.0265 50.3919 55.7225 49.8279 54.6725 48.7749C53.0505 47.1489 52.6535 45.0879 52.2695 43.0959C52.1135 42.2849 51.9515 41.4459 51.7085 40.6679C50.9645 38.2879 49.8485 36.6289 48.1735 34.5689C47.9865 34.3389 48.0215 33.9999 48.2515 33.8119C48.4835 33.6249 48.8215 33.6609 49.0085 33.8909C50.7665 36.0519 51.9395 37.8019 52.7355 40.3469C52.9975 41.1829 53.1645 42.0519 53.3265 42.8929C53.6955 44.8109 54.0445 46.6219 55.4335 48.0149C56.3385 48.9219 57.4925 49.4209 58.7155 49.9499C60.2065 50.5949 61.7495 51.2619 62.8685 52.7259C63.9715 54.1679 64.3435 55.7699 64.7035 57.3179C65.0065 58.6219 65.2915 59.8529 65.9915 60.9299C66.8185 62.2029 68.2075 62.9659 69.6795 63.7729C71.0805 64.5419 72.5305 65.3369 73.5515 66.6339C76.2685 70.0819 75.9745 75.0879 75.3805 76.1949C75.2825 76.3759 75.0975 76.4789 74.9055 76.4789" fill="#ff88cf"/></g><path id="Fill 24" fill-rule="evenodd" clip-rule="evenodd" d="M53.0825 51.1737C53.1675 51.4257 53.2055 51.6787 53.1365 51.9117C52.9715 52.4747 52.5605 52.4437 52.0625 52.4477C51.4055 52.4537 50.7465 52.4547 50.0885 52.4617C49.5175 52.4667 48.4345 52.6697 48.1275 52.0057C47.9475 51.6167 48.2055 51.1237 48.2805 50.7357C48.3375 50.4457 48.8925 47.1357 49.0035 47.1687C49.1965 47.2267 49.4715 47.0497 49.5745 47.3677C49.5255 48.2377 48.9195 51.0117 49.0485 51.5397H52.1845C52.2865 51.3467 51.1985 49.2687 50.7965 48.3257C50.5775 47.8127 50.2695 47.3307 50.0155 46.8347C49.8885 46.5867 49.1745 45.1457 50.1175 45.4597C50.3585 45.5397 51.3095 47.5057 51.6235 48.1517C51.9375 48.7997 52.2425 49.4527 52.5605 50.0997C52.7105 50.4077 52.9535 50.7897 53.0825 51.1737" fill="#752A86"/><path id="Fill 26" fill-rule="evenodd" clip-rule="evenodd" d="M37.0268 50.8016V50.8036C37.0278 50.8036 37.0278 50.8056 37.0308 50.8056L37.0268 50.8016Z" fill="#523E8C"/><g id="Group"><rect id="Rectangle" x="37.1899" y="44.4041" width="8" height="17" rx="4" transform="rotate(10 37.1899 44.4041)" fill="#f4c9f5"/><path id="Fill 44" fill-rule="evenodd" clip-rule="evenodd" d="M43.0854 57.1585C38.0054 56.7165 35.7192 49.4616 35.7192 49.4616L43.984 51.9484L43.0854 57.1585Z" fill="#d569da"/></g><path id="Fill 30" fill-rule="evenodd" clip-rule="evenodd" d="M29.4154 43.7752C29.0024 45.5592 30.1114 47.3372 31.8934 47.7512C33.6754 48.1632 35.4534 47.0522 35.8664 45.2722C36.2794 43.4902 35.1684 41.7122 33.3874 41.2992C31.6064 40.8862 29.8274 41.9942 29.4154 43.7752" fill="#f4c9f5"/><path id="Fill 32" fill-rule="evenodd" clip-rule="evenodd" d="M33.5461 45.744C33.5461 45.744 34.0871 43.406 31.7671 43.256Z" fill="#d569da"/><path id="Fill 34" fill-rule="evenodd" clip-rule="evenodd" d="M41.1134 52.8983V52.8983C45.3124 53.5813 49.3094 50.8253 49.9834 47.4153L51.5244 39.3583C52.3654 35.0853 50.2054 30.9973 45.9614 30.0123C41.6164 29.0063 35.9754 31.4503 34.9684 35.7943L33.8014 42.2883C32.8974 47.3103 36.1424 51.7463 41.1134 52.8983" fill="#f4c9f5"/><path id="Fill 36" fill-rule="evenodd" clip-rule="evenodd" d="M46.3579 38.5311C47.5709 37.9591 48.6679 37.1651 49.5119 36.1291C49.5109 36.1311 50.7969 37.7581 50.9509 37.9601C51.5139 38.7001 51.5659 39.8641 51.3189 40.7271C51.4099 40.4111 51.8189 40.0321 51.9829 39.7281C52.1789 39.3621 52.3409 38.9771 52.4679 38.5811C52.7229 37.7861 52.8369 36.9471 52.8169 36.1131C52.7779 34.5051 52.2299 32.6931 51.0829 31.5171C50.8379 31.2651 50.5129 31.1591 50.2329 30.9541C49.7979 30.6341 49.3769 30.3111 48.9069 30.0391C48.6009 29.8611 48.3619 29.6981 48.0179 29.6751C47.8469 29.6631 47.6769 29.6381 47.5099 29.6041C47.1599 29.5321 46.8199 29.4161 46.4879 29.2831C45.9589 29.0721 45.4559 28.7951 44.9229 28.5931C44.8149 28.5511 44.7139 28.5121 44.5969 28.5031C44.3959 28.4871 44.2059 28.5091 44.0029 28.4761C43.3929 28.3791 42.7859 28.2721 42.1739 28.1921C41.4129 28.0911 40.6469 28.0201 39.8789 28.0081C39.1939 27.9981 38.3909 27.9651 37.7329 28.1821C37.5329 28.2481 37.3559 28.3651 37.1579 28.4391C36.8679 28.5461 36.5569 28.5911 36.2629 28.6901C35.0879 29.0841 34.0519 29.8511 33.2749 30.8091C32.2269 32.0971 31.6259 33.7041 31.3389 35.3401C31.0989 36.7111 31.0709 38.1181 31.2529 39.4981C31.2999 39.8531 31.3589 40.2081 31.4349 40.5591C31.4789 40.7591 31.5189 40.9851 31.6879 41.1201C31.8169 41.2251 31.9899 41.2451 32.1489 41.2691C32.6289 41.3431 33.1069 41.4241 33.4899 41.7581C33.6949 41.9371 33.9589 42.1201 34.0229 42.3891C34.0759 42.6121 34.0099 42.8391 34.0969 43.0721C34.7019 42.1381 35.3069 41.2051 35.9119 40.2721C36.0409 40.0721 36.1779 39.8651 36.3849 39.7481C36.6429 39.6021 36.9589 39.6221 37.2539 39.6441C39.4609 39.8101 41.7029 39.8561 43.8629 39.3761C44.7179 39.1851 45.5629 38.9061 46.3579 38.5311" fill="#ff88cf"/><path id="Fill 40" fill-rule="evenodd" clip-rule="evenodd" d="M38.2373 42.7889V42.7909C38.2363 42.7909 38.2363 42.7929 38.2353 42.7929L38.2373 42.7889Z" fill="#5F4596"/><path id="Fill 42" fill-rule="evenodd" clip-rule="evenodd" d="M50.9321 43.1043V43.1063H50.9341L50.9321 43.1043Z" fill="#5F4596"/><path id="Fill 44" fill-rule="evenodd" clip-rule="evenodd" d="M33.2251 38.328C32.7811 38.328 32.3371 38.286 31.8991 38.198C31.7641 38.17 31.6761 38.038 31.7031 37.903C31.7301 37.768 31.8641 37.679 31.9971 37.707C35.0381 38.32 38.3931 36.569 39.6321 33.725C39.6881 33.599 39.8361 33.542 39.9611 33.596C40.0881 33.651 40.1451 33.798 40.0901 33.925C38.9391 36.567 36.0871 38.328 33.2251 38.328" fill="#e74bb1"/><path id="Fill 46" fill-rule="evenodd" clip-rule="evenodd" d="M30.1547 51.1737C30.0697 51.4257 30.0317 51.6787 30.1007 51.9117C30.2657 52.4747 30.6767 52.4437 31.1747 52.4477C31.8327 52.4537 32.4907 52.4547 33.1487 52.4617C33.7197 52.4667 34.8027 52.6697 35.1097 52.0057C35.2897 51.6167 35.0327 51.1237 34.9567 50.7357C34.8997 50.4457 34.3447 47.1357 34.2337 47.1687C34.0407 47.2267 33.7657 47.0497 33.6637 47.3677C33.7117 48.2377 34.3177 51.0117 34.1887 51.5397H31.0527C30.9507 51.3467 32.0387 49.2687 32.4407 48.3257C32.6597 47.8127 32.9677 47.3307 33.2217 46.8347C33.3487 46.5867 34.0627 45.1457 33.1207 45.4597C32.8787 45.5397 31.9277 47.5057 31.6137 48.1517C31.2997 48.7997 30.9947 49.4527 30.6767 50.0997C30.5267 50.4077 30.2837 50.7897 30.1547 51.1737" fill="#752A86"/><path id="Fill 48" fill-rule="evenodd" clip-rule="evenodd" d="M37.6934 39.7962C37.7284 39.7832 37.1364 38.6992 37.0764 38.6052C36.9554 38.4152 36.8254 38.2312 36.6874 38.0522C36.6004 37.9412 36.5024 37.7782 36.3624 37.7242C35.8884 37.5412 35.8264 38.7182 35.8234 38.9552C35.8214 39.1562 35.8444 39.3542 35.8714 39.5532C35.9084 39.8312 35.9164 40.1372 35.9884 40.4062C36.2734 40.3482 36.5654 40.2022 36.8394 40.1032C37.1244 40.0012 37.4084 39.8982 37.6934 39.7962" fill="#752A86"/><path id="Fill 50" fill-rule="evenodd" clip-rule="evenodd" d="M38.9492 33.5174V33.5194C38.9482 33.5194 38.9482 33.5214 38.9472 33.5214L38.9492 33.5174Z" fill="#5F4596"/><path id="Fill 52" fill-rule="evenodd" clip-rule="evenodd" d="M51.644 33.8329V33.8349H51.646L51.644 33.8329Z" fill="#5F4596"/><path id="Fill 54" fill-rule="evenodd" clip-rule="evenodd" d="M46.3898 33.0907L44.7148 32.8687L44.7818 32.3567L46.4568 32.5777L46.3898 33.0907Z" fill="black"/><path id="Fill 56" fill-rule="evenodd" clip-rule="evenodd" d="M38.0694 34.2049C38.8314 36.0609 40.8914 36.9749 42.6734 36.2449C44.4544 35.5149 45.2794 33.4179 44.5194 31.5589C43.7564 29.7029 38.6794 29.5239 36.8984 30.2539C36.8984 30.2539 37.3064 32.3459 38.0694 34.2049" fill="#1A1547"/><path id="Fill 58" fill-rule="evenodd" clip-rule="evenodd" d="M38.4105 34.0653C39.0935 35.7293 40.9435 36.5553 42.5325 35.9033C44.1215 35.2523 44.8595 33.3663 44.1775 31.7003C43.5515 30.1773 39.1975 29.9373 37.3265 30.4953C37.4695 31.1403 37.8415 32.6793 38.4105 34.0653M41.4025 36.8643C39.8575 36.8643 38.3685 35.9093 37.7265 34.3453C36.9595 32.4743 36.5525 30.4123 36.5355 30.3253L36.4775 30.0273L36.7575 29.9123C38.5505 29.1763 43.9705 29.2513 44.8605 31.4193C45.6975 33.4633 44.7785 35.7813 42.8125 36.5873C42.3525 36.7753 41.8745 36.8643 41.4025 36.8643" fill="black"/><path id="Fill 60" fill-rule="evenodd" clip-rule="evenodd" d="M38.308 34.1073C39.014 35.8283 40.927 36.6803 42.575 36.0063C44.22 35.3323 44.985 33.3813 44.28 31.6583C43.626 30.0633 39.047 29.8163 37.197 30.4203C37.322 30.9983 37.704 32.6363 38.308 34.1073M41.403 36.7533C39.901 36.7533 38.454 35.8243 37.829 34.3033C37.066 32.4413 36.661 30.3903 36.644 30.3033L36.603 30.0953L36.8 30.0153C38.566 29.2923 43.89 29.3473 44.758 31.4613C45.571 33.4483 44.68 35.7023 42.771 36.4843C42.324 36.6673 41.861 36.7533 41.403 36.7533" fill="black"/><path id="Fill 62" fill-rule="evenodd" clip-rule="evenodd" d="M46.4891 32.5467C45.8781 34.3307 46.7721 36.2527 48.4831 36.8387C50.1941 37.4237 52.0771 36.4507 52.6881 34.6657C53.2991 32.8817 53.4561 31.2027 53.4561 31.2027C51.4431 30.3907 47.1001 30.7617 46.4891 32.5467" fill="#1A1547"/><path id="Fill 64" fill-rule="evenodd" clip-rule="evenodd" d="M50.9133 31.0497C49.8063 31.0497 48.6613 31.2417 47.8453 31.6137C47.2533 31.8847 46.8683 32.2367 46.7333 32.6307V32.6317C46.4593 33.4307 46.5003 34.2837 46.8493 35.0337C47.1963 35.7797 47.8063 36.3347 48.5663 36.5947C50.1413 37.1327 51.8793 36.2297 52.4433 34.5827C52.9163 33.1977 53.1153 31.8637 53.1763 31.3747C52.5443 31.1567 51.7393 31.0497 50.9133 31.0497M49.5003 37.2667C49.1343 37.2677 48.7633 37.2087 48.3993 37.0837C47.5043 36.7777 46.7873 36.1267 46.3803 35.2517C45.9753 34.3797 45.9273 33.3897 46.2443 32.4637C46.4293 31.9247 46.8953 31.4807 47.6303 31.1437C49.2493 30.4037 51.9613 30.3217 53.5523 30.9637L53.7313 31.0357L53.7133 31.2277C53.7063 31.2977 53.5453 32.9577 52.9323 34.7497C52.4053 36.2887 50.9913 37.2667 49.5003 37.2667" fill="black"/><path id="Fill 66" fill-rule="evenodd" clip-rule="evenodd" d="M36.8871 30.9417L30.2661 33.7377L32.8631 34.1747L37.3251 32.7067C37.3971 32.4407 36.9631 31.3267 36.8871 30.9417" fill="black"/></g></g></g></g><g id="Upper Body" transform="translate(19 26) scale(1 1)"><g id="Upper Body/Backpacker Holding Map"><g id="Upper"><g id="Group 3"><mask id="mask0cabf1faa-6b0d-4764-807c-8ae945a20677" style="mask-type:alpha" maskUnits="userSpaceOnUse" x="32" y="39" width="47" height="54" fill="#ffffff"><path id="Clip 2" fill-rule="evenodd" clip-rule="evenodd" d="M32 39.3912H78.1663V92.1399H32V39.3912Z" fill="#ffffff"/></mask><g mask="url(#mask0cabf1faa-6b0d-4764-807c-8ae945a20677)"><path id="Fill 1" fill-rule="evenodd" clip-rule="evenodd" d="M62.2117 54.8967C53.0221 53.5794 39.6591 52.8207 36.0681 59.2477C32.4761 65.6737 29.7341 87.5624 36.0681 90.9724C42.4021 94.3844 68.2511 89.7064 75.4911 84.8084C82.7311 79.9104 75.4911 57.0444 75.4911 57.0444C75.4911 57.0444 71.4013 56.2141 62.2117 54.8967Z" fill="#FF8A88"/></g></g><path id="Fill 14" fill-rule="evenodd" clip-rule="evenodd" d="M96.2464 79.0077C96.2424 79.0067 92.8314 77.4857 92.8314 77.4857C93.8584 77.5377 94.9674 77.4297 96.1294 77.1747C97.2924 76.9197 98.5064 76.5197 99.7344 76.0197C100.965 75.5227 102.211 74.9277 103.466 74.2777C104.722 73.6247 105.984 72.9197 107.265 72.1797C109.146 71.0977 111.548 71.7457 112.629 73.6257C113.661 75.4177 113.109 77.6917 111.426 78.8377C110.159 79.6977 108.863 80.5517 107.513 81.3827C106.16 82.2167 104.755 83.0267 103.255 83.7687C101.755 84.5097 100.157 85.1867 98.4244 85.7107C96.6924 86.2317 94.8134 86.5947 92.8404 86.6537C91.5774 86.6927 90.4244 86.1797 89.6134 85.3317L89.4244 85.1327C89.4244 85.1327 71.5084 66.2477 71.4924 66.2307C69.8774 64.5277 69.6234 61.9937 70.7284 59.9567C72.1194 57.3937 74.3004 57.6827 76.7394 58.1637C80.7654 58.9597 83.7564 64.2997 86.2684 67.2587C89.0274 70.5067 91.7854 73.7557 94.5444 77.0017C94.9524 77.4837 95.6534 78.7447 96.2464 79.0077" fill="#f4c9f5"/><path id="Fill 16" fill-rule="evenodd" clip-rule="evenodd" d="M49.5429 82.0907C49.7029 83.3837 49.6209 84.6277 49.7659 85.9107C49.9369 87.4327 50.1069 88.9547 50.2789 90.4777C50.6209 93.5217 50.9639 86.5657 51.3069 89.6097C51.3509 90.0057 51.4009 90.4187 51.6249 90.7487C51.8679 91.1087 52.2799 91.3137 52.6849 91.4757C54.4439 92.1817 56.3649 92.3567 58.2569 92.4847C65.7949 92.9957 73.3759 92.8747 80.8939 92.1247C82.7149 82.6627 82.1669 82.9247 81.6119 73.3057C81.4839 71.0877 81.5289 68.7587 81.1259 66.5837C81.1049 66.6307 81.1069 66.6777 81.1119 66.7277C81.1069 66.6807 81.0999 66.6337 81.0969 66.5867C81.0939 66.5627 81.0909 66.5387 81.0889 66.5137C81.0839 66.4417 81.0799 66.3747 81.0749 66.3037C81.0579 66.0477 81.0409 65.7987 81.0259 65.5577C80.9199 63.8747 80.8699 62.5527 80.5869 61.4707C80.5049 61.1617 80.4039 60.8707 80.2789 60.5967C79.9009 59.7767 79.2889 59.1037 78.2629 58.5037C77.6359 58.1357 76.8549 57.7957 75.8769 57.4617C73.7999 56.7537 71.6679 56.8007 69.4579 56.7957C68.2579 56.7927 67.4159 56.6387 66.2249 56.8257C65.5149 56.9367 64.8029 56.8677 64.1199 56.6477C63.2569 56.3697 62.4109 55.9367 61.5939 55.5457C61.2799 55.3957 61.0169 55.1697 60.6899 55.0427C60.1739 54.8417 59.6149 54.7117 59.0809 54.5637C56.9289 53.9687 54.6589 53.5417 52.4319 53.9477C51.1859 54.1747 49.9999 54.6547 48.8419 55.1677C48.4789 55.3297 48.1059 55.5017 47.8329 55.7907C47.4959 56.1477 47.3509 56.6387 47.2159 57.1097C46.9089 58.1797 46.7229 59.4407 46.2079 60.4287C46.0479 60.7367 45.8579 60.9857 45.7859 61.3337C45.5919 62.2727 45.6799 63.3277 45.7719 64.2737C45.9109 65.7057 46.2319 67.1167 46.6469 68.4937C47.0559 69.8417 47.4329 71.2377 47.7719 72.6347C47.8179 72.8227 47.8649 73.0087 47.9079 73.1987C47.9759 73.4867 48.0429 73.7737 48.1099 74.0647C48.7119 76.7147 49.2079 79.3927 49.5429 82.0907" fill="#f4c9f5"/><path id="Fill 18" fill-rule="evenodd" clip-rule="evenodd" d="M120.617 70.598C119.855 72.153 115.808 75.025 114.829 76.105C113.848 77.178 109.632 79.405 109.632 79.405L106.337 76.263C106.337 76.263 105.836 75.348 107.197 72.27C108.55 69.187 110.895 64.009 111.838 64.106C112.748 64.202 112.127 68.145 111.969 68.977L111.952 69.056C111.94 69.105 111.966 69.104 112.03 69.068C112.736 68.621 117.938 62.773 118.763 63.29C119.013 63.45 119.332 63.979 119.642 64.687C119.661 64.736 119.682 64.784 119.703 64.841C119.922 65.364 120.138 65.977 120.316 66.606C120.337 66.662 120.349 66.715 120.363 66.775C120.535 67.405 120.674 68.05 120.748 68.637C120.753 68.702 120.761 68.759 120.764 68.818C120.846 69.558 120.815 70.2 120.617 70.598" fill="#f4c9f5"/><path id="Fill 42" fill-rule="evenodd" clip-rule="evenodd" d="M67.5534 54.3278C67.5534 54.3278 61.0647 53.991 60.9997 54.009C60.1267 54.248 59.1018 54.486 58.2278 54.725C57.0048 55.059 55.7828 55.393 54.5608 55.727C54.0888 55.856 53.6178 55.985 53.1468 56.114C52.9988 56.154 52.8288 56.178 52.6878 56.239C52.3178 56.397 53.0348 57.02 53.1808 57.181C54.3678 58.497 55.8218 59.565 57.4168 60.336C59.0128 61.108 60.7528 61.585 62.5208 61.722C63.4028 61.79 64.2928 61.773 65.1708 61.665C65.3858 61.639 65.5958 61.603 65.8108 61.593C66.0218 61.582 66.2098 61.507 66.4118 61.443L67.7438 61.02C70.0098 60.393 73.7118 59.369 75.9778 58.742L77.1158 58.472C77.6248 58.352 77.6308 57.631 77.1258 57.501L69.7098 55.594C69.4678 55.532 68.9373 55.1962 69.0847 54.4003L67.5534 54.3278Z" fill="#f4c9f5"/><path id="Fill 20" fill-rule="evenodd" clip-rule="evenodd" d="M56.1365 63.7586C56.0595 64.1916 56.0135 64.6106 56.0665 65.0936C56.2175 66.4616 55.6565 67.9586 55.0675 69.1596C54.3065 70.7146 53.2015 72.0876 51.8695 73.1496C51.2055 73.6786 50.4835 74.1316 49.7185 74.4876C49.3775 74.6476 48.9975 74.7446 48.6415 74.8616C48.2625 74.9866 47.7865 75.2306 47.3855 75.2216C47.0955 77.4746 47.2475 92.2116 47.2585 92.9416H81.3125C81.3125 92.9416 83.0305 84.7946 82.5735 82.4736C81.4545 76.7836 79.3075 71.3766 77.6505 65.8286C77.0955 63.9706 76.5926 62.0726 76.4576 60.1246C76.4116 59.4586 76.5635 58.6186 76.3045 57.9886C75.9405 57.0996 74.6195 57.0786 73.8965 56.9516C72.9785 56.7906 72.0475 56.7036 71.1165 56.6916C71.3665 58.5016 71.2545 60.5176 70.1025 61.9016C68.5575 63.7566 65.5726 63.7176 63.6556 62.2826C61.7395 60.8466 60.7625 58.3866 60.4115 55.9626C60.3515 55.5376 60.2905 55.0776 59.9995 54.7726C59.8245 54.5916 59.5885 54.4896 59.3595 54.3936C58.1995 53.9046 57.0175 53.4226 55.7765 53.2116C55.1725 53.1096 55.3675 53.6896 54.7605 53.7876C54.0745 53.8986 53.8585 53.7966 54.1035 54.1026C55.4505 55.7896 56.2625 57.9206 56.4385 60.0996C56.5155 61.0666 56.4675 62.0456 56.2845 62.9976C56.2345 63.2656 56.1805 63.5136 56.1365 63.7586" fill="#F3F562"/><path id="Fill 22" fill-rule="evenodd" clip-rule="evenodd" d="M58.447 81.367C58.447 81.367 55.201 92.525 47.957 92.941L48.597 91.114C48.597 91.114 52.888 89.878 53.178 84.451L58.447 81.367Z" fill="#191723"/><path id="Fill 24" fill-rule="evenodd" clip-rule="evenodd" d="M57.4312 92.2069C57.4312 92.2069 61.9022 69.1489 60.5172 54.3709C60.3512 52.6069 58.6082 52.4399 56.9102 52.9509L49.7382 53.9539C48.5002 54.3249 49.6752 55.0469 49.7412 56.3369L51.6032 93.0379L57.4312 92.2069Z" fill="#F36260"/><path id="Fill 26" fill-rule="evenodd" clip-rule="evenodd" d="M77.529 62.5125C80.413 70.9435 83.33 79.5745 83.258 88.4835C82.79 84.3715 80.008 80.9525 78.31 77.1785C77.104 74.4965 71.297 60.1675 69.38 55.7575C69.308 55.5935 69.237 55.4185 69.262 55.2415C69.325 54.8045 69.883 54.6705 70.325 54.6385C71.541 54.5515 73.511 54.3545 74.335 55.4955C75.262 56.7805 75.958 58.2835 76.536 59.7515C76.894 60.6615 77.213 61.5865 77.529 62.5125" fill="#F36260"/><path id="Fill 28" fill-rule="evenodd" clip-rule="evenodd" d="M95.9023 65.5946L86.9883 92.5516H97.7933H100.389L107.594 65.1786L107.263 65.1916L95.9023 65.5946Z" fill="#F2E9E1"/><path id="Fill 30" fill-rule="evenodd" clip-rule="evenodd" d="M78.7097 66.0536C78.4697 66.7256 78.2307 67.3976 77.9907 68.0696C76.9287 71.0526 72.3537 85.8106 71.7977 86.9966C71.7117 87.1796 71.6277 87.3996 71.7257 87.5766C71.8047 87.7206 71.9737 87.7826 72.1297 87.8336C77.0727 89.4576 82.0107 91.0346 86.9887 92.5516L95.9027 65.5946L81.4917 62.9986L79.8977 62.7096L78.7097 66.0536Z" fill="#F1D8B3"/><path id="Fill 32" fill-rule="evenodd" clip-rule="evenodd" d="M107.595 65.1786L100.389 92.5516L105.665 89.3996L118.972 61.2106L110.267 64.2476L107.595 65.1786Z" fill="#F1D8B3"/><path id="Fill 34" fill-rule="evenodd" clip-rule="evenodd" d="M57.279 64.1234C57.28 64.2344 57.263 64.3504 57.276 64.4594C57.283 64.5224 57.308 64.5794 57.321 64.6404C57.362 64.8514 57.348 65.0844 57.354 65.2984C57.388 66.4564 57.34 67.6164 57.212 68.7674C57.186 69.0064 57.165 69.2364 57.084 69.4634C57.07 69.5054 57.059 69.5474 57.054 69.5924C57.03 69.8164 57.048 70.0504 57.045 70.2764C57.038 71.0034 57.025 71.7294 57.007 72.4564C56.937 75.3354 56.791 78.2114 56.566 81.0824C56.49 82.0424 56.415 83.0624 56.845 83.9264C58.047 86.3504 63.831 84.9734 65.883 84.7624C66.765 84.6694 67.652 84.5654 68.536 84.4504C68.98 84.3934 69.421 84.3314 69.86 84.2694L70.515 84.1714L71.137 84.0774L71.236 84.0614C73.9 83.6464 76.396 85.4714 76.808 88.1354C77.026 89.5354 78.56 88.5294 77.285 89.2904C72.875 90.1434 68.526 91.7524 64.076 92.3684C59.203 93.0394 49.4 94.5774 46.894 88.7484C46.093 86.8834 46.031 84.7944 45.978 82.7644C45.877 78.9004 45.79 77.0374 45.696 73.1724C45.648 71.2214 45.6 69.2694 45.552 67.3184C45.535 66.5914 45.502 65.8634 45.498 65.1364C45.498 65.0414 45.524 64.9664 45.543 64.8744C45.597 64.6174 45.551 64.3114 45.549 64.0484C45.544 63.4634 45.54 62.8784 45.535 62.2934C45.534 62.0824 45.532 61.8724 45.53 61.6614C45.526 61.1544 45.522 60.6444 45.588 60.1424C45.726 59.1054 46.159 58.1334 46.688 57.2404C46.795 57.0594 46.872 56.9144 46.913 56.7094C46.932 56.6164 46.973 56.5374 47.029 56.4594C47.356 56.0004 47.849 55.6444 48.347 55.3924C48.543 55.2924 48.748 55.2074 48.956 55.1344C49.781 54.8454 50.742 54.7654 51.496 55.2074C51.593 55.2654 51.684 55.3664 51.783 55.4144C51.826 55.4344 51.876 55.4374 51.923 55.4474C52.029 55.4684 52.133 55.4974 52.237 55.5314C52.443 55.6004 52.64 55.6934 52.83 55.8004C53.214 56.0184 53.564 56.2924 53.908 56.5694C54.617 57.1414 55.327 57.7344 55.841 58.4854C56.685 59.7164 56.929 61.2494 57.144 62.7264C57.208 63.1904 57.278 63.6544 57.279 64.1234Z" fill="#f4c9f5"/><path id="Fill 36" fill-rule="evenodd" clip-rule="evenodd" d="M82.1247 82.4872C82.1247 82.4872 83.4687 82.5942 83.0987 83.6132C82.8077 84.4012 82.2167 84.5932 82.2167 84.5932C82.2167 84.5932 83.5697 85.1842 82.5537 86.5392C81.9237 87.3792 77.0567 89.6792 74.4297 90.1282C71.8067 90.5782 65.9857 93.3372 67.9487 89.8342C67.9487 89.8342 74.3417 77.6462 77.8307 76.4282C81.3187 75.2112 81.7457 77.4552 81.7977 77.8272C81.8077 77.8922 81.8127 77.9472 81.8157 77.9992C82.2257 78.0812 82.6537 78.3642 82.6807 79.1762C82.6937 79.6882 82.5617 79.9652 82.3927 80.1122C82.0157 80.1502 81.7167 80.2322 81.7167 80.2322C81.7167 80.2322 82.1077 80.3532 82.3927 80.1122C83.0217 80.0462 83.3367 80.4452 83.4437 81.1642C83.5797 82.0732 82.1247 82.4872 82.1247 82.4872" fill="#f4c9f5"/><path id="Fill 38" fill-rule="evenodd" clip-rule="evenodd" d="M42.9742 90.1415C42.9592 90.1415 42.9452 90.1405 42.9302 90.1375C42.8042 90.1125 42.7222 89.9915 42.7452 89.8655C44.6432 80.0375 40.6822 59.7295 40.6422 59.5255C40.6172 59.3995 40.6992 59.2775 40.8252 59.2525C40.9582 59.2265 41.0732 59.3095 41.0972 59.4355C41.1382 59.6415 45.1172 80.0375 43.2032 89.9535C43.1812 90.0645 43.0832 90.1415 42.9742 90.1415" fill="#D75000"/></g></g></g><g id="Facial Expression" transform="translate(78 58) scale(1 1)"><g id="Facial Expression/Wink"><g id="Expression"><path id="Fill 1" fill-rule="evenodd" clip-rule="evenodd" d="M12.4531 10.5846C12.4551 10.5616 12.4531 10.5386 12.4491 10.5176C12.3911 10.2436 12.0901 10.1466 11.9061 9.97463C11.7091 9.79063 11.6271 9.53763 11.6311 9.27263C11.6411 8.71263 11.6181 8.15363 11.6091 7.59463C11.3381 7.59063 11.3031 7.75763 11.3091 7.98063C11.3171 8.29263 11.3941 8.60463 11.3561 8.91763C11.3161 9.24463 11.2221 9.51063 11.2631 9.85163C11.3011 10.1726 11.4531 10.3106 11.6431 10.5426C11.7841 10.7166 11.6191 10.8566 11.5111 10.9796C11.3791 11.1286 11.2011 11.2866 11.4091 11.4696C11.5901 11.6296 11.7371 11.4586 11.8711 11.3316C12.0491 11.1616 12.4321 10.8376 12.4531 10.5846" fill="#6F53CD"/><path id="Fill 3" fill-rule="evenodd" clip-rule="evenodd" d="M3.92288 7.35414C3.90188 7.46614 4.32388 7.77714 4.39588 7.83614C4.59988 8.00414 4.82188 8.14714 5.04388 8.29114C5.50288 8.58814 5.65188 8.21514 5.99588 7.96514C6.18888 7.82514 6.39388 7.68614 6.63088 7.63414C7.48488 7.45114 8.41088 8.06414 8.80088 8.80914C8.89688 8.99014 9.04688 9.03414 9.22788 8.94914C9.40588 8.86714 9.49188 8.69914 9.42688 8.53414C9.19788 7.94514 8.72588 7.53814 8.16088 7.26814C7.80388 7.09614 7.51488 6.99914 7.51188 6.53714C7.50988 6.35514 7.46788 6.20114 7.26588 6.22614C7.04988 6.25314 7.15388 6.44714 7.14688 6.57514C7.13588 6.74214 7.21588 6.96214 7.00388 7.03814C6.95288 7.05614 6.89888 7.05714 6.84488 7.05914C6.63788 7.06714 6.43188 7.09614 6.23188 7.14514C6.19588 7.15414 6.15988 7.16314 6.12388 7.15714C5.99288 7.13414 5.75988 6.44114 5.58288 6.46914C5.55188 6.47214 5.52188 6.47514 5.49088 6.47814C5.28688 6.58414 5.35688 6.74314 5.45888 6.91114C5.55288 7.06614 5.64188 7.19114 5.66388 7.37214C5.53688 7.43014 5.33788 7.70814 5.20188 7.70814C4.96988 7.76614 4.66288 7.43714 4.50788 7.29314C4.37888 7.17314 4.32488 7.04914 4.12588 7.11814C3.96588 7.17314 3.94388 7.23514 3.92288 7.35414" fill="#6F53CD"/><g id="Group 7"><mask id="mask067f65e1c-a258-4271-9b30-abbb8b8ce35a" style="mask-type:alpha" maskUnits="userSpaceOnUse" x="12" y="6" width="7" height="3" fill="#ffffff"><path id="Clip 6" fill-rule="evenodd" clip-rule="evenodd" d="M12.5378 6.00003H18.4395V8.96773H12.5378V6.00003Z" fill="#ffffff"/></mask><g mask="url(#mask067f65e1c-a258-4271-9b30-abbb8b8ce35a)"><path id="Fill 5" fill-rule="evenodd" clip-rule="evenodd" d="M18.2284 6.95472C18.0474 6.93072 17.8044 7.08872 17.6694 7.22472C17.5234 7.37172 17.3744 7.53572 17.1724 7.58772C16.9624 7.64172 16.8534 7.38872 16.7104 7.28772C16.5674 7.18572 16.5354 7.23172 16.6094 7.03472C16.6714 6.87172 16.7624 6.71472 16.8374 6.55772C16.8604 6.51072 16.8824 6.46172 16.8824 6.41072C16.8794 6.27872 16.7594 6.27872 16.6654 6.26472C16.4154 6.22472 16.3984 6.54272 16.3054 6.71172C16.2564 6.79972 16.2054 6.89072 16.1244 6.94972C16.1044 6.96372 16.0824 6.97572 16.0594 6.97772C16.0324 6.98072 16.0054 6.97172 15.9804 6.96172C15.7454 6.87672 15.4954 6.83372 15.2454 6.83372C15.1764 6.83372 15.1034 6.83672 15.0434 6.80372C14.9214 6.73672 14.9964 6.49472 14.9894 6.37772C14.9804 6.24072 15.0924 6.03172 14.8604 6.00272C14.6444 5.97572 14.5984 6.14272 14.5974 6.33672C14.5944 6.72272 14.4154 6.95472 14.0234 7.07672C13.6054 7.20672 13.1694 7.48872 12.9094 7.84772C12.8404 7.94272 12.7854 8.04772 12.7314 8.15172C12.5904 8.42272 12.3654 8.74172 12.7564 8.92372C12.9514 9.01372 13.1124 8.96672 13.2144 8.77272C13.5324 8.16672 14.1444 7.66972 14.8134 7.51172C15.6374 7.31572 16.2584 7.81572 16.8134 8.37172C17.1644 8.53372 17.6034 8.03772 17.8144 7.82572C17.9664 7.67172 18.1044 7.49772 18.2664 7.35372C18.3274 7.29972 18.4284 7.25572 18.4384 7.17972C18.4534 7.07572 18.3184 6.96772 18.2284 6.95472" fill="#6F53CD"/></g></g><path id="Fill 8" fill-rule="evenodd" clip-rule="evenodd" d="M16.4971 8.17293C16.0951 7.77293 15.6141 7.49793 15.0661 7.34493C14.9751 7.31993 14.8431 7.27893 14.7801 7.35593C14.7191 7.42993 14.7911 7.54693 14.8271 7.63493C14.9271 7.88393 14.9301 7.87293 14.6721 7.93993C14.5331 7.97593 14.3061 7.97193 14.3511 8.19493C14.3921 8.40193 14.5971 8.33793 14.7481 8.33193C14.7901 8.32993 14.8321 8.31293 14.8721 8.29893C15.0631 8.23093 15.2211 8.24293 15.3071 8.46093C15.3651 8.60993 15.4961 8.65993 15.6381 8.64293C15.8921 8.61293 16.1491 8.59193 16.3081 8.54093C16.6181 8.41993 16.6551 8.32993 16.4971 8.17293M12.3291 8.93393C12.2451 8.55393 12.5271 8.17993 12.7681 7.91493C12.8861 7.78393 13.0111 7.65893 13.1441 7.54393C13.7041 7.06293 14.3931 6.82193 15.1321 6.93293C15.6131 7.00593 16.0461 7.23193 16.4211 7.53593C16.6711 7.73993 16.7821 7.81593 17.1171 7.67093C17.3631 7.56393 17.5591 7.36293 17.7691 7.20193C17.9131 7.09293 18.0731 6.97893 18.2521 6.98893C18.3161 6.99293 18.3831 7.01693 18.4171 7.07093C18.4631 7.14393 18.4321 7.23993 18.3891 7.31493C18.2481 7.55893 18.0071 7.72293 17.7731 7.87893C17.3471 8.16393 16.8731 8.98493 16.2881 8.96293C16.0651 8.95393 15.8521 9.02193 15.6361 9.05793C14.9841 9.16993 14.3351 9.28893 13.6711 9.30593C13.4621 9.31193 13.1811 9.37293 12.9281 9.36693C12.6481 9.35993 12.4031 9.27193 12.3291 8.93393" fill="#6F53CD"/><path id="Fill 10" fill-rule="evenodd" clip-rule="evenodd" d="M16.3075 8.54113C16.6185 8.42013 16.6545 8.33013 16.4965 8.17313C16.0945 7.77213 15.6135 7.49813 15.0665 7.34513C14.9745 7.32013 14.8425 7.27913 14.7805 7.35613C14.7195 7.43013 14.7905 7.54713 14.8265 7.63513C14.9265 7.88413 14.9295 7.87313 14.6725 7.94013C14.5335 7.97613 14.3065 7.97213 14.3505 8.19513C14.3915 8.40113 14.5965 8.33713 14.7475 8.33213C14.7895 8.33013 14.8315 8.31313 14.8715 8.29913C15.0625 8.23113 15.2205 8.24313 15.3065 8.46113C15.3655 8.60913 15.4955 8.66013 15.6375 8.64313C15.8915 8.61313 16.1495 8.59213 16.3075 8.54113" fill="white"/><path id="Fill 12" fill-rule="evenodd" clip-rule="evenodd" d="M11.1359 14.3819C11.1459 14.3769 11.1559 14.3699 11.1659 14.3649C11.3119 14.2909 11.5529 14.2949 11.5339 14.0649C11.5129 13.8219 11.2729 13.8959 11.1169 13.8539C10.2529 14.0839 9.49286 13.8479 8.79686 13.3309C8.60286 13.3019 8.37986 13.0019 8.22486 13.3039C8.06786 13.6119 8.44086 13.6309 8.58586 13.7729C8.67686 13.8609 8.82886 13.8579 8.89886 13.9799C9.61186 14.2959 10.3509 14.4699 11.1359 14.3819" fill="#6F53CD"/><path id="Fill 14" fill-rule="evenodd" clip-rule="evenodd" d="M11.1357 14.3819C10.3507 14.4699 9.61168 14.2959 8.89868 13.9799C8.92968 14.1999 8.98968 14.4149 9.09768 14.6059C9.37068 15.0889 9.79868 15.2549 10.3287 15.1379C10.7397 15.0479 11.0387 14.8179 11.1357 14.3819" fill="#FA8CD5"/><path id="Fill 16" fill-rule="evenodd" clip-rule="evenodd" d="M8.79639 13.3312C9.49239 13.8482 10.2524 14.0832 11.1164 13.8532C11.0144 13.3702 10.7074 13.1782 10.2234 13.1522C9.73139 13.1252 9.26139 13.1842 8.79639 13.3312" fill="#FA8CD5"/><path id="Fill 18" fill-rule="evenodd" clip-rule="evenodd" d="M6.43849 11.2022C6.20649 11.5272 5.83949 11.7542 5.44849 11.8472C4.99649 11.9542 4.51549 11.8962 4.07849 11.7392C3.79249 11.6362 3.51449 11.4872 3.31449 11.2572C2.97049 10.8622 2.94749 10.1342 3.06249 9.64324C3.13149 9.34824 3.30149 9.06724 3.56449 8.91824C3.95149 8.69924 4.37249 8.68124 4.79549 8.76024C5.17049 8.82924 5.54949 8.90924 5.88349 9.09224C6.55049 9.45624 6.90649 10.3482 6.53649 11.0442C6.50649 11.0992 6.47449 11.1522 6.43849 11.2022" fill="#FF9DDD"/><path id="Fill 20" fill-rule="evenodd" clip-rule="evenodd" d="M3.66981 10.6451C3.74681 10.6451 3.82281 10.6091 3.87181 10.5421L4.45981 9.73813C4.54081 9.62613 4.51681 9.47013 4.40481 9.38913C4.29381 9.30713 4.13781 9.33113 4.05581 9.44313L3.46781 10.2481C3.38681 10.3591 3.41081 10.5161 3.52281 10.5971C3.56681 10.6291 3.61781 10.6451 3.66981 10.6451" fill="#FFCAF7"/><path id="Fill 22" fill-rule="evenodd" clip-rule="evenodd" d="M5.37199 11.316C5.50399 11.316 5.61399 11.213 5.62199 11.08L5.67799 10.086C5.68399 9.94703 5.57899 9.83003 5.44099 9.82203C5.31399 9.80503 5.18499 9.92003 5.17799 10.057L5.12199 11.052C5.11399 11.19 5.22099 11.308 5.35799 11.316C5.36299 11.316 5.36699 11.316 5.37199 11.316" fill="#FFCAF7"/><path id="Fill 24" fill-rule="evenodd" clip-rule="evenodd" d="M4.36724 11.065C4.45824 11.065 4.54524 11.016 4.59024 10.929L5.10824 9.91902C5.17124 9.79602 5.12324 9.64602 5.00024 9.58302C4.87724 9.51902 4.72724 9.56602 4.66324 9.69002L4.14424 10.701C4.08224 10.824 4.13024 10.974 4.25324 11.037C4.29024 11.056 4.32824 11.065 4.36724 11.065" fill="#FFCAF7"/><path id="Fill 26" fill-rule="evenodd" clip-rule="evenodd" d="M13.9844 11.3228C14.1794 11.5958 14.4854 11.7848 14.8144 11.8638C15.1924 11.9528 15.5954 11.9048 15.9614 11.7728C16.2014 11.6868 16.4334 11.5618 16.6014 11.3688C16.8894 11.0378 16.9094 10.4278 16.8134 10.0168C16.7554 9.76982 16.6114 9.53482 16.3914 9.40982C16.0674 9.22582 15.7154 9.21182 15.3604 9.27782C15.0464 9.33582 14.7284 9.40282 14.4484 9.55482C13.8904 9.86082 13.5924 10.6078 13.9024 11.1908C13.9264 11.2368 13.9544 11.2808 13.9844 11.3228" fill="#FF9DDD"/><path id="Fill 28" fill-rule="evenodd" clip-rule="evenodd" d="M16.3036 10.8971C16.3556 10.8971 16.4066 10.8811 16.4506 10.8491C16.5626 10.7681 16.5866 10.6111 16.5056 10.5001L16.0136 9.82614C15.9306 9.71414 15.7746 9.69014 15.6636 9.77214C15.5526 9.85314 15.5286 10.0091 15.6096 10.1211L16.1016 10.7941C16.1506 10.8611 16.2266 10.8971 16.3036 10.8971" fill="#FFCAF7"/><path id="Fill 30" fill-rule="evenodd" clip-rule="evenodd" d="M14.878 11.4591C14.883 11.4591 14.887 11.4591 14.892 11.4591C15.03 11.4511 15.136 11.3331 15.128 11.1951L15.081 10.3621C15.073 10.2241 14.967 10.1051 14.817 10.1261C14.679 10.1341 14.573 10.2521 14.581 10.3901L14.628 11.2231C14.636 11.3561 14.746 11.4591 14.878 11.4591" fill="#FFCAF7"/><path id="Fill 32" fill-rule="evenodd" clip-rule="evenodd" d="M15.7198 11.2486C15.7588 11.2486 15.7978 11.2396 15.8338 11.2206C15.9568 11.1576 16.0048 11.0076 15.9428 10.8846L15.5078 10.0386C15.4448 9.91463 15.2918 9.86663 15.1708 9.93063C15.0478 9.99363 14.9998 10.1436 15.0628 10.2666L15.4968 11.1126C15.5418 11.1996 15.6288 11.2486 15.7198 11.2486" fill="#FFCAF7"/></g></g></g></g></svg>